<svg width="61" height="60" viewBox="0 0 61 60" fill="none" xmlns="http://www.w3.org/2000/svg">
    <path
        d="M38.2112 56.25H23.2112C22.0862 56.25 21.3362 55.5 21.3362 54.375C21.3362 50.25 25.4612 46.875 30.7112 46.875C35.9612 46.875 40.0862 50.25 40.0862 54.375C40.0862 55.5 39.3362 56.25 38.2112 56.25Z"
        fill="white" />
    <path
        d="M30.7112 43.125C33.3362 43.125 35.7737 43.875 37.8362 45C40.4612 40.125 41.9612 32.625 41.9612 25.3125C41.9612 14.625 34.8362 10.3125 31.0862 9.375C30.8987 9.375 30.5237 9.375 30.3362 9.375C26.5862 10.3125 19.4612 14.625 19.4612 25.3125C19.4612 32.4375 20.9612 39.9375 23.5862 45C25.6487 43.875 28.0862 43.125 30.7112 43.125Z"
        fill="white" />
    <path
        d="M13.8362 4.125V15C13.8362 16.125 13.0862 16.875 11.9612 16.875C10.8362 16.875 10.0862 16.125 10.0862 15V4.125C6.89868 5.0625 4.46118 8.8125 4.46118 13.125C4.46118 18.375 7.83618 22.5 11.9612 22.5C16.0862 22.5 19.4612 18.375 19.4612 13.125C19.4612 8.8125 17.0237 5.0625 13.8362 4.125Z"
        fill="white" />
    <path
        d="M51.3362 4.125V15C51.3362 16.125 50.5862 16.875 49.4612 16.875C48.3362 16.875 47.5862 16.125 47.5862 15V4.125C44.3987 5.25 41.9612 8.8125 41.9612 13.125C41.9612 18.375 45.3362 22.5 49.4612 22.5C53.5862 22.5 56.9612 18.375 56.9612 13.125C56.9612 8.8125 54.5237 5.0625 51.3362 4.125Z"
        fill="white" />
    <path
        d="M23.2112 9.375C22.0862 9.375 21.3362 8.625 21.3362 7.5V3.75C21.3362 2.625 22.0862 1.875 23.2112 1.875C24.3362 1.875 25.0862 2.625 25.0862 3.75V7.5C25.0862 8.625 24.3362 9.375 23.2112 9.375Z"
        fill="white" />
    <path
        d="M38.2112 9.375C37.0862 9.375 36.3362 8.625 36.3362 7.5V3.75C36.3362 2.625 37.0862 1.875 38.2112 1.875C39.3362 1.875 40.0862 2.625 40.0862 3.75V7.5C40.0862 8.625 39.3362 9.375 38.2112 9.375Z"
        fill="white" />
    <path
        d="M39.7113 32.9999C38.7738 32.9999 38.0238 32.4374 37.8363 31.4999C37.6488 30.5624 38.3988 29.4374 39.3363 29.2499C44.9613 28.1249 50.0238 26.0624 53.9613 23.2499C54.7113 22.6874 56.0238 22.8749 56.5863 23.6249C57.1488 24.3749 56.9613 25.6874 56.2113 26.2499C51.8988 29.4374 46.2738 31.8749 40.0863 32.9999C40.0863 32.8124 39.8988 32.9999 39.7113 32.9999Z"
        fill="white" />
    <path
        d="M21.7111 32.9999C21.5236 32.9999 21.5236 32.9999 21.3361 32.9999C15.1486 31.8749 9.5236 29.4374 5.2111 26.2499C4.4611 25.6874 4.2736 24.3749 4.8361 23.6249C5.3986 22.8749 6.7111 22.6874 7.4611 23.2499C11.2111 26.0624 16.2736 28.3124 22.0861 29.2499C23.0236 29.4374 23.7736 30.3749 23.5861 31.4999C23.3986 32.2499 22.4611 32.9999 21.7111 32.9999Z"
        fill="white" />
    <path
        d="M38.7736 39.0001C37.8361 39.0001 37.0861 38.2501 36.8986 37.3126C36.7111 36.3751 37.4611 35.4376 38.5861 35.2501C44.3986 34.6876 49.8361 33.3751 54.5236 31.3126C55.4611 30.9376 56.5861 31.3126 56.9611 32.2501C57.3361 33.1876 56.9611 34.3126 56.0236 34.6876C51.1486 36.7501 45.1486 38.2501 39.1486 38.8126C38.7736 39.0001 38.7736 39.0001 38.7736 39.0001Z"
        fill="white" />
    <path
        d="M22.6487 38.9998H22.4612C16.4612 38.2498 10.4612 36.9373 5.58624 34.8748C4.64874 34.4998 4.08624 33.3748 4.64874 32.4373C5.02374 31.4998 6.14874 30.9373 7.08624 31.4998C11.7737 33.3748 17.2112 34.6873 23.0237 35.4373C23.9612 35.6248 24.7112 36.5623 24.7112 37.4998C24.5237 38.2498 23.5862 38.9998 22.6487 38.9998Z"
        fill="white" />
</svg>