<svg width="60" height="60" viewBox="0 0 60 60" fill="none" xmlns="http://www.w3.org/2000/svg">
    <path
        d="M48.0839 14.2438L41.3877 16.6158C41.6711 17.3925 41.839 18.2112 41.839 19.0614C41.839 22.9342 38.7008 26.1249 34.7754 26.1249C31.6687 26.1249 29.0238 24.0888 28.0792 21.3074L4.28564 29.6304H55.7142C55.7142 23.9943 52.9434 18.736 48.0839 14.2438ZM32.7393 14.4851C31.0285 15.2618 29.8005 17.0145 29.8005 19.0192C29.8005 21.7586 32.0466 23.9942 34.7754 23.9942C37.5043 23.9942 39.7504 21.7481 39.7504 19.0192C39.7504 16.2903 37.5463 14.0443 34.7754 14.0443C33.474 10.1294 29.4647 6.73933 29.2652 6.57142C28.8139 6.20413 28.1632 6.24613 27.7958 6.69742C27.4285 7.1487 27.4705 7.79944 27.9218 8.16677C29.0658 9.10089 31.7527 11.7982 32.7393 14.4851ZM4.28564 43.7156H55.7142V53.6759H4.28564V43.7156ZM4.28564 31.7086H55.7142V41.6689H4.28564V31.7086Z"
        fill="white" />
</svg>