<svg width="61" height="61" viewBox="0 0 61 61" fill="none" xmlns="http://www.w3.org/2000/svg">
    <g clip-path="url(#clip0_140_100874)">
        <path fill-rule="evenodd" clip-rule="evenodd"
            d="M48.1465 30.5722C48.1465 35.416 46.4424 39.5517 43.0293 42.9648C39.6113 46.3828 35.4805 48.0917 30.6367 48.0917C25.8125 48.0917 21.6816 46.3876 18.2588 42.9648C14.8408 39.5517 13.1221 35.416 13.1221 30.5722C13.1221 25.7431 14.8359 21.6269 18.2588 18.1992C21.6914 14.7812 25.8174 13.0624 30.6367 13.0624C35.4805 13.0624 39.6113 14.7763 43.0293 18.1992C46.4375 21.6269 48.1465 25.7431 48.1465 30.5722ZM8.625 27.3447C10.1631 26.2949 10.9346 24.9228 10.8027 21.7831V13.7119C10.7881 12.5839 8.74219 12.4472 8.63965 13.7119L8.56152 20.2597C8.55664 21.4853 6.71582 21.5244 6.7207 20.2597L6.79883 13.4872C6.77441 12.2763 4.82129 12.1542 4.79687 13.4872C4.79687 15.3671 4.71875 18.3798 4.71875 20.2597C4.81641 21.4462 3.10742 21.6025 3.15137 20.2597L3.22949 13.5312C3.18555 12.6181 2.17969 12.291 1.49609 12.7206C0.768555 13.1845 0.915039 14.1171 0.885742 14.9033L0.631836 22.6279C0.670898 24.874 1.26172 26.7001 3.01953 27.4765C3.28809 27.5937 3.65918 27.6865 4.08887 27.7499L3.4834 46.5878C3.44922 47.706 4.3623 48.6191 5.43164 48.6191H5.67578C6.88184 48.6191 7.90234 47.5888 7.86816 46.3339L7.33594 27.7451C7.89746 27.6572 8.36133 27.5253 8.625 27.3447ZM52.751 46.0214L52.7217 29.1025C46.7891 25.6747 48.6787 12.4667 54.6162 12.54C61.833 12.623 62.6875 27.4228 56.4814 29.0488L56.9404 46.0898C57.0283 49.3124 52.7559 49.6103 52.751 46.0214ZM40.832 30.5576C40.832 33.3798 39.8408 35.787 37.8437 37.7841C35.8516 39.7714 33.4443 40.7724 30.6221 40.7724C27.8193 40.7724 25.4121 39.7714 23.4199 37.7841C21.4277 35.787 20.4316 33.3798 20.4316 30.5576C20.4316 27.7548 21.4277 25.3476 23.4199 23.3603C25.417 21.373 27.8193 20.372 30.6221 20.372C36.291 20.3769 40.832 24.8837 40.832 30.5576ZM43.2197 30.5576C43.2197 27.0908 41.999 24.1269 39.543 21.6708C37.0869 19.2148 34.1133 17.9941 30.6221 17.9941C27.1406 17.9941 24.1768 19.2148 21.7354 21.6708C19.2793 24.1269 18.0439 27.0908 18.0439 30.5576C18.0439 34.0341 19.2793 36.998 21.7354 39.4638C24.1768 41.9247 27.1406 43.1601 30.6221 43.1601C34.1084 43.1601 37.082 41.9247 39.543 39.4638C41.9941 36.9931 43.2197 34.0292 43.2197 30.5576Z"
            fill="white" />
    </g>
    <defs>
        <clipPath id="clip0_140_100874">
            <rect width="60" height="60" fill="white" transform="translate(0.631836 0.577148)" />
        </clipPath>
    </defs>
</svg>