<svg width="18" height="20" viewBox="0 0 18 20" fill="none" xmlns="http://www.w3.org/2000/svg">
    <path fill-rule="evenodd" clip-rule="evenodd"
        d="M7.10274 13.3114L7.20629 13.3645C7.27717 13.4014 7.33065 13.4647 7.35516 13.5408C7.37968 13.6168 7.37325 13.6995 7.33726 13.7708L5.12518 18.1463C5.10146 18.1916 5.08987 18.2423 5.09153 18.2934C5.09319 18.3445 5.10805 18.3943 5.13466 18.438L5.78629 19.5423C5.81884 19.5963 5.83358 19.6591 5.82841 19.7219C5.82324 19.7847 5.79843 19.8442 5.7575 19.8921C5.71783 19.9406 5.6637 19.9751 5.60302 19.9906C5.54233 20.0061 5.47828 20.0018 5.42023 19.9783C4.52328 19.6239 3.66429 19.1801 2.85624 18.6537C2.80307 18.6199 2.76192 18.5703 2.73866 18.5118C2.7154 18.4532 2.71122 18.3889 2.72672 18.3279C2.74075 18.2666 2.77386 18.2114 2.82127 18.1702C2.86869 18.1289 2.92797 18.1038 2.99057 18.0984L4.2479 17.9822C4.29866 17.9782 4.34749 17.961 4.38953 17.9323C4.43158 17.9036 4.46537 17.8643 4.48755 17.8185L6.69963 13.4435C6.71735 13.4083 6.74186 13.3769 6.77174 13.3512C6.80162 13.3255 6.83629 13.3059 6.87376 13.2937C6.91122 13.2814 6.95074 13.2767 6.99004 13.2797C7.02935 13.2828 7.06766 13.2935 7.10278 13.3115"
        fill="white" />
    <path fill-rule="evenodd" clip-rule="evenodd"
        d="M14.0782 5.39571L11.7893 4.21949L9.46144 3.02337C9.39634 2.98976 9.32112 2.98137 9.25021 2.99981C9.1793 3.01825 9.11769 3.06222 9.07722 3.12329L6.78307 6.53676C6.78124 6.53982 6.77959 6.54185 6.77761 6.54491C5.22526 8.70362 4.83522 10.623 5.6075 12.3031C5.61059 12.3098 5.61346 12.3154 5.61702 12.322C5.91747 12.8632 6.33795 13.3284 6.84617 13.6818C6.85771 13.6904 6.87005 13.6979 6.88303 13.7042L7.01981 13.7746C7.03248 13.7814 7.04575 13.787 7.05946 13.7914C7.67312 14.002 8.2777 14.0699 8.87321 13.9953C8.88055 13.9943 8.88682 13.9933 8.89405 13.9918C10.6964 13.6344 12.0079 12.1884 12.8286 9.65396C12.8296 9.6504 12.8305 9.64784 12.8317 9.64478L14.2237 5.76736C14.249 5.69829 14.2481 5.62238 14.2212 5.55393C14.1944 5.48548 14.1434 5.42919 14.078 5.39567"
        fill="white" />
    <path fill-rule="evenodd" clip-rule="evenodd"
        d="M6.52222 6.91351C7.99135 7.24797 9.31326 7.09587 10.4879 6.4572C11.486 5.81123 12.7106 5.56138 14.2018 5.82959L14.224 5.76738C14.2492 5.6983 14.2483 5.6224 14.2215 5.55394C14.1946 5.48548 14.1437 5.4292 14.0782 5.39569L11.7894 4.21946L9.46137 3.02335C9.39626 2.98975 9.32104 2.98137 9.25013 2.99981C9.17921 3.01825 9.1176 3.06221 9.07711 3.12327L6.78304 6.53674L6.77765 6.54489C6.68867 6.66828 6.60355 6.79164 6.52222 6.91351Z"
        fill="white" />
    <path fill-rule="evenodd" clip-rule="evenodd"
        d="M12.1596 10.0025C10.9249 12.3606 9.38927 13.5616 7.55287 13.6056H7.53176C7.47673 13.6031 7.4219 13.599 7.36714 13.5939C7.13697 13.5732 6.90919 13.5314 6.68668 13.469C6.62576 13.4521 6.56504 13.4333 6.50439 13.4134C6.55258 13.4552 6.60198 13.496 6.65265 13.5363C6.71532 13.5857 6.77987 13.6347 6.84629 13.6816L6.88315 13.704L7.01989 13.7744L7.05951 13.7912C7.1366 13.8177 7.2135 13.8417 7.29028 13.8636C7.80351 14.0148 8.34222 14.0596 8.87337 13.9951C8.88075 13.9941 8.88694 13.9931 8.89417 13.9916C10.6965 13.6342 12.008 12.1882 12.8287 9.65376L12.8318 9.64459L13.6527 7.3584L12.1642 9.99432L12.1597 10.0025"
        fill="white" />
    <path fill-rule="evenodd" clip-rule="evenodd"
        d="M6.77881 8.92491C6.81776 8.91847 6.8576 8.91979 6.89604 8.9288C6.93448 8.9378 6.97076 8.95432 7.0028 8.97739C7.03484 9.00046 7.062 9.02964 7.08273 9.06324C7.10345 9.09685 7.11733 9.13421 7.12357 9.1732C7.1368 9.25196 7.1183 9.33276 7.07212 9.39792C7.02593 9.46308 6.95582 9.5073 6.87712 9.5209C6.83814 9.52725 6.79828 9.52584 6.75984 9.51676C6.7214 9.50769 6.68512 9.49112 6.65309 9.46801C6.62105 9.4449 6.59389 9.4157 6.57316 9.38208C6.55242 9.34846 6.53852 9.31108 6.53225 9.27208C6.51902 9.19336 6.53754 9.1126 6.58376 9.04752C6.62998 8.98243 6.70013 8.93833 6.77881 8.92487"
        fill="white" />
    <path fill-rule="evenodd" clip-rule="evenodd"
        d="M7.69435 11.1608C7.73331 11.1543 7.77315 11.1556 7.81159 11.1646C7.85003 11.1736 7.88631 11.1902 7.91835 11.2132C7.95038 11.2363 7.97755 11.2655 7.99827 11.2991C8.019 11.3327 8.03288 11.3701 8.03911 11.409C8.05234 11.4878 8.03383 11.5686 7.98763 11.6338C7.94143 11.6989 7.8713 11.7432 7.79259 11.7567C7.75364 11.7631 7.71382 11.7618 7.67539 11.7528C7.63697 11.7437 7.60071 11.7272 7.56868 11.7042C7.53665 11.6811 7.50949 11.6519 7.48875 11.6183C7.46802 11.5848 7.45411 11.5474 7.44783 11.5085C7.43451 11.4297 7.45298 11.3488 7.4992 11.2836C7.54541 11.2184 7.6156 11.1743 7.69435 11.1608Z"
        fill="white" />
    <path fill-rule="evenodd" clip-rule="evenodd"
        d="M9.50834 9.99858C9.54733 9.99219 9.5872 9.99356 9.62566 10.0026C9.66412 10.0117 9.70042 10.0282 9.73246 10.0514C9.7645 10.0745 9.79167 10.1037 9.81239 10.1373C9.83311 10.171 9.84699 10.2084 9.85322 10.2474C9.86644 10.3262 9.84793 10.407 9.80172 10.4722C9.75551 10.5373 9.68537 10.5815 9.60665 10.5951C9.56766 10.6014 9.52781 10.6 9.48936 10.591C9.45092 10.5819 9.41465 10.5653 9.38261 10.5422C9.35058 10.5191 9.32341 10.4899 9.30267 10.4563C9.28193 10.4227 9.26802 10.3853 9.26174 10.3463C9.24851 10.2675 9.26703 10.1867 9.31325 10.1215C9.35947 10.0564 9.42961 10.0122 9.50834 9.99858Z"
        fill="white" />
    <path fill-rule="evenodd" clip-rule="evenodd"
        d="M10.5928 8.83651C10.6243 8.83141 10.6565 8.83902 10.6823 8.85766C10.7082 8.8763 10.7256 8.90446 10.7307 8.93593C10.7334 8.95155 10.733 8.96754 10.7295 8.98299C10.726 8.99844 10.7194 9.01305 10.7103 9.02598C10.7011 9.03891 10.6895 9.0499 10.6761 9.05834C10.6627 9.06677 10.6477 9.07247 10.6321 9.07512C10.6165 9.0777 10.6005 9.07717 10.5851 9.07357C10.5698 9.06996 10.5552 9.06335 10.5424 9.05411C10.5296 9.04487 10.5187 9.03318 10.5104 9.01973C10.5021 9.00627 10.4966 8.99131 10.4941 8.9757C10.4888 8.94417 10.4962 8.91184 10.5147 8.88576C10.5332 8.85969 10.5613 8.84198 10.5928 8.83651Z"
        fill="white" />
    <path fill-rule="evenodd" clip-rule="evenodd"
        d="M12.0914 7.23752C12.1226 7.23242 12.1545 7.23353 12.1852 7.24077C12.216 7.24801 12.245 7.26124 12.2706 7.27971C12.2962 7.29819 12.3179 7.32153 12.3345 7.34841C12.3511 7.37529 12.3622 7.40518 12.3672 7.43637C12.3778 7.4994 12.363 7.56407 12.3261 7.61623C12.2891 7.6684 12.233 7.70381 12.1701 7.71474C12.1389 7.71984 12.107 7.71874 12.0763 7.7115C12.0455 7.70426 12.0165 7.69103 11.9909 7.67256C11.9653 7.65409 11.9435 7.63074 11.927 7.60386C11.9104 7.57698 11.8993 7.54709 11.8942 7.5159C11.8836 7.45285 11.8984 7.38815 11.9353 7.33597C11.9723 7.28379 12.0284 7.24839 12.0914 7.23752Z"
        fill="white" />
    <path fill-rule="evenodd" clip-rule="evenodd"
        d="M8.75033 7.98183C8.77372 7.97802 8.79765 7.97887 8.82072 7.98432C8.84379 7.98977 8.86556 7.99972 8.88478 8.0136C8.904 8.02748 8.92029 8.04501 8.93273 8.0652C8.94516 8.08538 8.95349 8.10782 8.95724 8.13123C8.96506 8.17847 8.9539 8.22688 8.9262 8.26594C8.8985 8.30499 8.8565 8.33152 8.80933 8.33975C8.78593 8.34357 8.762 8.34272 8.73892 8.33727C8.71585 8.33183 8.69407 8.32188 8.67485 8.308C8.65562 8.29412 8.63933 8.27659 8.62689 8.2564C8.61446 8.23621 8.60612 8.21376 8.60238 8.19035C8.5944 8.14309 8.6055 8.09459 8.63324 8.0555C8.66097 8.01641 8.70308 7.98991 8.75033 7.98183Z"
        fill="white" />
    <path fill-rule="evenodd" clip-rule="evenodd"
        d="M1.10494 12.2649L2.16867 13.0317C2.21562 13.0659 2.24723 13.1172 2.25668 13.1745C2.26614 13.2319 2.25267 13.2906 2.21918 13.3381L1.45865 14.4103C1.44211 14.4337 1.42111 14.4536 1.39686 14.4688C1.3726 14.484 1.34557 14.4943 1.31732 14.4991C1.28907 14.5038 1.26017 14.5029 1.23227 14.4964C1.20437 14.4899 1.17803 14.478 1.15477 14.4613L0.0909989 13.6945C0.0440435 13.6603 0.0124223 13.609 0.0029578 13.5516C-0.00650668 13.4943 0.00694442 13.4356 0.040409 13.3881L0.800942 12.3159C0.817487 12.2925 0.838494 12.2726 0.862754 12.2574C0.887013 12.2421 0.914045 12.2318 0.942295 12.2271C0.970544 12.2224 0.999452 12.2233 1.02735 12.2298C1.05525 12.2362 1.0816 12.2482 1.10486 12.2649"
        fill="white" />
    <path fill-rule="evenodd" clip-rule="evenodd"
        d="M1.6368 12.6484C1.63843 13.3 1.30051 13.7766 0.623047 14.0781L1.15483 14.4615C1.1781 14.4782 1.20444 14.4901 1.23234 14.4966C1.26023 14.5031 1.28914 14.504 1.31739 14.4993C1.34564 14.4945 1.37267 14.4843 1.39692 14.469C1.42118 14.4538 1.44218 14.4339 1.45872 14.4105L2.21918 13.3383C2.25273 13.2908 2.26624 13.2321 2.25678 13.1747C2.24733 13.1174 2.21567 13.0661 2.16866 13.0319L1.63684 12.6485"
        fill="white" />
    <path fill-rule="evenodd" clip-rule="evenodd"
        d="M15.5879 2.64982C15.6388 2.37019 15.7463 2.10393 15.904 1.86744C16.0616 1.63096 16.266 1.42925 16.5046 1.27475C16.5306 1.25829 16.551 1.2343 16.563 1.20597C16.575 1.17764 16.5782 1.14631 16.5719 1.11617C16.5665 1.08593 16.5519 1.05809 16.5301 1.03639C16.5083 1.0147 16.4804 1.0002 16.4502 0.99484C16.1716 0.942809 15.9066 0.833922 15.6719 0.674972C15.4373 0.516023 15.2378 0.310419 15.0861 0.0709876C15.0701 0.0448288 15.0464 0.0242682 15.0182 0.0121286C14.9901 -1.10405e-05 14.9589 -0.0031322 14.9288 0.00319202C14.8987 0.00880044 14.871 0.0235504 14.8495 0.0454406C14.828 0.0673307 14.8138 0.0952992 14.8087 0.125555C14.7579 0.405203 14.6503 0.671475 14.4926 0.907965C14.335 1.14445 14.1305 1.34615 13.8919 1.50063C13.8659 1.5171 13.8456 1.54109 13.8336 1.56942C13.8215 1.59775 13.8184 1.62907 13.8247 1.6592C13.8301 1.68945 13.8447 1.7173 13.8665 1.739C13.8882 1.7607 13.9161 1.77519 13.9464 1.78053C14.2251 1.83265 14.49 1.94162 14.7247 2.10066C14.9594 2.25969 15.1588 2.46538 15.3105 2.70488C15.3265 2.73097 15.3503 2.75148 15.3784 2.76361C15.4065 2.77574 15.4377 2.77891 15.4677 2.77268C15.4979 2.76687 15.5256 2.75199 15.547 2.73003C15.5685 2.70808 15.5828 2.68009 15.5879 2.64982Z"
        fill="white" />
    <path fill-rule="evenodd" clip-rule="evenodd"
        d="M15.6732 0.675293C15.739 1.38093 15.4225 1.8556 14.7236 2.09931C14.9587 2.25871 15.1585 2.46471 15.3106 2.70452C15.3267 2.73061 15.3504 2.75111 15.3786 2.76324C15.4067 2.77537 15.4379 2.77854 15.4679 2.77231C15.4981 2.7665 15.5257 2.75162 15.5472 2.72966C15.5686 2.70771 15.5829 2.67972 15.588 2.64945C15.6389 2.36982 15.7465 2.10356 15.9041 1.86708C16.0618 1.63059 16.2662 1.42888 16.5047 1.27438C16.5307 1.25792 16.5511 1.23393 16.5631 1.2056C16.5752 1.17727 16.5783 1.14595 16.5721 1.11581C16.5666 1.08556 16.552 1.05772 16.5302 1.03603C16.5085 1.01433 16.4806 0.999829 16.4503 0.994472C16.172 0.942938 15.9074 0.834258 15.6732 0.675293"
        fill="white" />
    <path fill-rule="evenodd" clip-rule="evenodd"
        d="M11.4219 19.766C11.4728 19.4864 11.5803 19.2201 11.738 18.9836C11.8956 18.7472 12.1 18.5455 12.3386 18.391C12.3646 18.3745 12.385 18.3505 12.397 18.3222C12.409 18.2938 12.4121 18.2625 12.4059 18.2324C12.4005 18.2021 12.3859 18.1743 12.3641 18.1526C12.3423 18.1309 12.3144 18.1164 12.2842 18.1111C12.0056 18.0589 11.7407 17.95 11.506 17.7911C11.2714 17.6321 11.0719 17.4266 10.9201 17.1872C10.9041 17.161 10.8804 17.1405 10.8523 17.1283C10.8241 17.1162 10.7929 17.1131 10.7629 17.1194C10.7327 17.125 10.705 17.1398 10.6835 17.1616C10.662 17.1835 10.6478 17.2115 10.6427 17.2418C10.5919 17.5214 10.4843 17.7877 10.3266 18.0242C10.169 18.2607 9.96452 18.4624 9.72593 18.6168C9.69992 18.6333 9.67955 18.6573 9.66753 18.6856C9.65551 18.714 9.65242 18.7453 9.65867 18.7754C9.6641 18.8057 9.67868 18.8335 9.70045 18.8552C9.72221 18.8769 9.75011 18.8914 9.78038 18.8967C10.059 18.9489 10.324 19.0578 10.5587 19.2169C10.7934 19.3759 10.9928 19.5816 11.1445 19.8211C11.1606 19.8472 11.1843 19.8677 11.2124 19.8798C11.2406 19.892 11.2717 19.8951 11.3018 19.8889C11.3319 19.8831 11.3596 19.8682 11.381 19.8462C11.4025 19.8243 11.4168 19.7963 11.4219 19.766Z"
        fill="white" />
    <path fill-rule="evenodd" clip-rule="evenodd"
        d="M11.507 17.7915C11.5727 18.4971 11.2562 18.9718 10.5574 19.2155C10.7925 19.3748 10.9923 19.5808 11.1444 19.8207C11.1604 19.8468 11.1842 19.8673 11.2123 19.8795C11.2405 19.8916 11.2716 19.8948 11.3017 19.8885C11.3318 19.8827 11.3595 19.8678 11.3809 19.8459C11.4024 19.8239 11.4166 19.7959 11.4218 19.7657C11.4726 19.486 11.5802 19.2198 11.7378 18.9833C11.8955 18.7468 12.0999 18.5451 12.3385 18.3906C12.3645 18.3741 12.3848 18.3501 12.3969 18.3218C12.4089 18.2935 12.412 18.2622 12.4058 18.232C12.4003 18.2018 12.3857 18.1739 12.364 18.1522C12.3422 18.1305 12.3143 18.116 12.284 18.1107C12.0057 18.0591 11.7412 17.9505 11.507 17.7915Z"
        fill="white" />
    <path fill-rule="evenodd" clip-rule="evenodd"
        d="M1.7566 5.80555C1.73952 5.75671 1.74243 5.70309 1.76472 5.65638C1.787 5.60968 1.82685 5.57368 1.87557 5.55623C1.8997 5.54781 1.92526 5.54425 1.95078 5.54574C1.9763 5.54724 2.00127 5.55377 2.02425 5.56495C2.04723 5.57614 2.06778 5.59176 2.0847 5.61091C2.10162 5.63007 2.11459 5.65238 2.12286 5.67657L2.40479 6.48773C2.42189 6.53658 2.41897 6.59021 2.39668 6.63692C2.37439 6.68363 2.33452 6.71962 2.28579 6.73705C2.26166 6.74547 2.2361 6.74904 2.21058 6.74754C2.18506 6.74605 2.16009 6.73952 2.13711 6.72833C2.11412 6.71715 2.09358 6.70153 2.07666 6.68237C2.05973 6.66322 2.04677 6.6409 2.0385 6.61671L1.7566 5.80555Z"
        fill="white" />
    <path fill-rule="evenodd" clip-rule="evenodd"
        d="M2.29495 7.35548C2.27784 7.30663 2.28075 7.253 2.30304 7.2063C2.32533 7.15959 2.36519 7.12359 2.41392 7.10616C2.43802 7.09769 2.46355 7.09408 2.48906 7.09553C2.51456 7.09697 2.53953 7.10345 2.56252 7.11458C2.58551 7.12572 2.60607 7.14129 2.62301 7.16041C2.63995 7.17952 2.65295 7.2018 2.66125 7.22596L2.94303 8.03762C2.95999 8.08648 2.957 8.14006 2.93472 8.18673C2.91243 8.2334 2.87265 8.26941 2.82399 8.28694C2.79986 8.29536 2.7743 8.29892 2.74878 8.29742C2.72326 8.29592 2.6983 8.28939 2.67531 8.27821C2.65233 8.26702 2.63179 8.25141 2.61486 8.23225C2.59794 8.2131 2.58497 8.19079 2.5767 8.1666L2.29484 7.35544"
        fill="white" />
    <path fill-rule="evenodd" clip-rule="evenodd"
        d="M1.2429 7.51989C1.21881 7.52836 1.19327 7.53197 1.16777 7.53053C1.14227 7.52908 1.11731 7.5226 1.09432 7.51147C1.07133 7.50033 1.05078 7.48476 1.03384 7.46564C1.0169 7.44653 1.00391 7.42425 0.995613 7.40009C0.978526 7.35124 0.981448 7.29761 1.00374 7.25091C1.02603 7.2042 1.06589 7.16821 1.11461 7.15077L1.91935 6.86627C1.94349 6.85786 1.96905 6.8543 1.99457 6.8558C2.02008 6.8573 2.04505 6.86383 2.06804 6.87502C2.09102 6.8862 2.11157 6.90181 2.1285 6.92097C2.14543 6.94012 2.1584 6.96243 2.16668 6.98661C2.18375 7.03546 2.18081 7.08908 2.15852 7.13578C2.13623 7.18248 2.09639 7.21847 2.04768 7.23593L1.24287 7.51993"
        fill="white" />
    <path fill-rule="evenodd" clip-rule="evenodd"
        d="M2.78025 6.97657C2.75615 6.98503 2.73062 6.98864 2.70512 6.98719C2.67962 6.98574 2.65466 6.97926 2.63167 6.96813C2.60868 6.95699 2.58813 6.94142 2.57119 6.92231C2.55425 6.9032 2.54125 6.88092 2.53296 6.85676C2.51588 6.80791 2.51881 6.75429 2.5411 6.70759C2.56339 6.66089 2.60324 6.62489 2.65196 6.60745L3.45677 6.32345C3.48087 6.31498 3.5064 6.31136 3.5319 6.31281C3.5574 6.31426 3.58237 6.32074 3.60535 6.33187C3.62834 6.34301 3.6489 6.35858 3.66584 6.3777C3.68278 6.39681 3.69577 6.41909 3.70406 6.44325C3.72113 6.4921 3.7182 6.54572 3.69591 6.59242C3.67362 6.63912 3.63377 6.67511 3.58506 6.69257L2.78025 6.97657Z"
        fill="white" />
    <path fill-rule="evenodd" clip-rule="evenodd"
        d="M15.7932 14.7893C15.7862 14.7414 15.7985 14.6926 15.8274 14.6537C15.8563 14.6148 15.8995 14.5889 15.9474 14.5818C15.9711 14.5785 15.9952 14.5799 16.0184 14.586C16.0416 14.592 16.0633 14.6025 16.0824 14.617C16.1015 14.6314 16.1176 14.6495 16.1297 14.6701C16.1418 14.6908 16.1497 14.7136 16.153 14.7373L16.2657 15.5342C16.2726 15.5821 16.2603 15.6308 16.2314 15.6696C16.2025 15.7084 16.1593 15.7341 16.1115 15.7412C16.0878 15.7446 16.0636 15.7432 16.0404 15.7372C16.0173 15.7312 15.9955 15.7206 15.9764 15.7062C15.9573 15.6917 15.9412 15.6737 15.9291 15.653C15.9171 15.6323 15.9092 15.6094 15.9059 15.5857L15.7932 14.7893"
        fill="white" />
    <path fill-rule="evenodd" clip-rule="evenodd"
        d="M16.0087 16.3113C16.0018 16.2634 16.0142 16.2148 16.0431 16.176C16.072 16.1372 16.1151 16.1114 16.1629 16.1043C16.1866 16.101 16.2108 16.1023 16.234 16.1084C16.2572 16.1144 16.2789 16.1249 16.298 16.1394C16.3171 16.1538 16.3332 16.1719 16.3453 16.1926C16.3574 16.2132 16.3652 16.2361 16.3685 16.2598L16.4812 17.0562C16.4882 17.1042 16.4759 17.153 16.447 17.1919C16.4181 17.2308 16.3749 17.2566 16.327 17.2638C16.3033 17.2671 16.2791 17.2657 16.256 17.2597C16.2328 17.2537 16.211 17.2432 16.1919 17.2287C16.1728 17.2143 16.1567 17.1962 16.1446 17.1755C16.1326 17.1548 16.1247 17.132 16.1214 17.1083L16.0087 16.3114"
        fill="white" />
    <path fill-rule="evenodd" clip-rule="evenodd"
        d="M15.0126 16.2695C14.9889 16.2728 14.9647 16.2714 14.9416 16.2654C14.9184 16.2594 14.8966 16.2489 14.8775 16.2344C14.8584 16.22 14.8424 16.2019 14.8303 16.1812C14.8182 16.1606 14.8103 16.1377 14.807 16.114C14.8002 16.0661 14.8125 16.0174 14.8414 15.9786C14.8704 15.9398 14.9135 15.9141 14.9613 15.907L15.7518 15.7933C15.7755 15.7899 15.7997 15.7913 15.8229 15.7973C15.846 15.8033 15.8678 15.8139 15.8869 15.8283C15.906 15.8428 15.9221 15.8609 15.9341 15.8815C15.9462 15.9022 15.9541 15.9251 15.9573 15.9488C15.9642 15.9967 15.9519 16.0454 15.923 16.0841C15.8941 16.1229 15.851 16.1487 15.8031 16.1558L15.0126 16.2695Z"
        fill="white" />
    <path fill-rule="evenodd" clip-rule="evenodd"
        d="M16.5226 16.0522C16.4989 16.0555 16.4748 16.0542 16.4516 16.0482C16.4284 16.0422 16.4066 16.0316 16.3875 16.0172C16.3684 16.0027 16.3523 15.9846 16.3403 15.964C16.3282 15.9433 16.3203 15.9204 16.3171 15.8967C16.3101 15.8488 16.3225 15.8001 16.3514 15.7613C16.3804 15.7225 16.4235 15.6967 16.4714 15.6897L17.2617 15.576C17.2854 15.5727 17.3096 15.574 17.3328 15.58C17.3559 15.5861 17.3777 15.5966 17.3968 15.611C17.4159 15.6255 17.432 15.6436 17.4441 15.6642C17.4562 15.6849 17.4641 15.7078 17.4673 15.7315C17.4742 15.7794 17.4618 15.8281 17.4329 15.8669C17.404 15.9057 17.3609 15.9314 17.3131 15.9385L16.5226 16.0522Z"
        fill="white" />
    <path fill-rule="evenodd" clip-rule="evenodd"
        d="M15.7168 8.95467C15.8186 8.93797 15.9227 8.94154 16.0232 8.96517C16.1236 8.9888 16.2184 9.03203 16.3021 9.09238C16.3858 9.15273 16.4568 9.22901 16.5109 9.31685C16.5651 9.40468 16.6014 9.50235 16.6177 9.60424C16.6523 9.81001 16.6039 10.0211 16.4832 10.1913C16.3625 10.3615 16.1792 10.4769 15.9736 10.5123C15.8718 10.529 15.7676 10.5254 15.6672 10.5018C15.5668 10.4782 15.472 10.4349 15.3883 10.3746C15.3046 10.3142 15.2336 10.238 15.1794 10.1501C15.1253 10.0623 15.089 9.96462 15.0727 9.86273C15.0381 9.65696 15.0865 9.44586 15.2072 9.27566C15.3279 9.10547 15.5111 8.99005 15.7168 8.95467Z"
        fill="white" />
    <path fill-rule="evenodd" clip-rule="evenodd"
        d="M6.79164 0.157792C6.89347 0.141095 6.99759 0.144665 7.09803 0.168299C7.19847 0.191932 7.29326 0.235165 7.37695 0.295514C7.46065 0.355862 7.53161 0.432141 7.58576 0.519976C7.63991 0.60781 7.67619 0.70547 7.69251 0.807355C7.7271 1.01313 7.67874 1.22423 7.55802 1.39442C7.4373 1.56462 7.25406 1.68004 7.04841 1.71541C6.94663 1.73214 6.84254 1.72861 6.74212 1.70503C6.6417 1.68145 6.54692 1.63828 6.46321 1.578C6.37951 1.51772 6.30852 1.44151 6.25433 1.35375C6.20013 1.26598 6.16379 1.16838 6.14739 1.06654C6.1128 0.860701 6.16115 0.649543 6.28187 0.47927C6.40259 0.308997 6.58584 0.193474 6.79153 0.157983"
        fill="white" />
</svg>