<svg width="43" height="55" viewBox="0 0 43 55" fill="none" xmlns="http://www.w3.org/2000/svg">
    <path
        d="M18.4799 0.987045C17.9835 0.994809 17.5104 1.19913 17.1644 1.5552C16.8184 1.91126 16.6277 2.39001 16.6342 2.88646C16.6342 5.38646 15.7748 5.79906 14.2123 7.04906C12.6498 8.29906 10.3842 10.3865 10.3842 14.1365C10.3807 14.3849 10.4266 14.6316 10.5192 14.8622C10.6119 15.0927 10.7494 15.3026 10.9239 15.4795C11.0983 15.6565 11.3062 15.797 11.5355 15.8929C11.7647 15.9888 12.0107 16.0382 12.2592 16.0382C12.5077 16.0382 12.7537 15.9888 12.9829 15.8929C13.2121 15.797 13.42 15.6565 13.5945 15.4795C13.7689 15.3026 13.9065 15.0927 13.9991 14.8622C14.0918 14.6316 14.1377 14.3849 14.1342 14.1365C14.1342 11.6365 14.9911 11.2263 16.5536 9.9763C18.1161 8.7263 20.3842 6.63646 20.3842 2.88646C20.3875 2.63571 20.3404 2.38684 20.2458 2.1546C20.1512 1.92235 20.011 1.71144 19.8334 1.53435C19.6559 1.35725 19.4446 1.21756 19.2121 1.12356C18.9796 1.02955 18.7306 0.983131 18.4799 0.987045ZM25.9799 3.48704C25.4835 3.49481 25.0104 3.69913 24.6644 4.0552C24.3184 4.41126 24.1277 4.89001 24.1342 5.38646C24.1342 6.32396 23.9504 6.71617 23.6947 7.07835C23.4391 7.44053 23.0087 7.79369 22.3837 8.26244C21.7587 8.73119 20.9391 9.31553 20.2572 10.2815C19.5754 11.2474 19.1342 12.574 19.1342 14.1365C19.1307 14.3849 19.1766 14.6316 19.2692 14.8622C19.3619 15.0927 19.4994 15.3026 19.6739 15.4795C19.8483 15.6565 20.0562 15.797 20.2855 15.8929C20.5147 15.9888 20.7607 16.0382 21.0092 16.0382C21.2577 16.0382 21.5037 15.9888 21.7329 15.8929C21.9621 15.797 22.17 15.6565 22.3445 15.4795C22.5189 15.3026 22.6565 15.0927 22.7491 14.8622C22.8418 14.6316 22.8877 14.3849 22.8842 14.1365C22.8842 13.199 23.0655 12.8067 23.3212 12.4446C23.5769 12.0824 24.0072 11.7317 24.6322 11.2629C25.2572 10.7942 26.0769 10.2074 26.7587 9.24144C27.4405 8.27549 27.8842 6.94896 27.8842 5.38646C27.8875 5.13571 27.8404 4.88684 27.7458 4.6546C27.6512 4.42235 27.511 4.21144 27.3334 4.03435C27.1559 3.85725 26.9446 3.71756 26.7121 3.62356C26.4796 3.52955 26.2306 3.48313 25.9799 3.48704ZM4.90079 18.5115C3.68579 18.5115 2.51778 19.0228 1.69278 19.9128C0.867781 20.8041 0.447937 22.0097 0.540437 23.2209L2.29825 46.1042C2.672 50.958 6.77889 54.7615 11.6464 54.7615H21.5072C26.376 54.7615 30.4829 50.958 30.8554 46.1042L30.8627 46.0115H33.5092C38.6648 46.0115 42.8842 41.7921 42.8842 36.6365V30.3865C42.8842 27.9928 40.9029 26.0115 38.5092 26.0115H32.3983L32.6132 23.2234C32.7057 22.0134 32.287 20.8078 31.4633 19.9153C30.637 19.024 29.4678 18.5115 28.2528 18.5115H4.90079ZM32.1103 29.7615H38.5092C38.878 29.7615 39.1342 30.0177 39.1342 30.3865V36.6365C39.1342 39.7658 36.6386 42.2615 33.5092 42.2615H31.1508L32.1103 29.7615Z"
        fill="white" />
</svg>