<svg width="21" height="21" viewBox="0 0 21 21" fill="none" xmlns="http://www.w3.org/2000/svg">
    <path
        d="M19.0135 10.9302H20.4614C20.2164 16.2353 15.8358 20.4614 10.4671 20.4614C4.94111 20.4614 0.461426 15.9842 0.461426 10.4614C0.461426 4.93861 4.94111 0.461426 10.4671 0.461426C12.1224 0.461426 13.6837 0.863535 15.059 1.57486L14.3335 2.83064C13.1716 2.2401 11.8576 1.90674 10.4671 1.90674C5.74736 1.90674 1.90752 5.74439 1.90752 10.4614C1.90752 15.1785 5.74729 19.0161 10.4671 19.0161C15.0295 19.0161 18.7692 15.4301 19.0135 10.9302ZM9.65471 10.9302H18.0737C17.8306 14.9128 14.5121 18.0786 10.4671 18.0786C6.8815 18.0786 3.86689 15.591 3.05885 12.2521C3.23018 12.5341 3.53947 12.7231 3.89369 12.7231C4.4333 12.7231 4.8708 12.286 4.8708 11.7466C4.8708 11.2072 4.4333 10.77 3.89369 10.77C3.40643 10.77 3.00361 11.1269 2.92979 11.5931C2.87447 11.2237 2.84557 10.8459 2.84557 10.4614C2.84557 6.26127 6.26455 2.84424 10.4671 2.84424C11.6869 2.84424 12.8404 3.1326 13.8638 3.644L9.65471 10.9302ZM10.1935 5.46143C10.1935 5.78502 10.456 6.04736 10.7797 6.04736C11.1035 6.04736 11.366 5.78502 11.366 5.46143C11.366 5.13783 11.1035 4.87549 10.7797 4.87549C10.456 4.87549 10.1935 5.13783 10.1935 5.46143ZM6.79314 7.18018C7.33275 7.18018 7.77025 6.74299 7.77025 6.20361C7.77025 5.66424 7.33275 5.22705 6.79314 5.22705C6.25353 5.22705 5.81604 5.66424 5.81604 6.20361C5.81604 6.74299 6.25346 7.18018 6.79314 7.18018ZM6.79314 10.4224C7.11689 10.4224 7.37939 10.16 7.37939 9.83643C7.37939 9.51283 7.11689 9.25049 6.79314 9.25049C6.46939 9.25049 6.20689 9.51283 6.20689 9.83643C6.20689 10.16 6.46932 10.4224 6.79314 10.4224ZM9.05518 15.6763C9.05518 15.1369 8.61768 14.6997 8.07807 14.6997C7.53846 14.6997 7.10096 15.1369 7.10096 15.6763C7.10096 16.2156 7.53846 16.6528 8.07807 16.6528C8.61768 16.6528 9.05518 16.2156 9.05518 15.6763ZM14.0996 13.1079C14.0996 13.6473 14.5371 14.0845 15.0767 14.0845C15.6163 14.0845 16.0538 13.6473 16.0538 13.1079C16.0538 12.5685 15.6163 12.1313 15.0767 12.1313C14.5371 12.1313 14.0996 12.5685 14.0996 13.1079ZM12.3822 16.1597C12.3822 16.4833 12.6447 16.7456 12.9685 16.7456C13.2922 16.7456 13.5547 16.4833 13.5547 16.1597C13.5547 15.8361 13.2922 15.5738 12.9685 15.5738C12.6447 15.5738 12.3822 15.8361 12.3822 16.1597ZM9.60721 12.9614C9.60721 13.285 9.86971 13.5474 10.1935 13.5474C10.5172 13.5474 10.7797 13.285 10.7797 12.9614C10.7797 12.6378 10.5172 12.3755 10.1935 12.3755C9.86971 12.3755 9.60721 12.6378 9.60721 12.9614ZM19.0135 9.99268H20.4614C20.3073 6.65463 18.516 3.74377 15.8711 2.04416L15.1451 3.30104C17.3578 4.74986 18.8616 7.19439 19.0135 9.99268ZM18.0737 9.99268H11.2795L13.4438 6.24604C13.6061 6.36611 13.8063 6.43799 14.0238 6.43799C14.5634 6.43799 15.0009 6.0008 15.0009 5.46143C15.0009 5.06088 14.7593 4.71705 14.4141 4.56643L14.6754 4.114C16.6086 5.39853 17.924 7.54064 18.0737 9.99268ZM16.1343 7.68314C15.8106 7.68314 15.5481 7.94549 15.5481 8.26908C15.5481 8.59268 15.8106 8.85502 16.1343 8.85502C16.4581 8.85502 16.7206 8.59268 16.7206 8.26908C16.7206 7.94549 16.4581 7.68314 16.1343 7.68314Z"
        fill="white" />
</svg>