<svg width="21" height="20" viewBox="0 0 21 20" fill="none" xmlns="http://www.w3.org/2000/svg">
    <path fill-rule="evenodd" clip-rule="evenodd"
        d="M3.72881 7.07412C3.56536 3.42005 6.44495 0 10.5001 0C14.5553 0 17.4349 3.42021 17.2713 7.07437C17.8726 7.41004 18.303 8.00394 18.4082 8.73675C18.5342 9.60433 18.2091 10.3882 17.5288 10.8865C17.0203 11.259 16.3691 11.4346 15.6631 11.4414L13.2936 15.7856L11.2317 19.5658C11.0857 19.8334 10.805 20 10.5001 20C10.1952 20 9.9145 19.8334 9.7685 19.5658L7.7067 15.7857L5.33653 11.4404C4.63183 11.4325 3.98161 11.2571 3.47361 10.8853C2.79363 10.3878 2.46782 9.60533 2.59181 8.73792C2.69686 8.00293 3.12756 7.40941 3.72881 7.07412ZM5.38879 6.82256C5.71646 6.88473 6.00435 6.99757 6.24266 7.10004C6.36945 7.15456 6.48038 7.20441 6.58034 7.24932C6.87686 7.38257 7.0768 7.47243 7.30756 7.51198L7.31125 7.51262C7.70834 7.58253 7.94915 7.52487 8.39381 7.40057C8.40521 7.39737 8.41668 7.39417 8.42824 7.39093C8.90633 7.25712 9.52716 7.08333 10.5001 7.08333C11.4737 7.08333 12.0953 7.25678 12.5742 7.39041C12.5852 7.39348 12.5962 7.39652 12.607 7.39954C13.0532 7.52387 13.2942 7.58157 13.69 7.51243C13.9204 7.47219 14.1197 7.38265 14.4139 7.25053C14.5154 7.20494 14.6282 7.15427 14.7576 7.09881C14.9962 6.99644 15.284 6.88408 15.6114 6.82221C15.6374 4.13108 13.4833 1.66667 10.5001 1.66667C7.51668 1.66667 5.3626 4.1313 5.38879 6.82256ZM7.35428 11.6591L8.53308 13.8202L9.55225 12.3934C8.98983 12.2738 8.46521 12.0738 8.01242 11.9012C7.95801 11.8804 7.90465 11.8601 7.85238 11.8403C7.67691 11.774 7.51152 11.7131 7.35428 11.6591ZM11.4482 12.3934C12.0107 12.2737 12.5354 12.0737 12.9883 11.9011C13.0427 11.8804 13.096 11.8601 13.1482 11.8403C13.3234 11.7741 13.4887 11.7133 13.6457 11.6593L12.4672 13.8201L11.4482 12.3934ZM11.5803 15.4459L10.5002 13.9338L9.41991 15.4461L10.5001 17.4264L11.5803 15.4459ZM15.2139 8.72025C14.8891 8.86792 14.4357 9.07408 13.9768 9.15425C13.1927 9.29117 12.6458 9.14058 12.1596 9.005C12.15 9.00233 12.1405 8.99967 12.1309 8.997C11.6913 8.87442 11.2452 8.75 10.5001 8.75C9.75633 8.75 9.31166 8.87442 8.87283 8.99725C8.86275 9 8.85266 9.00283 8.84258 9.00567C8.35606 9.14167 7.8093 9.29225 7.02398 9.15433C6.56195 9.07475 6.10741 8.86783 5.78231 8.71983C5.70932 8.68658 5.64286 8.65633 5.58429 8.63117C5.20191 8.46675 4.97497 8.41567 4.76169 8.45275C4.46967 8.50358 4.28047 8.7025 4.24171 8.97375C4.20215 9.2505 4.28979 9.41733 4.45781 9.54033C4.66278 9.69025 5.07442 9.82592 5.72825 9.75492C6.74212 9.64475 7.6914 9.99758 8.44187 10.2813C8.46678 10.2908 8.49151 10.3002 8.51605 10.3094C9.3005 10.6063 9.9005 10.8333 10.5001 10.8333C11.0998 10.8333 11.7002 10.6062 12.4851 10.3093C12.5095 10.3 12.534 10.2907 12.5587 10.2814C13.3092 9.99767 14.2586 9.64475 15.2719 9.75492L15.2738 9.75508C15.9277 9.82767 16.3392 9.69192 16.5439 9.542C16.7117 9.41908 16.799 9.25208 16.7588 8.976L16.7585 8.97392C16.7198 8.70358 16.5297 8.5035 16.2385 8.45275C16.0245 8.4155 15.7966 8.46658 15.4147 8.6305C15.3554 8.65592 15.288 8.68658 15.2139 8.72025Z"
        fill="white" />
</svg>