<svg width="75" height="36" viewBox="0 0 75 36" fill="none" xmlns="http://www.w3.org/2000/svg">
    <path
        d="M37.8164 17.7031C33.6367 17.7031 30.0234 13.9531 30.0234 9.10938C30.0039 4.32422 33.6562 0.671875 37.8164 0.671875C41.9961 0.671875 45.6289 4.24609 45.6289 9.07031C45.6289 13.9531 42.0156 17.7031 37.8164 17.7031ZM15.2969 18.1523C11.6641 18.1523 8.5 14.8711 8.5 10.6719C8.48047 6.51172 11.6836 3.32812 15.2969 3.32812C18.9297 3.32812 22.0938 6.43359 22.0938 10.6328C22.0938 14.8711 18.9492 18.1523 15.2969 18.1523ZM60.2773 18.1523C56.6445 18.1523 53.4805 14.8711 53.4805 10.6328C53.4805 6.43359 56.6641 3.32812 60.2773 3.32812C63.9102 3.32812 67.0938 6.51172 67.0938 10.6719C67.0938 14.8711 63.9297 18.1523 60.2773 18.1523ZM4.41797 35.7891C1.9375 35.7891 0.980469 34.8125 0.980469 33.0547C0.980469 27.6445 6.48828 21.1406 15.2969 21.1406C18.9297 21.1406 21.7227 22.2148 23.9102 23.6602C19.6914 26.9023 17.2109 32.8398 19.2422 35.7891H4.41797ZM71.1758 35.7891H56.332C58.3633 32.8398 55.8828 26.9023 51.6836 23.6602C53.8516 22.2148 56.6445 21.1406 60.2969 21.1406C69.1055 21.1406 74.6133 27.6445 74.6133 33.0547C74.6133 34.8125 73.6562 35.7891 71.1758 35.7891ZM25.5508 35.7891C22.4648 35.7891 21.3711 34.9102 21.3711 33.1914C21.3711 28.1523 27.6797 21.1992 37.8164 21.1992C47.9336 21.1992 54.2422 28.1523 54.2422 33.1914C54.2422 34.9102 53.1484 35.7891 50.082 35.7891H25.5508Z"
        fill="white" />
</svg>