<svg width="24" height="25" viewBox="0 0 24 25" fill="none" xmlns="http://www.w3.org/2000/svg">
    <g id="Interface essential/Filter">
        <g id="Icon">
            <path
                d="M10 8.21212H4C3.44772 8.21212 3 8.65983 3 9.21212C3 9.7644 3.44772 10.2121 4 10.2121H10C10.5523 10.2121 11 9.7644 11 9.21212C11 8.65983 10.5523 8.21212 10 8.21212Z"
                fill="white" />
            <path
                d="M8 14.9821C7.15399 14.9795 6.37938 15.4559 6 16.2121H4C3.44772 16.2121 3 16.6598 3 17.2121C3 17.7644 3.44772 18.2121 4 18.2121H6C6.4954 19.1816 7.62079 19.6488 8.65718 19.3152C9.69356 18.9816 10.335 17.9456 10.1718 16.8691C10.0085 15.7927 9.08871 14.9935 8 14.9821Z"
                fill="white" />
            <path
                d="M13.72 11.2821C14.4939 11.281 15.2108 10.8751 15.61 10.2121H20C20.5523 10.2121 21 9.7644 21 9.21212C21 8.65983 20.5523 8.21212 20 8.21212H15.78C15.3575 7.17309 14.229 6.60958 13.1446 6.89612C12.0601 7.18267 11.3573 8.2301 11.5032 9.34221C11.6491 10.4543 12.5984 11.285 13.72 11.2821Z"
                fill="white" />
            <path
                d="M20 16.2121H12C11.4477 16.2121 11 16.6598 11 17.2121C11 17.7644 11.4477 18.2121 12 18.2121H20C20.5523 18.2121 21 17.7644 21 17.2121C21 16.6598 20.5523 16.2121 20 16.2121Z"
                fill="white" />
        </g>
    </g>
</svg>