<svg width="15" height="14" viewBox="0 0 15 14" fill="none" xmlns="http://www.w3.org/2000/svg">
    <g id="Hours Icon" clip-path="url(#clip0_1452_1766)">
        <path id="Vector"
            d="M8 1C11.59 1 14.5 3.91005 14.5 7.5C14.5 11.09 11.59 14 8 14C4.41005 14 1.5 11.09 1.5 7.5C1.5 3.91005 4.41005 1 8 1ZM8 2.3C6.62087 2.3 5.29823 2.84786 4.32305 3.82305C3.34786 4.79823 2.8 6.12087 2.8 7.5C2.8 8.87913 3.34786 10.2018 4.32305 11.177C5.29823 12.1521 6.62087 12.7 8 12.7C9.37913 12.7 10.7018 12.1521 11.677 11.177C12.6521 10.2018 13.2 8.87913 13.2 7.5C13.2 6.12087 12.6521 4.79823 11.677 3.82305C10.7018 2.84786 9.37913 2.3 8 2.3ZM8 3.6C8.15921 3.60002 8.31287 3.65847 8.43184 3.76427C8.55082 3.87006 8.62682 4.01584 8.64545 4.17395L8.65 4.25V7.2309L10.4096 8.99045C10.5261 9.10742 10.5938 9.26438 10.5988 9.42945C10.6039 9.59452 10.5459 9.75531 10.4367 9.87918C10.3275 10.003 10.1752 10.0807 10.0108 10.0964C9.84639 10.112 9.6822 10.0645 9.55155 9.9635L9.49045 9.90955L7.54045 7.95955C7.43943 7.85844 7.37455 7.72685 7.35585 7.58515L7.35 7.5V4.25C7.35 4.07761 7.41848 3.91228 7.54038 3.79038C7.66228 3.66848 7.82761 3.6 8 3.6Z"
            fill="white" />
    </g>
    <defs>
        <clipPath id="clip0_1452_1766">
            <rect width="14" height="14" fill="white" transform="translate(0.776855)" />
        </clipPath>
    </defs>
</svg>