<svg width="11" height="18" viewBox="0 0 11 18" fill="none" xmlns="http://www.w3.org/2000/svg">
    <g id="Price Icon">
        <path id="Vector"
            d="M5.9466 8.12778C4.25626 7.67013 3.71268 7.19698 3.71268 6.46009C3.71268 5.61461 4.46476 5.02511 5.72321 5.02511C6.7806 5.02511 7.30929 5.44397 7.5029 6.11104C7.59226 6.42131 7.83799 6.65401 8.15074 6.65401H8.37413C8.86559 6.65401 9.21558 6.14982 9.04431 5.66891C8.73156 4.75362 8.00181 3.99347 6.84017 3.69871V3.1635C6.84017 2.5197 6.34126 2 5.72321 2C5.10515 2 4.60625 2.5197 4.60625 3.1635V3.67544C3.16164 4.00122 2 4.97857 2 6.47561C2 8.2674 3.42226 9.15942 5.49981 9.67911C7.36142 10.1445 7.73374 10.8271 7.73374 11.5485C7.73374 12.0837 7.36886 12.9369 5.72321 12.9369C4.49455 12.9369 3.8616 12.4793 3.61587 11.8277C3.50418 11.5252 3.251 11.308 2.94569 11.308H2.73719C2.23829 11.308 1.8883 11.8355 2.07446 12.3164C2.49891 13.3946 3.48928 14.0306 4.60625 14.2788V14.7985C4.60625 15.4423 5.10515 15.962 5.72321 15.962C6.34126 15.962 6.84017 15.4423 6.84017 14.7985V14.2943C8.29222 14.0073 9.44641 13.1308 9.44641 11.5407C9.44641 9.33782 7.63694 8.58542 5.9466 8.12778Z"
            fill="white" />
    </g>
</svg>