<svg width="20" height="20" viewBox="0 0 20 20" fill="none" xmlns="http://www.w3.org/2000/svg">
    <g id="Star Icon">
        <path id="Vector"
            d="M16.2176 7.74646L12.3177 7.42685L10.7948 4.04043C10.5209 3.42402 9.58618 3.42402 9.31222 4.04043L7.78934 7.43446L3.89754 7.74646C3.18847 7.79973 2.8984 8.63682 3.43825 9.0782L6.39538 11.4982L5.50905 15.09C5.3479 15.7445 6.09725 16.262 6.70963 15.9119L10.0535 14.0094L13.3974 15.9195C14.0098 16.2696 14.7591 15.7521 14.598 15.0977L13.7117 11.4982L16.6688 9.0782C17.2086 8.63682 16.9266 7.79973 16.2176 7.74646ZM10.0535 12.5864V5.50914L11.4314 8.58356L14.9606 8.87273L12.2855 11.0644L13.0912 14.3214L10.0535 12.5864Z"
            fill="white" />
    </g>
</svg>