<svg width="17" height="16" viewBox="0 0 17 16" fill="none" xmlns="http://www.w3.org/2000/svg">
    <path
        d="M14 2.5H3C2.73478 2.5 2.48043 2.60536 2.29289 2.79289C2.10536 2.98043 2 3.23478 2 3.5V13.5C2.00005 13.5852 2.02187 13.669 2.06341 13.7434C2.10494 13.8178 2.16481 13.8804 2.23732 13.9252C2.30983 13.9699 2.39258 13.9954 2.47771 13.9992C2.56285 14.003 2.64754 13.985 2.72375 13.9469L4.5 13.0588L6.27625 13.9469C6.34572 13.9816 6.42232 13.9997 6.5 13.9997C6.57768 13.9997 6.65428 13.9816 6.72375 13.9469L8.5 13.0588L10.2762 13.9469C10.3457 13.9816 10.4223 13.9997 10.5 13.9997C10.5777 13.9997 10.6543 13.9816 10.7238 13.9469L12.5 13.0588L14.2762 13.9469C14.3525 13.985 14.4372 14.003 14.5223 13.9992C14.6074 13.9954 14.6902 13.9699 14.7627 13.9252C14.8352 13.8804 14.8951 13.8178 14.9366 13.7434C14.9781 13.669 15 13.5852 15 13.5V3.5C15 3.23478 14.8946 2.98043 14.7071 2.79289C14.5196 2.60536 14.2652 2.5 14 2.5ZM14 12.6912L12.7238 12.0525C12.6543 12.0177 12.5777 11.9996 12.5 11.9996C12.4223 11.9996 12.3457 12.0177 12.2762 12.0525L10.5 12.9412L8.72375 12.0525C8.65428 12.0177 8.57768 11.9996 8.5 11.9996C8.42232 11.9996 8.34572 12.0177 8.27625 12.0525L6.5 12.9412L4.72375 12.0525C4.65429 12.0177 4.57768 11.9996 4.5 11.9996C4.42232 11.9996 4.34571 12.0177 4.27625 12.0525L3 12.6912V3.5H14V12.6912ZM9 7C9 6.86739 9.05268 6.74021 9.14645 6.64645C9.24021 6.55268 9.36739 6.5 9.5 6.5H12.5C12.6326 6.5 12.7598 6.55268 12.8536 6.64645C12.9473 6.74021 13 6.86739 13 7C13 7.13261 12.9473 7.25979 12.8536 7.35355C12.7598 7.44732 12.6326 7.5 12.5 7.5H9.5C9.36739 7.5 9.24021 7.44732 9.14645 7.35355C9.05268 7.25979 9 7.13261 9 7ZM9 9C9 8.86739 9.05268 8.74021 9.14645 8.64645C9.24021 8.55268 9.36739 8.5 9.5 8.5H12.5C12.6326 8.5 12.7598 8.55268 12.8536 8.64645C12.9473 8.74021 13 8.86739 13 9C13 9.13261 12.9473 9.25979 12.8536 9.35355C12.7598 9.44732 12.6326 9.5 12.5 9.5H9.5C9.36739 9.5 9.24021 9.44732 9.14645 9.35355C9.05268 9.25979 9 9.13261 9 9ZM4.5 10.5H7.5C7.63261 10.5 7.75979 10.4473 7.85355 10.3536C7.94732 10.2598 8 10.1326 8 10V6C8 5.86739 7.94732 5.74021 7.85355 5.64645C7.75979 5.55268 7.63261 5.5 7.5 5.5H4.5C4.36739 5.5 4.24021 5.55268 4.14645 5.64645C4.05268 5.74021 4 5.86739 4 6V10C4 10.1326 4.05268 10.2598 4.14645 10.3536C4.24021 10.4473 4.36739 10.5 4.5 10.5ZM5 6.5H7V9.5H5V6.5Z"
        fill="white" />
</svg>