<svg width="16" height="16" viewBox="0 0 16 16" fill="none" xmlns="http://www.w3.org/2000/svg">
    <path id="Vector" fill-rule="evenodd" clip-rule="evenodd"
        d="M5.32277 0.5C5.61865 0.5 5.85849 0.73985 5.85849 1.03571V1.57143H8.53706C8.83293 1.57143 9.07277 1.81128 9.07277 2.10714C9.07277 2.40301 8.83293 2.64286 8.53706 2.64286H5.85849V3.17857C5.85849 3.47444 5.61865 3.71429 5.32277 3.71429C5.0269 3.71429 4.78706 3.47444 4.78706 3.17857V2.64286H3.71563C2.53216 2.64286 1.57277 3.60225 1.57277 4.78571V12.2857C1.57277 13.4692 2.53216 14.4286 3.71563 14.4286H6.92991C7.22579 14.4286 7.46563 14.6684 7.46563 14.9643C7.46563 15.2602 7.22579 15.5 6.92991 15.5H3.71563C1.94043 15.5 0.501343 14.0609 0.501343 12.2857V4.78571C0.501343 3.01051 1.94043 1.57143 3.71563 1.57143H4.78706V1.03571C4.78706 0.73985 5.0269 0.5 5.32277 0.5ZM10.6799 0.5C10.9758 0.5 11.2156 0.73985 11.2156 1.03571V1.57143H12.2871C14.0623 1.57143 15.5013 3.01051 15.5013 4.78571V6.92857C15.5013 7.22445 15.2615 7.46429 14.9656 7.46429C14.6698 7.46429 14.4299 7.22445 14.4299 6.92857V4.78571C14.4299 3.60225 13.4705 2.64286 12.2871 2.64286H11.2156V3.17857C11.2156 3.47444 10.9758 3.71429 10.6799 3.71429C10.384 3.71429 10.1442 3.47444 10.1442 3.17857V1.03571C10.1442 0.73985 10.384 0.5 10.6799 0.5ZM3.71563 5.32143C3.41976 5.32143 3.17991 5.56127 3.17991 5.85714C3.17991 6.15302 3.41976 6.39286 3.71563 6.39286H12.2871C12.5829 6.39286 12.8228 6.15302 12.8228 5.85714C12.8228 5.56127 12.5829 5.32143 12.2871 5.32143H3.71563ZM13.2016 11.5931L11.8623 12.9324C11.6531 13.1416 11.3139 13.1416 11.1047 12.9324L10.3011 12.1288C10.0919 11.9196 10.0919 11.5804 10.3011 11.3712C10.5103 11.162 10.8495 11.162 11.0587 11.3712L11.4835 11.796L12.444 10.8355C12.6532 10.6263 12.9924 10.6263 13.2016 10.8355C13.4108 11.0447 13.4108 11.3839 13.2016 11.5931ZM4.78706 8.80357C4.78706 9.24736 4.42729 9.60714 3.98349 9.60714C3.53968 9.60714 3.17991 9.24736 3.17991 8.80357C3.17991 8.35979 3.53968 8 3.98349 8C4.42729 8 4.78706 8.35979 4.78706 8.80357ZM3.98349 12.8214C4.42729 12.8214 4.78706 12.4616 4.78706 12.0179C4.78706 11.5741 4.42729 11.2143 3.98349 11.2143C3.53968 11.2143 3.17991 11.5741 3.17991 12.0179C3.17991 12.4616 3.53968 12.8214 3.98349 12.8214ZM9.07277 11.75C9.07277 10.2707 10.272 9.07143 11.7513 9.07143C13.2307 9.07143 14.4299 10.2707 14.4299 11.75C14.4299 13.2293 13.2307 14.4286 11.7513 14.4286C10.272 14.4286 9.07277 13.2293 9.07277 11.75ZM11.7513 8C9.68027 8 8.00134 9.67893 8.00134 11.75C8.00134 13.8211 9.68027 15.5 11.7513 15.5C13.8224 15.5 15.5013 13.8211 15.5013 11.75C15.5013 9.67893 13.8224 8 11.7513 8Z"
        fill="white" />
</svg>