<svg width="20" height="16" viewBox="0 0 20 16" fill="none" xmlns="http://www.w3.org/2000/svg">
    <g id="People Icon">
        <path id="Vector"
            d="M9.94108 8.54749C6.60779 8.54749 3.89893 11.1416 3.89893 14.343C3.89846 14.7313 3.93865 15.1188 4.01893 15.5H15.8655C15.9447 15.1186 15.9848 14.7312 15.9855 14.343C15.9855 11.1416 13.2788 8.54749 9.94108 8.54749Z"
            fill="white" />
        <path id="Vector_2"
            d="M13.6758 6.28651C14.102 6.57141 14.6092 6.73581 15.1354 6.75958C15.6616 6.78336 16.1839 6.66547 16.6383 6.42035C17.0928 6.17524 17.4597 5.81354 17.6941 5.37953C17.9286 4.94553 18.0203 4.45806 17.9582 3.97681C17.8961 3.49556 17.6828 3.04141 17.3444 2.66998C17.006 2.29854 16.5572 2.02594 16.053 1.88554C15.5488 1.74515 15.011 1.74305 14.5055 1.87952C14 2.01598 13.5487 2.28508 13.2069 2.65387C13.6205 3.17206 13.8811 3.78001 13.9633 4.41845C14.0455 5.05688 13.9464 5.70401 13.6758 6.29673V6.28651Z"
            fill="white" />
        <path id="Vector_3"
            d="M15.2623 7.21045C14.096 7.21257 12.9737 7.62001 12.1201 8.35114C12.2601 8.39816 12.3979 8.44722 12.5334 8.50242C13.3269 8.8278 14.0434 9.29312 14.6423 9.87207C15.4624 10.6541 16.0481 11.6183 16.3423 12.6707H19.8978C19.9632 12.3704 19.9974 12.0651 20 11.7589C20 9.25062 17.8778 7.21045 15.2623 7.21045Z"
            fill="white" />
        <path id="Vector_4"
            d="M7.34881 8.50651C7.51325 8.43905 7.67769 8.37772 7.84658 8.32457C6.99677 7.60944 5.88724 7.2121 4.7355 7.21045C2.1222 7.21045 0 9.25062 0 11.7589C0.000453994 12.0649 0.0324486 12.3702 0.0955545 12.6707H3.53774C3.83254 11.6179 4.41814 10.6532 5.23772 9.87003C5.83821 9.29342 6.55533 8.83025 7.34881 8.50651Z"
            fill="white" />
        <path id="Vector_5"
            d="M4.73859 6.75876C5.27075 6.76136 5.79186 6.61911 6.23635 6.34991C5.94426 5.73906 5.83615 5.06719 5.92333 4.40469C6.01052 3.7422 6.2898 3.11347 6.7319 2.58439C6.42709 2.28006 6.0447 2.05036 5.61924 1.916C5.19377 1.78165 4.73864 1.74688 4.29492 1.81483C3.85119 1.88279 3.43285 2.05132 3.07765 2.30523C2.72245 2.55913 2.44157 2.89041 2.26037 3.26916C2.07918 3.64792 2.00336 4.06222 2.03977 4.47467C2.07619 4.88712 2.22368 5.28474 2.46894 5.63163C2.7142 5.97853 3.0495 6.26377 3.44459 6.46162C3.83967 6.65947 4.28209 6.7637 4.73192 6.76489L4.73859 6.75876Z"
            fill="white" />
        <path id="Vector_6"
            d="M11.6686 7.59547C13.3219 6.71846 13.8893 4.7746 12.9359 3.25374C11.9826 1.73287 9.8695 1.21092 8.21625 2.08794C6.563 2.96495 5.99562 4.90881 6.94897 6.42967C7.90232 7.95054 10.0154 8.47249 11.6686 7.59547Z"
            fill="white" />
    </g>
</svg>