<svg width="293" height="294" viewBox="0 0 293 294" fill="none" xmlns="http://www.w3.org/2000/svg">
<path opacity="0.49" d="M57.7525 214.024C57.7525 214.024 -30.5748 171.514 31.3878 135.733C47.9536 126.167 47.5544 100.053 47.6578 81.9762C47.7856 59.8532 52.856 47.5178 65.3963 29.7261C80.4528 8.36426 103.797 2.64944 123.998 17.4423C153.618 39.1299 167.312 47.5613 204.682 17.4422C221.489 6.46505 253.687 8.93843 256.956 34.4351C259.104 51.1923 254.747 68.4389 252.859 84.9898C252.536 87.8184 252.536 90.8221 253.666 93.3708C256.361 99.4438 262.755 101.095 267.431 104.482C275.285 110.169 281.899 120.423 283.22 131.007C284.534 141.536 280.22 149.574 277.2 159.041C275.334 164.89 270.077 178.45 276.693 182.879C291.053 192.493 291.986 197.909 291.053 206.381L57.7525 214.024Z" fill="url(#paint0_linear_103_195)"/>
<g opacity="0.5">
<path opacity="0.1111" d="M184.8 155.644C186.187 154.839 187.98 154.391 189.825 154.312C191.628 154.234 193.463 154.511 194.989 155.135C195.368 155.283 195.835 155.519 196.172 155.708L208.701 162.943L215.88 167.086L232.546 176.706C234.197 177.658 235.306 179.193 235.047 180.432C235.033 180.987 234.807 181.532 234.391 182.009C234.063 182.388 233.605 182.781 232.995 183.137C231.608 183.941 229.814 184.389 227.97 184.468C226.167 184.547 224.331 184.269 222.806 183.645C222.427 183.497 221.96 183.261 221.622 183.072L203.435 172.573L201.914 171.695L185.248 162.074C183.598 161.122 182.488 159.592 182.747 158.348C182.761 157.793 182.988 157.248 183.404 156.767C183.732 156.392 184.19 156 184.8 155.644Z" fill="#F3EFF7"/>
<path opacity="0.2222" d="M184.943 155.893C186.298 155.107 188.073 154.668 189.899 154.599C191.693 154.529 193.505 154.82 194.98 155.449C195.308 155.579 195.849 155.856 196.14 156.027L208.488 163.156L215.561 167.243L231.987 176.724C233.429 177.556 234.862 179.165 234.64 180.252C234.733 180.797 234.571 181.329 234.206 181.773C233.915 182.129 233.48 182.526 232.847 182.896C231.492 183.682 229.717 184.121 227.891 184.191C226.097 184.26 224.29 183.969 222.81 183.34C222.482 183.21 221.941 182.933 221.65 182.762L203.726 172.411L202.229 171.547L185.803 162.065C184.361 161.233 182.927 159.624 183.149 158.537C183.057 157.992 183.219 157.456 183.584 157.012C183.875 156.66 184.31 156.258 184.943 155.893Z" fill="#E8DFEF"/>
<path opacity="0.3333" d="M185.091 156.138C186.413 155.371 188.17 154.941 189.978 154.881C191.757 154.825 193.547 155.126 194.975 155.759C195.257 155.87 195.863 156.194 196.112 156.337L208.28 163.364L215.252 167.391L231.437 176.734C232.676 177.446 234.432 179.133 234.238 180.062C234.432 180.599 234.335 181.121 234.026 181.528C233.776 181.856 233.36 182.268 232.703 182.647C231.381 183.414 229.625 183.849 227.817 183.904C226.037 183.96 224.253 183.659 222.819 183.026C222.537 182.915 221.932 182.596 221.682 182.448L204.018 172.249L202.538 171.394L186.353 162.051C185.114 161.339 183.357 159.652 183.552 158.723C183.357 158.186 183.454 157.664 183.764 157.252C184.014 156.929 184.43 156.522 185.091 156.138Z" fill="#DCCFE6"/>
<path opacity="0.4444" d="M185.234 156.383C186.524 155.634 188.258 155.209 190.052 155.163C191.822 155.117 193.583 155.431 194.966 156.069C195.202 156.161 195.872 156.527 196.08 156.647L208.067 163.567L214.937 167.534L230.882 176.738C231.913 177.335 233.993 179.092 233.831 179.868C234.132 180.391 234.1 180.908 233.845 181.278C233.637 181.583 233.244 181.999 232.56 182.397C231.266 183.146 229.537 183.571 227.743 183.617C225.972 183.664 224.211 183.349 222.829 182.716C222.593 182.624 221.923 182.258 221.715 182.138L204.314 172.092L202.857 171.251L186.912 162.046C185.882 161.45 183.801 159.693 183.958 158.917C183.658 158.394 183.69 157.877 183.945 157.507C184.157 157.202 184.55 156.781 185.234 156.383Z" fill="#D1BFDE"/>
<path opacity="0.5556" d="M185.378 156.633C186.64 155.902 188.35 155.486 190.126 155.449C191.882 155.412 193.621 155.741 194.957 156.379C195.146 156.453 195.886 156.859 196.052 156.956L207.859 163.775L214.623 167.682L230.327 176.748C231.15 177.224 233.559 179.059 233.429 179.679C233.832 180.192 233.869 180.7 233.665 181.033C233.499 181.311 233.124 181.74 232.422 182.147C231.159 182.878 229.449 183.294 227.674 183.331C225.917 183.368 224.179 183.04 222.843 182.402C222.653 182.328 221.913 181.921 221.747 181.824L204.605 171.926L203.172 171.098L187.467 162.033C186.644 161.556 184.236 159.721 184.365 159.102C183.963 158.588 183.926 158.08 184.129 157.747C184.296 157.47 184.67 157.04 185.378 156.633Z" fill="#C5AED6"/>
<path opacity="0.6667" d="M185.521 156.878C186.751 156.166 188.443 155.759 190.199 155.731C191.947 155.704 193.657 156.046 194.947 156.688C195.091 156.744 195.895 157.197 196.02 157.266L207.647 163.979L214.308 167.825L229.772 176.752C230.392 177.108 233.12 179.022 233.022 179.484C233.531 179.988 233.628 180.483 233.48 180.783C233.351 181.038 232.999 181.472 232.273 181.898C231.044 182.614 229.352 183.016 227.595 183.044C225.848 183.072 224.137 182.73 222.847 182.087C222.704 182.032 221.899 181.579 221.775 181.509L204.896 171.764L203.481 170.95L188.017 162.019C187.398 161.663 184.67 159.753 184.767 159.286C184.259 158.783 184.157 158.283 184.31 157.987C184.439 157.738 184.79 157.303 185.521 156.878Z" fill="#BA9ECE"/>
<path opacity="0.7778" d="M185.664 157.128C186.862 156.434 188.531 156.037 190.274 156.018C192.007 156 193.695 156.351 194.938 157.003C195.031 157.04 195.904 157.535 195.988 157.581L207.439 164.192L213.999 167.978L229.227 176.771C229.639 177.007 232.694 178.995 232.63 179.304C233.24 179.799 233.406 180.285 233.309 180.548C233.221 180.779 232.889 181.223 232.14 181.658C230.942 182.356 229.269 182.749 227.526 182.767C225.792 182.786 224.105 182.434 222.866 181.782C222.773 181.745 221.9 181.251 221.816 181.204L205.201 171.612L203.81 170.807L188.582 162.014C188.17 161.779 185.114 159.791 185.179 159.481C184.569 158.986 184.402 158.496 184.499 158.237C184.578 158.006 184.911 157.562 185.664 157.128Z" fill="#AE8EC5"/>
<path opacity="0.8889" d="M185.808 157.373C186.973 156.698 188.623 156.309 190.347 156.3C192.072 156.291 193.736 156.656 194.929 157.313C194.975 157.331 195.918 157.867 195.96 157.895L207.231 164.4L213.684 168.126L228.672 176.78C228.88 176.9 232.255 178.962 232.223 179.115C232.939 179.596 233.175 180.081 233.124 180.303C233.078 180.511 232.768 180.964 231.992 181.412C230.827 182.092 229.176 182.476 227.447 182.485C225.723 182.494 224.063 182.129 222.87 181.473C222.824 181.454 221.881 180.918 221.839 180.89L205.483 171.445L204.115 170.655L189.127 162C188.919 161.88 185.544 159.818 185.576 159.666C184.86 159.18 184.624 158.7 184.675 158.478C184.717 158.274 185.031 157.821 185.808 157.373Z" fill="#A37EBD"/>
<path opacity="0.5" d="M227.373 182.203C225.663 182.203 224.026 181.824 222.88 181.163L204.429 170.511L185.979 159.86C185.16 159.388 184.855 158.912 184.855 158.727C184.855 158.547 185.151 158.084 185.951 157.622C187.084 156.961 188.716 156.587 190.426 156.587C192.137 156.587 193.778 156.966 194.924 157.627L213.375 168.278L231.825 178.93C232.643 179.401 232.949 179.877 232.949 180.062C232.949 180.243 232.653 180.705 231.853 181.167C230.711 181.824 229.084 182.203 227.373 182.203Z" fill="#976EB5"/>
</g>
<path d="M81.4571 163.415C81.4272 163.407 81.3973 163.392 81.3739 163.368C77.1607 159.244 75.7441 153.619 74.3744 148.18C72.6213 141.22 70.9656 134.647 63.9947 130.832L63.931 130.799C62.6185 130.08 60.9849 129.187 59.5801 129.591C59.4982 129.615 59.4046 129.569 59.3708 129.49C59.3371 129.411 59.376 129.327 59.4579 129.304C60.9953 128.86 62.7003 129.793 64.0701 130.542L64.1338 130.577C71.2411 134.466 72.993 141.418 74.685 148.14C76.0443 153.536 77.4492 159.117 81.5935 163.173C81.6572 163.235 81.6598 163.33 81.6 163.385C81.5623 163.418 81.5077 163.427 81.4571 163.415Z" fill="#4DA4AD"/>
<path d="M62.0104 129.65C62.0104 129.65 60.9889 131.038 59.3073 130.616C57.6256 130.195 55.6282 128.706 56.6237 128.448C57.6191 128.189 62.0104 129.65 62.0104 129.65Z" fill="#4DA4AD"/>
<path d="M66.3156 131.773C66.1844 131.897 65.9506 131.858 65.8297 131.7C65.4542 131.211 64.7384 130.121 64.9436 129.156L65.119 128.332C65.1671 128.108 65.462 128.045 65.6478 128.219C66.0714 128.616 66.6703 129.321 66.773 130.2C66.8743 131.068 66.5625 131.542 66.3156 131.773Z" fill="#4DA4AD"/>
<path d="M70.3447 136.015C70.168 136.08 69.9588 135.964 69.9029 135.782C69.7314 135.215 69.4651 133.995 70.0433 133.204L70.5357 132.529C70.6695 132.345 70.9813 132.391 71.0918 132.609C71.3464 133.11 71.6504 133.947 71.4036 134.767C71.1619 135.579 70.6747 135.893 70.3447 136.015Z" fill="#4DA4AD"/>
<path d="M67.0657 132.775C67.0657 132.775 62.1923 131.378 61.0838 131.881C59.9752 132.385 62.8759 133.818 64.7109 133.849C66.5459 133.881 67.0657 132.775 67.0657 132.775Z" fill="#4DA4AD"/>
<path d="M70.4486 136.794C70.4486 136.794 68.4173 135.711 66.5525 135.596C66.273 135.579 65.9936 135.558 65.7142 135.54C65.4972 135.526 64.8045 135.336 64.7201 135.555C64.6538 135.726 64.9605 136.106 65.0748 136.24C65.505 136.746 66.1158 137.006 66.7383 137.205C68.8943 137.897 70.4486 136.794 70.4486 136.794Z" fill="#4DA4AD"/>
<path d="M72.0291 139.927C72.0291 139.927 69.6262 139.014 68.0667 139.278C67.7353 139.334 67.4 139.373 67.0712 139.441C66.7073 139.515 66.4565 139.533 66.7424 139.888C67.3441 140.64 68.2941 141.064 69.2324 141.183C71.274 141.444 72.0291 139.927 72.0291 139.927Z" fill="#4DA4AD"/>
<path d="M73.504 144.272C73.4494 144.303 72.2252 143.546 72.0732 143.475C71.5611 143.231 71.0335 143.022 70.4955 142.849C69.9561 142.676 69.4064 142.505 68.8489 142.436C68.4785 142.391 68.0562 142.387 67.704 142.459C66.9905 142.604 67.6611 143.188 68.0198 143.514C68.7644 144.19 69.7313 144.643 70.7177 144.779C71.7054 144.916 72.7034 144.734 73.504 144.272Z" fill="#4DA4AD"/>
<path d="M74.6268 148.568C74.5657 148.503 72.1161 147.788 71.8847 147.742C71.0738 147.576 69.9718 147.301 69.1946 147.536C69.1335 147.554 69.0712 147.579 69.0309 147.626C68.9269 147.749 69.0335 147.946 69.1478 148.084C70.1511 149.288 71.9497 149.869 73.387 149.451C73.903 149.3 74.3864 149.018 74.6268 148.568Z" fill="#4DA4AD"/>
<path d="M71.951 139.743C71.951 139.743 71.7457 138.236 72.32 137.043C72.8929 135.852 73.6257 137.566 73.3919 138.708C73.158 139.851 71.951 139.743 71.951 139.743Z" fill="#4DA4AD"/>
<path d="M73.5038 144.272C73.5038 144.272 73.1803 141.644 74.0949 141.017C75.0096 140.389 75.3253 142.737 74.8433 143.575C74.3626 144.411 73.5038 144.272 73.5038 144.272Z" fill="#4DA4AD"/>
<path d="M74.6268 148.568C74.6268 148.568 75.2388 146.244 76.5926 145.449C77.9451 144.655 77.6047 147.442 76.6589 148.415C75.7117 149.389 74.6268 148.568 74.6268 148.568Z" fill="#4DA4AD"/>
<path d="M75.9847 153.499C75.9847 153.499 74.5487 152.625 72.546 152.149C70.5434 151.673 70.0496 151.669 70.1483 152.037C70.2471 152.405 70.9151 153.719 73.1036 154.526C75.2933 155.332 75.9847 153.499 75.9847 153.499Z" fill="#4DA4AD"/>
<path d="M77.6637 157.836C77.6637 157.836 74.5655 156.776 72.9905 156.666C71.4167 156.555 71.2854 156.521 71.9157 157.285C72.546 158.049 74.0756 158.532 75.4272 158.669C76.7787 158.806 77.6637 157.836 77.6637 157.836Z" fill="#4DA4AD"/>
<path d="M80.1201 161.812C80.1149 161.802 80.1097 161.793 80.1019 161.784C80.072 161.748 80.0253 161.73 79.9811 161.715C78.3202 161.125 76.5086 160.739 74.8166 160.987C74.6099 161.017 74.3942 161.05 74.198 161.111C73.929 161.194 73.942 161.211 74.1174 161.449C74.3565 161.776 74.6658 162.065 74.9972 162.309C75.6873 162.818 76.5151 163.147 77.3481 163.277C77.9498 163.371 78.5736 163.368 79.1065 163.156C79.6393 162.944 80.0694 162.499 80.1331 161.946C80.1383 161.901 80.1409 161.853 80.1201 161.812Z" fill="#4DA4AD"/>
<path d="M75.9848 153.499C75.9848 153.499 75.5352 151.889 76.7214 150.649C77.9076 149.409 79.203 149.356 79.203 149.356C79.203 149.356 78.8847 151.898 77.9076 152.737C76.9306 153.576 75.9848 153.499 75.9848 153.499Z" fill="#4DA4AD"/>
<path d="M77.6641 157.837C77.6641 157.837 77.4666 156.382 78.657 155.118C79.8487 153.853 81.1223 153.039 81.2756 153.404C81.429 153.77 81.1691 156.126 79.9462 157.029C78.7233 157.932 77.6641 157.837 77.6641 157.837Z" fill="#4DA4AD"/>
<path d="M81.847 161.497C81.795 161.474 81.7495 161.437 81.7183 161.388C76.3303 152.821 77.1088 142.614 77.8612 132.743C78.8242 120.115 79.7339 108.187 68.9786 99.2134L68.8812 99.1328C66.8564 97.4429 64.3366 95.3406 61.4515 95.5618C61.2839 95.5748 61.1357 95.4642 61.1214 95.3159C61.1071 95.1676 61.2306 95.0362 61.3982 95.0232C64.5549 94.7812 67.1852 96.9759 69.2983 98.7399L69.3958 98.8219C80.3616 107.971 79.3986 120.585 78.4681 132.782C77.7208 142.574 76.9489 152.7 82.2499 161.126C82.3317 161.256 82.2784 161.422 82.1316 161.494C82.0419 161.539 81.9354 161.537 81.847 161.497Z" fill="#4DA4AD"/>
<path d="M65.9777 96.4929C65.9777 96.4929 63.2122 98.5431 60.3128 97.2409C57.4135 95.9374 54.5739 92.6838 56.6 92.5759C58.626 92.4679 65.9777 96.4929 65.9777 96.4929Z" fill="#C7F5C2"/>
<path d="M72.7614 101.633C72.4379 101.802 72.0247 101.654 71.8948 101.342C71.4881 100.368 70.8099 98.2393 71.7856 96.6405L72.6184 95.2771C72.8445 94.9064 73.4396 94.8973 73.6799 95.2615C74.2321 96.0928 74.9272 97.516 74.5816 99.0706C74.2425 100.607 73.3668 101.317 72.7614 101.633Z" fill="#C7F5C2"/>
<path d="M77.7312 110.342C77.3609 110.394 77.0373 110.122 77.0451 109.789C77.0698 108.75 77.3154 106.55 78.884 105.379L80.2225 104.382C80.5864 104.11 81.1426 104.294 81.218 104.712C81.3895 105.666 81.448 107.215 80.4863 108.548C79.5337 109.866 78.4252 110.243 77.7312 110.342Z" fill="#C7F5C2"/>
<path d="M73.5569 103.621C73.5569 103.621 65.2617 99.5409 62.8744 100.033C60.4871 100.524 65.0551 103.991 68.4807 104.673C71.9051 105.355 73.5569 103.621 73.5569 103.621Z" fill="#89D1BD"/>
<path d="M77.4505 111.724C77.4505 111.724 74.3004 109.159 70.8708 108.324C70.3575 108.199 69.8454 108.069 69.3321 107.941C68.9331 107.842 67.7492 107.276 67.4581 107.626C67.2294 107.901 67.5725 108.662 67.7037 108.931C68.2028 109.952 69.1891 110.611 70.2366 111.169C73.8598 113.101 77.4505 111.724 77.4505 111.724Z" fill="#C7F5C2"/>
<path d="M78.5031 117.679C78.5031 117.679 74.5511 115.28 71.462 115.204C70.8057 115.189 70.152 115.142 69.4944 115.146C68.7667 115.15 68.2858 115.095 68.6029 115.808C69.2735 117.313 70.7979 118.371 72.4847 118.896C76.1586 120.042 78.5031 117.679 78.5031 117.679Z" fill="#C7F5C2"/>
<path d="M78.6176 125.693C78.4968 125.728 76.6618 124.003 76.42 123.826C75.6078 123.231 74.7449 122.688 73.8417 122.207C72.9346 121.723 72.008 121.243 71.0034 120.933C70.3367 120.728 69.5453 120.575 68.8396 120.581C67.4101 120.59 68.3146 121.827 68.7877 122.511C69.7727 123.933 71.3101 125.048 73.0775 125.62C74.8463 126.193 76.832 126.219 78.6176 125.693Z" fill="#89D1BD"/>
<path d="M78.0977 133.501C78.0224 133.367 73.8611 131.297 73.457 131.137C72.0352 130.574 70.134 129.722 68.5329 129.865C68.4055 129.877 68.2743 129.897 68.1716 129.965C67.9 130.145 67.9819 130.519 68.1118 130.795C69.2594 133.22 72.2796 134.837 75.2335 134.605C76.2926 134.521 77.3726 134.197 78.0977 133.501Z" fill="#C7F5C2"/>
<path d="M78.4694 117.332C78.4694 117.332 79.0061 114.658 80.8113 112.792C82.6164 110.927 82.9438 114.142 81.8054 116.035C80.6683 117.928 78.4694 117.332 78.4694 117.332Z" fill="#89D1BD"/>
<path d="M78.6177 125.693C78.6177 125.693 79.6157 121.041 81.7158 120.268C83.816 119.496 82.9738 123.663 81.5586 124.944C80.1421 126.227 78.6177 125.693 78.6177 125.693Z" fill="#C7F5C2"/>
<path d="M78.0978 133.502C78.0978 133.502 80.6671 129.695 83.6938 128.783C86.7205 127.871 84.3761 132.574 82.0057 133.932C79.6352 135.29 78.0978 133.502 78.0978 133.502Z" fill="#89D1BD"/>
<path d="M77.6324 142.489C77.6324 142.489 75.4699 140.487 72.004 138.981C68.538 137.473 67.6127 137.299 67.5724 137.967C67.5321 138.636 67.9831 141.135 71.5998 143.279C75.2152 145.423 77.6324 142.489 77.6324 142.489Z" fill="#89D1BD"/>
<path d="M78.1341 150.56C78.1341 150.56 72.9657 147.67 70.0793 146.94C67.193 146.21 66.9656 146.108 67.6842 147.643C68.4016 149.179 70.976 150.537 73.4283 151.235C75.8806 151.934 78.1341 150.56 78.1341 150.56Z" fill="#C7F5C2"/>
<path d="M80.316 158.27C80.3134 158.252 80.3082 158.234 80.2991 158.216C80.2654 158.144 80.1874 158.097 80.1146 158.056C77.3569 156.47 74.1925 155.183 70.8656 155.035C70.4588 155.017 70.0351 154.998 69.6297 155.036C69.0734 155.088 69.089 155.121 69.2723 155.592C69.5218 156.237 69.9247 156.843 70.3977 157.379C71.3815 158.494 72.7356 159.345 74.2197 159.853C75.2919 160.222 76.4641 160.428 77.5947 160.245C78.7254 160.062 79.8027 159.438 80.2602 158.503C80.2966 158.43 80.329 158.348 80.316 158.27Z" fill="#C7F5C2"/>
<path d="M77.6325 142.489C77.6325 142.489 77.7716 139.553 80.7567 137.814C83.7418 136.074 86.2058 136.426 86.2058 136.426C86.2058 136.426 84.055 140.711 81.708 141.827C79.3635 142.945 77.6325 142.489 77.6325 142.489Z" fill="#C7F5C2"/>
<path d="M78.1341 150.56C78.1341 150.56 78.6526 147.978 81.6611 146.199C84.6696 144.421 87.5599 143.448 87.6236 144.132C87.6872 144.817 85.76 148.799 82.9126 149.943C80.0653 151.088 78.1341 150.56 78.1341 150.56Z" fill="#C7F5C2"/>
<path d="M75.9314 151.411C76.6188 154.98 77.3973 158.668 78.2394 162.394C80.4721 172.303 83.1297 182.462 85.5807 191.307C85.5846 191.307 85.5846 191.307 85.582 191.309C86.1486 193.347 86.7035 195.314 87.2376 197.192C87.4664 197.99 87.6912 198.771 87.9108 199.536C87.9108 199.539 87.9108 199.539 87.9121 199.542C88.6672 202.171 89.3806 204.596 90.0226 206.749H102.322C102.371 206.857 102.396 206.91 102.396 206.91L104.154 206.879C104.15 206.837 104.145 206.793 104.141 206.749C103.131 197.048 101.446 182.938 98.9949 168.767C97.5147 160.21 95.7563 151.629 93.6978 143.984C89.8446 129.685 84.9452 118.655 78.8684 117.169C71.1554 115.286 72.0963 131.504 75.9314 151.411Z" fill="#8CD0B8"/>
<g opacity="0.24">
<path opacity="0.24" d="M75.9314 151.41C76.6189 154.98 77.3973 158.668 78.2394 162.394C80.4721 172.303 83.1297 182.462 85.5807 191.307C85.5846 191.307 85.5846 191.307 85.582 191.309C86.1486 193.346 86.7035 195.313 87.2377 197.192C87.4664 197.989 87.6912 198.771 87.9108 199.536C87.9108 199.539 87.9108 199.539 87.9121 199.541C88.6672 202.17 89.3807 204.595 90.0226 206.748H102.322C102.371 206.856 102.396 206.91 102.396 206.91L104.154 206.878C104.15 206.837 104.145 206.793 104.141 206.748C103.131 197.048 101.446 182.938 98.9949 168.767C97.5147 160.21 95.7564 151.629 93.6978 143.983C92.5243 146.039 91.4197 149.996 92.5594 157.309C93.4353 162.912 94.896 169.829 95.924 175.253C97.234 182.159 97.8435 186.648 95.6524 182.948C95.6095 182.874 95.564 182.796 95.5159 182.713C95.0312 181.865 94.5114 180.759 93.9565 179.471C93.6212 178.696 93.2716 177.855 92.909 176.965C92.0656 174.901 91.1442 172.568 90.1331 170.173C89.2182 167.998 88.2266 165.772 87.1545 163.643C84.1278 157.629 80.4474 152.413 75.9314 151.41Z" fill="#7077D1"/>
</g>
<g opacity="0.57">
<path opacity="0.57" d="M80.7722 158.377C81.3661 160.574 86.7113 168.33 88.5553 170.965C89.8081 177.48 91.1233 184.202 92.3579 190.454C93.5548 196.534 94.675 202.168 95.5912 206.747H97.4158C96.1591 200.343 94.4554 191.701 92.6464 182.654C93.0376 181.757 93.5093 180.631 93.9577 179.468C94.7998 177.288 95.5613 174.971 95.5483 173.755C95.5315 172.161 94.1552 174.552 92.9102 176.963C92.5515 177.655 92.2045 178.348 91.9043 178.949C91.3156 176.018 90.723 173.072 90.1343 170.171C89.4586 166.834 88.7893 163.553 88.1447 160.425C88.1447 160.425 90.1447 151.101 90.9959 146.797C91.6977 143.239 88.3201 152.283 87.1271 155.526C84.5891 143.359 82.6319 134.664 82.498 136.035C82.3473 137.559 84.4552 149.402 87.1557 163.641C87.2337 164.056 87.313 164.47 87.3922 164.889C85.2752 162.308 80.1991 156.265 80.7722 158.377Z" fill="white"/>
<path opacity="0.57" d="M80.7718 126.961C81.7996 126.961 82.6328 125.878 82.6328 124.543C82.6328 123.207 81.7996 122.124 80.7718 122.124C79.744 122.124 78.9108 123.207 78.9108 124.543C78.9108 125.878 79.744 126.961 80.7718 126.961Z" fill="white"/>
<path opacity="0.57" d="M78.693 135.22C79.7208 135.22 80.5539 134.137 80.5539 132.801C80.5539 131.466 79.7208 130.383 78.693 130.383C77.6652 130.383 76.832 131.466 76.832 132.801C76.832 134.137 77.6652 135.22 78.693 135.22Z" fill="white"/>
<path opacity="0.57" d="M87.6007 139.9C88.5958 139.697 89.012 137.611 88.5301 135.241C88.0482 132.87 86.8508 131.113 85.8556 131.316C84.8605 131.519 84.4443 133.605 84.9262 135.975C85.4081 138.346 86.6055 140.103 87.6007 139.9Z" fill="white"/>
</g>
<path d="M50.5727 170.079C53.2148 181.78 66.6419 197.067 76.186 206.747H96.883C95.9928 202.871 94.4944 196.944 92.3579 190.455C89.9095 183.025 86.6229 174.854 82.4512 168.19C82.4512 168.19 82.4512 168.19 82.4512 168.184C82.4499 168.182 82.4499 168.182 82.4499 168.182C81.1348 166.078 79.7325 164.126 78.2393 162.393C72.6875 155.947 65.9012 152.542 57.8048 155.795C50.8235 158.603 49.1575 163.83 50.5727 170.079Z" fill="#83C1A4"/>
<path d="M68.4639 163.653C69.9367 163.653 71.1306 162.659 71.1306 161.431C71.1306 160.204 69.9367 159.209 68.4639 159.209C66.9911 159.209 65.7972 160.204 65.7972 161.431C65.7972 162.659 66.9911 163.653 68.4639 163.653Z" fill="white"/>
<path d="M77.0076 168.393C77.838 167.747 77.9058 166.444 77.1592 165.482C76.4126 164.519 75.1342 164.263 74.3039 164.908C73.4736 165.554 73.4057 166.857 74.1523 167.819C74.8989 168.782 76.1773 169.038 77.0076 168.393Z" fill="white"/>
<path d="M69.6879 171.229C70.3082 170.936 70.5382 170.119 70.2015 169.405C69.8649 168.691 69.0891 168.35 68.4688 168.643C67.8484 168.936 67.6185 169.753 67.9551 170.467C68.2918 171.181 69.0675 171.522 69.6879 171.229Z" fill="white"/>
<path d="M80.1805 175.114C80.8008 174.821 81.0308 174.004 80.694 173.29C80.3573 172.576 79.5815 172.235 78.9611 172.528C78.3407 172.822 78.1108 173.638 78.4475 174.352C78.7842 175.066 79.5601 175.407 80.1805 175.114Z" fill="white"/>
<path d="M56.339 162.478C56.5846 163.22 59.7933 166.149 63.9844 170.072C64.5965 170.646 65.2294 171.239 65.8792 171.852C70.4316 176.148 75.713 181.31 79.6026 186.057C79.9743 186.513 80.333 186.962 80.6787 187.41C81.3454 188.271 81.9562 189.114 82.4994 189.931C84.2512 192.564 85.7977 195.313 87.1324 197.956V197.959C87.4001 198.491 87.6613 199.015 87.9121 199.535C87.9121 199.538 87.9121 199.538 87.9134 199.541C89.1818 202.174 90.2305 204.653 91.0532 206.748H92.5633C91.4937 203.408 89.8095 198.981 87.2805 194.286V194.284C86.7542 193.3 86.1876 192.307 85.582 191.31C85.5833 191.307 85.5833 191.307 85.5807 191.307C83.7522 188.279 81.5624 185.214 78.9607 182.313C77.691 180.897 76.4278 179.539 75.1906 178.247C74.8488 177.887 74.5096 177.536 74.173 177.191C64.1144 166.85 55.8179 160.891 56.339 162.478Z" fill="white"/>
<path d="M80.5137 186.251C80.5137 186.251 64.0494 182.741 65.4764 183.917C66.9033 185.093 81.7951 187.604 81.7951 187.604L80.5137 186.251Z" fill="white"/>
<path d="M75.2421 178.778C75.2421 178.778 74.1403 167.315 73.5907 168.883C73.0412 170.452 74.4158 178.778 74.4158 178.778H75.2421Z" fill="white"/>
<path d="M65.7971 170.452C65.7971 170.452 57.8802 168.648 58.6196 169.942C59.3578 171.236 68.4639 172.169 68.4639 172.169L65.7971 170.452Z" fill="white"/>
<path opacity="0.24" d="M50.5728 170.079C53.2148 181.78 66.642 197.067 76.1861 206.747H96.883C95.9928 202.871 94.4944 196.944 92.3579 190.455C89.9095 183.025 86.6229 174.854 82.4513 168.19C82.5397 168.531 86.8802 185.228 87.2805 194.283V194.286C87.3273 195.383 87.3182 196.364 87.2376 197.192C87.209 197.464 87.1752 197.719 87.1324 197.957V197.96C86.6814 200.451 85.3182 200.944 82.45 197.71C71.5193 185.376 71.5193 194.224 64.5783 186.468C58.9018 180.123 53.6268 167.978 50.5728 170.079Z" fill="#43A896"/>
<path d="M102.323 206.749C102.372 206.857 102.397 206.91 102.397 206.91L104.155 206.879L111.061 206.749H102.323Z" fill="url(#paint1_linear_103_195)"/>
<path d="M189.705 128.287C189.674 140.321 186.111 149.375 180.144 154.789C179.299 155.557 178.409 156.255 177.472 156.87C173.763 159.327 169.347 160.61 164.424 160.61C158.266 160.61 151.316 158.598 143.967 154.351C130.643 146.664 118.671 133.171 110.361 117.889C109.908 117.052 109.463 116.207 109.033 115.363C102.436 102.446 98.4814 88.4232 98.5198 75.637C98.5889 52.0535 112.212 39.9354 130.881 44.1361C131.756 44.3357 132.647 44.5661 133.553 44.8349C136.986 45.8639 140.572 47.4305 144.258 49.5654C169.447 64.1102 189.79 99.351 189.705 128.287Z" fill="url(#paint2_linear_103_195)"/>
<path d="M180.175 143.715L180.144 154.781C179.299 155.549 178.409 156.248 177.472 156.862L177.51 144.229L145.74 110.862L138.844 124.562L110.392 108.136L110.361 117.889C109.908 117.052 109.463 116.207 109.033 115.363L109.056 105.84L137.977 122.535L144.496 109.572L130.735 95.1196L130.881 44.1438C131.756 44.3434 132.647 44.5738 133.553 44.8426L133.461 77.8487L161.468 94.0215L171.62 77.265L172.803 78.6473L162.274 96.0181L133.446 79.3769L133.4 94.5974L180.175 143.715Z" fill="#191D2C" fill-opacity="0.38"/>
<path d="M138.177 82.6788C138.184 78.9082 135.535 74.3159 132.256 72.4191C128.977 70.5223 126.304 72.0428 126.296 75.8134C126.289 79.584 132.21 90.1048 132.21 90.1048C132.21 90.1048 138.161 86.4494 138.177 82.6788ZM128.147 76.8885C128.155 74.3006 129.99 73.2562 132.24 74.554C134.498 75.8518 136.318 79.008 136.31 81.596C136.303 84.184 134.467 85.2284 132.217 83.9305C129.967 82.6327 128.14 79.4842 128.147 76.8885Z" fill="#2A5762"/>
<path d="M136.31 81.6046C136.318 79.0166 134.498 75.8604 132.24 74.5626C129.99 73.2648 128.155 74.3092 128.147 76.8971C128.139 79.4851 129.959 82.6413 132.217 83.9391C134.475 85.237 136.303 84.1926 136.31 81.6046Z" fill="white"/>
<path d="M173.648 127.151C173.655 123.38 171.006 118.788 167.727 116.891C164.448 114.994 161.775 116.515 161.768 120.285C161.76 124.056 167.681 134.577 167.681 134.577C167.681 134.577 173.64 130.921 173.648 127.151ZM163.626 121.36C163.634 118.772 165.469 117.728 167.719 119.026C169.977 120.324 171.797 123.48 171.789 126.068C171.782 128.656 169.946 129.7 167.696 128.402C165.438 127.105 163.618 123.956 163.626 121.36Z" fill="#2A5762"/>
<path d="M171.789 126.076C171.797 123.488 169.977 120.332 167.719 119.034C165.469 117.736 163.634 118.78 163.626 121.368C163.618 123.956 165.438 127.112 167.696 128.41C169.946 129.708 171.782 128.664 171.789 126.076Z" fill="white"/>
<path d="M143.628 103.989L136.702 102.561L152.629 119.57L145.879 97.3309L143.628 103.989Z" fill="#A7DFEC"/>
<path fill-rule="evenodd" clip-rule="evenodd" d="M148.817 289.872C155.898 293.842 161.71 294.169 168.095 290.485C168.095 290.485 208.369 267.238 288.917 220.783C291.659 219.187 292.765 217.304 292.805 215.258C292.805 215.176 292.805 215.135 292.805 215.053C292.805 212.025 292.805 210.51 292.805 210.469C292.151 210.346 291.496 210.469 291.005 210.797C289.367 208.955 286.666 207.277 283.064 205.271C283.064 205.271 253.145 187.958 193.348 153.291C189.337 150.999 185.244 150.958 180.087 153.987C96.6736 201.833 54.9261 225.736 54.9261 225.736C54.3121 226.063 53.78 226.391 53.2889 226.759C52.5112 225.859 51.2015 225.654 50.1374 226.227C50.1374 226.309 50.1374 227.823 50.1374 230.77C50.0146 232.448 51.4471 234.167 54.5577 236.009C117.425 271.904 148.817 289.872 148.817 289.872Z" fill="#3C4153"/>
<path fill-rule="evenodd" clip-rule="evenodd" d="M148.817 285.164C155.898 289.134 161.71 289.462 168.095 285.778C168.095 285.778 208.369 262.531 288.917 216.076C291.659 214.48 292.764 212.597 292.805 210.551C292.846 206.622 289.285 204.084 283.064 200.564C283.064 200.564 253.145 183.251 193.348 148.584C189.337 146.292 185.244 146.251 180.087 149.28C96.6735 197.085 54.9259 220.988 54.9259 220.988C48.8684 224.344 48.2954 227.577 54.5166 231.22C117.424 267.196 148.817 285.164 148.817 285.164Z" fill="#6C7595"/>
<path fill-rule="evenodd" clip-rule="evenodd" d="M150.659 279.72C157.167 283.363 162.528 283.691 168.381 280.293C168.381 280.293 205.422 258.929 279.463 216.199C281.959 214.725 283.023 213.006 283.023 211.123C283.064 207.481 279.79 205.148 274.06 201.955C274.06 201.955 246.556 186.034 191.547 154.191C187.863 152.063 184.098 152.063 179.35 154.846C102.69 198.763 64.3397 220.742 64.3397 220.742C58.7733 223.811 58.2413 226.799 63.9713 230.155C121.763 263.185 150.659 279.72 150.659 279.72Z" fill="white"/>
<path fill-rule="evenodd" clip-rule="evenodd" d="M152.623 273.827C158.517 277.142 163.347 277.429 168.668 274.359C168.668 274.359 202.188 255 269.23 216.322C271.522 214.971 272.423 213.416 272.464 211.697C272.505 208.422 269.558 206.294 264.36 203.388C264.36 203.388 239.475 188.981 189.705 160.126C186.39 158.203 182.993 158.203 178.695 160.699C109.198 200.523 74.49 220.415 74.49 220.415C69.4557 223.198 68.9646 225.899 74.1626 228.928C126.47 258.888 152.623 273.827 152.623 273.827Z" fill="url(#paint3_linear_103_195)"/>
<path d="M198.887 163.34L128.358 262.305L131.491 264.538L202.021 165.573L198.887 163.34Z" fill="white"/>
<path d="M140.386 270.021L178.327 212.966L179.064 211.861L180.291 212.27L242.995 232.775L241.93 236.009L180.496 215.953L143.251 271.903L140.386 270.021Z" fill="white"/>
<path d="M154.833 173.919L100.439 246.24L97.6966 244.194L152.091 171.872L154.833 173.919Z" fill="white"/>
<path d="M164.452 277.142L187.659 237.032L188.191 236.091L189.255 236.418L221.138 245.954L220.361 248.574L189.5 239.365L166.826 278.493L164.452 277.142Z" fill="white"/>
<path d="M217.864 176.497L201.329 204.084L260.39 222.993L259.571 225.612L198.873 206.171L197.195 205.639L198.096 204.165L215.531 175.106L217.864 176.497Z" fill="white"/>
<path fill-rule="evenodd" clip-rule="evenodd" d="M247.702 196.839C250.853 198.599 253.432 198.763 256.297 197.126L261.249 194.261C261.167 194.179 261.126 194.138 261.044 194.056L259.898 192.91C259.817 192.869 259.735 192.828 259.694 192.787C258.752 192.378 257.893 191.805 257.197 191.068L257.115 190.986C256.747 190.741 256.419 190.495 256.133 190.209C255.846 190.045 255.56 189.881 255.273 189.677C254.496 189.308 253.8 188.776 253.186 188.203C252.736 187.958 252.286 187.671 251.917 187.344C251.426 187.098 250.935 186.853 250.485 186.525C249.707 186.198 249.052 185.788 248.438 185.256C247.988 184.97 247.538 184.602 247.169 184.233L246.556 183.619C246.433 183.537 246.351 183.496 246.228 183.415C245.614 183.128 245 182.842 244.427 182.432C243.281 182.023 242.217 181.368 241.398 180.468C241.235 180.345 241.03 180.222 240.866 180.099L239.72 179.24C238.861 178.79 238.124 178.176 237.51 177.48L237.469 177.439C237.306 177.357 237.142 177.275 236.978 177.152C235.996 176.784 235.095 176.17 234.318 175.393L234.113 175.352C233.54 175.065 233.049 174.738 232.558 174.369C231.78 173.919 231.043 173.346 230.348 172.773C229.284 172.487 228.301 171.954 227.483 171.259L227.073 170.931C226.378 170.645 225.764 170.276 225.109 169.867L224.74 169.703L223.922 169.376C223.594 169.253 223.308 169.089 223.021 168.926C222.244 168.68 221.507 168.353 220.852 167.903C220.607 167.739 220.402 167.616 220.074 167.534C219.747 167.411 219.42 167.289 219.092 167.125L218.928 167.084C218.315 166.879 217.782 166.634 217.25 166.306C216.718 166.102 216.186 165.815 215.695 165.57C215.368 165.406 215.04 165.283 214.713 165.16C214.14 164.915 213.567 164.628 213.076 164.26L205.872 168.394C203.171 169.867 202.925 171.3 205.708 172.937L247.702 196.839Z" fill="#6C7595"/>
<path d="M231.081 175.175C230.932 177.376 230.736 179.656 230.506 181.962C229.896 188.097 229.049 194.413 228.228 199.922C228.225 199.922 228.225 199.922 228.226 199.924C228.037 201.193 227.848 202.419 227.666 203.59C227.588 204.087 227.51 204.575 227.434 205.052C227.434 205.053 227.434 205.053 227.432 205.055C227.172 206.694 226.923 208.208 226.695 209.552L219.287 210.465C219.264 210.534 219.254 210.568 219.254 210.568L218.192 210.68C218.191 210.654 218.191 210.628 218.191 210.6C218.08 204.682 218.049 196.059 218.474 187.34C218.732 182.075 219.154 176.777 219.827 172.018C221.088 163.12 223.222 156.112 226.772 154.765C231.28 153.061 231.916 162.9 231.081 175.175Z" fill="#8CD0B8"/>
<g opacity="0.24">
<path opacity="0.24" d="M231.081 175.175C230.932 177.376 230.736 179.655 230.506 181.962C229.896 188.097 229.049 194.413 228.228 199.922C228.225 199.922 228.225 199.922 228.226 199.924C228.037 201.193 227.848 202.419 227.666 203.59C227.588 204.087 227.51 204.574 227.434 205.052C227.434 205.053 227.434 205.053 227.432 205.054C227.172 206.694 226.923 208.208 226.695 209.552L219.287 210.465C219.264 210.534 219.254 210.568 219.254 210.568L218.192 210.68C218.191 210.654 218.191 210.628 218.191 210.6C218.08 204.682 218.049 196.059 218.474 187.34C218.732 182.075 219.154 176.777 219.827 172.018C220.686 173.168 221.645 175.47 221.501 179.96C221.389 183.4 221.021 187.676 220.804 191.019C220.528 195.276 220.494 198.026 221.539 195.633C221.559 195.585 221.58 195.536 221.604 195.481C221.832 194.933 222.064 194.23 222.303 193.413C222.447 192.921 222.595 192.389 222.747 191.825C223.102 190.519 223.484 189.045 223.916 187.527C224.305 186.15 224.737 184.734 225.226 183.372C226.606 179.529 228.435 176.114 231.081 175.175Z" fill="#7077D1"/>
</g>
<g opacity="0.57">
<path opacity="0.57" d="M228.682 179.731C228.487 181.098 225.842 186.168 224.928 187.893C224.656 191.91 224.362 196.056 224.082 199.914C223.811 203.665 223.554 207.142 223.342 209.968L222.243 210.103C222.525 206.152 222.911 200.82 223.329 195.238C223.028 194.726 222.66 194.084 222.302 193.416C221.634 192.166 221.003 190.826 220.921 190.093C220.813 189.131 221.819 190.469 222.748 191.828C223.016 192.218 223.276 192.61 223.502 192.949C223.64 191.141 223.777 189.321 223.918 187.53C224.078 185.469 224.237 183.444 224.393 181.512C224.393 181.512 222.497 176.043 221.666 173.514C220.979 171.423 223.684 176.619 224.643 178.485C225.269 170.967 225.803 165.585 225.987 166.4C226.191 167.308 225.8 174.597 225.228 183.375C225.212 183.63 225.195 183.886 225.178 184.143C226.261 182.433 228.87 178.417 228.682 179.731Z" fill="white"/>
<path opacity="0.57" d="M226.355 160.808C226.974 160.732 227.395 160.018 227.296 159.214C227.197 158.409 226.615 157.819 225.996 157.895C225.377 157.972 224.956 158.685 225.055 159.49C225.154 160.294 225.736 160.884 226.355 160.808Z" fill="white"/>
<path opacity="0.57" d="M228.219 165.628C228.838 165.552 229.26 164.838 229.161 164.033C229.062 163.229 228.48 162.639 227.861 162.715C227.242 162.792 226.82 163.506 226.919 164.31C227.018 165.114 227.6 165.704 228.219 165.628Z" fill="white"/>
<path opacity="0.57" d="M224.526 166.539C224.64 165.076 224.235 163.85 223.62 163.802C223.006 163.754 222.415 164.901 222.301 166.365C222.186 167.828 222.592 169.054 223.206 169.102C223.821 169.15 224.412 168.003 224.526 166.539Z" fill="white"/>
</g>
<path d="M247.741 184.535C247.017 191.78 240.063 201.986 235.032 208.525L222.565 210.063C222.815 207.662 223.277 203.98 224.083 199.913C225.007 195.256 226.381 190.09 228.399 185.766C228.399 185.766 228.399 185.766 228.399 185.763C228.4 185.762 228.4 185.762 228.4 185.762C229.037 184.397 229.736 183.117 230.507 181.962C233.374 177.667 237.209 175.112 242.327 176.47C246.739 177.642 248.129 180.666 247.741 184.535Z" fill="#83C1A4"/>
<path d="M236.489 181.996C237.376 181.887 238.021 181.199 237.929 180.459C237.838 179.72 237.046 179.209 236.159 179.318C235.272 179.427 234.627 180.115 234.718 180.855C234.81 181.594 235.602 182.105 236.489 181.996Z" fill="white"/>
<path d="M233.385 184.937C233.763 184.302 233.625 183.522 233.077 183.194C232.53 182.867 231.779 183.117 231.401 183.752C231.022 184.387 231.16 185.167 231.708 185.494C232.256 185.821 233.007 185.572 233.385 184.937Z" fill="white"/>
<path d="M237.301 186.076C237.451 185.62 237.252 185.146 236.857 185.015C236.462 184.885 236.02 185.148 235.87 185.603C235.72 186.058 235.919 186.533 236.314 186.663C236.71 186.794 237.152 186.531 237.301 186.076Z" fill="white"/>
<path d="M231.27 189.195C231.42 188.74 231.221 188.265 230.825 188.135C230.43 188.004 229.988 188.267 229.838 188.723C229.689 189.178 229.888 189.652 230.283 189.783C230.678 189.913 231.12 189.65 231.27 189.195Z" fill="white"/>
<path d="M243.704 180.386C243.612 180.851 241.896 182.853 239.662 185.528C239.336 185.92 238.998 186.324 238.653 186.741C236.229 189.666 233.43 193.168 231.44 196.317C231.25 196.618 231.067 196.916 230.893 197.212C230.555 197.78 230.25 198.333 229.983 198.865C229.124 200.581 228.395 202.353 227.787 204.044V204.045C227.665 204.386 227.546 204.722 227.435 205.053C227.435 205.055 227.435 205.055 227.433 205.056C226.864 206.737 226.417 208.308 226.077 209.63L225.167 209.742C225.563 207.651 226.249 204.86 227.424 201.843V201.842C227.669 201.211 227.936 200.569 228.227 199.924C228.226 199.923 228.226 199.923 228.229 199.923C229.106 197.962 230.198 195.954 231.549 194.013C232.209 193.066 232.869 192.154 233.519 191.283C233.699 191.041 233.877 190.805 234.053 190.572C239.344 183.596 243.9 179.392 243.704 180.386Z" fill="white"/>
<path d="M230.905 196.501C230.905 196.501 240.562 193.164 239.788 193.978C239.015 194.793 230.233 197.412 230.233 197.412L230.905 196.501Z" fill="white"/>
<path d="M233.526 191.608C233.526 191.608 233.339 184.621 233.787 185.525C234.235 186.429 234.024 191.547 234.024 191.547L233.526 191.608Z" fill="white"/>
<path d="M238.598 185.891C238.598 185.891 243.232 184.215 242.884 185.05C242.536 185.886 237.119 187.123 237.119 187.123L238.598 185.891Z" fill="white"/>
<path opacity="0.24" d="M247.741 184.535C247.017 191.78 240.063 201.986 235.032 208.525L222.565 210.063C222.815 207.662 223.277 203.98 224.083 199.913C225.007 195.256 226.381 190.09 228.399 185.766C228.37 185.978 226.994 196.358 227.424 201.841V201.843C227.478 202.506 227.556 203.097 227.666 203.59C227.704 203.751 227.743 203.903 227.787 204.042V204.044C228.243 205.511 229.101 205.706 230.589 203.545C236.259 195.304 236.914 200.633 240.52 195.446C243.469 191.204 245.746 183.497 247.741 184.535Z" fill="#43A896"/>
<path d="M219.288 210.467C219.266 210.536 219.255 210.57 219.255 210.57L218.193 210.682L214.024 211.116L219.288 210.467Z" fill="#FDFDFD"/>
<g opacity="0.98">
<path opacity="0.5" d="M159.074 193.474C159.074 193.52 159.074 193.566 159.07 193.608C159.07 193.649 159.065 193.691 159.065 193.733C159.06 193.779 159.051 193.825 159.047 193.867C159.042 193.908 159.037 193.95 159.033 193.996C159.024 194.038 159.014 194.084 159.005 194.13C158.996 194.172 158.991 194.213 158.977 194.255C158.968 194.301 158.95 194.343 158.94 194.389C158.926 194.431 158.917 194.472 158.903 194.514C158.889 194.556 158.871 194.602 158.852 194.648C158.839 194.69 158.825 194.731 158.806 194.768C158.788 194.814 158.765 194.861 158.741 194.902C158.723 194.939 158.705 194.981 158.686 195.023C158.663 195.064 158.635 195.11 158.612 195.152C158.589 195.194 158.57 195.231 158.547 195.272C158.52 195.314 158.492 195.36 158.46 195.402C158.432 195.439 158.409 195.48 158.381 195.517C158.353 195.559 158.316 195.605 158.284 195.647C158.256 195.684 158.228 195.725 158.201 195.762C158.164 195.804 158.127 195.85 158.09 195.892C158.057 195.929 158.03 195.966 157.997 196.003C157.96 196.044 157.914 196.09 157.872 196.132C157.835 196.169 157.808 196.201 157.771 196.238C157.729 196.28 157.678 196.322 157.632 196.368C157.595 196.4 157.558 196.437 157.521 196.47C157.47 196.511 157.419 196.553 157.364 196.599C157.327 196.631 157.29 196.664 157.248 196.696C157.193 196.738 157.133 196.784 157.073 196.825C157.036 196.853 156.994 196.886 156.957 196.913C156.888 196.964 156.814 197.01 156.74 197.061C156.707 197.084 156.675 197.103 156.647 197.126C156.541 197.195 156.425 197.26 156.31 197.329L145.529 203.552L143.888 204.5L97.8656 231.068L93.127 233.805L59.0092 253.499C58.8982 253.564 58.7873 253.624 58.6717 253.684C58.6347 253.707 58.5931 253.721 58.5561 253.744C58.4775 253.781 58.4035 253.823 58.325 253.86C58.2787 253.883 58.2325 253.901 58.1817 253.924C58.1077 253.957 58.0383 253.989 57.9644 254.021C57.9135 254.045 57.8627 254.063 57.8072 254.086C57.7425 254.114 57.6777 254.137 57.6084 254.165C57.4466 254.229 57.2802 254.29 57.1137 254.345C57.086 254.354 57.0629 254.364 57.0351 254.373C56.8872 254.424 56.7393 254.465 56.5913 254.512C56.5405 254.525 56.485 254.544 56.4341 254.558C56.3417 254.585 56.2446 254.609 56.1475 254.632C56.0874 254.646 56.0319 254.659 55.9718 254.673C55.8701 254.701 55.7638 254.724 55.6575 254.747C55.6066 254.757 55.5558 254.77 55.5049 254.78C55.4078 254.798 55.3108 254.817 55.2183 254.835C55.1674 254.844 55.112 254.858 55.0611 254.863C54.9317 254.886 54.8022 254.904 54.6728 254.928C54.6497 254.928 54.6312 254.932 54.6081 254.937C54.4601 254.955 54.3122 254.974 54.1596 254.992C54.1273 254.997 54.0903 254.997 54.0579 255.002C53.9423 255.015 53.8268 255.025 53.7112 255.034C53.6557 255.039 53.6002 255.043 53.5448 255.048C53.4477 255.052 53.3506 255.062 53.2535 255.066C53.1934 255.066 53.1333 255.071 53.0686 255.076C52.9761 255.08 52.8883 255.085 52.7958 255.085C52.7404 255.085 52.6803 255.085 52.6248 255.085C52.5277 255.085 52.4306 255.089 52.3335 255.089C52.2688 255.089 52.2041 255.089 52.144 255.085C52.0515 255.085 51.9591 255.085 51.8712 255.08C51.8111 255.08 51.7557 255.076 51.6909 255.071C51.5892 255.066 51.4829 255.062 51.3766 255.057C51.3118 255.052 51.2517 255.048 51.187 255.043C51.0853 255.034 50.9836 255.029 50.8865 255.015C50.8264 255.011 50.7663 255.006 50.7062 255.002C50.549 254.983 50.3965 254.965 50.2393 254.946C50.2116 254.941 50.1885 254.941 50.1607 254.937C49.9804 254.914 49.8047 254.886 49.6291 254.854C49.5643 254.844 49.5042 254.83 49.4395 254.817C49.3563 254.803 49.2731 254.784 49.1945 254.77C49.1298 254.757 49.0651 254.743 49.0003 254.729C48.9217 254.71 48.8385 254.692 48.7599 254.673C48.6952 254.659 48.6305 254.641 48.5658 254.622C48.4872 254.604 48.4086 254.581 48.33 254.558C48.2653 254.539 48.2006 254.521 48.1358 254.502C48.0572 254.479 47.9833 254.456 47.9047 254.433C47.8492 254.414 47.7937 254.396 47.7383 254.377C47.5996 254.331 47.4655 254.285 47.3314 254.234C47.3037 254.225 47.276 254.216 47.2482 254.202C47.091 254.142 46.9338 254.077 46.7813 254.012C46.7443 253.994 46.7027 253.975 46.6657 253.961C46.5501 253.911 46.4346 253.855 46.319 253.795C46.2774 253.776 46.2311 253.753 46.1895 253.73C46.0416 253.656 45.8983 253.578 45.7596 253.499L41.3585 250.943L36.6199 248.187L2.74705 228.502C2.63148 228.438 2.52514 228.368 2.41881 228.299C2.40032 228.285 2.38183 228.271 2.36334 228.262C2.34485 228.253 2.33098 228.239 2.31249 228.23C2.24777 228.183 2.17842 228.137 2.10907 228.091C2.09058 228.077 2.07209 228.063 2.0536 228.049C2.03511 228.035 2.01661 228.022 1.9935 228.003C1.9334 227.962 1.87792 227.92 1.82245 227.874C1.80396 227.86 1.78547 227.846 1.76697 227.827C1.74848 227.814 1.72999 227.795 1.7115 227.781C1.66065 227.74 1.60516 227.693 1.55431 227.652C1.53582 227.638 1.52196 227.619 1.50346 227.601C1.48497 227.582 1.46647 227.564 1.44798 227.55C1.40175 227.508 1.35552 227.467 1.31392 227.421C1.31392 227.421 1.3093 227.416 1.30467 227.416C1.27231 227.384 1.23995 227.351 1.20758 227.314C1.1706 227.273 1.12438 227.231 1.08739 227.189C1.07815 227.18 1.07352 227.171 1.06428 227.162C1.03654 227.134 1.01342 227.106 0.990305 227.079C0.953321 227.037 0.916334 226.995 0.883973 226.949L0.879357 226.944C0.856242 226.917 0.837743 226.889 0.814628 226.861C0.810005 226.852 0.800757 226.847 0.800757 226.838C0.768396 226.797 0.736041 226.75 0.70368 226.709C0.694434 226.699 0.689804 226.69 0.685181 226.681C0.666689 226.653 0.648199 226.625 0.629707 226.593C0.601969 226.551 0.574229 226.505 0.546491 226.464C0.537245 226.445 0.528005 226.431 0.518759 226.413C0.50489 226.39 0.491019 226.367 0.481773 226.348C0.458658 226.302 0.430915 226.26 0.4078 226.219C0.398554 226.2 0.393938 226.182 0.380069 226.163C0.370823 226.14 0.361572 226.117 0.352326 226.098C0.329211 226.057 0.310717 226.011 0.292225 225.969C0.282979 225.946 0.278363 225.927 0.264493 225.904C0.255247 225.886 0.250624 225.867 0.241378 225.844C0.222886 225.798 0.20439 225.756 0.190521 225.71C0.181275 225.687 0.176656 225.669 0.172033 225.645C0.16741 225.627 0.158162 225.608 0.158162 225.59C0.144293 225.544 0.130421 225.497 0.121175 225.456C0.116552 225.433 0.111927 225.41 0.107304 225.386C0.102681 225.368 0.0980671 225.35 0.0934441 225.331C0.0841981 225.289 0.0749475 225.243 0.0657015 225.197C0.0610785 225.169 0.0610807 225.146 0.0564577 225.123C0.0564577 225.104 0.0518302 225.091 0.0518302 225.072C0.0472072 225.031 0.0379589 224.984 0.0379589 224.938C0.0379589 224.91 0.0379656 224.887 0.0333426 224.859C0.0333426 224.846 0.0333426 224.832 0.0333426 224.813C-0.0267566 223.375 0.893222 221.928 2.79328 220.828L20.7814 210.445L22.4226 209.497L68.454 182.924L73.1926 180.187L100.099 164.654C103.765 162.537 109.696 162.537 113.339 164.654L113.482 164.737L118.221 167.492L156.361 189.655C158.173 190.709 159.079 192.092 159.074 193.474Z" fill="url(#paint4_linear_103_195)"/>
<path d="M143.891 204.495L145.532 203.547L114.614 185.684L98.7151 194.925L84.8137 186.9L118.215 167.488L113.476 164.733L80.0612 184.149L73.1868 180.183L68.4482 182.919L75.3365 186.895L48.4444 202.526L43.7197 205.272L48.4768 208.018L62.013 215.835L47.751 224.124L22.4215 209.497L20.7803 210.445L47.7649 226.024L63.6634 216.783L77.2874 224.651L36.6326 248.192L41.3712 250.947L82.0445 227.398L93.1398 233.805L97.8783 231.068L86.7692 224.656L113.661 209.03L118.386 206.284L113.629 203.538L100.37 195.882L114.632 187.593L143.891 204.495ZM82.0029 221.905L53.1969 205.272L80.089 189.646L91.7945 196.405L77.0794 204.957L94.1799 214.832L82.0029 221.905ZM108.895 206.275L95.9968 213.769L80.7223 204.953L93.6252 197.454L108.895 206.275Z" fill="#446F8E"/>
<path d="M0.0277313 224.813C0.0277313 224.827 0.0277313 224.841 0.0277313 224.859C0.0277313 224.887 0.0277358 224.915 0.0323589 224.943C0.0369819 224.989 0.0416072 225.03 0.0462302 225.077C0.0462302 225.095 0.0508464 225.109 0.0508464 225.128C0.0554694 225.151 0.0554672 225.178 0.0600902 225.202C0.0693362 225.248 0.0785868 225.289 0.0878328 225.336C0.0924558 225.354 0.0970766 225.373 0.0970766 225.391C0.1017 225.414 0.106325 225.437 0.110948 225.46C0.120194 225.507 0.134065 225.548 0.147934 225.594C0.152557 225.613 0.157176 225.631 0.166422 225.65C0.171045 225.673 0.180298 225.692 0.184921 225.715C0.19879 225.761 0.217275 225.803 0.235767 225.849C0.245013 225.867 0.249636 225.89 0.258882 225.909C0.268128 225.932 0.272751 225.95 0.281997 225.974C0.300489 226.02 0.323607 226.061 0.342099 226.108C0.351345 226.131 0.360589 226.149 0.374458 226.172C0.383704 226.191 0.392954 226.209 0.4022 226.228C0.425315 226.274 0.448424 226.316 0.476162 226.357C0.490031 226.38 0.499279 226.404 0.513148 226.427C0.522394 226.445 0.531645 226.459 0.540891 226.477C0.568629 226.519 0.596369 226.565 0.624107 226.607C0.642599 226.635 0.661089 226.662 0.679581 226.695C0.684204 226.704 0.693446 226.713 0.698069 226.723C0.73043 226.764 0.762796 226.81 0.795157 226.852C0.79978 226.861 0.804398 226.866 0.813644 226.875C0.836759 226.903 0.855258 226.931 0.878373 226.958L0.882989 226.963C0.915351 227.005 0.95696 227.046 0.989321 227.092C1.01244 227.12 1.03556 227.148 1.06329 227.176C1.07254 227.185 1.07716 227.194 1.08641 227.203C1.12339 227.245 1.16499 227.287 1.2066 227.328C1.23896 227.36 1.27133 227.397 1.30369 227.43L1.3083 227.434C1.34991 227.476 1.39615 227.518 1.44238 227.559C1.46087 227.578 1.47936 227.596 1.49785 227.61C1.51634 227.629 1.53022 227.642 1.54871 227.661C1.59956 227.703 1.65041 227.749 1.70126 227.79C1.71975 227.804 1.73825 227.823 1.75675 227.837C1.77524 227.851 1.79373 227.869 1.81222 227.883C1.8677 227.924 1.92779 227.971 1.98327 228.012C2.00176 228.026 2.02026 228.04 2.04337 228.059C2.06186 228.072 2.08035 228.086 2.09885 228.1C2.16357 228.146 2.23291 228.193 2.30225 228.234C2.32075 228.243 2.33462 228.257 2.35311 228.267C2.3716 228.28 2.39009 228.294 2.40858 228.304C2.51491 228.373 2.62587 228.438 2.73682 228.507L45.7586 253.508C45.8973 253.591 46.0452 253.665 46.1886 253.744C46.2302 253.767 46.2718 253.786 46.318 253.809C46.4336 253.864 46.5492 253.92 46.6647 253.971C46.7063 253.989 46.7433 254.008 46.7849 254.021C46.9375 254.086 47.0947 254.151 47.2518 254.211C47.2796 254.22 47.3073 254.229 47.3351 254.243C47.4691 254.294 47.6032 254.34 47.7419 254.387C47.7974 254.405 47.8528 254.424 47.9129 254.442C47.9869 254.465 48.0655 254.488 48.1395 254.511C48.2042 254.53 48.2689 254.548 48.3336 254.567C48.4122 254.59 48.4908 254.609 48.5694 254.627C48.6341 254.646 48.6988 254.659 48.7636 254.678C48.8422 254.696 48.9208 254.715 49.004 254.733C49.0687 254.747 49.1334 254.761 49.2028 254.775C49.286 254.793 49.3646 254.807 49.4478 254.821C49.5125 254.835 49.5726 254.844 49.6373 254.858C49.813 254.891 49.9887 254.918 50.169 254.941C50.1921 254.946 50.2198 254.946 50.2476 254.951C50.4001 254.974 50.5573 254.988 50.7145 255.006C50.7746 255.011 50.8347 255.02 50.8948 255.025C50.9965 255.034 51.0936 255.043 51.1953 255.048C51.26 255.052 51.3201 255.057 51.3848 255.062C51.4912 255.066 51.5975 255.071 51.6992 255.075C51.7593 255.08 51.8148 255.08 51.8749 255.085C51.9673 255.089 52.0598 255.089 52.1476 255.089C52.2124 255.089 52.2724 255.094 52.3372 255.094C52.4342 255.094 52.5313 255.094 52.6284 255.089C52.6839 255.089 52.744 255.089 52.7995 255.085C52.8919 255.08 52.9798 255.08 53.0722 255.075C53.1323 255.071 53.1971 255.071 53.2572 255.066C53.3542 255.062 53.4513 255.052 53.5484 255.048C53.6039 255.043 53.6593 255.043 53.7102 255.038C53.8258 255.029 53.9414 255.015 54.0569 255.006C54.0939 255.002 54.1263 255.002 54.1633 254.997C54.3112 254.978 54.4638 254.96 54.6117 254.941C54.6348 254.937 54.6533 254.937 54.6764 254.932C54.8059 254.914 54.9353 254.895 55.0647 254.872C55.1156 254.863 55.1711 254.854 55.2219 254.844C55.319 254.826 55.4161 254.807 55.5086 254.789C55.5594 254.78 55.6103 254.766 55.6565 254.756C55.7628 254.733 55.8692 254.71 55.9709 254.687C56.031 254.673 56.0864 254.659 56.1419 254.646C56.239 254.622 56.3315 254.595 56.4285 254.572C56.484 254.558 56.5349 254.539 56.5857 254.525C56.7337 254.484 56.8816 254.437 57.0295 254.387C57.0573 254.377 57.0804 254.368 57.1081 254.364C57.2745 254.308 57.441 254.248 57.6028 254.183C57.6675 254.155 57.7322 254.132 57.8016 254.105C57.8524 254.082 57.9079 254.063 57.9588 254.04C58.0327 254.008 58.1021 253.975 58.176 253.943C58.2223 253.92 58.2731 253.901 58.3194 253.878C58.3979 253.841 58.4765 253.8 58.5505 253.763C58.5875 253.744 58.6291 253.726 58.6661 253.702C58.7817 253.642 58.8926 253.582 59.0036 253.518L156.309 197.339C156.424 197.274 156.535 197.205 156.642 197.135C156.674 197.112 156.706 197.094 156.739 197.07C156.813 197.024 156.887 196.973 156.956 196.923C156.998 196.895 157.035 196.867 157.072 196.835C157.132 196.793 157.192 196.747 157.247 196.705C157.289 196.673 157.326 196.641 157.363 196.608C157.414 196.567 157.469 196.525 157.52 196.479C157.557 196.446 157.594 196.409 157.631 196.377C157.677 196.335 157.723 196.294 157.77 196.248C157.807 196.211 157.839 196.178 157.871 196.141C157.913 196.1 157.955 196.058 157.996 196.012C158.029 195.975 158.061 195.938 158.089 195.901C158.126 195.859 158.163 195.813 158.2 195.771C158.232 195.734 158.255 195.697 158.287 195.656C158.32 195.614 158.352 195.568 158.385 195.526C158.412 195.489 158.435 195.448 158.459 195.411C158.486 195.365 158.519 195.323 158.546 195.277C158.569 195.24 158.593 195.198 158.611 195.157C158.634 195.11 158.662 195.069 158.685 195.022C158.704 194.981 158.722 194.944 158.741 194.902C158.764 194.856 158.782 194.814 158.801 194.768C158.819 194.727 158.833 194.685 158.847 194.643C158.865 194.597 158.884 194.556 158.898 194.509C158.912 194.468 158.921 194.426 158.935 194.385C158.949 194.338 158.962 194.297 158.972 194.25C158.981 194.209 158.99 194.167 158.999 194.126C159.009 194.079 159.018 194.038 159.027 193.992C159.036 193.95 159.036 193.908 159.046 193.867C159.05 193.82 159.059 193.779 159.064 193.733C159.069 193.691 159.069 193.649 159.069 193.608C159.069 193.562 159.073 193.52 159.073 193.474C159.073 193.469 159.073 193.465 159.073 193.46L159.078 195.836C159.083 197.232 158.158 198.633 156.313 199.696L59.0128 255.88C58.9019 255.945 58.7909 256.005 58.6753 256.065C58.6383 256.083 58.5967 256.102 58.5598 256.125C58.4812 256.162 58.4072 256.203 58.3286 256.24C58.2824 256.264 58.2361 256.282 58.1853 256.305C58.1113 256.338 58.042 256.37 57.968 256.402C57.9171 256.425 57.8663 256.444 57.8108 256.467C57.76 256.485 57.7137 256.509 57.6629 256.527C57.649 256.532 57.6305 256.541 57.6166 256.546C57.4548 256.61 57.2884 256.67 57.122 256.726C57.0942 256.735 57.0711 256.744 57.0434 256.749C56.8955 256.795 56.7521 256.841 56.5996 256.888C56.5765 256.897 56.5487 256.902 56.5256 256.911C56.4979 256.92 56.4701 256.929 56.4378 256.934C56.3453 256.962 56.2482 256.985 56.1558 257.008C56.0957 257.022 56.0402 257.036 55.9801 257.049C55.8738 257.073 55.7721 257.096 55.6657 257.119C55.6241 257.128 55.5872 257.137 55.5455 257.147C55.5363 257.147 55.5224 257.151 55.5132 257.156C55.4161 257.174 55.319 257.193 55.2266 257.211C55.1757 257.221 55.1202 257.23 55.0694 257.239C54.9446 257.262 54.8151 257.281 54.6857 257.299C54.6625 257.304 54.6441 257.308 54.6209 257.308C54.6209 257.308 54.6209 257.308 54.6163 257.308C54.4684 257.332 54.3204 257.35 54.1679 257.364C54.1309 257.368 54.0985 257.368 54.0616 257.373C53.946 257.387 53.8304 257.396 53.7148 257.405C53.7102 257.405 53.7102 257.405 53.7056 257.405C53.6547 257.41 53.5992 257.415 53.5484 257.415C53.4513 257.424 53.3542 257.429 53.2618 257.433C53.197 257.438 53.137 257.438 53.0722 257.442C52.9844 257.447 52.8919 257.452 52.8041 257.452C52.7948 257.452 52.7902 257.452 52.781 257.452C52.7301 257.452 52.6793 257.452 52.6284 257.452C52.5313 257.452 52.4342 257.456 52.3372 257.456C52.2724 257.456 52.2077 257.456 52.143 257.452C52.0505 257.452 51.9627 257.447 51.8702 257.447C51.8518 257.447 51.8379 257.447 51.8194 257.447C51.7778 257.447 51.7362 257.442 51.6899 257.442C51.5836 257.438 51.4819 257.433 51.3756 257.429C51.3109 257.424 51.2508 257.419 51.186 257.415C51.0843 257.405 50.9872 257.401 50.8855 257.392C50.8486 257.387 50.8162 257.387 50.7792 257.382C50.7561 257.378 50.7284 257.378 50.7052 257.373C50.5481 257.355 50.3955 257.341 50.2383 257.318C50.2106 257.313 50.1875 257.313 50.1597 257.308C49.9841 257.285 49.8038 257.253 49.6281 257.225C49.6096 257.221 49.5957 257.221 49.5772 257.216C49.531 257.207 49.4848 257.197 49.4385 257.188C49.3553 257.174 49.2767 257.156 49.1935 257.142C49.1288 257.128 49.0594 257.114 48.9947 257.1C48.9161 257.082 48.8375 257.063 48.7543 257.045C48.6896 257.031 48.6249 257.013 48.5555 256.994C48.4769 256.976 48.3984 256.952 48.3244 256.934C48.2597 256.915 48.1949 256.897 48.1302 256.878C48.0516 256.855 47.9777 256.832 47.9037 256.809C47.8713 256.8 47.839 256.786 47.802 256.777C47.7789 256.767 47.7558 256.763 47.7326 256.754C47.594 256.707 47.4599 256.661 47.3258 256.61C47.2981 256.601 47.2703 256.592 47.2426 256.578C47.0854 256.518 46.9282 256.453 46.7757 256.388C46.7341 256.37 46.6971 256.351 46.6555 256.333C46.5399 256.282 46.4243 256.227 46.3088 256.171C46.2671 256.148 46.2255 256.13 46.1793 256.106C46.0314 256.032 45.8881 255.954 45.7494 255.871L2.72758 230.869C2.68597 230.846 2.65361 230.823 2.612 230.8C2.57964 230.782 2.54265 230.758 2.51029 230.735C2.45481 230.698 2.39472 230.666 2.33924 230.629C2.28839 230.597 2.23754 230.56 2.19131 230.527C2.13583 230.49 2.08498 230.453 2.03413 230.416C1.9879 230.384 1.94167 230.347 1.89544 230.31C1.84458 230.273 1.79834 230.236 1.74749 230.194C1.70126 230.157 1.65966 230.125 1.61806 230.088C1.57183 230.051 1.52559 230.009 1.48398 229.968C1.46549 229.949 1.447 229.936 1.42851 229.917C1.39152 229.885 1.35916 229.852 1.32218 229.82C1.30831 229.806 1.29444 229.797 1.28519 229.783C1.21584 229.714 1.15112 229.649 1.09103 229.58C1.07716 229.561 1.06329 229.547 1.04942 229.529C0.998569 229.469 0.947714 229.408 0.896861 229.348C0.887615 229.335 0.873748 229.321 0.864502 229.311C0.859879 229.307 0.855254 229.298 0.850631 229.293C0.832138 229.27 0.818265 229.251 0.799773 229.228C0.753543 229.168 0.707317 229.108 0.66571 229.048C0.642595 229.016 0.624107 228.983 0.600992 228.946C0.564008 228.891 0.531638 228.835 0.499277 228.78C0.490031 228.761 0.480791 228.747 0.471545 228.729C0.457676 228.706 0.448428 228.687 0.434559 228.664C0.411444 228.618 0.383701 228.572 0.360586 228.525C0.342094 228.488 0.323604 228.447 0.305112 228.405C0.281997 228.359 0.263503 228.313 0.245011 228.262C0.235765 228.239 0.226526 228.216 0.21728 228.193C0.212657 228.174 0.203404 228.16 0.198781 228.142C0.184912 228.096 0.16642 228.049 0.152551 228.008C0.138681 227.966 0.129444 227.924 0.115575 227.883C0.101706 227.837 0.0924513 227.79 0.0832053 227.744C0.0785823 227.716 0.0693407 227.689 0.0647177 227.656C0.0600947 227.642 0.060097 227.633 0.0554739 227.619C0.0462279 227.573 0.0416049 227.527 0.0323589 227.481C0.0277358 227.439 0.0231106 227.397 0.0184876 227.356C0.0138645 227.31 0.00924378 227.263 0.00924378 227.213C0.00462076 227.166 0.00461624 227.12 0.00461624 227.074C0.00461624 227.065 0.00461624 227.055 0.00461624 227.046L0 224.67C0.0231151 224.73 0.0277313 224.772 0.0277313 224.813Z" fill="url(#paint5_linear_103_195)"/>
</g>
<path fill-rule="evenodd" clip-rule="evenodd" d="M226 203.135L226.041 203.176C226.901 204.445 227.269 205.959 227.023 207.269C226.819 208.579 226.041 209.725 224.813 210.461C223.667 211.157 222.521 211.853 221.375 212.549C220.229 213.244 219.083 213.94 217.978 214.636C216.791 215.373 215.481 215.741 214.376 215.782C213.312 215.864 212.453 215.618 212.002 215.004C212.002 215.004 212.002 215.004 212.002 214.963C211.552 214.309 211.593 213.326 211.961 212.221C212.33 211.075 212.944 209.765 213.926 208.66C214.827 207.637 215.727 206.573 216.627 205.55C217.528 204.527 218.428 203.462 219.329 202.439C220.27 201.334 221.498 200.802 222.685 200.925C223.913 201.129 225.1 201.866 226 203.135Z" fill="#5A5A5A"/>
<path fill-rule="evenodd" clip-rule="evenodd" d="M199.191 210.379V210.42C199.56 211.73 199.314 213.121 198.577 214.185C197.841 215.25 196.654 216.027 195.139 216.314C193.748 216.6 192.356 216.887 190.924 217.132C189.532 217.419 188.141 217.705 186.708 217.951C185.235 218.237 183.802 218.196 182.697 217.951C181.633 217.705 180.855 217.296 180.651 216.641C180.651 216.641 180.651 216.641 180.651 216.6C180.446 215.945 180.896 215.127 181.674 214.226C182.451 213.326 183.597 212.425 184.989 211.73C186.299 211.116 187.608 210.461 188.877 209.847C190.187 209.233 191.497 208.578 192.766 207.964C194.157 207.309 195.549 207.187 196.695 207.596C197.923 208.046 198.823 209.028 199.191 210.379Z" fill="#5A5A5A"/>
<path fill-rule="evenodd" clip-rule="evenodd" d="M194.362 187.173C193.912 185.208 193.584 183.284 193.461 181.524C193.257 178.168 194.321 175.835 195.344 172.684C197.636 165.521 200.133 158.031 202.016 150.787C202.016 150.787 196.94 144.565 185.521 144.32C184.825 148.863 181.674 164.743 181.019 171.947C180.405 178.618 180.692 179.928 182.697 185.986C184.866 192.493 186.708 196.995 187.568 199.656C187.813 200.352 187.977 200.925 188.141 201.375C188.223 201.62 188.304 201.866 188.386 202.071L190.515 207.924C191.088 209.847 194.812 209.683 196.777 208.456C198.537 207.351 197.923 206.204 197.677 204.567C196.736 198.674 195.672 192.943 194.362 187.173Z" fill="#2A3A58"/>
<path fill-rule="evenodd" clip-rule="evenodd" d="M215.85 183.939C214.867 182.18 214.008 180.42 213.394 178.782C212.248 175.631 212.616 173.052 212.698 169.778C212.862 162.247 213.107 154.348 212.903 146.858C212.903 146.858 206.886 149.191 195.835 152.219C196.49 156.763 197.35 166.053 198.741 173.134C200.051 179.724 200.542 180.993 204.185 186.191C208.114 191.798 211.266 195.522 212.862 197.814C213.271 198.428 213.64 198.919 213.885 199.288C214.049 199.533 214.172 199.738 214.335 199.902L218.06 204.936C219.656 207.433 226.409 203.667 224.731 201.212C221.784 195.4 219.001 189.629 215.85 183.939Z" fill="#3B4963"/>
<path fill-rule="evenodd" clip-rule="evenodd" d="M178.727 118.494C178.686 119.64 178.563 122.219 178.4 123.283C178.195 124.47 177.704 124.756 176.599 125.984C175.002 127.744 172.137 130.977 167.922 135.684C165.098 134.988 163.092 137.158 162.314 139.122C160.554 143.788 165.179 145.998 167.226 143.092C167.635 142.478 167.471 141.905 167.922 141.21C168.495 140.35 169.436 140.35 170.296 139.982C171.687 139.327 173.652 137.403 174.88 136.38C177.99 133.761 186.585 128.563 188.263 125.084C189.082 123.365 189.246 121.4 189.123 118.208C186.053 119.067 182.82 119.149 179.791 118.453C179.423 118.903 179.177 118.085 178.727 118.494Z" fill="#FFC9A7"/>
<path fill-rule="evenodd" clip-rule="evenodd" d="M180.282 120.745C182.779 121.728 186.544 122.301 188.509 121.728C189.941 121.318 189.982 120.254 190.31 119.067C190.76 117.553 191.251 115.588 191.783 113.173C192.356 110.718 193.134 108.426 191.988 106.011C191.497 104.947 190.678 104.005 189.614 103.309C187.281 101.795 184.211 101.836 181.797 103.35C180.896 103.923 180.282 104.619 179.873 105.438C178.973 107.116 178.44 112.355 178.113 114.483C177.949 115.67 177.827 116.857 177.867 117.839C177.867 118.085 177.908 118.33 177.908 118.535C178.195 119.968 179.095 120.295 180.282 120.745Z" fill="#171A27"/>
<path fill-rule="evenodd" clip-rule="evenodd" d="M210.16 153.857C204.758 156.967 194.525 155.207 188.673 150.541C185.603 148.086 185.316 146.98 184.907 143.215C183.843 134.17 183.679 114.196 183.516 110.308C183.27 106.174 184.907 103.35 189.082 101.058C193.748 101.999 198.864 102.613 204.389 102.859C209.915 106.338 213.435 108.916 214.908 110.595C214.663 120.827 214.458 131.509 214.294 142.724C214.171 147.144 214.663 151.237 210.16 153.857Z" fill="#272D42"/>
<path fill-rule="evenodd" clip-rule="evenodd" d="M201.074 100.485C193.175 102.45 190.064 103.923 190.064 103.923C182.493 121.523 217.61 109.08 201.074 100.485Z" fill="#171A27"/>
<path fill-rule="evenodd" clip-rule="evenodd" d="M200.788 101.017C194.485 102.572 191.374 103.35 191.374 103.35C185.357 117.348 213.353 107.525 200.788 101.017Z" fill="#ECA87D"/>
<path fill-rule="evenodd" clip-rule="evenodd" d="M201.156 100.076C203.08 97.2928 202.875 93.6911 200.624 91.1535C198.373 88.6159 194.648 87.7154 191.374 88.9842C190.064 90.0893 189.205 91.6037 189 93.2409C188.836 94.4687 189.082 95.6966 188.959 97.0472C188.754 99.2983 188.222 101.918 189.041 103.514C190.433 106.215 196.695 105.028 198.782 103.637C200.01 102.818 200.788 101.631 201.156 100.076Z" fill="#FFC9A7"/>
<path fill-rule="evenodd" clip-rule="evenodd" d="M206.968 88.7795C206.763 88.452 206.518 88.2064 206.231 87.9609L206.19 87.9199C206.108 87.879 206.067 87.7972 205.985 87.7562C205.945 87.7562 205.945 87.7153 205.904 87.7153C205.699 87.5925 205.535 87.4288 205.29 87.306C205.249 87.306 205.249 87.2651 205.208 87.2651C205.167 87.2242 205.126 87.2242 205.085 87.1832C203.653 86.3646 201.893 85.7098 199.846 83.1313C198.577 81.4941 196.899 80.0616 193.461 80.962C190.801 81.6578 188.959 83.9089 189.041 86.4465C189.082 88.6976 190.392 90.3348 192.52 91.0305C194.239 91.6036 196.163 91.3989 198.25 91.931C198.455 91.9719 198.618 92.0538 198.823 92.0947C200.337 92.5859 201.033 93.4863 200.501 94.8779C200.337 95.2872 200.215 95.6965 200.133 96.0239C199.764 97.2927 199.969 97.8248 200.747 97.5792C202.138 97.129 203.202 97.088 203.857 97.5792C205.29 98.7661 208.932 91.6854 206.968 88.7795Z" fill="#5B3861"/>
<path fill-rule="evenodd" clip-rule="evenodd" d="M203.571 96.7603C204.348 97.3743 204.307 98.684 203.489 99.7072C202.67 100.73 201.401 101.099 200.665 100.485C199.887 99.8709 199.928 98.5612 200.747 97.538C201.524 96.5147 202.793 96.1873 203.571 96.7603Z" fill="#FFC9A7"/>
<path fill-rule="evenodd" clip-rule="evenodd" d="M219.983 125.82C214.376 124.797 209.465 126.188 209.137 128.194C209.383 129.544 209.547 130.895 209.669 132.164C209.915 134.415 209.792 135.356 208.892 136.42C208.892 136.42 205.413 140.104 198.496 147.471C195.672 146.735 193.625 148.822 192.807 150.787C190.924 155.412 195.508 157.744 197.636 154.879C198.086 154.266 197.923 153.693 198.373 153.038C198.987 152.219 199.887 152.219 200.788 151.851C202.179 151.237 204.185 149.395 205.454 148.372C208.646 145.834 217.364 140.882 219.124 137.403C220.311 134.988 220.27 132 219.983 125.82Z" fill="#FFC9A7"/>
<path fill-rule="evenodd" clip-rule="evenodd" d="M209.301 129.054C211.716 129.831 217.159 129.299 219.328 127.826C220.556 127.007 220.433 125.984 220.433 124.715C220.393 121.482 220.024 114.033 218.019 111.823C217.241 110.963 216.177 110.308 214.949 109.981C212.289 109.244 209.342 110.185 207.541 112.396C206.845 113.214 206.477 114.074 206.313 114.974C205.986 116.857 207.009 121.973 207.377 124.142C207.582 125.329 207.827 126.516 208.155 127.416C208.441 128.235 208.728 128.89 209.301 129.054Z" fill="#171A27"/>
<path fill-rule="evenodd" clip-rule="evenodd" d="M195.307 166.544C195.144 168.509 194.694 170.473 193.998 172.315C191.992 177.636 188.841 181.565 186.18 184.43C184.707 185.986 183.397 187.172 182.21 187.705C180.082 188.728 179.018 189.219 179.018 189.219C178.936 188.605 179.141 187.95 179.632 187.541C177.708 186.354 175.702 182.507 173.206 177.063C170.545 171.21 167.394 163.679 165.388 156.107C164.693 153.406 164.242 150.95 164.038 148.74C163.915 147.84 163.833 146.98 163.833 146.121C163.833 143.706 164.365 141.741 165.307 140.227C164.979 140.022 164.734 139.695 164.611 139.367C166.657 138.385 167.844 137.812 168.172 137.648H168.212C168.294 137.607 168.294 137.607 168.212 137.648C171.118 136.257 175.17 136.707 179.673 139.245C188.431 144.197 195.512 155.33 195.512 164.089C195.512 164.948 195.43 165.808 195.307 166.544Z" fill="#B95A5A"/>
<path fill-rule="evenodd" clip-rule="evenodd" d="M192.033 168.1C191.869 170.064 191.419 172.029 190.723 173.871C188.718 179.192 185.566 183.121 182.906 185.986C180.368 188.687 178.363 190.242 176.398 189.137C174.433 188.032 172.387 184.144 169.89 178.619C167.23 172.766 164.078 165.235 162.073 157.663C161.377 154.962 160.927 152.506 160.722 150.296C160.599 149.395 160.518 148.536 160.518 147.676C160.518 138.917 167.598 135.848 176.357 140.8C185.116 145.753 192.197 156.885 192.197 165.644C192.238 166.504 192.156 167.322 192.033 168.1Z" fill="#FF8787"/>
<path fill-rule="evenodd" clip-rule="evenodd" d="M176.521 149.436C181.064 152.014 184.748 157.785 184.748 162.369C184.748 166.913 181.064 168.509 176.521 165.93C171.978 163.352 168.294 157.581 168.294 152.997C168.294 148.454 171.978 146.857 176.521 149.436Z" fill="white"/>
<path fill-rule="evenodd" clip-rule="evenodd" d="M200.997 32.283C210.247 37.5629 217.778 49.3913 217.778 58.6413C217.778 62.5705 216.428 65.3946 214.217 66.9499C214.095 67.0317 213.972 67.1136 213.849 67.1955C211.475 68.7508 210.37 69.4875 210.534 69.3647C210.247 69.0782 210.043 68.7508 209.961 68.3415C207.382 68.5052 204.313 67.6866 201.038 65.8039C191.788 60.524 184.257 48.6955 184.257 39.4456C184.257 37.0717 184.748 35.0662 185.649 33.5518C185.321 33.5109 185.035 33.3472 184.748 33.1425C184.462 33.3472 185.526 32.6514 187.941 31.0551C190.97 29.0087 195.677 29.2543 200.997 32.283Z" fill="#89577B"/>
<path fill-rule="evenodd" clip-rule="evenodd" d="M197.682 34.4113C206.932 39.6912 214.463 51.5196 214.463 60.7696C214.463 70.0195 206.932 73.2529 197.682 67.9731C188.432 62.6933 180.901 50.8648 180.901 41.6148C180.901 32.3649 188.391 29.1315 197.682 34.4113Z" fill="#C28FB4"/>
<path d="M197.642 55.1619C198.583 55.694 199.401 56.5126 200.056 57.5768C200.752 58.6409 201.08 59.6641 201.08 60.6055C201.08 61.5469 200.752 62.1608 200.056 62.4473C199.401 62.7338 198.583 62.5701 197.642 62.038C196.659 61.465 195.841 60.6874 195.186 59.6641C194.531 58.6409 194.244 57.6586 194.244 56.6763C194.244 55.7349 194.572 55.0801 195.227 54.7936C195.882 54.5071 196.7 54.6299 197.642 55.1619ZM200.22 55.8987L194.858 52.829V51.9285C194.858 50.7416 194.981 49.923 195.268 49.5137C195.513 49.1044 196.045 48.9407 196.741 49.0226L197.723 49.1454C198.46 49.2272 198.828 48.9817 198.828 48.4087C198.828 48.0812 198.706 47.7129 198.46 47.3445C198.215 46.9761 197.928 46.6896 197.601 46.485C196.659 45.9529 196.209 46.3213 196.209 47.631L191.257 44.8069C191.257 43.0469 191.666 41.86 192.484 41.2051C193.098 40.714 193.835 40.5094 194.817 40.5912C195.759 40.6731 196.741 40.9596 197.764 41.5735C199.565 42.5967 201.08 44.0702 202.348 45.9529C203.576 47.8356 204.19 49.6775 204.19 51.4374C204.19 53.6066 203.29 54.6299 201.53 54.5071C200.957 54.4661 200.588 54.5071 200.466 54.6708C200.302 54.7936 200.22 55.2029 200.22 55.8987Z" fill="white"/>
<path fill-rule="evenodd" clip-rule="evenodd" d="M174.847 246.577C174.789 247.277 174.629 247.978 174.382 248.634C173.67 250.531 172.55 251.932 171.606 252.953C171.082 253.507 170.617 253.93 170.195 254.12C169.44 254.485 169.062 254.66 169.062 254.66C169.033 254.441 169.105 254.208 169.28 254.062C168.596 253.639 167.884 252.267 166.997 250.327C166.052 248.24 164.933 245.556 164.221 242.857C163.974 241.894 163.814 241.018 163.741 240.23C163.697 239.909 163.668 239.603 163.668 239.297C163.668 238.436 163.857 237.736 164.192 237.196C164.075 237.123 163.988 237.006 163.945 236.889C164.671 236.539 165.093 236.335 165.209 236.277H165.224C165.253 236.262 165.253 236.262 165.224 236.277C166.256 235.78 167.695 235.941 169.294 236.846C172.405 238.611 174.92 242.579 174.92 245.702C174.92 246.008 174.891 246.314 174.847 246.577Z" fill="#B95A5A"/>
<path fill-rule="evenodd" clip-rule="evenodd" d="M173.684 247.132C173.626 247.832 173.466 248.532 173.219 249.189C172.507 251.085 171.387 252.486 170.442 253.507C169.541 254.47 168.829 255.025 168.131 254.631C167.433 254.237 166.706 252.851 165.82 250.881C164.875 248.795 163.755 246.11 163.043 243.411C162.796 242.448 162.636 241.573 162.563 240.785C162.52 240.464 162.491 240.158 162.491 239.851C162.491 236.729 165.006 235.635 168.117 237.4C171.227 239.165 173.742 243.134 173.742 246.256C173.757 246.563 173.728 246.854 173.684 247.132Z" fill="#FF8787"/>
<path fill-rule="evenodd" clip-rule="evenodd" d="M168.175 240.478C169.788 241.398 171.097 243.455 171.097 245.089C171.097 246.708 169.788 247.277 168.175 246.358C166.561 245.439 165.253 243.382 165.253 241.748C165.253 240.128 166.561 239.559 168.175 240.478Z" fill="white"/>
<path fill-rule="evenodd" clip-rule="evenodd" d="M258.847 212.577C258.789 213.277 258.629 213.978 258.382 214.634C257.67 216.531 256.55 217.932 255.606 218.953C255.082 219.507 254.617 219.93 254.195 220.12C253.44 220.485 253.062 220.66 253.062 220.66C253.033 220.441 253.105 220.208 253.28 220.062C252.596 219.639 251.884 218.267 250.997 216.327C250.052 214.24 248.933 211.556 248.221 208.857C247.974 207.894 247.814 207.018 247.741 206.23C247.697 205.909 247.668 205.603 247.668 205.297C247.668 204.436 247.857 203.736 248.192 203.196C248.075 203.123 247.988 203.006 247.945 202.889C248.671 202.539 249.093 202.335 249.209 202.277H249.224C249.253 202.262 249.253 202.262 249.224 202.277C250.256 201.78 251.695 201.941 253.294 202.846C256.405 204.611 258.92 208.579 258.92 211.702C258.92 212.008 258.891 212.314 258.847 212.577Z" fill="#B95A5A"/>
<path fill-rule="evenodd" clip-rule="evenodd" d="M257.684 213.132C257.626 213.832 257.466 214.532 257.219 215.189C256.507 217.085 255.387 218.486 254.442 219.507C253.541 220.47 252.829 221.025 252.131 220.631C251.433 220.237 250.706 218.851 249.82 216.881C248.875 214.795 247.755 212.11 247.043 209.411C246.796 208.448 246.636 207.573 246.563 206.785C246.52 206.464 246.491 206.158 246.491 205.851C246.491 202.729 249.006 201.635 252.117 203.4C255.227 205.165 257.742 209.134 257.742 212.256C257.757 212.563 257.728 212.854 257.684 213.132Z" fill="#FF8787"/>
<path fill-rule="evenodd" clip-rule="evenodd" d="M252.175 206.478C253.788 207.398 255.097 209.455 255.097 211.089C255.097 212.708 253.788 213.277 252.175 212.358C250.561 211.439 249.253 209.382 249.253 207.748C249.253 206.128 250.561 205.559 252.175 206.478Z" fill="white"/>
<path d="M250.523 3.36013C251.45 3.36013 252.201 2.60793 252.201 1.68006C252.201 0.752189 251.45 0 250.523 0C249.597 0 248.845 0.752189 248.845 1.68006C248.845 2.60793 249.597 3.36013 250.523 3.36013Z" fill="white"/>
<path d="M258.303 109.363C259.23 109.363 259.981 108.611 259.981 107.683C259.981 106.755 259.23 106.003 258.303 106.003C257.376 106.003 256.625 106.755 256.625 107.683C256.625 108.611 257.376 109.363 258.303 109.363Z" fill="white"/>
<path d="M227.592 19.4968C228.519 19.4968 229.27 18.7447 229.27 17.8168C229.27 16.8889 228.519 16.1367 227.592 16.1367C226.666 16.1367 225.914 16.8889 225.914 17.8168C225.914 18.7447 226.666 19.4968 227.592 19.4968Z" fill="white"/>
<path d="M90.8547 36.4829C91.7814 36.4829 92.5326 35.7307 92.5326 34.8028C92.5326 33.8749 91.7814 33.1228 90.8547 33.1228C89.928 33.1228 89.1768 33.8749 89.1768 34.8028C89.1768 35.7307 89.928 36.4829 90.8547 36.4829Z" fill="white"/>
<path d="M116.334 70.4549C117.26 70.4549 118.012 69.7028 118.012 68.7749C118.012 67.847 117.26 67.0948 116.334 67.0948C115.407 67.0948 114.656 67.847 114.656 68.7749C114.656 69.7028 115.407 70.4549 116.334 70.4549Z" fill="white"/>
<path d="M128.773 13.5517C129.7 13.5517 130.451 12.7996 130.451 11.8717C130.451 10.9438 129.7 10.1916 128.773 10.1916C127.847 10.1916 127.096 10.9438 127.096 11.8717C127.096 12.7996 127.847 13.5517 128.773 13.5517Z" fill="white"/>
<path d="M32.5915 51.7703C31.6648 51.7703 30.9136 51.0181 30.9136 50.0902C30.9136 49.1623 31.6648 48.4102 32.5915 48.4102C33.5182 48.4102 34.2694 49.1623 34.2694 50.0902C34.2694 51.0181 33.5182 51.7703 32.5915 51.7703Z" fill="white"/>
<path d="M10.1711 138.525C9.2444 138.525 8.49317 137.772 8.49317 136.845C8.49317 135.917 9.2444 135.165 10.1711 135.165C11.0978 135.165 11.849 135.917 11.849 136.845C11.849 137.772 11.0978 138.525 10.1711 138.525Z" fill="white"/>
<path d="M28.8557 130.192C27.929 130.192 27.1778 129.44 27.1778 128.512C27.1778 127.584 27.929 126.832 28.8557 126.832C29.7824 126.832 30.5336 127.584 30.5336 128.512C30.5336 129.44 29.7824 130.192 28.8557 130.192Z" fill="white"/>
<path d="M95.9505 96.2197C95.0238 96.2197 94.2726 95.4675 94.2726 94.5396C94.2726 93.6118 95.0238 92.8596 95.9505 92.8596C96.8772 92.8596 97.6284 93.6118 97.6284 94.5396C97.6284 95.4675 96.8772 96.2197 95.9505 96.2197Z" fill="white"/>
<defs>
<linearGradient id="paint0_linear_103_195" x1="152.873" y1="-2.54688" x2="152.873" y2="206.381" gradientUnits="userSpaceOnUse">
<stop stop-color="#FFC2F9"/>
<stop offset="0.9946" stop-color="#00D8F4"/>
</linearGradient>
<linearGradient id="paint1_linear_103_195" x1="107.751" y1="204.914" x2="105.905" y2="208.112" gradientUnits="userSpaceOnUse">
<stop stop-color="white"/>
<stop offset="0.5189" stop-color="#8E7AED" stop-opacity="0.2"/>
</linearGradient>
<linearGradient id="paint2_linear_103_195" x1="144.112" y1="43.3145" x2="144.112" y2="160.61" gradientUnits="userSpaceOnUse">
<stop stop-color="#7EF0FF" stop-opacity="0.22"/>
<stop offset="1" stop-color="#EF8A6A" stop-opacity="0.77"/>
</linearGradient>
<linearGradient id="paint3_linear_103_195" x1="171.474" y1="158.748" x2="171.474" y2="276.497" gradientUnits="userSpaceOnUse">
<stop stop-color="#7FFCFC"/>
<stop offset="1" stop-color="#F4C47B"/>
</linearGradient>
<linearGradient id="paint4_linear_103_195" x1="0.0268981" y1="209.077" x2="159.076" y2="209.077" gradientUnits="userSpaceOnUse">
<stop offset="0.0027933" stop-color="white"/>
<stop offset="0.5307" stop-color="#DBCCE5"/>
<stop offset="1" stop-color="#DBCCE5"/>
</linearGradient>
<linearGradient id="paint5_linear_103_195" x1="159.083" y1="225.464" x2="0.0238154" y2="225.464" gradientUnits="userSpaceOnUse">
<stop stop-color="#2E58A6"/>
<stop offset="0.5" stop-color="#3DD1EA"/>
<stop offset="1" stop-color="#0B0146"/>
</linearGradient>
</defs>
</svg>
