<svg width="16" height="16" viewBox="0 0 16 16" fill="none" xmlns="http://www.w3.org/2000/svg">
    <rect width="16" height="16" rx="8" fill="#EB5757" />
    <path
        d="M4.96002 9.11668C5.24492 9.80263 5.72408 10.3915 6.32625 10.8346L6.81188 9.69944C6.66943 9.56589 6.53345 9.4202 6.42338 9.26237C6.35863 9.17132 6.24208 9.11668 6.12553 9.11668H4.96002V9.11668Z"
        fill="white" />
    <path
        d="M7.12918 5.18916C7.67309 4.80673 8.35296 4.57606 9.08464 4.5882C9.91345 4.60034 10.6646 4.90993 11.2279 5.4077H12.7884C12.7884 5.4077 12.7948 5.4077 12.8013 5.4077C12.0955 4.33325 10.8782 3.58659 9.47315 3.45912C7.76374 3.30736 6.23563 4.07222 5.37445 5.29236H6.79248C6.91551 5.29843 7.03853 5.26201 7.12918 5.18916Z"
        fill="white" />
    <path
        d="M13.4358 7.20452C13.4099 6.90707 13.3452 6.61569 13.2545 6.33646C13.2481 6.34253 13.2481 6.34253 13.2416 6.3486C12.3027 6.97384 12.1862 7.01633 12.1732 7.01633C12.2056 7.17416 12.225 7.33806 12.2315 7.50803C12.2703 8.95884 11.1955 10.179 9.75801 10.4886L8.02271 11.5994C8.35293 11.6723 8.69611 11.7087 9.04576 11.7087C11.6099 11.7026 13.6625 9.65086 13.4358 7.20452Z"
        fill="white" />
    <path
        d="M7.25179 8.83504C7.20647 8.75613 7.12229 8.70757 7.03164 8.70757H5.44526C5.25101 8.70757 5.06323 8.64079 4.92726 8.51332L4.80423 8.40405C4.733 8.33728 4.78481 8.22801 4.88841 8.22801H6.68846C6.80502 8.22801 6.81149 8.0459 6.79854 7.93663L6.77911 7.882C6.76616 7.85165 6.73379 7.83344 6.70142 7.83344H4.50638C4.30565 7.83344 4.11788 7.76059 3.9819 7.63312L3.87183 7.52992C3.8006 7.46315 3.8524 7.35388 3.956 7.35388L6.61724 7.35995C6.68199 7.35995 6.69494 7.2689 6.70142 7.19605C6.70789 7.15963 6.70789 7.11714 6.71436 7.07465C6.72084 7.03215 6.68199 6.98966 6.63667 6.98966H3.6193C3.42505 6.98966 3.23727 6.92289 3.1013 6.79541L2.97827 6.68614C2.90705 6.61937 2.95885 6.5101 3.06245 6.5101H6.85682C6.89567 6.5101 6.92804 6.49189 6.94747 6.46154C6.97337 6.42512 6.99927 6.38263 6.99927 6.38263L7.08344 6.25515C7.13524 6.20659 7.09639 6.13374 7.02517 6.13374H2.67395C2.47969 6.13374 2.29192 6.06697 2.15594 5.93949L2.03292 5.83023C1.96169 5.76345 2.01349 5.65419 2.11709 5.65419H8.26837C8.48205 5.65419 8.57917 5.88486 8.43025 6.01234C7.8734 6.48582 7.08344 7.30532 7.67914 7.73631C7.74389 7.78488 7.82807 7.80309 7.91225 7.80309C8.20362 7.80309 8.97415 7.80309 9.25258 7.80309C9.36913 7.80309 9.48568 7.7788 9.58928 7.73024C9.74468 7.6574 9.91303 7.51171 9.80943 7.23854C9.78353 7.1657 9.7382 7.09893 9.6864 7.03215C9.6087 6.93503 9.44035 6.81969 9.23963 6.674C8.91588 6.43726 8.94825 5.9577 9.36913 5.57527C9.36913 5.57527 8.92883 5.53278 9.10365 5.12C9.10365 5.12 9.25258 5.30211 9.48568 5.28996C9.71878 5.27782 10.2886 5.28996 10.2886 5.28996C10.2886 5.28996 10.7936 5.28996 10.8649 5.60562H13.9923C13.9923 5.60562 14.0571 5.7331 13.811 5.76952C13.7204 5.78166 13.6297 5.81201 13.5585 5.86058L12.3282 6.64972C12.1793 6.74685 12.0174 6.81969 11.8426 6.87432C11.4541 6.98966 10.8649 7.02608 10.7159 6.27943C10.7095 6.23694 10.6706 6.20659 10.6253 6.20052C10.5541 6.18838 10.3987 6.13981 10.321 6.30371C10.2951 6.36442 10.2886 6.43119 10.308 6.49189C10.3339 6.58902 10.3987 6.75292 10.567 6.88646C10.826 7.105 11.3634 7.57848 11.3634 7.57848C11.3634 7.57848 12.4448 8.21587 11.3634 9.17498L6.02154 12.5926C5.96974 12.6229 5.90499 12.5804 5.92441 12.5258C6.37766 11.4756 6.82444 10.4194 7.27769 9.36923C7.29064 9.33281 7.31007 9.28425 7.31654 9.22355C7.32302 9.19319 7.33597 9.10821 7.31654 9.01108C7.30359 8.94431 7.27769 8.88361 7.25179 8.83504Z"
        fill="white" />
</svg>