<svg width="30" height="25" viewBox="0 0 30 25" fill="none" xmlns="http://www.w3.org/2000/svg">
    <path
        d="M13.1295 14.3725C13.0162 14.1638 12.8057 14.0353 12.5791 14.0353H8.61314C8.12752 14.0353 7.65808 13.8587 7.31814 13.5216L7.01058 13.2326C6.83251 13.056 6.96202 12.767 7.22102 12.767H11.7212C12.0125 12.767 12.0287 12.2853 11.9964 11.9963L11.9478 11.8519C11.9154 11.7716 11.8345 11.7234 11.7535 11.7234H6.26595C5.76413 11.7234 5.29469 11.5308 4.95476 11.1936L4.67956 10.9207C4.5015 10.7441 4.631 10.4551 4.89 10.4551L11.5431 10.4711C11.705 10.4711 11.7374 10.2303 11.7535 10.0377C11.7697 9.94132 11.7697 9.82894 11.7859 9.71656C11.8021 9.60417 11.705 9.49179 11.5917 9.49179H4.04825C3.56262 9.49179 3.09318 9.31518 2.75324 8.97803L2.44568 8.68904C2.26762 8.51244 2.39712 8.22345 2.65612 8.22345H12.142C12.2392 8.22345 12.3201 8.17528 12.3687 8.09501C12.4334 7.99868 12.4982 7.8863 12.4982 7.8863L12.7086 7.54914C12.8381 7.4207 12.741 7.22805 12.5629 7.22805H1.68486C1.19924 7.22805 0.729796 7.05144 0.389856 6.71429L0.0822933 6.4253C-0.0957701 6.2487 0.0337286 5.95971 0.29273 5.95971H15.6709C16.2051 5.95971 16.4479 6.56979 16.0756 6.90695C14.6835 8.15923 12.7086 10.3266 14.1979 11.4665C14.3597 11.595 14.5702 11.6431 14.7806 11.6431C15.5091 11.6431 17.4354 11.6431 18.1314 11.6431C18.4228 11.6431 18.7142 11.5789 18.9732 11.4505C19.3617 11.2578 19.7826 10.8725 19.5236 10.15C19.4588 9.95738 19.3455 9.78077 19.216 9.60417C19.0218 9.34729 18.6009 9.04225 18.0991 8.65693C17.2897 8.03079 17.3706 6.76245 18.4228 5.75099C18.4228 5.75099 17.3221 5.63861 17.7591 4.54688C17.7591 4.54688 18.1314 5.02852 18.7142 4.99641C19.297 4.9643 20.7215 4.99641 20.7215 4.99641C20.7215 4.99641 21.9841 4.99641 22.1622 5.83127H29.9808C29.9808 5.83127 30.1426 6.16842 29.5275 6.26475C29.3009 6.29686 29.0742 6.37714 28.8962 6.50558L25.8205 8.59271C25.4482 8.84959 25.0435 9.04225 24.6065 9.18674C23.6352 9.49179 22.1622 9.58812 21.7898 7.61336C21.7737 7.50098 21.6765 7.4207 21.5632 7.40465C21.3851 7.37254 20.9966 7.2441 20.8024 7.67758C20.7376 7.83813 20.7215 8.01474 20.77 8.17528C20.8348 8.43216 20.9966 8.86565 21.4175 9.21885C22.065 9.79683 23.4086 11.0491 23.4086 11.0491C23.4086 11.0491 26.1119 12.7349 23.4086 15.2716L10.0538 24.3105C9.92434 24.3907 9.76247 24.2784 9.81103 24.1339C10.9442 21.3564 12.0611 18.5628 13.1942 15.7853C13.2266 15.689 13.2752 15.5605 13.2914 15.4C13.3075 15.3197 13.3399 15.0949 13.2914 14.8381C13.259 14.6615 13.1942 14.5009 13.1295 14.3725Z"
        fill="#EB5757" />
    <path
        d="M7.56055 15.0117C8.2728 16.8259 9.47068 18.3832 10.9761 19.5553L12.1902 16.553C11.8341 16.1998 11.4941 15.8145 11.2189 15.397C11.0571 15.1562 10.7657 15.0117 10.4743 15.0117H7.56055Z"
        fill="#EB5757" />
    <path
        d="M12.9835 4.6262C14.3433 3.61474 16.043 3.00466 17.8722 3.03677C19.9442 3.06888 21.8219 3.88768 23.2302 5.20418H27.1315C27.1315 5.20418 27.1476 5.20418 27.1638 5.20418C25.3994 2.36246 22.3561 0.387707 18.8434 0.050554C14.5699 -0.350819 10.7496 1.6721 8.59668 4.89914H12.1418C12.4493 4.91519 12.7569 4.81886 12.9835 4.6262Z"
        fill="#EB5757" />
    <path
        d="M28.7506 9.95601C28.6858 9.16932 28.524 8.39868 28.2973 7.66016C28.2811 7.67621 28.2811 7.67621 28.265 7.69227C25.9178 9.34592 25.6264 9.45831 25.594 9.45831C25.6749 9.87573 25.7235 10.3092 25.7397 10.7588C25.8368 14.5959 23.1497 17.8229 19.556 18.6417L15.2178 21.5798C16.0433 21.7724 16.9013 21.8687 17.7754 21.8687C24.1857 21.8527 29.3172 16.4261 28.7506 9.95601Z"
        fill="#EB5757" />
</svg>