<svg width="151" height="67" viewBox="0 0 151 67" fill="none" xmlns="http://www.w3.org/2000/svg">
    <path
        d="M11.0896 23.4434C12.1342 26.2761 13.8911 28.7078 16.0991 30.5378L17.8798 25.85C17.3574 25.2985 16.8589 24.6968 16.4552 24.045C16.2178 23.669 15.7905 23.4434 15.3631 23.4434H11.0896V23.4434Z"
        fill="white" />
    <path
        d="M19.0429 7.22356C21.0372 5.64422 23.5301 4.69161 26.2129 4.74174C29.2519 4.79188 32.0059 6.07039 34.0715 8.12604H39.7932C39.7932 8.12604 39.817 8.12604 39.8407 8.12604C37.2529 3.68885 32.7894 0.605383 27.6374 0.0789373C21.3696 -0.547784 15.7665 2.61089 12.6089 7.64973H17.8083C18.2594 7.6748 18.7105 7.52438 19.0429 7.22356Z"
        fill="white" />
    <path
        d="M42.1675 15.5468C42.0725 14.3184 41.8351 13.1151 41.5027 11.9619C41.479 11.987 41.479 11.987 41.4552 12.0121C38.0127 14.5942 37.5853 14.7697 37.5378 14.7697C37.6565 15.4214 37.7278 16.0983 37.7515 16.8002C37.8939 22.7917 33.9528 27.8305 28.6821 29.109L22.3193 33.6966C23.5302 33.9975 24.7885 34.1479 26.0705 34.1479C35.4723 34.1228 42.9984 25.6495 42.1675 15.5468Z"
        fill="white" />
    <path
        d="M19.2566 22.4406C19.0904 22.1147 18.7817 21.9141 18.4494 21.9141H12.6326C11.9204 21.9141 11.2318 21.6384 10.7333 21.1119L10.2822 20.6607C10.021 20.3849 10.211 19.9337 10.5908 19.9337H17.191C17.6184 19.9337 17.6421 19.1816 17.5947 18.7304L17.5234 18.5048C17.4759 18.3794 17.3572 18.3042 17.2385 18.3042H9.19005C8.45406 18.3042 7.76555 18.0034 7.26698 17.4769L6.86336 17.0508C6.6022 16.775 6.79213 16.3238 7.172 16.3238L16.9299 16.3489C17.1673 16.3489 17.2148 15.9728 17.2385 15.672C17.2623 15.5216 17.2623 15.3461 17.286 15.1706C17.3097 14.9951 17.1673 14.8197 17.0011 14.8197H5.93743C5.22518 14.8197 4.53667 14.5439 4.03809 14.0175L3.587 13.5662C3.32584 13.2905 3.51577 12.8392 3.89564 12.8392H17.8083C17.9508 12.8392 18.0695 12.764 18.1407 12.6387C18.2357 12.4883 18.3306 12.3128 18.3306 12.3128L18.6393 11.7863C18.8292 11.5858 18.6868 11.2849 18.4256 11.2849H2.47113C1.75888 11.2849 1.07037 11.0092 0.571789 10.4827L0.120697 10.0315C-0.140463 9.75575 0.0494686 9.30451 0.429337 9.30451H22.984C23.7675 9.30451 24.1236 10.2571 23.5776 10.7836C21.5358 12.7389 18.6393 16.1232 20.8235 17.9031C21.0609 18.1037 21.3696 18.1789 21.6782 18.1789C22.7466 18.1789 25.5719 18.1789 26.5928 18.1789C27.0201 18.1789 27.4475 18.0786 27.8274 17.878C28.3972 17.5772 29.0145 16.9756 28.6346 15.8475C28.5396 15.5466 28.3734 15.2709 28.1835 14.9951C27.8986 14.594 27.2813 14.1177 26.5453 13.5161C25.3582 12.5384 25.4769 10.5579 27.0201 8.97861C27.0201 8.97861 25.4057 8.80313 26.0467 7.09845C26.0467 7.09845 26.5928 7.85052 27.4475 7.80038C28.3022 7.75024 30.3915 7.80038 30.3915 7.80038C30.3915 7.80038 32.2433 7.80038 32.5045 9.10396H43.9718C43.9718 9.10396 44.2092 9.63041 43.307 9.78082C42.9746 9.83096 42.6422 9.9563 42.3811 10.1569L37.8701 13.4158C37.3241 13.8169 36.7305 14.1177 36.0895 14.3433C34.665 14.8197 32.5045 14.9701 31.9584 11.8866C31.9347 11.7111 31.7922 11.5858 31.626 11.5607C31.3649 11.5106 30.7951 11.31 30.5102 11.9869C30.4152 12.2376 30.3915 12.5133 30.4627 12.764C30.5577 13.1651 30.7951 13.842 31.4124 14.3935C32.362 15.296 34.3326 17.2513 34.3326 17.2513C34.3326 17.2513 38.2975 19.8836 34.3326 23.8444L14.7456 37.9582C14.5557 38.0835 14.3183 37.9081 14.3895 37.6824C16.0514 33.3455 17.6896 28.9835 19.3515 24.6466C19.399 24.4962 19.4703 24.2957 19.494 24.045C19.5177 23.9196 19.5652 23.5687 19.494 23.1676C19.4465 22.8918 19.3515 22.6411 19.2566 22.4406Z"
        fill="white" />
    <path
        d="M68.403 11.8901H63.9782C63.9782 11.0622 63.9782 10.3782 63.9782 9.94626C63.9782 9.47829 64.1122 9.08232 64.4139 8.72235C64.6821 8.36237 65.2185 8.18238 65.9559 8.18238H66.7269C67.5985 8.21838 67.5314 7.46243 67.5314 6.5625V3.39472C67.0286 3.35872 66.6264 3.32272 66.3582 3.28672C66.0565 3.25072 65.7548 3.25073 65.3861 3.25073C62.2685 3.25073 61.0618 3.93468 60.2573 5.33858C59.4863 6.27452 59.084 7.96641 59.084 10.4502V11.9261H57.609C56.7375 11.9261 56 12.6821 56 13.654V16.1738H59.151V34.7486H60.8942C62.6038 34.7486 63.9782 33.2727 63.9782 31.4368V16.1378H66.1906C67.4309 16.1378 68.403 15.0579 68.403 13.762V11.8901V11.8901Z"
        fill="white" />
    <path
        d="M78.3257 12.9697C72.7276 12.9697 68.2021 17.8293 68.2021 23.8409C68.2021 29.8525 72.7276 34.7122 78.3257 34.7122C83.9238 34.7122 88.4492 29.8525 88.4492 23.8409C88.4828 17.8293 83.9238 12.9697 78.3257 12.9697ZM78.3257 30.0325C75.1411 30.0325 72.56 27.2607 72.56 23.8409C72.56 20.4211 75.1411 17.6493 78.3257 17.6493C81.5103 17.6493 84.0914 20.4211 84.0914 23.8409C84.0914 27.2607 81.5103 30.0325 78.3257 30.0325Z"
        fill="white" />
    <path
        d="M137.558 15.6345V34.7491H139.904C141.111 34.7491 142.117 33.6692 142.117 32.3733V13.0786H139.938C138.63 13.0786 137.558 14.2306 137.558 15.6345Z"
        fill="white" />
    <path
        d="M146.106 15.6345V34.7491H148.453C149.66 34.7491 150.665 33.6692 150.665 32.3733V13.0786H148.486C147.179 13.0786 146.106 14.2306 146.106 15.6345Z"
        fill="white" />
    <path
        d="M148.385 8.97493C149.827 8.97493 151 7.71501 151 6.16712C151 4.61922 149.827 3.35931 148.385 3.35931C146.944 3.35931 145.771 4.61922 145.771 6.16712C145.771 7.71501 146.91 8.97493 148.385 8.97493Z"
        fill="white" />
    <path
        d="M101.254 12.9697C95.6563 12.9697 91.1309 17.8293 91.1309 23.8409H91.1644C91.1644 23.8769 91.1309 23.9489 91.1309 23.9849V34.7122H93.3768C94.5501 34.7122 95.4887 34.1002 95.4887 33.3802V23.8409C95.4887 20.4211 98.0698 17.6493 101.254 17.6493C104.439 17.6493 107.02 20.4211 107.02 23.8409V34.7122H109.266C110.439 34.7122 111.378 34.1002 111.378 33.3442V23.6609C111.378 23.5889 111.378 23.5169 111.344 23.4449C111.177 17.6133 106.718 12.9697 101.254 12.9697Z"
        fill="white" />
    <path
        d="M124.149 17.6518C125.959 17.6518 127.601 18.5517 128.641 19.9556C129.043 20.4956 129.613 20.8196 130.216 20.8196H133.87C132.529 15.8879 128.071 12.3962 122.908 13.0441C118.282 13.6201 114.562 17.6518 114.059 22.5835C113.388 29.171 118.148 34.7146 124.115 34.7146C128.741 34.7146 132.63 31.4028 133.836 26.8672H130.384C129.713 26.8672 129.009 27.1551 128.574 27.7311C127.333 29.351 125.356 30.3229 123.177 29.9629C120.662 29.567 118.618 27.2631 118.349 24.5633C118.048 20.8196 120.763 17.6518 124.149 17.6518Z"
        fill="white" />
    <path
        d="M139.838 3.35931C138.396 3.35931 137.223 4.61922 137.223 6.16712C137.223 7.71501 138.396 8.97493 139.838 8.97493C141.279 8.97493 142.453 7.71501 142.453 6.16712C142.453 4.61922 141.279 3.35931 139.838 3.35931Z"
        fill="white" />
    <path
        d="M110.232 60.152C110.896 60.152 111.468 60.076 111.948 59.924C112.428 59.772 112.82 59.56 113.124 59.288C113.436 59.008 113.664 58.68 113.808 58.304C113.952 57.92 114.024 57.5 114.024 57.044C114.024 56.156 113.708 55.456 113.076 54.944C112.444 54.424 111.496 54.164 110.232 54.164H106.512V60.152H110.232ZM106.512 46.64V52.508H109.584C110.24 52.508 110.808 52.436 111.288 52.292C111.776 52.148 112.176 51.948 112.488 51.692C112.808 51.436 113.044 51.128 113.196 50.768C113.348 50.4 113.424 50 113.424 49.568C113.424 48.552 113.12 47.812 112.512 47.348C111.904 46.876 110.96 46.64 109.68 46.64H106.512ZM109.68 44.804C110.736 44.804 111.644 44.908 112.404 45.116C113.172 45.324 113.8 45.62 114.288 46.004C114.784 46.388 115.148 46.86 115.38 47.42C115.612 47.972 115.728 48.596 115.728 49.292C115.728 49.716 115.66 50.124 115.524 50.516C115.396 50.9 115.2 51.26 114.936 51.596C114.672 51.932 114.336 52.236 113.928 52.508C113.528 52.772 113.056 52.988 112.512 53.156C113.776 53.396 114.724 53.848 115.356 54.512C115.996 55.168 116.316 56.032 116.316 57.104C116.316 57.832 116.18 58.496 115.908 59.096C115.644 59.696 115.252 60.212 114.732 60.644C114.22 61.076 113.588 61.412 112.836 61.652C112.084 61.884 111.228 62 110.268 62H104.196V44.804H109.68ZM127.156 54.596C127.156 54.1 127.084 53.648 126.94 53.24C126.804 52.824 126.6 52.468 126.328 52.172C126.064 51.868 125.74 51.636 125.356 51.476C124.972 51.308 124.536 51.224 124.048 51.224C123.024 51.224 122.212 51.524 121.612 52.124C121.02 52.716 120.652 53.54 120.508 54.596H127.156ZM128.884 60.296C128.62 60.616 128.304 60.896 127.936 61.136C127.568 61.368 127.172 61.56 126.748 61.712C126.332 61.864 125.9 61.976 125.452 62.048C125.004 62.128 124.56 62.168 124.12 62.168C123.28 62.168 122.504 62.028 121.792 61.748C121.088 61.46 120.476 61.044 119.956 60.5C119.444 59.948 119.044 59.268 118.756 58.46C118.468 57.652 118.324 56.724 118.324 55.676C118.324 54.828 118.452 54.036 118.708 53.3C118.972 52.564 119.348 51.928 119.836 51.392C120.324 50.848 120.92 50.424 121.624 50.12C122.328 49.808 123.12 49.652 124 49.652C124.728 49.652 125.4 49.776 126.016 50.024C126.64 50.264 127.176 50.616 127.624 51.08C128.08 51.536 128.436 52.104 128.692 52.784C128.948 53.456 129.076 54.224 129.076 55.088C129.076 55.424 129.04 55.648 128.968 55.76C128.896 55.872 128.76 55.928 128.56 55.928H120.436C120.46 56.696 120.564 57.364 120.748 57.932C120.94 58.5 121.204 58.976 121.54 59.36C121.876 59.736 122.276 60.02 122.74 60.212C123.204 60.396 123.724 60.488 124.3 60.488C124.836 60.488 125.296 60.428 125.68 60.308C126.072 60.18 126.408 60.044 126.688 59.9C126.968 59.756 127.2 59.624 127.384 59.504C127.576 59.376 127.74 59.312 127.876 59.312C128.052 59.312 128.188 59.38 128.284 59.516L128.884 60.296ZM135.338 62.192C134.378 62.192 133.638 61.924 133.118 61.388C132.606 60.852 132.35 60.08 132.35 59.072V51.632H130.886C130.758 51.632 130.65 51.596 130.562 51.524C130.474 51.444 130.43 51.324 130.43 51.164V50.312L132.422 50.06L132.914 46.304C132.938 46.184 132.99 46.088 133.07 46.016C133.158 45.936 133.27 45.896 133.406 45.896H134.486V50.084H138.002V51.632H134.486V58.928C134.486 59.44 134.61 59.82 134.858 60.068C135.106 60.316 135.426 60.44 135.818 60.44C136.042 60.44 136.234 60.412 136.394 60.356C136.562 60.292 136.706 60.224 136.826 60.152C136.946 60.08 137.046 60.016 137.126 59.96C137.214 59.896 137.29 59.864 137.354 59.864C137.466 59.864 137.566 59.932 137.654 60.068L138.278 61.088C137.91 61.432 137.466 61.704 136.946 61.904C136.426 62.096 135.89 62.192 135.338 62.192ZM146.796 56.528C145.812 56.56 144.972 56.64 144.276 56.768C143.588 56.888 143.024 57.048 142.584 57.248C142.152 57.448 141.836 57.684 141.636 57.956C141.444 58.228 141.348 58.532 141.348 58.868C141.348 59.188 141.4 59.464 141.504 59.696C141.608 59.928 141.748 60.12 141.924 60.272C142.108 60.416 142.32 60.524 142.56 60.596C142.808 60.66 143.072 60.692 143.352 60.692C143.728 60.692 144.072 60.656 144.384 60.584C144.696 60.504 144.988 60.392 145.26 60.248C145.54 60.104 145.804 59.932 146.052 59.732C146.308 59.532 146.556 59.304 146.796 59.048V56.528ZM139.896 51.56C140.568 50.912 141.292 50.428 142.068 50.108C142.844 49.788 143.704 49.628 144.648 49.628C145.328 49.628 145.932 49.74 146.46 49.964C146.988 50.188 147.432 50.5 147.792 50.9C148.152 51.3 148.424 51.784 148.608 52.352C148.792 52.92 148.884 53.544 148.884 54.224V62H147.936C147.728 62 147.568 61.968 147.456 61.904C147.344 61.832 147.256 61.696 147.192 61.496L146.952 60.344C146.632 60.64 146.32 60.904 146.016 61.136C145.712 61.36 145.392 61.552 145.056 61.712C144.72 61.864 144.36 61.98 143.976 62.06C143.6 62.148 143.18 62.192 142.716 62.192C142.244 62.192 141.8 62.128 141.384 62C140.968 61.864 140.604 61.664 140.292 61.4C139.988 61.136 139.744 60.804 139.56 60.404C139.384 59.996 139.296 59.516 139.296 58.964C139.296 58.484 139.428 58.024 139.692 57.584C139.956 57.136 140.384 56.74 140.976 56.396C141.568 56.052 142.34 55.772 143.292 55.556C144.244 55.332 145.412 55.204 146.796 55.172V54.224C146.796 53.28 146.592 52.568 146.184 52.088C145.776 51.6 145.18 51.356 144.396 51.356C143.868 51.356 143.424 51.424 143.064 51.56C142.712 51.688 142.404 51.836 142.14 52.004C141.884 52.164 141.66 52.312 141.468 52.448C141.284 52.576 141.1 52.64 140.916 52.64C140.772 52.64 140.648 52.604 140.544 52.532C140.44 52.452 140.352 52.356 140.28 52.244L139.896 51.56Z"
        fill="white" />
</svg>