<svg width="110" height="40" viewBox="0 0 110 40" fill="none" xmlns="http://www.w3.org/2000/svg">
    <path
        d="M54.943 13.2577H52.0251C52.0251 12.7474 52.0251 12.3259 52.0251 12.0596C52.0251 11.7712 52.1135 11.5272 52.3125 11.3053C52.4893 11.0834 52.843 10.9725 53.3293 10.9725H53.8377C54.4124 10.9947 54.3682 10.5287 54.3682 9.97406V8.02161C54.0367 7.99942 53.7714 7.97723 53.5946 7.95504C53.3956 7.93286 53.1967 7.93286 52.9535 7.93286C50.8978 7.93286 50.102 8.35441 49.5715 9.21971C49.0631 9.79657 48.7978 10.8394 48.7978 12.3703V13.2799H47.8252C47.2505 13.2799 46.7642 13.7459 46.7642 14.3449V15.898H48.842V27.3465H49.9915C51.1188 27.3465 52.0251 26.4368 52.0251 25.3053V15.8758H53.484C54.3019 15.8758 54.943 15.2102 54.943 14.4115V13.2577Z"
        fill="white" />
    <path
        d="M61.4882 13.9236C57.7967 13.9236 54.8125 16.9188 54.8125 20.6241C54.8125 24.3293 57.7967 27.3245 61.4882 27.3245C65.1797 27.3245 68.1638 24.3293 68.1638 20.6241C68.1859 16.9188 65.1797 13.9236 61.4882 13.9236ZM61.4882 24.4402C59.3882 24.4402 57.6861 22.7318 57.6861 20.6241C57.6861 18.5163 59.3882 16.8079 61.4882 16.8079C63.5881 16.8079 65.2902 18.5163 65.2902 20.6241C65.2902 22.7318 63.5881 24.4402 61.4882 24.4402Z"
        fill="white" />
    <path
        d="M100.543 15.5648V27.3461H102.091C102.887 27.3461 103.55 26.6805 103.55 25.8817V13.9895H102.113C101.251 13.9895 100.543 14.6995 100.543 15.5648Z"
        fill="white" />
    <path
        d="M106.182 15.565V27.3463H107.729C108.525 27.3463 109.188 26.6807 109.188 25.882V13.9897H107.751C106.889 13.9897 106.182 14.6997 106.182 15.565Z"
        fill="white" />
    <path
        d="M107.688 11.46C108.638 11.46 109.412 10.6834 109.412 9.72936C109.412 8.77532 108.638 7.99878 107.688 7.99878C106.737 7.99878 105.964 8.77532 105.964 9.72936C105.964 10.6834 106.715 11.46 107.688 11.46Z"
        fill="white" />
    <path
        d="M76.6085 13.9236C72.917 13.9236 69.9329 16.9188 69.9329 20.6241H69.955C69.955 20.6462 69.9329 20.6906 69.9329 20.7128V27.3245H71.4139C72.1876 27.3245 72.8065 26.9474 72.8065 26.5036V20.6241C72.8065 18.5163 74.5086 16.8079 76.6085 16.8079C78.7085 16.8079 80.4106 18.5163 80.4106 20.6241V27.3245H81.8916C82.6652 27.3245 83.2842 26.9474 83.2842 26.4814V20.5131C83.2842 20.4688 83.2842 20.4244 83.2621 20.38C83.1516 16.7857 80.2116 13.9236 76.6085 13.9236Z"
        fill="white" />
    <path
        d="M91.7059 16.8076C92.8996 16.8076 93.9827 17.3623 94.668 18.2275C94.9332 18.5604 95.309 18.76 95.7069 18.76H98.1163C97.2321 15.7204 94.2922 13.5683 90.888 13.9676C87.8376 14.3226 85.3839 16.8076 85.0524 19.8472C84.6103 23.9074 87.7491 27.3242 91.6838 27.3242C94.7343 27.3242 97.2984 25.283 98.0942 22.4875H95.8174C95.3753 22.4875 94.9111 22.665 94.6238 23.0199C93.8059 24.0184 92.5017 24.6174 91.0649 24.3955C89.407 24.1515 88.0586 22.7315 87.8818 21.0675C87.6828 18.76 89.4733 16.8076 91.7059 16.8076Z"
        fill="white" />
    <path
        d="M102.049 7.99878C101.098 7.99878 100.324 8.77532 100.324 9.72936C100.324 10.6834 101.098 11.46 102.049 11.46C102.999 11.46 103.773 10.6834 103.773 9.72936C103.773 8.77532 102.999 7.99878 102.049 7.99878Z"
        fill="white" />
    <path
        d="M10.3225 20.7478C11.2951 23.2549 12.9309 25.4071 14.9866 27.0267L16.6445 22.8778C16.1582 22.3896 15.694 21.8572 15.3182 21.2803C15.0972 20.9475 14.6993 20.7478 14.3014 20.7478H10.3225Z"
        fill="white" />
    <path
        d="M17.7272 6.39317C19.584 4.99538 21.905 4.15228 24.4029 4.19665C27.2323 4.24102 29.7965 5.37256 31.7196 7.1919H37.0469C37.0469 7.1919 37.069 7.1919 37.0911 7.1919C34.6816 3.2648 30.5259 0.535791 25.7292 0.069863C19.8935 -0.484813 14.6768 2.31076 11.7368 6.77035H16.5778C16.9978 6.79253 17.4178 6.65941 17.7272 6.39317Z"
        fill="white" />
    <path
        d="M39.258 13.7592C39.1696 12.672 38.9485 11.607 38.639 10.5864C38.6169 10.6086 38.6169 10.6086 38.5948 10.6308C35.3896 12.9161 34.9917 13.0714 34.9475 13.0714C35.0581 13.6482 35.1244 14.2473 35.1465 14.8685C35.2791 20.1712 31.6097 24.6308 26.7024 25.7624L20.7783 29.8226C21.9057 30.0888 23.0772 30.2219 24.2709 30.2219C33.0244 30.1998 40.0316 22.7005 39.258 13.7592Z"
        fill="white" />
    <path
        d="M17.9289 19.8604C17.7742 19.572 17.4868 19.3945 17.1773 19.3945H11.7616C11.0985 19.3945 10.4574 19.1505 9.99324 18.6845L9.57325 18.2852C9.3301 18.0411 9.50694 17.6417 9.86062 17.6417H16.0058C16.4036 17.6417 16.4258 16.9761 16.3815 16.5768L16.3152 16.3771C16.271 16.2661 16.1605 16.1996 16.05 16.1996H8.55642C7.87117 16.1996 7.23014 15.9333 6.76594 15.4674L6.39015 15.0902C6.147 14.8462 6.32383 14.4468 6.67751 14.4468L15.7626 14.469C15.9837 14.469 16.0279 14.1362 16.05 13.8699C16.0721 13.7368 16.0721 13.5815 16.0942 13.4262C16.1163 13.2709 15.9837 13.1156 15.8289 13.1156H5.52806C4.86492 13.1156 4.22388 12.8715 3.75968 12.4056L3.33968 12.0062C3.09653 11.7622 3.27337 11.3628 3.62704 11.3628H16.5805C16.7131 11.3628 16.8236 11.2963 16.89 11.1853C16.9784 11.0522 17.0668 10.8969 17.0668 10.8969L17.3542 10.431C17.531 10.2535 17.3984 9.98722 17.1552 9.98722H2.30075C1.63761 9.98722 0.996568 9.74316 0.532366 9.27723L0.112375 8.87787C-0.130778 8.63381 0.0460579 8.23444 0.399736 8.23444H21.3993C22.1288 8.23444 22.4604 9.07755 21.952 9.54348C20.0509 11.2741 17.3542 14.2693 19.3878 15.8446C19.6088 16.0221 19.8962 16.0886 20.1836 16.0886C21.1783 16.0886 23.8088 16.0886 24.7593 16.0886C25.1572 16.0886 25.5551 15.9999 25.9087 15.8224C26.4392 15.5562 27.014 15.0237 26.6603 14.0253C26.5719 13.759 26.4171 13.515 26.2403 13.2709C25.975 12.9159 25.4003 12.4944 24.7151 11.9619C23.6098 11.0966 23.7204 9.34379 25.1572 7.94601C25.1572 7.94601 23.654 7.7907 24.2509 6.28198C24.2509 6.28198 24.7593 6.94759 25.5551 6.90322C26.3508 6.85885 28.2961 6.90322 28.2961 6.90322C28.2961 6.90322 30.0202 6.90322 30.2634 8.05694H40.94C40.94 8.05694 41.1611 8.52287 40.3211 8.656C40.0116 8.70037 39.7022 8.81131 39.459 8.9888L35.2591 11.8731C34.7507 12.2281 34.1981 12.4944 33.6012 12.694C32.2749 13.1156 30.2634 13.2487 29.755 10.5197C29.7329 10.3644 29.6002 10.2535 29.4455 10.2313C29.2024 10.1869 28.6718 10.0094 28.4066 10.6085C28.3182 10.8303 28.2961 11.0744 28.3624 11.2963C28.4508 11.6512 28.6718 12.2503 29.2466 12.7384C30.1308 13.5371 31.9655 15.2677 31.9655 15.2677C31.9655 15.2677 35.657 17.5974 31.9655 21.1029L13.729 33.5942C13.5521 33.7051 13.3311 33.5498 13.3974 33.3502C14.9447 29.5118 16.47 25.6513 18.0173 21.8129C18.0615 21.6798 18.1278 21.5023 18.1499 21.2804C18.172 21.1695 18.2162 20.8589 18.1499 20.5039C18.1057 20.2598 18.0173 20.0379 17.9289 19.8604Z"
        fill="white" />
    <path
        d="M91.5784 28.8935V34.1384H90.9562V30.2844C90.9562 30.2331 90.9574 30.1782 90.9598 30.1197C90.9647 30.0611 90.9696 30.0013 90.9745 29.9403L89.1737 33.2197C89.1176 33.3296 89.0322 33.3845 88.9175 33.3845H88.815C88.7003 33.3845 88.6149 33.3296 88.5588 33.2197L86.7215 29.9257C86.7361 30.055 86.7434 30.1746 86.7434 30.2844V34.1384H86.1212V28.8935H86.6446C86.708 28.8935 86.7568 28.8996 86.791 28.9118C86.8252 28.924 86.8581 28.9582 86.8898 29.0143L88.7016 32.2425C88.7308 32.3011 88.7589 32.3621 88.7857 32.4255C88.815 32.489 88.8419 32.5536 88.8663 32.6195C88.8907 32.5536 88.9163 32.489 88.9431 32.4255C88.97 32.3596 88.9992 32.2974 89.031 32.2388L90.8098 29.0143C90.839 28.9582 90.8708 28.924 90.9049 28.9118C90.9415 28.8996 90.9916 28.8935 91.055 28.8935H91.5784ZM94.6679 32.4694C94.3678 32.4792 94.1116 32.5036 93.8993 32.5426C93.6895 32.5792 93.5175 32.628 93.3833 32.689C93.2515 32.75 93.1551 32.822 93.0941 32.905C93.0356 32.9879 93.0063 33.0807 93.0063 33.1831C93.0063 33.2807 93.0221 33.3649 93.0539 33.4357C93.0856 33.5065 93.1283 33.565 93.182 33.6114C93.2381 33.6553 93.3027 33.6882 93.3759 33.7102C93.4516 33.7297 93.5321 33.7395 93.6175 33.7395C93.7322 33.7395 93.8371 33.7285 93.9323 33.7065C94.0274 33.6821 94.1165 33.648 94.1995 33.6041C94.2849 33.5601 94.3654 33.5077 94.441 33.4467C94.5191 33.3857 94.5947 33.3161 94.6679 33.238V32.4694ZM92.5634 30.9542C92.7684 30.7565 92.9892 30.6089 93.2259 30.5113C93.4626 30.4137 93.7249 30.3649 94.0128 30.3649C94.2202 30.3649 94.4044 30.3991 94.5655 30.4674C94.7265 30.5357 94.8619 30.6309 94.9717 30.7529C95.0815 30.8749 95.1645 31.0225 95.2206 31.1957C95.2767 31.369 95.3048 31.5593 95.3048 31.7667V34.1384H95.0157C94.9522 34.1384 94.9034 34.1287 94.8692 34.1091C94.8351 34.0872 94.8082 34.0457 94.7887 33.9847L94.7155 33.6333C94.6179 33.7236 94.5228 33.8041 94.43 33.8749C94.3373 33.9432 94.2397 34.0018 94.1372 34.0506C94.0348 34.0969 93.9249 34.1323 93.8078 34.1567C93.6931 34.1836 93.565 34.197 93.4235 34.197C93.2796 34.197 93.1441 34.1775 93.0172 34.1384C92.8904 34.0969 92.7793 34.0359 92.6842 33.9554C92.5915 33.8749 92.517 33.7736 92.4609 33.6516C92.4072 33.5272 92.3804 33.3808 92.3804 33.2124C92.3804 33.066 92.4207 32.9257 92.5012 32.7915C92.5817 32.6549 92.7122 32.5341 92.8928 32.4292C93.0734 32.3243 93.3088 32.2388 93.5992 32.173C93.8896 32.1046 94.2458 32.0656 94.6679 32.0558V31.7667C94.6679 31.4788 94.6057 31.2616 94.4813 31.1152C94.3568 30.9664 94.1751 30.8919 93.9359 30.8919C93.7749 30.8919 93.6395 30.9127 93.5297 30.9542C93.4223 30.9932 93.3284 31.0383 93.2478 31.0896C93.1698 31.1384 93.1014 31.1835 93.0429 31.225C92.9867 31.264 92.9306 31.2836 92.8745 31.2836C92.8306 31.2836 92.7928 31.2726 92.761 31.2506C92.7293 31.2262 92.7025 31.1969 92.6805 31.1628L92.5634 30.9542ZM96.9523 33.2454C97.0719 33.4064 97.2025 33.5199 97.344 33.5858C97.4855 33.6516 97.6441 33.6846 97.8198 33.6846C98.1663 33.6846 98.4322 33.5614 98.6177 33.3149C98.8031 33.0685 98.8958 32.7171 98.8958 32.2608C98.8958 32.0192 98.8739 31.8118 98.83 31.6386C98.7885 31.4654 98.7275 31.3238 98.647 31.214C98.5664 31.1018 98.4676 31.02 98.3505 30.9688C98.2334 30.9176 98.1004 30.8919 97.9515 30.8919C97.7393 30.8919 97.5526 30.9407 97.3916 31.0383C97.233 31.1359 97.0865 31.2738 96.9523 31.4519V33.2454ZM96.9194 31.0054C97.0756 30.8126 97.2561 30.6577 97.4611 30.5406C97.6661 30.4235 97.9003 30.3649 98.1638 30.3649C98.3786 30.3649 98.5725 30.4064 98.7458 30.4893C98.919 30.5699 99.0667 30.6906 99.1887 30.8517C99.3107 31.0103 99.4046 31.2079 99.4705 31.4446C99.5364 31.6813 99.5693 31.9534 99.5693 32.2608C99.5693 32.5341 99.5327 32.7891 99.4595 33.0258C99.3863 33.26 99.2802 33.4638 99.1411 33.637C99.0044 33.8078 98.8361 33.9432 98.636 34.0433C98.4383 34.1409 98.2151 34.1897 97.9662 34.1897C97.7393 34.1897 97.5441 34.1518 97.3806 34.0762C97.2195 33.9981 97.0768 33.8908 96.9523 33.7541V35.3938H96.2972V30.4308H96.6888C96.7815 30.4308 96.8389 30.4759 96.8608 30.5662L96.9194 31.0054ZM102.56 31.042C102.531 31.0957 102.486 31.1225 102.425 31.1225C102.388 31.1225 102.346 31.1091 102.3 31.0823C102.254 31.0554 102.196 31.0261 102.128 30.9944C102.062 30.9603 101.983 30.9298 101.89 30.9029C101.797 30.8736 101.688 30.859 101.561 30.859C101.451 30.859 101.352 30.8736 101.264 30.9029C101.176 30.9298 101.101 30.9676 101.037 31.0164C100.976 31.0652 100.929 31.1225 100.895 31.1884C100.863 31.2518 100.847 31.3214 100.847 31.397C100.847 31.4922 100.874 31.5715 100.928 31.6349C100.984 31.6984 101.057 31.7533 101.147 31.7996C101.237 31.846 101.34 31.8875 101.455 31.9241C101.569 31.9582 101.686 31.9961 101.806 32.0375C101.928 32.0766 102.046 32.1205 102.161 32.1693C102.276 32.2181 102.378 32.2791 102.468 32.3523C102.559 32.4255 102.631 32.5158 102.684 32.6232C102.74 32.7281 102.769 32.855 102.769 33.0038C102.769 33.1746 102.738 33.3332 102.677 33.4796C102.616 33.6236 102.526 33.7492 102.406 33.8566C102.287 33.9615 102.14 34.0445 101.967 34.1055C101.794 34.1665 101.594 34.197 101.367 34.197C101.108 34.197 100.874 34.1555 100.664 34.0725C100.454 33.9871 100.276 33.8786 100.13 33.7468L100.283 33.4979C100.303 33.4662 100.326 33.4418 100.353 33.4247C100.38 33.4076 100.414 33.3991 100.455 33.3991C100.499 33.3991 100.546 33.4162 100.594 33.4503C100.643 33.4845 100.702 33.5223 100.77 33.5638C100.841 33.6053 100.926 33.6431 101.026 33.6773C101.126 33.7114 101.251 33.7285 101.4 33.7285C101.527 33.7285 101.638 33.7126 101.733 33.6809C101.828 33.6468 101.907 33.6016 101.971 33.5455C102.034 33.4894 102.08 33.4247 102.11 33.3515C102.141 33.2783 102.157 33.2002 102.157 33.1173C102.157 33.0148 102.129 32.9306 102.073 32.8647C102.019 32.7964 101.947 32.7391 101.857 32.6927C101.767 32.6439 101.663 32.6024 101.546 32.5683C101.431 32.5317 101.313 32.4938 101.191 32.4548C101.071 32.4158 100.953 32.3718 100.836 32.323C100.721 32.2718 100.619 32.2083 100.529 32.1327C100.438 32.0571 100.365 31.9643 100.309 31.8545C100.255 31.7423 100.228 31.6069 100.228 31.4483C100.228 31.3067 100.258 31.1713 100.316 31.042C100.375 30.9102 100.46 30.7956 100.573 30.698C100.685 30.5979 100.823 30.5186 100.986 30.4601C101.15 30.4015 101.336 30.3722 101.546 30.3722C101.79 30.3722 102.008 30.4113 102.201 30.4893C102.396 30.565 102.565 30.6699 102.706 30.8041L102.56 31.042Z"
        fill="white" />
</svg>