<svg width="300" height="230" viewBox="0 0 300 230" fill="none" xmlns="http://www.w3.org/2000/svg">
    <path
        d="M74 141.917C81.1225 159.066 93.1014 173.786 108.156 184.865L120.296 156.486C116.735 153.147 113.336 149.505 110.584 145.559C108.965 143.283 106.051 141.917 103.138 141.917H74Z"
        fill="white" />
    <path
        d="M128.228 43.729C141.826 34.1682 158.823 28.4014 177.115 28.7049C197.835 29.0084 216.612 36.7481 230.696 49.1923H269.708C269.708 49.1923 269.87 49.1923 270.031 49.1923C252.387 22.3311 221.954 3.66476 186.827 0.47783C144.092 -3.31613 105.889 15.8055 84.3599 46.3089H119.811C122.886 46.4607 125.962 45.5501 128.228 43.729Z"
        fill="white" />
    <path
        d="M285.896 94.1129C285.248 86.6767 283.629 79.3923 281.363 72.4114C281.201 72.5631 281.201 72.5631 281.039 72.7149C257.567 88.346 254.654 89.4083 254.33 89.4083C255.139 93.3541 255.625 97.4515 255.787 101.701C256.758 137.971 229.887 168.475 193.95 176.214L150.567 203.986C158.823 205.807 167.402 206.718 176.144 206.718C240.247 206.566 291.561 155.272 285.896 94.1129Z"
        fill="white" />
    <path
        d="M131.295 134.876C130.162 132.903 128.057 131.689 125.791 131.689H86.1314C81.2752 131.689 76.5808 130.02 73.1814 126.833L70.1058 124.101C68.3251 122.432 69.6202 119.7 72.2102 119.7H117.212C120.125 119.7 120.287 115.148 119.964 112.416L119.478 111.05C119.154 110.291 118.345 109.836 117.535 109.836H62.6595C57.6413 109.836 52.9469 108.015 49.5476 104.828L46.7957 102.248C45.015 100.579 46.31 97.8472 48.9 97.8472L115.431 97.9989C117.05 97.9989 117.374 95.7225 117.535 93.9014C117.697 92.9909 117.697 91.9286 117.859 90.8663C118.021 89.804 117.05 88.7416 115.917 88.7416H40.4825C35.6262 88.7416 30.9318 87.0723 27.5324 83.8854L24.4568 81.1537C22.6762 79.4844 23.9712 76.7527 26.5612 76.7527H121.42C122.392 76.7527 123.201 76.2974 123.687 75.5387C124.334 74.6281 124.982 73.5658 124.982 73.5658L127.086 70.3789C128.381 69.1648 127.41 67.3437 125.629 67.3437H16.8486C11.9924 67.3437 7.29796 65.6743 3.89856 62.4874L0.822933 59.7558C-0.957701 58.0864 0.337286 55.3548 2.9273 55.3548H156.709C162.051 55.3548 164.479 61.1216 160.756 64.3085C146.835 76.1457 127.086 96.6331 141.979 107.408C143.597 108.622 145.702 109.077 147.806 109.077C155.091 109.077 174.354 109.077 181.314 109.077C184.228 109.077 187.142 108.47 189.732 107.256C193.617 105.435 197.826 101.793 195.236 94.9637C194.588 93.1426 193.455 91.4733 192.16 89.8039C190.218 87.3758 186.009 84.4924 180.991 80.8502C172.897 74.9316 173.706 62.9427 184.228 53.3819C184.228 53.3819 173.221 52.3196 177.591 42C177.591 42 181.314 46.5528 187.142 46.2492C192.97 45.9457 207.215 46.2492 207.215 46.2492C207.215 46.2492 219.841 46.2492 221.622 54.1407H299.807C299.807 54.1407 301.426 57.3276 295.275 58.2382C293.009 58.5417 290.742 59.3005 288.962 60.5146L258.205 80.2432C254.482 82.6713 250.435 84.4924 246.065 85.8582C236.352 88.7416 221.622 89.6522 217.898 70.9859C217.737 69.9236 216.765 69.1648 215.632 69.013C213.851 68.7095 209.966 67.4954 208.024 71.5929C207.376 73.1105 207.215 74.7799 207.7 76.2974C208.348 78.7256 209.966 82.8231 214.175 86.1617C220.65 91.6251 234.086 103.462 234.086 103.462C234.086 103.462 261.119 119.397 234.086 143.375L100.538 228.815C99.2434 229.574 97.6247 228.511 98.1103 227.145C109.442 200.891 120.611 174.485 131.942 148.231C132.266 147.32 132.752 146.106 132.914 144.589C133.075 143.83 133.399 141.705 132.914 139.277C132.59 137.608 131.942 136.09 131.295 134.876Z"
        fill="white" />
</svg>