<svg width="42" height="44" viewBox="14 14 14 15" fill="none" xmlns="http://www.w3.org/2000/svg">
  <g id="Creator Icon">
    <path
      d="M20.9639 16.6021C18.6119 16.6021 16.6919 18.4563 16.6919 20.7433C16.6919 21.655 16.9959 22.4894 17.5079 23.1693C17.6519 22.9839 17.8279 22.8139 18.0199 22.6594C17.6519 22.1185 17.4279 21.4541 17.4279 20.7433C17.4279 18.8426 19.0119 17.3129 20.9799 17.3129C22.9479 17.3129 24.5319 18.8426 24.5319 20.7433C24.5319 21.4541 24.3079 22.1031 23.9239 22.6594C24.1159 22.8139 24.2919 22.9839 24.4519 23.1693C24.9639 22.4894 25.2679 21.6395 25.2679 20.7433C25.2359 18.4563 23.3159 16.6021 20.9639 16.6021Z"
      fill="white" />
    <path
      d="M20.964 14.5C17.396 14.5 14.5 17.2969 14.5 20.7427C14.5 22.6434 15.396 24.3431 16.788 25.4866L16.868 24.6676C16.868 24.6522 16.868 24.6367 16.884 24.6058C15.86 23.6169 15.236 22.2416 15.236 20.7273C15.236 17.6832 17.796 15.2108 20.964 15.2108C24.132 15.2108 26.692 17.6986 26.692 20.7427C26.692 21.9017 26.324 22.9988 25.668 23.8795C25.924 23.9414 26.164 24.0186 26.388 24.1268C27.044 23.1533 27.428 21.9789 27.428 20.7427C27.412 17.2969 24.516 14.5 20.964 14.5Z"
      fill="white" />
    <path
      d="M20.9641 22.782C22.1321 22.782 23.0761 21.8704 23.0761 20.7423C23.0761 19.6143 22.1321 18.7026 20.9641 18.7026C19.7961 18.7026 18.8521 19.6143 18.8521 20.7423C18.8521 21.8704 19.7961 22.782 20.9641 22.782Z"
      fill="white" />
    <path
      d="M24.0839 23.9568C22.8039 24.3431 21.8759 25.4866 21.8759 26.8618H17.9079C17.6199 26.8618 17.3959 26.6146 17.4279 26.3519L17.5879 24.7758C17.6999 23.8795 18.3079 23.1687 19.1239 22.8442C19.6199 23.2615 20.2599 23.5087 20.9639 23.5087C21.6679 23.5087 22.3079 23.2615 22.8039 22.8442C23.3479 23.0451 23.8119 23.4469 24.0839 23.9568Z"
      fill="white" />
    <path
      d="M25.0122 24.5125C23.6842 24.5125 22.5962 25.5632 22.5962 26.8457C22.5962 28.1283 23.6842 29.179 25.0122 29.179C26.3402 29.179 27.4282 28.1283 27.4282 26.8457C27.4282 25.5632 26.3402 24.5125 25.0122 24.5125ZM26.4202 26.5831L25.8442 27.1239C25.8122 27.1548 25.8122 27.1857 25.8122 27.2166L25.9402 27.9738C25.9562 28.0665 25.8602 28.1283 25.7642 28.0974L25.0602 27.742C25.0282 27.7265 24.9802 27.7265 24.9482 27.742L24.2442 28.0974C24.1642 28.1437 24.0522 28.0665 24.0682 27.9738L24.1962 27.2166C24.1962 27.1857 24.1962 27.1393 24.1642 27.1239L23.5882 26.5831C23.5242 26.5212 23.5562 26.3976 23.6522 26.3976L24.4522 26.2895C24.4842 26.2895 24.5162 26.2586 24.5322 26.2277L24.8842 25.5323C24.9322 25.455 25.0442 25.455 25.0922 25.5323L25.4442 26.2277C25.4602 26.2586 25.4922 26.2895 25.5242 26.2895L26.3242 26.3976C26.4522 26.3976 26.4842 26.5212 26.4202 26.5831Z"
      fill="white" />
  </g>
</svg>