<svg width="151" height="38" viewBox="0 0 151 38" fill="none" xmlns="http://www.w3.org/2000/svg">
    <path
        d="M11.0898 23.4434C12.1345 26.2761 13.8914 28.7078 16.0994 30.5378L17.88 25.85C17.3577 25.2985 16.8591 24.6968 16.4555 24.045C16.2181 23.669 15.7907 23.4434 15.3634 23.4434H11.0898Z"
        fill="white" />
    <path
        d="M19.0434 7.22356C21.0377 5.64422 23.5306 4.69161 26.2134 4.74174C29.2524 4.79188 32.0064 6.07039 34.0719 8.12604H39.7937C39.7937 8.12604 39.8175 8.12604 39.8412 8.12604C37.2533 3.68885 32.7899 0.605383 27.6379 0.0789373C21.3701 -0.547784 15.767 2.61089 12.6094 7.64973H17.8088C18.2599 7.6748 18.711 7.52438 19.0434 7.22356Z"
        fill="white" />
    <path
        d="M42.1675 15.5468C42.0725 14.3184 41.8351 13.1151 41.5027 11.962C41.479 11.987 41.479 11.987 41.4552 12.0121C38.0127 14.5942 37.5853 14.7697 37.5378 14.7697C37.6565 15.4215 37.7278 16.0983 37.7515 16.8003C37.8939 22.7917 33.9528 27.8306 28.6821 29.1091L22.3193 33.6967C23.5302 33.9975 24.7885 34.1479 26.0705 34.1479C35.4723 34.1228 42.9984 25.6496 42.1675 15.5468Z"
        fill="white" />
    <path
        d="M19.2566 22.4406C19.0904 22.1147 18.7817 21.9141 18.4494 21.9141H12.6326C11.9204 21.9141 11.2318 21.6384 10.7333 21.1119L10.2822 20.6607C10.021 20.3849 10.211 19.9337 10.5908 19.9337H17.191C17.6184 19.9337 17.6421 19.1816 17.5947 18.7304L17.5234 18.5048C17.4759 18.3794 17.3572 18.3042 17.2385 18.3042H9.19005C8.45406 18.3042 7.76555 18.0034 7.26698 17.4769L6.86336 17.0508C6.6022 16.775 6.79213 16.3238 7.172 16.3238L16.9299 16.3489C17.1673 16.3489 17.2148 15.9728 17.2385 15.672C17.2623 15.5216 17.2623 15.3461 17.286 15.1706C17.3097 14.9951 17.1673 14.8197 17.0011 14.8197H5.93743C5.22518 14.8197 4.53667 14.5439 4.03809 14.0175L3.587 13.5662C3.32584 13.2905 3.51577 12.8392 3.89564 12.8392H17.8083C17.9508 12.8392 18.0695 12.764 18.1407 12.6387C18.2357 12.4883 18.3306 12.3128 18.3306 12.3128L18.6393 11.7863C18.8292 11.5858 18.6868 11.2849 18.4256 11.2849H2.47113C1.75888 11.2849 1.07037 11.0092 0.571789 10.4827L0.120697 10.0315C-0.140463 9.75575 0.0494686 9.30451 0.429337 9.30451H22.984C23.7675 9.30451 24.1236 10.2571 23.5776 10.7836C21.5358 12.7389 18.6393 16.1232 20.8235 17.9031C21.0609 18.1037 21.3696 18.1789 21.6782 18.1789C22.7466 18.1789 25.5719 18.1789 26.5928 18.1789C27.0201 18.1789 27.4475 18.0786 27.8274 17.878C28.3972 17.5772 29.0145 16.9756 28.6346 15.8475C28.5396 15.5466 28.3734 15.2709 28.1835 14.9951C27.8986 14.594 27.2813 14.1177 26.5453 13.5161C25.3582 12.5384 25.4769 10.5579 27.0201 8.97861C27.0201 8.97861 25.4057 8.80313 26.0467 7.09845C26.0467 7.09845 26.5928 7.85052 27.4475 7.80038C28.3022 7.75024 30.3915 7.80038 30.3915 7.80038C30.3915 7.80038 32.2433 7.80038 32.5045 9.10396H43.9718C43.9718 9.10396 44.2092 9.63041 43.307 9.78082C42.9746 9.83096 42.6422 9.9563 42.3811 10.1569L37.8701 13.4158C37.3241 13.8169 36.7305 14.1177 36.0895 14.3433C34.665 14.8197 32.5045 14.9701 31.9584 11.8866C31.9347 11.7111 31.7922 11.5858 31.626 11.5607C31.3649 11.5106 30.7951 11.31 30.5102 11.9869C30.4152 12.2376 30.3915 12.5133 30.4627 12.764C30.5577 13.1651 30.7951 13.842 31.4124 14.3935C32.362 15.296 34.3326 17.2513 34.3326 17.2513C34.3326 17.2513 38.2975 19.8836 34.3326 23.8444L14.7456 37.9582C14.5557 38.0835 14.3183 37.9081 14.3895 37.6824C16.0514 33.3455 17.6896 28.9835 19.3515 24.6466C19.399 24.4962 19.4703 24.2957 19.494 24.045C19.5177 23.9196 19.5652 23.5687 19.494 23.1676C19.4465 22.8918 19.3515 22.6411 19.2566 22.4406Z"
        fill="white" />
    <path
        d="M68.403 11.8902H63.9782C63.9782 11.0623 63.9782 10.3783 63.9782 9.94632C63.9782 9.47835 64.1122 9.08238 64.4139 8.72241C64.6821 8.36243 65.2185 8.18245 65.9559 8.18245H66.7269C67.5985 8.21844 67.5314 7.4625 67.5314 6.56256V3.39478C67.0286 3.35878 66.6264 3.32278 66.3582 3.28678C66.0565 3.25078 65.7548 3.25079 65.3861 3.25079C62.2685 3.25079 61.0618 3.93474 60.2573 5.33864C59.4863 6.27458 59.084 7.96647 59.084 10.4503V11.9262H57.609C56.7375 11.9262 56 12.6821 56 13.6541V16.1739H59.151V34.7486H60.8942C62.6038 34.7486 63.9782 33.2727 63.9782 31.4368V16.1379H66.1906C67.4309 16.1379 68.403 15.058 68.403 13.7621V11.8902Z"
        fill="white" />
    <path
        d="M78.3257 12.9697C72.7276 12.9697 68.2021 17.8294 68.2021 23.841C68.2021 29.8526 72.7276 34.7122 78.3257 34.7122C83.9238 34.7122 88.4492 29.8526 88.4492 23.841C88.4828 17.8294 83.9238 12.9697 78.3257 12.9697ZM78.3257 30.0325C75.1411 30.0325 72.56 27.2607 72.56 23.841C72.56 20.4212 75.1411 17.6494 78.3257 17.6494C81.5103 17.6494 84.0914 20.4212 84.0914 23.841C84.0914 27.2607 81.5103 30.0325 78.3257 30.0325Z"
        fill="white" />
    <path
        d="M137.558 15.6345V34.7492H139.904C141.111 34.7492 142.117 33.6693 142.117 32.3733V13.0787H139.938C138.63 13.0787 137.558 14.2306 137.558 15.6345Z"
        fill="white" />
    <path
        d="M146.106 15.6345V34.7492H148.453C149.66 34.7492 150.665 33.6693 150.665 32.3733V13.0787H148.486C147.179 13.0787 146.106 14.2306 146.106 15.6345Z"
        fill="white" />
    <path
        d="M148.385 8.97499C149.827 8.97499 151 7.71507 151 6.16718C151 4.61928 149.827 3.35938 148.385 3.35938C146.944 3.35938 145.771 4.61928 145.771 6.16718C145.771 7.71507 146.91 8.97499 148.385 8.97499Z"
        fill="white" />
    <path
        d="M101.254 12.9697C95.6563 12.9697 91.1309 17.8294 91.1309 23.841H91.1644C91.1644 23.877 91.1309 23.949 91.1309 23.985V34.7122H93.3768C94.5501 34.7122 95.4887 34.1003 95.4887 33.3803V23.841C95.4887 20.4212 98.0698 17.6494 101.254 17.6494C104.439 17.6494 107.02 20.4212 107.02 23.841V34.7122H109.266C110.439 34.7122 111.378 34.1003 111.378 33.3443V23.661C111.378 23.589 111.378 23.517 111.344 23.445C111.177 17.6134 106.718 12.9697 101.254 12.9697Z"
        fill="white" />
    <path
        d="M124.149 17.6518C125.959 17.6518 127.601 18.5518 128.641 19.9557C129.043 20.4956 129.613 20.8196 130.216 20.8196H133.87C132.529 15.888 128.071 12.3962 122.908 13.0441C118.282 13.6201 114.562 17.6518 114.059 22.5835C113.388 29.171 118.148 34.7147 124.115 34.7147C128.741 34.7147 132.63 31.4029 133.836 26.8672H130.384C129.713 26.8672 129.009 27.1552 128.574 27.7311C127.333 29.351 125.356 30.323 123.177 29.963C120.662 29.567 118.618 27.2632 118.349 24.5633C118.048 20.8196 120.763 17.6518 124.149 17.6518Z"
        fill="white" />
    <path
        d="M139.838 3.35938C138.396 3.35938 137.223 4.61928 137.223 6.16718C137.223 7.71507 138.396 8.97499 139.838 8.97499C141.279 8.97499 142.453 7.71507 142.453 6.16718C142.453 4.61928 141.279 3.35938 139.838 3.35938Z"
        fill="white" />
</svg>