<svg width="31" height="31" viewBox="0 0 31 31" fill="none" xmlns="http://www.w3.org/2000/svg">
    <g clip-path="url(#clip0_2476_15732)">
        <path
            d="M15.8856 30.3856C24.1699 30.3856 30.8856 23.6699 30.8856 15.3856C30.8856 7.10135 24.1699 0.38562 15.8856 0.38562C7.60133 0.38562 0.885605 7.10135 0.885605 15.3856C0.885605 23.6699 7.60133 30.3856 15.8856 30.3856Z"
            fill="#5C5560" />
        <path
            d="M15.8856 30.3856C24.1699 30.3856 30.8856 23.6699 30.8856 15.3856C30.8856 7.10135 24.1699 0.38562 15.8856 0.38562C7.60133 0.38562 0.885605 7.10135 0.885605 15.3856C0.885605 23.6699 7.60133 30.3856 15.8856 30.3856Z"
            fill="#EEEEEE" />
        <path
            d="M28.8339 12.9237H23.325H16.1753V18.1371H23.2222C22.5879 19.83 21.3837 21.2443 19.8428 22.1479C18.6821 22.8293 17.3295 23.2196 15.8856 23.2196C12.5266 23.2196 9.66128 21.1052 8.54835 18.1349C8.22684 17.2797 8.05165 16.3529 8.05165 15.3855C8.05165 14.4941 8.20077 13.6376 8.47452 12.8396C9.53167 9.76293 12.4506 7.55154 15.8856 7.55154C17.407 7.55154 18.8269 7.98525 20.0282 8.73619L24.2975 5.24096C22.0151 3.34604 19.0833 2.20703 15.8856 2.20703C10.7924 2.20703 6.37393 5.09617 4.18059 9.32494C3.23852 11.1395 2.70708 13.2002 2.70708 15.3856C2.70708 17.6455 3.27549 19.7721 4.27768 21.6309C6.50354 25.759 10.867 28.5641 15.8856 28.5641C19.0086 28.5641 21.8775 27.478 24.136 25.6627C26.4582 23.796 28.1344 21.1581 28.776 18.1371C28.965 17.2494 29.0642 16.3291 29.0642 15.3856C29.0642 14.5442 28.9853 13.7209 28.8339 12.9237Z"
            fill="#FBBB00" />
        <path
            d="M24.1352 25.662L24.136 25.6628C21.8775 27.4781 19.0086 28.5642 15.8856 28.5642C10.8669 28.5642 6.50348 25.7591 4.27762 21.6309L8.54834 18.135C9.66127 21.1052 12.5265 23.2197 15.8856 23.2197C17.3295 23.2197 18.6821 22.8294 19.8428 22.148L24.1352 25.662Z"
            fill="#28B446" />
        <path
            d="M28.834 12.9237C28.9854 13.7209 29.0643 14.5442 29.0643 15.3856C29.0643 16.3291 28.9651 17.2494 28.7761 18.1372C28.1346 21.1581 26.4583 23.796 24.1361 25.6628L24.1353 25.662L19.8429 22.1479C21.3838 21.2443 22.5879 19.8301 23.2222 18.1372H16.1753V12.9237H23.3251H28.834Z"
            fill="#518EF8" />
        <path
            d="M24.2977 5.24102L20.0285 8.73625C18.8272 7.98531 17.4073 7.5516 15.8859 7.5516C12.4508 7.5516 9.53191 9.76299 8.47476 12.8397L4.18159 9.32494H4.18083C6.37417 5.09617 10.7926 2.20703 15.8859 2.20703C19.0835 2.20703 22.0154 3.34604 24.2977 5.24102Z"
            fill="#FC3F1D" />
    </g>
    <defs>
        <clipPath id="clip0_2476_15732">
            <rect width="30" height="30" fill="white" transform="translate(0.885605 0.38562)" />
        </clipPath>
    </defs>
</svg>