<svg width="24" height="24" viewBox="2 4 20 20" fill="none" xmlns="http://www.w3.org/2000/svg">
    <g id="Icon-InstagramLogo">
        <path id="Vector"
            d="M12 9.38462C11.0872 9.38462 10.1948 9.6553 9.43583 10.1624C8.67683 10.6696 8.08527 11.3904 7.73594 12.2338C7.38661 13.0771 7.29521 14.0051 7.4733 14.9004C7.65138 15.7957 8.09096 16.6181 8.73643 17.2636C9.3819 17.909 10.2043 18.3486 11.0996 18.5267C11.9949 18.7048 12.9229 18.6134 13.7662 18.2641C14.6096 17.9147 15.3304 17.3232 15.8376 16.5642C16.3447 15.8052 16.6154 14.9128 16.6154 14C16.6141 12.7763 16.1274 11.6031 15.2622 10.7378C14.3969 9.87256 13.2237 9.38589 12 9.38462ZM12 17.0769C11.3914 17.0769 10.7966 16.8965 10.2906 16.5584C9.78456 16.2203 9.39018 15.7397 9.15729 15.1775C8.92441 14.6153 8.86348 13.9966 8.9822 13.3997C9.10092 12.8029 9.39397 12.2546 9.82429 11.8243C10.2546 11.394 10.8029 11.1009 11.3997 10.9822C11.9966 10.8635 12.6153 10.9244 13.1775 11.1573C13.7397 11.3902 14.2203 11.7846 14.5584 12.2906C14.8965 12.7966 15.0769 13.3914 15.0769 14C15.0769 14.8161 14.7527 15.5987 14.1757 16.1757C13.5987 16.7527 12.8161 17.0769 12 17.0769ZM16.6154 4H7.38462C5.957 4.00153 4.58828 4.56932 3.5788 5.5788C2.56932 6.58828 2.00153 7.957 2 9.38462V18.6154C2.00153 20.043 2.56932 21.4117 3.5788 22.4212C4.58828 23.4307 5.957 23.9985 7.38462 24H16.6154C18.043 23.9985 19.4117 23.4307 20.4212 22.4212C21.4307 21.4117 21.9985 20.043 22 18.6154V9.38462C21.9985 7.957 21.4307 6.58828 20.4212 5.5788C19.4117 4.56932 18.043 4.00153 16.6154 4ZM20.4615 18.6154C20.4615 19.6354 20.0563 20.6137 19.335 21.335C18.6137 22.0563 17.6354 22.4615 16.6154 22.4615H7.38462C6.36455 22.4615 5.38627 22.0563 4.66497 21.335C3.94368 20.6137 3.53846 19.6354 3.53846 18.6154V9.38462C3.53846 8.36455 3.94368 7.38627 4.66497 6.66497C5.38627 5.94368 6.36455 5.53846 7.38462 5.53846H16.6154C17.6354 5.53846 18.6137 5.94368 19.335 6.66497C20.0563 7.38627 20.4615 8.36455 20.4615 9.38462V18.6154ZM18.1538 9C18.1538 9.22821 18.0862 9.45129 17.9594 9.64104C17.8326 9.83079 17.6524 9.97868 17.4416 10.066C17.2307 10.1533 16.9987 10.1762 16.7749 10.1317C16.5511 10.0872 16.3455 9.97726 16.1841 9.81589C16.0227 9.65452 15.9128 9.44893 15.8683 9.2251C15.8238 9.00128 15.8467 8.76928 15.934 8.55844C16.0213 8.3476 16.1692 8.1674 16.359 8.04061C16.5487 7.91383 16.7718 7.84615 17 7.84615C17.306 7.84615 17.5995 7.96772 17.8159 8.18411C18.0323 8.4005 18.1538 8.69398 18.1538 9Z"
            fill="white" />
    </g>
</svg>