<svg width="16" height="16" viewBox="0 0 16 16" fill="none" xmlns="http://www.w3.org/2000/svg">
    <g id="Layer 2">
        <g id="Color">
            <g id="29.Yelp">
                <path id="Background"
                    d="M8 16C12.4183 16 16 12.4183 16 8C16 3.58172 12.4183 0 8 0C3.58172 0 0 3.58172 0 8C0 12.4183 3.58172 16 8 16Z"
                    fill="#F43939" />
                <g id="Icon">
                    <path id="Vector"
                        d="M7.31655 9.72175L6.15234 11.1396C6.11411 11.186 6.0874 11.2407 6.07442 11.2994C6.06143 11.358 6.06253 11.4189 6.07763 11.477C6.09273 11.5352 6.1214 11.5889 6.16128 11.6338C6.20117 11.6787 6.25113 11.7136 6.30708 11.7354L7.44497 12.1839C7.50191 12.2062 7.56339 12.2145 7.62421 12.208C7.68503 12.2016 7.7434 12.1806 7.7944 12.1468C7.8454 12.1131 7.88752 12.0675 7.91721 12.0141C7.9469 11.9606 7.96328 11.9008 7.96497 11.8396L8.01339 9.98175C8.01526 9.89999 7.99161 9.81968 7.94574 9.75197C7.89987 9.68427 7.83406 9.63253 7.75743 9.60394C7.68081 9.57535 7.59719 9.57133 7.51818 9.59245C7.43917 9.61356 7.3687 9.65875 7.31655 9.72175Z"
                        fill="white" />
                    <path id="Vector_2"
                        d="M7.12305 8.31577L5.39674 7.69577C5.3402 7.67574 5.27974 7.66929 5.22025 7.67697C5.16076 7.68464 5.10391 7.7062 5.05431 7.73992C5.0047 7.77364 4.96373 7.81857 4.93471 7.87106C4.90569 7.92355 4.88944 7.98214 4.88726 8.04209L4.84831 9.26313C4.84649 9.32423 4.85939 9.38487 4.88592 9.43994C4.91246 9.495 4.95185 9.54287 5.00077 9.57951C5.0497 9.61616 5.10672 9.64049 5.16702 9.65046C5.22733 9.66044 5.28915 9.65576 5.34726 9.63682L7.11253 9.05261C7.19033 9.02698 7.2582 8.97772 7.30669 8.9117C7.35517 8.84567 7.38185 8.76616 7.38301 8.68426C7.38417 8.60235 7.35975 8.52212 7.31315 8.45475C7.26655 8.38738 7.2001 8.33622 7.12305 8.3084V8.31577Z"
                        fill="white" />
                    <path id="Vector_3"
                        d="M9.1021 8.51131L10.8705 8.02394C10.9284 8.00809 10.9817 7.97875 11.0261 7.93832C11.0705 7.89789 11.1046 7.84753 11.1258 7.79135C11.147 7.73517 11.1545 7.67478 11.1478 7.61513C11.1411 7.55548 11.1204 7.49825 11.0874 7.44815L10.421 6.42604C10.3876 6.37335 10.3418 6.32967 10.2876 6.29883C10.2334 6.26799 10.1724 6.25094 10.11 6.24918C10.0477 6.24741 9.98582 6.26098 9.92993 6.2887C9.87404 6.31642 9.82581 6.35743 9.78947 6.40815L8.6821 7.89446C8.63269 7.96017 8.60515 8.03973 8.60336 8.12192C8.60158 8.20411 8.62564 8.28479 8.67215 8.35258C8.71866 8.42037 8.78528 8.47185 8.8626 8.49976C8.93993 8.52767 9.02407 8.53061 9.10316 8.50815L9.1021 8.51131Z"
                        fill="white" />
                    <path id="Vector_4"
                        d="M7.821 4.2617C7.82432 4.1906 7.81079 4.11972 7.7815 4.05485C7.75222 3.98997 7.70801 3.93294 7.65249 3.8884C7.59697 3.84386 7.53171 3.81307 7.46203 3.79856C7.39234 3.78404 7.32022 3.7862 7.25153 3.80486L5.85153 4.18801C5.78147 4.20699 5.71703 4.24262 5.6637 4.29185C5.61038 4.34109 5.56973 4.40249 5.54523 4.47081C5.52074 4.53914 5.51311 4.61237 5.523 4.68428C5.5329 4.75618 5.56002 4.82463 5.60206 4.8838L7.20837 7.66696C7.22116 7.68964 7.23596 7.71113 7.25258 7.73117C7.31547 7.80682 7.40086 7.86043 7.49632 7.8842C7.59179 7.90796 7.69235 7.90063 7.78336 7.86329C7.87438 7.82594 7.9511 7.76053 8.00236 7.67656C8.05362 7.59259 8.07675 7.49446 8.06837 7.39643L7.821 4.2617Z"
                        fill="white" />
                    <path id="Vector_5"
                        d="M10.8831 9.78907L9.10631 9.23854C9.028 9.21486 8.94426 9.21615 8.86672 9.24225C8.78919 9.26835 8.72171 9.31796 8.67367 9.38417C8.62562 9.45039 8.5994 9.52993 8.59865 9.61174C8.5979 9.69355 8.62265 9.77356 8.66946 9.84065L9.7221 11.3428C9.75651 11.3919 9.80206 11.4321 9.85501 11.4603C9.90797 11.4884 9.96683 11.5036 10.0268 11.5046C10.0867 11.5056 10.1461 11.4925 10.2 11.4662C10.2539 11.4399 10.3008 11.4012 10.3368 11.3533L11.0737 10.3764C11.1092 10.3278 11.1327 10.2714 11.1422 10.2119C11.1518 10.1523 11.147 10.0914 11.1284 10.0341C11.1098 9.97676 11.0779 9.92466 11.0353 9.88207C10.9926 9.83947 10.9405 9.8076 10.8831 9.78907Z"
                        fill="white" />
                </g>
            </g>
        </g>
    </g>
</svg>