<svg width="100" height="66" viewBox="0 0 100 66" fill="none" xmlns="http://www.w3.org/2000/svg">
<path d="M43.6765 32.5686C43.3046 31.8778 42.6137 31.4526 41.8698 31.4526H28.8503C27.2561 31.4526 25.7151 30.8681 24.5991 29.7521L23.5894 28.7956C23.0049 28.2111 23.43 27.2545 24.2803 27.2545H39.0533C40.0098 27.2545 40.063 25.6603 39.9567 24.7038L39.7973 24.2255C39.691 23.9598 39.4253 23.8004 39.1596 23.8004H21.145C19.4976 23.8004 17.9566 23.1627 16.8406 22.0468L15.9372 21.1434C15.3527 20.5588 15.7778 19.6023 16.628 19.6023L38.4688 19.6555C39.0002 19.6555 39.1065 18.8584 39.1596 18.2207C39.2127 17.9018 39.2127 17.5298 39.2659 17.1579C39.319 16.7859 39.0002 16.4139 38.6282 16.4139H13.8648C12.2705 16.4139 10.7295 15.8293 9.61352 14.7134L8.60385 13.7569C8.01931 13.1723 8.44443 12.2158 9.29467 12.2158H40.435C40.7538 12.2158 41.0195 12.0564 41.1789 11.7907C41.3915 11.4718 41.604 11.0998 41.604 11.0998L42.2949 9.9839C42.72 9.55878 42.4012 8.92109 41.8166 8.92109H6.10625C4.51203 8.92109 2.97096 8.33654 1.85501 7.22059L0.845347 6.26407C0.260802 5.67952 0.685919 4.72299 1.53617 4.72299H52.0196C53.7732 4.72299 54.5703 6.74233 53.3481 7.85828C48.778 12.0032 42.2949 19.1772 47.1838 22.9502C47.7152 23.3753 48.406 23.5347 49.0969 23.5347C51.4882 23.5347 57.8119 23.5347 60.0969 23.5347C61.0535 23.5347 62.01 23.3221 62.8602 22.897C64.1356 22.2593 65.5173 20.984 64.667 18.5926C64.4545 17.955 64.0825 17.3704 63.6573 16.7859C63.0196 15.9356 61.638 14.926 59.9906 13.6506C57.3336 11.5781 57.5993 7.38001 61.0535 4.03216C61.0535 4.03216 57.4399 3.66018 58.8747 0.0466309C58.8747 0.0466309 60.0969 1.64085 62.01 1.53456C63.923 1.42828 68.5994 1.53456 68.5994 1.53456C68.5994 1.53456 72.7444 1.53456 73.3289 4.29787H98.9957C98.9957 4.29787 99.5271 5.41382 97.5078 5.73266C96.7638 5.83894 96.0199 6.10465 95.4353 6.52977L85.3386 13.438C84.1164 14.2883 82.7879 14.926 81.3531 15.4042C78.1647 16.4139 73.3289 16.7327 72.1067 10.1965C72.0535 9.82447 71.7347 9.55877 71.3627 9.50563C70.7782 9.39935 69.5028 8.97422 68.8651 10.409C68.6525 10.9404 68.5994 11.525 68.7588 12.0564C68.9714 12.9066 69.5028 14.3414 70.8844 15.5105C73.0101 17.4236 77.4207 21.5685 77.4207 21.5685C77.4207 21.5685 86.2952 27.1483 77.4207 35.5445L33.5799 65.4625C33.1547 65.7282 32.6233 65.3562 32.7828 64.878C36.5026 55.6847 40.1693 46.4382 43.8891 37.2449C43.9954 36.9261 44.1548 36.501 44.2079 35.9696C44.2611 35.7039 44.3674 34.9599 44.2079 34.1097C44.1017 33.5251 43.8891 32.9937 43.6765 32.5686Z" fill="white"/>
</svg>
