<svg width="40" height="40" viewBox="0 0 40 40" fill="none" xmlns="http://www.w3.org/2000/svg">
    <circle cx="20" cy="20" r="20" fill="#D9D9D9" />
    <path
        d="M30 11H26.535L24.8312 8.445C24.74 8.30819 24.6164 8.196 24.4714 8.11838C24.3264 8.04076 24.1645 8.0001 24 8H16C15.8355 8.0001 15.6736 8.04076 15.5286 8.11838C15.3836 8.196 15.26 8.30819 15.1687 8.445L13.4637 11H10C9.20435 11 8.44129 11.3161 7.87868 11.8787C7.31607 12.4413 7 13.2044 7 14V28C7 28.7956 7.31607 29.5587 7.87868 30.1213C8.44129 30.6839 9.20435 31 10 31H30C30.7956 31 31.5587 30.6839 32.1213 30.1213C32.6839 29.5587 33 28.7956 33 28V14C33 13.2044 32.6839 12.4413 32.1213 11.8787C31.5587 11.3161 30.7956 11 30 11ZM31 28C31 28.2652 30.8946 28.5196 30.7071 28.7071C30.5196 28.8946 30.2652 29 30 29H10C9.73478 29 9.48043 28.8946 9.29289 28.7071C9.10536 28.5196 9 28.2652 9 28V14C9 13.7348 9.10536 13.4804 9.29289 13.2929C9.48043 13.1054 9.73478 13 10 13H14C14.1647 13.0001 14.3268 12.9595 14.4721 12.8819C14.6173 12.8043 14.7411 12.692 14.8325 12.555L16.535 10H23.4638L25.1675 12.555C25.2589 12.692 25.3827 12.8043 25.5279 12.8819C25.6732 12.9595 25.8353 13.0001 26 13H30C30.2652 13 30.5196 13.1054 30.7071 13.2929C30.8946 13.4804 31 13.7348 31 14V28ZM25 21C25 21.2652 24.8946 21.5196 24.7071 21.7071C24.5196 21.8946 24.2652 22 24 22H21V25C21 25.2652 20.8946 25.5196 20.7071 25.7071C20.5196 25.8946 20.2652 26 20 26C19.7348 26 19.4804 25.8946 19.2929 25.7071C19.1054 25.5196 19 25.2652 19 25V22H16C15.7348 22 15.4804 21.8946 15.2929 21.7071C15.1054 21.5196 15 21.2652 15 21C15 20.7348 15.1054 20.4804 15.2929 20.2929C15.4804 20.1054 15.7348 20 16 20H19V17C19 16.7348 19.1054 16.4804 19.2929 16.2929C19.4804 16.1054 19.7348 16 20 16C20.2652 16 20.5196 16.1054 20.7071 16.2929C20.8946 16.4804 21 16.7348 21 17V20H24C24.2652 20 24.5196 20.1054 24.7071 20.2929C24.8946 20.4804 25 20.7348 25 21Z"
        fill="#344054" />
</svg>