<svg width="32" height="33" viewBox="0 0 32 33" fill="none" xmlns="http://www.w3.org/2000/svg">
    <rect y="0.5" width="32" height="32" rx="16" fill="#DCEDFC" />
    <path
        d="M16 23.4375H16.0001C17.8394 23.4354 19.6027 22.7038 20.9033 21.4033C22.2038 20.1027 22.9354 18.3394 22.9375 16.5001V16.5C22.9375 15.1279 22.5306 13.7866 21.7683 12.6457C21.006 11.5049 19.9225 10.6157 18.6549 10.0906C17.3872 9.5655 15.9923 9.42812 14.6466 9.6958C13.3008 9.96349 12.0647 10.6242 11.0945 11.5944C10.1242 12.5647 9.46349 13.8008 9.19581 15.1466C8.92812 16.4923 9.06551 17.8872 9.59059 19.1549C10.1157 20.4225 11.0049 21.506 12.1457 22.2683C13.2866 23.0306 14.6279 23.4375 16 23.4375ZM15.4375 16.5V16.4375H15.375C15.2258 16.4375 15.0827 16.3782 14.9773 16.2727C14.8718 16.1673 14.8125 16.0242 14.8125 15.875C14.8125 15.7258 14.8718 15.5827 14.9773 15.4773C15.0827 15.3718 15.2258 15.3125 15.375 15.3125C15.6899 15.3125 15.992 15.4376 16.2147 15.6603C16.4374 15.883 16.5625 16.1851 16.5625 16.5V19.625V19.6875H16.625C16.7742 19.6875 16.9173 19.7468 17.0228 19.8523C17.1282 19.9577 17.1875 20.1008 17.1875 20.25C17.1875 20.3992 17.1282 20.5423 17.0228 20.6477C16.9173 20.7532 16.7742 20.8125 16.625 20.8125C16.3101 20.8125 16.008 20.6874 15.7853 20.4647C15.5626 20.242 15.4375 19.9399 15.4375 19.625V16.5ZM11.5207 9.79628C12.8466 8.91036 14.4054 8.43751 16 8.4375C18.1376 8.43977 20.187 9.28994 21.6985 10.8015C23.2101 12.313 24.0602 14.3624 24.0625 16.5001C24.0625 18.0947 23.5896 19.6534 22.7037 20.9793C21.8178 22.3052 20.5586 23.3385 19.0854 23.9488C17.6122 24.559 15.9911 24.7187 14.4271 24.4076C12.8631 24.0965 11.4265 23.3286 10.299 22.201C9.17139 21.0735 8.40352 19.6369 8.09242 18.0729C7.78133 16.5089 7.94099 14.8878 8.55122 13.4146C9.16146 11.9414 10.1948 10.6822 11.5207 9.79628ZM14.8125 13.0625C14.8125 12.8894 14.8638 12.7203 14.96 12.5764C15.0561 12.4325 15.1928 12.3203 15.3527 12.2541C15.5125 12.1879 15.6885 12.1706 15.8582 12.2043C16.0279 12.2381 16.1839 12.3214 16.3062 12.4438C16.4286 12.5662 16.5119 12.7221 16.5457 12.8918C16.5795 13.0615 16.5621 13.2375 16.4959 13.3973C16.4297 13.5572 16.3175 13.6939 16.1736 13.79C16.0297 13.8862 15.8606 13.9375 15.6875 13.9375C15.4554 13.9375 15.2329 13.8453 15.0688 13.6812C14.9047 13.5171 14.8125 13.2946 14.8125 13.0625Z"
        fill="#0354A6" stroke="#1465B4" stroke-width="0.125" />
</svg>