<svg width="10" height="10" viewBox="0 0 10 10" fill="none" xmlns="http://www.w3.org/2000/svg">
    <path
        d="M5 9.29327H5.00007C6.1383 9.29198 7.22954 8.83924 8.0344 8.03439C8.83925 7.22954 9.29198 6.1383 9.29327 5.00007V5C9.29327 4.15087 9.04147 3.32081 8.56972 2.61479C8.09797 1.90876 7.42746 1.35848 6.64296 1.03354C5.85847 0.708589 4.99524 0.623568 4.16243 0.789225C3.32961 0.954881 2.56463 1.36378 1.9642 1.9642C1.36378 2.56462 0.954883 3.32961 0.789227 4.16242C0.62357 4.99524 0.708591 5.85847 1.03354 6.64296C1.35849 7.42745 1.90876 8.09797 2.61479 8.56972C3.32081 9.04147 4.15087 9.29327 5 9.29327ZM4.67789 5V4.9375H4.61539C4.52996 4.9375 4.44802 4.90356 4.38762 4.84315C4.32721 4.78275 4.29327 4.70081 4.29327 4.61538C4.29327 4.52995 4.32721 4.44802 4.38762 4.38761C4.44802 4.32721 4.52996 4.29327 4.61539 4.29327C4.80282 4.29327 4.98258 4.36773 5.11512 4.50027C5.24766 4.6328 5.32212 4.81256 5.32212 5V6.92308V6.98558H5.38462C5.47005 6.98558 5.55198 7.01951 5.61239 7.07992C5.67279 7.14033 5.70673 7.22226 5.70673 7.30769C5.70673 7.39312 5.67279 7.47505 5.61239 7.53546C5.55198 7.59587 5.47005 7.62981 5.38462 7.62981C5.19718 7.62981 5.01742 7.55535 4.88488 7.42281C4.75235 7.29027 4.67789 7.11051 4.67789 6.92308V5ZM2.25687 0.894619C3.06883 0.352086 4.02343 0.0625067 4.99997 0.0625C6.30905 0.0638908 7.56413 0.58454 8.48979 1.51021C9.41547 2.43588 9.93612 3.69097 9.9375 5.00006C9.93749 5.97659 9.64791 6.93118 9.10538 7.74313C8.56284 8.55509 7.79171 9.18795 6.8895 9.56165C5.98729 9.93536 4.99452 10.0331 4.03674 9.84262C3.07896 9.65211 2.19918 9.18186 1.50866 8.49134C0.818141 7.80082 0.347889 6.92104 0.157375 5.96326C-0.0331396 5.00548 0.0646394 4.01271 0.438347 3.1105C0.812055 2.20829 1.44491 1.43716 2.25687 0.894619ZM4.29327 2.88461C4.29327 2.78287 4.32344 2.68341 4.37997 2.59882C4.43649 2.51422 4.51683 2.44829 4.61083 2.40935C4.70483 2.37041 4.80826 2.36023 4.90805 2.38008C5.00784 2.39993 5.0995 2.44892 5.17144 2.52086C5.24339 2.59281 5.29238 2.68447 5.31223 2.78426C5.33208 2.88404 5.32189 2.98748 5.28296 3.08148C5.24402 3.17547 5.17809 3.25582 5.09349 3.31234C5.00889 3.36887 4.90944 3.39904 4.80769 3.39904C4.67126 3.39904 4.54041 3.34484 4.44394 3.24837C4.34747 3.15189 4.29327 3.02105 4.29327 2.88461Z"
        fill="#A4A8B7" stroke="#A4A8B7" stroke-width="0.125" />
</svg>