<svg width="20" height="20" viewBox="0 0 20 20" fill="none" xmlns="http://www.w3.org/2000/svg">
    <g id="&#240;&#159;&#166;&#134; icon &#34;access time&#34;">
        <path id="Vector"
            d="M9.99247 1.66797C5.39248 1.66797 1.66748 5.4013 1.66748 10.0013C1.66748 14.6013 5.39248 18.3346 9.99247 18.3346C14.6008 18.3346 18.3341 14.6013 18.3341 10.0013C18.3341 5.4013 14.6008 1.66797 9.99247 1.66797ZM10.0008 16.668C6.31748 16.668 3.33415 13.6846 3.33415 10.0013C3.33415 6.31796 6.31748 3.33463 10.0008 3.33463C13.6841 3.33463 16.6675 6.31796 16.6675 10.0013C16.6675 13.6846 13.6841 16.668 10.0008 16.668ZM9.81747 5.83463H9.76747C9.43414 5.83463 9.16747 6.1013 9.16747 6.43463V10.368C9.16747 10.6596 9.31747 10.9346 9.57581 11.0846L13.0341 13.1596C13.3175 13.3263 13.6841 13.243 13.8508 12.9596C14.0258 12.6763 13.9341 12.3013 13.6425 12.1346L10.4175 10.218V6.43463C10.4175 6.1013 10.1508 5.83463 9.81747 5.83463Z"
            fill="white" />
    </g>
</svg>