<svg width="55" height="37" viewBox="0 0 55 37" fill="none" xmlns="http://www.w3.org/2000/svg">
    <path
        d="M42.8789 35.832L10.2031 3.19531C9.63672 2.62891 9.63672 1.63281 10.2031 1.06641C10.8086 0.480469 11.7656 0.480469 12.3516 1.06641L45.0078 33.7031C45.5938 34.3086 45.6523 35.1875 45.0078 35.832C44.4023 36.4766 43.4648 36.4375 42.8789 35.832ZM27.6836 2.17969C43.4648 2.17969 54.3633 14.9141 54.3633 18.918C54.3633 21.2227 50.6914 26.4766 44.5195 30.4805L42.1172 28.0781C47.5273 24.7578 50.9453 20.5 50.9453 18.918C50.9453 16.5938 40.5352 5.26562 27.6836 5.26562C25.2617 5.26562 23.0547 5.63672 20.9062 6.28125L18.3281 3.72266C21.1992 2.76562 24.2852 2.17969 27.6836 2.17969ZM27.6836 35.6562C12.0977 35.6562 0.984375 22.9023 0.984375 18.918C0.984375 16.5547 4.85156 11.1445 11.3555 7.12109L13.7773 9.54297C8.01562 13 4.40234 17.5508 4.40234 18.918C4.40234 21.6719 14.8125 32.5703 27.6836 32.5703C30.3203 32.5703 32.7812 32.1406 35.1055 31.418L37.6641 33.9766C34.6367 35.0117 31.3164 35.6562 27.6836 35.6562ZM37.7031 23.1953L23.3867 8.87891C24.6953 8.3125 26.1406 7.98047 27.6836 7.98047C33.7578 7.98047 38.6406 12.8047 38.6406 18.918C38.6406 20.4219 38.3086 21.8867 37.7031 23.1953ZM27.6836 29.8555C21.5703 29.8555 16.707 24.875 16.6875 18.918C16.6875 17.1602 17.0977 15.5195 17.8203 14.0742L32.4688 28.7227C31.0234 29.4258 29.4023 29.8555 27.6836 29.8555Z"
        fill="#A4A8B7" />
</svg>