<svg xmlns="http://www.w3.org/2000/svg" width="14" height="14" viewBox="0 0 14 14" fill="none">
    <path fill-rule="evenodd" clip-rule="evenodd"
        d="M2.39571 0.981265C2.20505 0.790602 1.89592 0.790602 1.70526 0.981265L0.981496 1.70503C0.790833 1.89569 0.790833 2.20482 0.981496 2.39548L5.58602 7L0.981497 11.6045C0.790834 11.7952 0.790834 12.1043 0.981497 12.295L1.70526 13.0187C1.89592 13.2094 2.20505 13.2094 2.39571 13.0187L7.00023 8.41421L11.6048 13.0187C11.7954 13.2094 12.1045 13.2094 12.2952 13.0187L13.019 12.295C13.2096 12.1043 13.2096 11.7952 13.019 11.6045L8.41445 7L13.019 2.39548C13.2096 2.20481 13.2096 1.89569 13.019 1.70503L12.2952 0.981264C12.1045 0.790601 11.7954 0.7906 11.6048 0.981263L7.00023 5.58579L2.39571 0.981265Z"
        fill="#2c2c2c" />
</svg>