<svg width="24" height="24" viewBox="0 0 24 24" fill="none" xmlns="http://www.w3.org/2000/svg">
    <g id="Directions Icon">
        <path id="Vector"
            d="M9.3497 4.0457C10.0529 3.34269 11.0066 2.94775 12.001 2.94775C12.9953 2.94775 13.949 3.34269 14.6522 4.0457L19.9562 9.3497C20.6592 10.0529 21.0542 11.0066 21.0542 12.001C21.0542 12.9953 20.6592 13.949 19.9562 14.6522L14.6522 19.9562C13.949 20.6592 12.9953 21.0542 12.001 21.0542C11.0066 21.0542 10.0529 20.6592 9.3497 19.9562L4.0457 14.6522C3.34269 13.949 2.94775 12.9953 2.94775 12.001C2.94775 11.0066 3.34269 10.0529 4.0457 9.3497L9.3497 4.0457ZM13.5917 5.1062C13.1698 4.68439 12.5976 4.44743 12.001 4.44743C11.4043 4.44743 10.8321 4.68439 10.4102 5.1062L5.1062 10.4102C4.68439 10.8321 4.44743 11.4043 4.44743 12.001C4.44743 12.5976 4.68439 13.1698 5.1062 13.5917L10.4102 18.8957C10.8321 19.3175 11.4043 19.5545 12.001 19.5545C12.5976 19.5545 13.1698 19.3175 13.5917 18.8957L18.8957 13.5917C19.3175 13.1698 19.5545 12.5976 19.5545 12.001C19.5545 11.4043 19.3175 10.8321 18.8957 10.4102L13.5917 5.1062ZM12.2207 6.9707C12.3614 6.8301 12.5521 6.75111 12.751 6.75111C12.9498 6.75111 13.1406 6.8301 13.2812 6.9707L15.5312 9.2207C15.6718 9.36135 15.7508 9.55208 15.7508 9.75095C15.7508 9.94983 15.6718 10.1406 15.5312 10.2812L13.2812 12.5312C13.1398 12.6678 12.9503 12.7434 12.7537 12.7417C12.557 12.74 12.3689 12.6611 12.2298 12.5221C12.0908 12.383 12.0119 12.1949 12.0102 11.9983C12.0085 11.8016 12.0841 11.6122 12.2207 11.4707L13.1897 10.5002H11.2502C11.0513 10.5002 10.8605 10.5792 10.7199 10.7199C10.5792 10.8605 10.5002 11.0513 10.5002 11.2502V15.0002C10.5002 15.1991 10.4212 15.3899 10.2805 15.5305C10.1399 15.6712 9.94912 15.7502 9.7502 15.7502C9.55129 15.7502 9.36053 15.6712 9.21987 15.5305C9.07922 15.3899 9.0002 15.1991 9.0002 15.0002V11.2502C9.0002 10.6535 9.23726 10.0812 9.65921 9.65921C10.0812 9.23726 10.6535 9.0002 11.2502 9.0002H13.1897L12.2207 8.0312C12.0801 7.89056 12.0011 7.69983 12.0011 7.50095C12.0011 7.30208 12.0801 7.11135 12.2207 6.9707Z"
            fill="white" />
    </g>
</svg>