<svg width="19" height="19" viewBox="0 0 19 19" fill="none" xmlns="http://www.w3.org/2000/svg">
    <path id="Vector"
        d="M18.5306 3.46948L15.5306 0.469477C15.461 0.399744 15.3783 0.344425 15.2872 0.306682C15.1962 0.268939 15.0986 0.249512 15 0.249512C14.9014 0.249512 14.8038 0.268939 14.7128 0.306682C14.6217 0.344425 14.539 0.399744 14.4694 0.469477L5.46937 9.46948C5.39975 9.53918 5.34454 9.62192 5.3069 9.71297C5.26926 9.80401 5.24992 9.90158 5.25 10.0001V13.0001C5.25 13.199 5.32902 13.3898 5.46967 13.5304C5.61032 13.6711 5.80109 13.7501 6 13.7501H9C9.09852 13.7502 9.19609 13.7308 9.28714 13.6932C9.37818 13.6556 9.46092 13.6004 9.53063 13.5307L18.5306 4.53073C18.6004 4.46107 18.6557 4.37836 18.6934 4.28731C18.7312 4.19626 18.7506 4.09866 18.7506 4.0001C18.7506 3.90154 18.7312 3.80395 18.6934 3.7129C18.6557 3.62185 18.6004 3.53913 18.5306 3.46948ZM8.68969 12.2501H6.75V10.3104L12.75 4.31041L14.6897 6.2501L8.68969 12.2501ZM15.75 5.18979L13.8103 3.2501L15 2.06041L16.9397 4.0001L15.75 5.18979ZM18 9.2501V17.5001C18 17.8979 17.842 18.2795 17.5607 18.5608C17.2794 18.8421 16.8978 19.0001 16.5 19.0001H1.5C1.10218 19.0001 0.720644 18.8421 0.43934 18.5608C0.158035 18.2795 0 17.8979 0 17.5001V2.5001C0 2.10228 0.158035 1.72075 0.43934 1.43944C0.720644 1.15814 1.10218 1.0001 1.5 1.0001H9.75C9.94891 1.0001 10.1397 1.07912 10.2803 1.21977C10.421 1.36042 10.5 1.55119 10.5 1.7501C10.5 1.94901 10.421 2.13978 10.2803 2.28043C10.1397 2.42108 9.94891 2.5001 9.75 2.5001H1.5V17.5001H16.5V9.2501C16.5 9.05119 16.579 8.86042 16.7197 8.71977C16.8603 8.57912 17.0511 8.5001 17.25 8.5001C17.4489 8.5001 17.6397 8.57912 17.7803 8.71977C17.921 8.86042 18 9.05119 18 9.2501Z"
        fill="white" />
</svg>