<svg width="12" height="13" viewBox="0 0 12 13" fill="none" xmlns="http://www.w3.org/2000/svg">
    <path
        d="M10.125 2.37498V11C10.125 11.0994 10.0855 11.1948 10.0152 11.2651C9.94484 11.3355 9.84946 11.375 9.75 11.375C9.65054 11.375 9.55516 11.3355 9.48483 11.2651C9.41451 11.1948 9.375 11.0994 9.375 11V8.74998H7.125C7.02554 8.74998 6.93016 8.71047 6.85983 8.64015C6.78951 8.56982 6.75 8.47444 6.75 8.37498C6.76741 7.47671 6.88087 6.58287 7.08844 5.70873C7.54688 3.81076 8.41594 2.53857 9.60234 2.03045C9.65937 2.00602 9.72156 1.99612 9.78335 2.00164C9.84514 2.00716 9.9046 2.02792 9.95639 2.06206C10.0082 2.0962 10.0507 2.14266 10.0801 2.19727C10.1096 2.25189 10.125 2.31295 10.125 2.37498ZM5.61984 2.31357C5.6125 2.26433 5.59542 2.21705 5.56961 2.17448C5.5438 2.13191 5.50977 2.0949 5.46951 2.06562C5.42925 2.03634 5.38356 2.01537 5.3351 2.00393C5.28665 1.99249 5.2364 1.99081 5.1873 1.999C5.13819 2.00718 5.0912 2.02506 5.04908 2.0516C5.00695 2.07813 4.97054 2.11279 4.94195 2.15355C4.91336 2.1943 4.89317 2.24035 4.88256 2.28899C4.87195 2.33763 4.87113 2.3879 4.88016 2.43686L5.24484 4.62498H4.125V2.37498C4.125 2.27552 4.08549 2.18014 4.01516 2.10982C3.94484 2.03949 3.84946 1.99998 3.75 1.99998C3.65054 1.99998 3.55516 2.03949 3.48484 2.10982C3.41451 2.18014 3.375 2.27552 3.375 2.37498V4.62498H2.25516L2.61984 2.43686C2.62887 2.3879 2.62805 2.33763 2.61744 2.28899C2.60683 2.24035 2.58664 2.1943 2.55805 2.15355C2.52946 2.11279 2.49304 2.07813 2.45092 2.0516C2.4088 2.02506 2.36181 2.00718 2.3127 1.999C2.2636 1.99081 2.21335 1.99249 2.1649 2.00393C2.11644 2.01537 2.07075 2.03634 2.03049 2.06562C1.99023 2.0949 1.9562 2.13191 1.93039 2.17448C1.90458 2.21705 1.8875 2.26433 1.88016 2.31357L1.50516 4.56357C1.50179 4.58387 1.50007 4.60441 1.5 4.62498C1.50075 5.15645 1.68934 5.67056 2.03244 6.07645C2.37554 6.48234 2.85107 6.75388 3.375 6.84311V11C3.375 11.0994 3.41451 11.1948 3.48484 11.2651C3.55516 11.3355 3.65054 11.375 3.75 11.375C3.84946 11.375 3.94484 11.3355 4.01516 11.2651C4.08549 11.1948 4.125 11.0994 4.125 11V6.84311C4.64893 6.75388 5.12446 6.48234 5.46756 6.07645C5.81066 5.67056 5.99925 5.15645 6 4.62498C5.99993 4.60441 5.99821 4.58387 5.99484 4.56357L5.61984 2.31357Z"
        fill="white" />
</svg>