<svg width="61" height="61" viewBox="0 0 61 61" fill="none" xmlns="http://www.w3.org/2000/svg">
    <path
        d="M57.7123 10.6229C57.7123 6.4808 54.3546 3.12292 50.2123 3.12292H40.2123C38.8316 3.12292 37.7123 4.24222 37.7123 5.62292C37.7123 7.00362 38.8316 8.12292 40.2123 8.12292H50.2123C51.5931 8.12292 52.7123 9.24222 52.7123 10.6229V20.6229C52.7123 22.0036 53.8316 23.1229 55.2123 23.1229C56.5931 23.1229 57.7123 22.0036 57.7123 20.6229V10.6229Z"
        fill="white" />
    <path
        d="M57.7123 40.6229C57.7123 39.2422 56.5931 38.1229 55.2123 38.1229C53.8316 38.1229 52.7123 39.2422 52.7123 40.6229V50.6229C52.7123 52.0037 51.5931 53.1229 50.2123 53.1229H40.2123C38.8316 53.1229 37.7123 54.2422 37.7123 55.6229C37.7123 57.0037 38.8316 58.1229 40.2123 58.1229H50.2123C54.3546 58.1229 57.7123 54.7652 57.7123 50.6229V40.6229Z"
        fill="white" />
    <path
        d="M10.2123 53.1229H20.2123C21.593 53.1229 22.7123 54.2422 22.7123 55.6229C22.7123 57.0037 21.593 58.1229 20.2123 58.1229H10.2123C6.07022 58.1229 2.71234 54.7652 2.71234 50.6229V40.6229C2.71234 39.2422 3.83164 38.1229 5.21234 38.1229C6.59304 38.1229 7.71234 39.2422 7.71234 40.6229V50.6229C7.71234 52.0037 8.83164 53.1229 10.2123 53.1229Z"
        fill="white" />
    <path
        d="M2.71234 20.6229C2.71234 22.0036 3.83164 23.1229 5.21234 23.1229C6.59304 23.1229 7.71234 22.0036 7.71234 20.6229V10.6229C7.71234 9.24222 8.83164 8.12292 10.2123 8.12292H20.2123C21.593 8.12292 22.7123 7.00362 22.7123 5.62292C22.7123 4.24222 21.593 3.12292 20.2123 3.12292H10.2123C6.07022 3.12292 2.71234 6.4808 2.71234 10.6229V20.6229Z"
        fill="white" />
</svg>