<svg width="20" height="20" viewBox="0 0 20 20" fill="none" xmlns="http://www.w3.org/2000/svg">
    <g id="&#240;&#159;&#166;&#134; icon &#34;language&#34;">
        <path id="Vector"
            d="M9.9915 1.66797C5.3915 1.66797 1.6665 5.4013 1.6665 10.0013C1.6665 14.6013 5.3915 18.3346 9.9915 18.3346C14.5998 18.3346 18.3332 14.6013 18.3332 10.0013C18.3332 5.4013 14.5998 1.66797 9.9915 1.66797ZM15.7665 6.66796H13.3082C13.0415 5.6263 12.6582 4.6263 12.1582 3.7013C13.6915 4.2263 14.9665 5.29297 15.7665 6.66796ZM9.99983 3.36797C10.6915 4.36797 11.2332 5.4763 11.5915 6.66796H8.40816C8.7665 5.4763 9.30816 4.36797 9.99983 3.36797ZM3.54984 11.668C3.4165 11.1346 3.33317 10.5763 3.33317 10.0013C3.33317 9.42629 3.4165 8.86796 3.54984 8.33463H6.3665C6.29983 8.88463 6.24983 9.43463 6.24983 10.0013C6.24983 10.568 6.29983 11.118 6.3665 11.668H3.54984ZM4.23317 13.3346H6.6915C6.95817 14.3763 7.3415 15.3763 7.8415 16.3013C6.30817 15.7763 5.03317 14.718 4.23317 13.3346ZM6.6915 6.66796H4.23317C5.03317 5.28463 6.30817 4.2263 7.8415 3.7013C7.3415 4.6263 6.95817 5.6263 6.6915 6.66796ZM9.99983 16.6346C9.30816 15.6346 8.7665 14.5263 8.40816 13.3346H11.5915C11.2332 14.5263 10.6915 15.6346 9.99983 16.6346ZM11.9498 11.668H8.04983C7.97483 11.118 7.9165 10.568 7.9165 10.0013C7.9165 9.43463 7.97483 8.8763 8.04983 8.33463H11.9498C12.0248 8.8763 12.0832 9.43463 12.0832 10.0013C12.0832 10.568 12.0248 11.118 11.9498 11.668ZM12.1582 16.3013C12.6582 15.3763 13.0415 14.3763 13.3082 13.3346H15.7665C14.9665 14.7096 13.6915 15.7763 12.1582 16.3013ZM13.6332 11.668C13.6998 11.118 13.7498 10.568 13.7498 10.0013C13.7498 9.43463 13.6998 8.88463 13.6332 8.33463H16.4498C16.5832 8.86796 16.6665 9.42629 16.6665 10.0013C16.6665 10.5763 16.5832 11.1346 16.4498 11.668H13.6332Z"
            fill="white" />
    </g>
</svg>