<svg width="49" height="41" viewBox="0 0 49 41" fill="none" xmlns="http://www.w3.org/2000/svg">
    <path
        d="M9.36328 7.91016C13.0352 3.67188 18.4062 0.976562 24.3633 0.976562C34.5391 0.976562 43.0938 8.88672 44.168 18.8281H46.8438C48.25 18.8281 48.6211 19.7656 47.8398 20.8594L43.4844 27.0703C42.8398 27.9883 41.9023 27.9688 41.2773 27.0703L36.9023 20.8398C36.1602 19.7656 36.5117 18.8281 37.8984 18.8281H40.8086C39.793 10.6055 32.8594 4.29688 24.3633 4.29688C19.3633 4.29688 14.8711 6.50391 11.8242 9.98047C11.1797 10.7031 10.2617 10.8789 9.5 10.332C8.71875 9.78516 8.62109 8.75 9.36328 7.91016ZM0.867188 20.957L5.24219 14.7461C5.88672 13.8281 6.82422 13.8477 7.44922 14.7461L11.8242 20.9766C12.5664 22.0312 12.2148 22.9883 10.8281 22.9883H7.91797C8.91406 31.1914 15.8477 37.5 24.3633 37.5C29.4023 37.5 33.8945 35.3125 36.9219 31.8164C37.5469 31.0938 38.4844 30.8984 39.2461 31.4453C40.0078 31.9922 40.1055 33.0469 39.3828 33.8867C35.7109 38.1055 30.3203 40.8203 24.3633 40.8203C14.1875 40.8203 5.61328 32.9297 4.55859 22.9883H1.86328C0.457031 22.9883 0.105469 22.0312 0.867188 20.957Z"
        fill="white" />
</svg>