<svg width="30" height="30" viewBox="0 0 30 30" fill="none" xmlns="http://www.w3.org/2000/svg">
    <g clip-path="url(#clip0_312_45)">
        <path
            d="M15 0C6.71573 0 0 6.71573 0 15C0 23.2843 6.71573 30 15 30C23.2843 30 30 23.2843 30 15C30 6.71573 23.2843 0 15 0ZM15 5.08117C19.1296 5.08117 22.478 8.4296 22.478 12.5592C22.478 13.8101 22.1352 15.4615 21.4306 16.3952L15 24.9188L8.56933 16.3953C7.7936 15.3672 7.52195 13.9403 7.52195 12.5593C7.52197 8.4296 10.8704 5.08117 15 5.08117ZM15 9.41345C13.2624 9.41345 11.8543 10.8216 11.8543 12.5592C11.8543 14.2968 13.2624 15.705 15 15.705C16.7376 15.705 18.1458 14.2968 18.1458 12.5592C18.1458 10.8216 16.7376 9.41345 15 9.41345Z"
            fill="#EB5757" />
    </g>
    <defs>
        <clipPath id="clip0_312_45">
            <rect width="30" height="30" fill="white" />
        </clipPath>
    </defs>
</svg>