<svg width="38" height="38" viewBox="0 0 38 38" fill="none" xmlns="http://www.w3.org/2000/svg">
    <path
        d="M28.2188 22.9961L14.6641 9.48047H15.25C15.3672 9.48047 15.4844 9.40234 15.582 9.32422L23.4336 2.03906C24.4492 1.10156 25.0547 0.691406 25.9727 0.691406C27.3008 0.691406 28.2188 1.72656 28.2188 2.99609V22.9961ZM34.957 37.1953L1.5 3.75781C0.914062 3.19141 0.914062 2.19531 1.5 1.62891C2.08594 1.04297 3.0625 1.04297 3.64844 1.62891L37.0859 35.0664C37.6719 35.6523 37.6719 36.5898 37.0859 37.1953C36.5195 37.7812 35.543 37.7812 34.957 37.1953ZM8.94141 25.8477C6.28516 25.8477 4.95703 24.5195 4.95703 21.6875V14.207C4.95703 12.8984 5.25 11.9219 5.81641 11.2773L28.082 33.5234C27.7695 34.6367 27.0078 35.1445 25.9922 35.1445C25.0938 35.1445 24.3516 34.7734 23.4336 33.9141L14.9961 26.0234C14.8594 25.9062 14.7031 25.8477 14.5078 25.8477H8.94141Z"
        fill="white" />
</svg>