<svg width="54" height="34" viewBox="0 0 54 34" fill="none" xmlns="http://www.w3.org/2000/svg">
    <path
        d="M26.9053 33.7244C11.3193 33.7244 0.206055 20.9705 0.206055 16.9861C0.206055 12.9822 11.3389 0.247803 26.9053 0.247803C42.667 0.247803 53.585 12.9822 53.585 16.9861C53.585 20.9705 42.6865 33.7244 26.9053 33.7244ZM26.9053 30.6384C39.7178 30.6384 50.167 19.74 50.167 16.9861C50.167 14.6619 39.7178 3.33374 26.9053 3.33374C14.0342 3.33374 3.62402 14.6619 3.62402 16.9861C3.62402 19.74 14.0342 30.6384 26.9053 30.6384ZM26.9053 27.9236C20.792 27.9236 15.9482 22.9431 15.9092 16.9861C15.8896 10.8728 20.792 6.04858 26.9053 6.04858C32.9795 6.04858 37.8623 10.8728 37.8623 16.9861C37.8623 22.9431 32.9795 27.9236 26.9053 27.9236ZM26.9053 20.6189C28.917 20.6189 30.5576 18.9783 30.5576 16.9861C30.5576 14.9744 28.917 13.3533 26.9053 13.3533C24.874 13.3533 23.2334 14.9744 23.2334 16.9861C23.2334 18.9783 24.874 20.6189 26.9053 20.6189Z"
        fill="#A4A8B7" />
</svg>