<svg width="24" height="25" viewBox="0 0 24 25" fill="none" xmlns="http://www.w3.org/2000/svg">
    <g id="Iconography">
        <path id="Vector"
            d="M21.311 3.18876C21.1224 3.00025 20.8869 2.86544 20.6289 2.79821C20.3708 2.73098 20.0995 2.73376 19.8429 2.80626H19.8288L1.83445 8.26625C1.54153 8.35049 1.28123 8.52196 1.0882 8.75784C0.895167 8.99371 0.77857 9.28278 0.753933 9.58658C0.729296 9.89037 0.797788 10.1945 0.950288 10.4583C1.10279 10.7222 1.33206 10.9334 1.60757 11.0638L9.63445 14.8653L13.436 22.8922C13.556 23.1492 13.7471 23.3666 13.9866 23.5186C14.2262 23.6706 14.5042 23.7509 14.7879 23.75C14.831 23.75 14.8741 23.7481 14.9173 23.7444C15.22 23.7199 15.508 23.6034 15.7426 23.4105C15.9772 23.2176 16.1472 22.9576 16.2298 22.6653L21.686 4.67094C21.686 4.66626 21.686 4.66157 21.686 4.65688C21.7595 4.40091 21.7634 4.13 21.6975 3.87199C21.6316 3.61397 21.4982 3.37815 21.311 3.18876ZM14.7963 22.2359L14.7916 22.2491L11.1016 14.4594L15.5304 10.0297C15.6651 9.8879 15.7391 9.69908 15.7366 9.50351C15.7341 9.30794 15.6553 9.12108 15.517 8.98278C15.3787 8.84448 15.1918 8.76568 14.9963 8.76318C14.8007 8.76067 14.6119 8.83466 14.4701 8.96938L10.0404 13.3981L2.24976 9.70813H2.26289L20.2498 4.25001L14.7963 22.2359Z"
            fill="white" />
    </g>
</svg>