<svg width="25" height="32" viewBox="0 0 25 32" fill="none" xmlns="http://www.w3.org/2000/svg">
    <path
        d="M3.57812 31.8164C1.87891 31.8164 0.980469 30.918 0.980469 29.1992V2.59766C0.980469 0.898438 1.87891 0 3.57812 0H8.03125C9.73047 0 10.6289 0.820312 10.6289 2.59766V29.1992C10.6289 30.918 9.73047 31.8164 8.03125 31.8164H3.57812ZM17.7773 31.8164C16.0586 31.8164 15.1602 30.918 15.1602 29.1992V2.59766C15.1602 0.898438 16.0586 0 17.7773 0H22.2109C23.9297 0 24.8086 0.820312 24.8086 2.59766V29.1992C24.8086 30.918 23.9297 31.8164 22.2109 31.8164H17.7773Z"
        fill="white" />
</svg>