<svg width="20" height="20" viewBox="0 0 20 20" fill="none" xmlns="http://www.w3.org/2000/svg">
    <g id="phone_black_24dp (1) 1">
        <path id="Vector"
            d="M16.025 12.7161L13.9084 12.4745C13.4 12.4161 12.9 12.5911 12.5417 12.9495L11.0084 14.4828C8.65003 13.2828 6.7167 11.3578 5.5167 8.99114L7.05836 7.44947C7.4167 7.09114 7.5917 6.59114 7.53336 6.08281L7.2917 3.98281C7.1917 3.14115 6.48336 2.50781 5.63336 2.50781H4.1917C3.25003 2.50781 2.4667 3.29115 2.52503 4.23281C2.9667 11.3495 8.65836 17.0328 15.7667 17.4745C16.7084 17.5328 17.4917 16.7495 17.4917 15.8078V14.3661C17.5 13.5245 16.8667 12.8161 16.025 12.7161Z"
            fill="white" />
    </g>
</svg>