<svg width="60" height="32" viewBox="0 0 60 32" fill="none" xmlns="http://www.w3.org/2000/svg">
    <path
        d="M37.0352 31.8164C35.3359 31.8164 34.4375 30.918 34.4375 29.1992V2.59766C34.4375 0.898438 35.3359 0 37.0352 0H41.4883C43.1875 0 44.0859 0.820312 44.0859 2.59766V29.1992C44.0859 30.918 43.1875 31.8164 41.4883 31.8164H37.0352ZM52.6211 31.8164C50.9023 31.8164 50.0234 30.918 50.0234 29.1992V2.59766C50.0234 0.898438 50.9023 0 52.6211 0H57.0547C58.7734 0 59.6523 0.820312 59.6523 2.59766V29.1992C59.6523 30.918 58.7734 31.8164 57.0547 31.8164H52.6211ZM3.79297 31.2305C2.25 31.2305 0.980469 30.0781 0.980469 27.8906V3.90625C0.980469 1.71875 2.25 0.546875 3.79297 0.546875C4.59375 0.546875 5.23828 0.800781 6.03906 1.26953L25.9414 12.9883C27.3281 13.8086 27.9141 14.7656 27.9141 15.8984C27.9141 17.0117 27.3281 17.9883 25.9414 18.8086L6.03906 30.5078C5.23828 30.9766 4.59375 31.2305 3.79297 31.2305Z"
        fill="white" />
</svg>