<svg width="19" height="20" viewBox="0 0 19 20" fill="none" xmlns="http://www.w3.org/2000/svg">
    <path fill-rule="evenodd" clip-rule="evenodd"
        d="M17.9382 6.36272C16.512 3.07507 13.1704 0.929802 9.46066 0.92029C5.46246 0.900078 1.90737 3.35862 0.661047 7.0057C-0.585272 10.6528 0.761902 14.6552 3.99559 16.9126C7.22927 19.17 11.6107 19.1667 14.8407 16.9043L17.7207 19.6691C18.0135 19.9498 18.4878 19.9498 18.7807 19.6691C19.0731 19.388 19.0731 18.9326 18.7807 18.6515L15.9907 15.9731C18.5968 13.4385 19.3644 9.65037 17.9382 6.36272ZM16.6011 12.6025C15.4036 15.3727 12.5849 17.177 9.46066 17.1731V17.1347C5.22037 17.1295 1.77812 13.8421 1.75066 9.77149C1.74662 6.7722 3.62605 4.06625 6.51172 2.91668C9.39739 1.7671 12.7203 2.40056 14.9295 4.52139C17.1387 6.64221 17.7986 9.83223 16.6011 12.6025Z"
        fill="#A4A8B7" />
</svg>