<svg width="24" height="24" viewBox="0 0 24 24" fill="none" xmlns="http://www.w3.org/2000/svg">
    <g id="ion:share-outline">
        <path id="Vector"
            d="M16.75 9.92308H18.875C19.4386 9.92308 19.9791 10.1257 20.3776 10.4863C20.7761 10.847 21 11.3361 21 11.8462V21.0769C21 21.587 20.7761 22.0761 20.3776 22.4367C19.9791 22.7974 19.4386 23 18.875 23H6.125C5.56141 23 5.02091 22.7974 4.6224 22.4367C4.22388 22.0761 4 21.587 4 21.0769V11.8462C4 11.3361 4.22388 10.847 4.6224 10.4863C5.02091 10.1257 5.56141 9.92308 6.125 9.92308H8.25M16.75 6.84615L12.5 3M12.5 3L8.25 6.84615M12.5 3V16.125"
            stroke="white" stroke-width="1.75" stroke-linecap="round" stroke-linejoin="round" />
    </g>
</svg>