<svg width="29" height="24" viewBox="0 0 29 24" fill="none" xmlns="http://www.w3.org/2000/svg">
    <path
        d="M3.9458 23.4292C1.39453 23.4292 0.112793 22.1719 0.112793 19.6572V4.74023C0.112793 2.22559 1.39453 0.956055 3.9458 0.956055H25.064C27.6274 0.956055 28.897 2.22559 28.897 4.74023V19.6572C28.897 22.1719 27.6274 23.4292 25.064 23.4292H3.9458ZM13.1499 18.168C13.5649 18.168 13.9189 17.9727 14.1631 17.5698L19.9126 8.53662C20.0591 8.28027 20.2178 7.99951 20.2178 7.73096C20.2178 7.15723 19.7173 6.79102 19.1802 6.79102C18.8506 6.79102 18.5332 6.98633 18.3135 7.35254L13.1011 15.7266L10.6108 12.5283C10.3179 12.1255 10.0371 12.0156 9.69531 12.0156C9.13379 12.0156 8.71875 12.4673 8.71875 13.0166C8.71875 13.2974 8.81641 13.5659 9.01172 13.8101L12.0635 17.5698C12.3931 17.9971 12.7227 18.168 13.1499 18.168Z"
        fill="#EB5757" />
</svg>