<svg width="54" height="39" viewBox="0 0 54 39" fill="none" xmlns="http://www.w3.org/2000/svg">
    <path
        d="M45.7617 38.4922C45.0195 37.9844 44.9219 37.0664 45.4492 36.2656C48.4766 31.8125 50.3906 26.1484 50.3906 19.8984C50.3906 13.6289 48.4766 8.00391 45.4492 3.53125C44.9219 2.73047 45.0195 1.8125 45.7617 1.30469C46.4258 0.816406 47.3828 0.992188 47.9102 1.79297C51.2695 6.75391 53.3789 12.9844 53.3789 19.8984C53.3789 26.793 51.3281 33.0625 47.9102 38.0039C47.3828 38.7852 46.4258 38.9805 45.7617 38.4922ZM22.0117 37.1445C21.0938 37.1445 20.332 36.7734 19.4531 35.9141L11.1133 28.0234C10.9961 27.9062 10.8203 27.8477 10.625 27.8477H5.03906C2.38281 27.8477 0.957031 26.4023 0.957031 23.5703V16.3047C0.957031 13.4922 2.38281 12.0273 5.03906 12.0273H10.625C10.8203 12.0273 10.9961 11.9688 11.1133 11.8516L19.4531 4.03906C20.4297 3.08203 21.0547 2.69141 21.9727 2.69141C23.3008 2.69141 24.2188 3.72656 24.2188 4.99609V34.957C24.2188 36.2266 23.3008 37.1445 22.0117 37.1445ZM38.4375 33.3164C37.7148 32.8281 37.6172 31.9102 38.1641 31.1094C40.2539 28.0625 41.5234 24.0586 41.5234 19.8984C41.5234 15.7383 40.293 11.6953 38.1641 8.6875C37.5977 7.88672 37.7148 6.96875 38.4375 6.48047C39.1602 5.99219 40.0586 6.16797 40.5859 6.91016C43.1055 10.3086 44.5508 15.0742 44.5508 19.8984C44.5508 24.7227 43.0859 29.4492 40.5859 32.8867C40.0586 33.6289 39.1602 33.8047 38.4375 33.3164ZM31.1914 28.2188C30.3906 27.6523 30.293 26.7148 30.8789 25.8945C31.9922 24.3125 32.6562 22.1641 32.6562 19.8984C32.6562 17.6328 32.0117 15.4648 30.8789 13.9023C30.2734 13.1016 30.3906 12.125 31.1914 11.5781C31.8359 11.1094 32.7539 11.2656 33.2812 12.0273C34.7852 14.0195 35.6836 16.9102 35.6836 19.8984C35.6836 22.8867 34.7852 25.7969 33.2812 27.7695C32.7539 28.5312 31.8359 28.668 31.1914 28.2188Z"
        fill="white" />
</svg>