<svg width="45" height="44" viewBox="0 0 45 44" fill="none" xmlns="http://www.w3.org/2000/svg">
    <rect x="0.730469" width="44" height="44" rx="7.30161" fill="white" />
    <path
        d="M24.2722 21.5045C24.2647 23.1905 23.7579 24.8365 22.8157 26.2347C21.8735 27.6329 20.5382 28.7207 18.9783 29.3607C17.4184 30.0007 15.7039 30.1642 14.0512 29.8307C12.3984 29.4972 10.8815 28.6815 9.69195 27.4867C8.50237 26.2918 7.69344 24.7714 7.36726 23.1172C7.04108 21.463 7.21227 19.7493 7.85922 18.1924C8.50618 16.6354 9.5999 15.305 11.0023 14.369C12.4048 13.4331 14.053 12.9336 15.7391 12.9336C18.0071 12.939 20.1802 13.845 21.7804 15.4523C23.3805 17.0595 24.2769 19.2365 24.2722 21.5045Z"
        fill="black" />
    <path
        d="M33.6386 21.5037C33.6386 25.9786 31.7427 29.5816 29.3911 29.5816C27.0395 29.5816 25.1436 25.9786 25.1436 21.5037C25.1436 17.0288 27.0395 13.4258 29.3911 13.4258C31.7047 13.4258 33.6386 17.0661 33.6386 21.5037Z"
        fill="black" />
    <path
        d="M37.4306 21.5051C37.4306 25.487 36.7458 28.7484 35.9135 28.7484C35.0812 28.7484 34.3965 25.487 34.3965 21.5051C34.3965 17.5232 35.0812 14.2617 35.9135 14.2617C36.7862 14.2617 37.4306 17.5232 37.4306 21.5051Z"
        fill="black" />
</svg>