<svg width="45" height="44" viewBox="0 0 45 44" fill="none" xmlns="http://www.w3.org/2000/svg">
    <rect x="0.365234" width="44" height="44" rx="7.30161" fill="#1B9DF0" />
    <path
        d="M17.3102 36.0298C29.0331 36.0298 35.4432 26.3164 35.4432 17.8973C35.4432 17.6161 35.4432 17.3425 35.4301 17.0782C36.679 16.1736 37.7578 15.0549 38.6164 13.7739C37.4523 14.287 36.2188 14.6255 34.9559 14.7785C36.2884 13.9829 37.2848 12.7283 37.758 11.2502C36.5067 11.9896 35.1396 12.5124 33.7142 12.7965C32.8401 11.8637 31.7056 11.2153 30.4582 10.9356C29.2107 10.656 27.908 10.7579 26.7193 11.2282C25.5306 11.6986 24.5108 12.5156 23.7925 13.573C23.0742 14.6305 22.6905 15.8795 22.6913 17.1579C22.6873 17.6476 22.7449 18.136 22.8628 18.6114C20.3281 18.4853 17.8482 17.8271 15.5847 16.6794C13.3211 15.5318 11.3245 13.9204 9.72484 11.9502C8.91227 13.3531 8.66493 15.0129 9.03318 16.5916C9.40142 18.1704 10.3576 19.5495 11.7069 20.4481C10.6967 20.4203 9.70831 20.1482 8.82611 19.6553V19.735C8.8265 21.2071 9.33601 22.6339 10.2683 23.7733C11.2005 24.9127 12.4981 25.6946 13.9411 25.9866C13.3942 26.1361 12.8297 26.2117 12.2627 26.2115C11.8589 26.2118 11.4561 26.1719 11.0603 26.0925C11.4647 27.3592 12.2558 28.4675 13.3225 29.2615C14.3892 30.0556 15.6779 30.4955 17.0075 30.5195C14.7478 32.2879 11.9598 33.2466 9.09038 33.2418C8.58219 33.2439 8.0744 33.2126 7.57031 33.1481C10.4674 35.0364 13.8529 36.0377 17.3111 36.0288"
        fill="white" />
</svg>