<svg width="31" height="31" viewBox="0 0 31 31" fill="none" xmlns="http://www.w3.org/2000/svg">
<rect x="0.11438" y="0.781372" width="30" height="30" rx="15" transform="rotate(-1.49254 0.11438 0.781372)" fill="#1D9BF0"/>
<path d="M12.962 23.367C19.6123 23.1937 23.1049 17.5883 22.9805 12.8124C22.9764 12.655 22.9723 12.4975 22.9609 12.3478C23.6524 11.8196 24.2506 11.1663 24.719 10.4263C24.0816 10.728 23.3894 10.9411 22.657 11.0503C23.395 10.5809 23.9465 9.86127 24.1943 9.00702C23.5078 9.43755 22.7434 9.75757 21.9229 9.944C21.2448 9.25643 20.2963 8.846 19.2541 8.87315C17.2598 8.92512 15.6826 10.5868 15.7345 12.5811C15.7419 12.866 15.7792 13.1426 15.8535 13.4033C12.8431 13.3317 10.144 11.9615 8.30255 9.81873C8.00903 10.3591 7.8453 10.986 7.8625 11.6458C7.89512 12.8979 8.56131 13.9909 9.55278 14.6103C8.96009 14.6107 8.40098 14.4602 7.90662 14.203C7.90701 14.218 7.9074 14.233 7.90779 14.248C7.9535 16.0024 9.23598 17.4245 10.9017 17.7187C10.604 17.809 10.2827 17.8624 9.95285 17.871C9.72043 17.877 9.49492 17.8604 9.26882 17.8213C9.76368 19.2489 11.1254 20.2562 12.7081 20.245C11.4962 21.2444 9.95181 21.8624 8.25739 21.9065C7.96499 21.9141 7.67969 21.9066 7.39381 21.8765C9.00273 22.8699 10.9227 23.4201 12.962 23.367Z" fill="white"/>
</svg>
