<svg width="89" height="72" viewBox="0 0 89 72" fill="none" xmlns="http://www.w3.org/2000/svg">
<path d="M38.9508 42.5188C38.6146 41.9013 37.9903 41.5213 37.318 41.5213H25.5523C24.1116 41.5213 22.719 40.9988 21.7105 40.0013L20.798 39.1463C20.2698 38.6238 20.654 37.7689 21.4223 37.7689H34.7728C35.6372 37.7689 35.6852 36.3439 35.5892 35.4889L35.4451 35.0614C35.3491 34.8239 35.1089 34.6814 34.8688 34.6814H18.589C17.1003 34.6814 15.7076 34.1114 14.6991 33.1139L13.8827 32.3065C13.3545 31.784 13.7386 30.929 14.507 30.929L34.2445 30.9765C34.7248 30.9765 34.8208 30.264 34.8688 29.694C34.9169 29.409 34.9168 29.0765 34.9649 28.744C35.0129 28.4115 34.7248 28.079 34.3886 28.079H12.0098C10.5691 28.079 9.17644 27.5565 8.16796 26.5591L7.25552 25.7041C6.72727 25.1816 7.11144 24.3266 7.87982 24.3266H36.0214C36.3095 24.3266 36.5496 24.1841 36.6937 23.9466C36.8858 23.6616 37.0779 23.3291 37.0779 23.3291L37.7022 22.3316C38.0864 21.9516 37.7982 21.3816 37.27 21.3816H4.99843C3.55773 21.3816 2.16506 20.8591 1.15657 19.8617L0.244137 19.0067C-0.284118 18.4842 0.100062 17.6292 0.868432 17.6292H46.4904C48.0752 17.6292 48.7955 19.4342 47.691 20.4317C43.561 24.1366 37.7022 30.549 42.1203 33.9214C42.6005 34.3014 43.2248 34.4439 43.8492 34.4439C46.0102 34.4439 51.725 34.4439 53.79 34.4439C54.6544 34.4439 55.5188 34.2539 56.2871 33.8739C57.4397 33.3039 58.6883 32.164 57.9199 30.0265C57.7279 29.4565 57.3917 28.934 57.0075 28.4115C56.4312 27.6515 55.1826 26.7491 53.6939 25.6091C51.2927 23.7566 51.5329 20.0042 54.6544 17.0117C54.6544 17.0117 51.3888 16.6792 52.6854 13.4493C52.6854 13.4493 53.79 14.8743 55.5188 14.7793C57.2476 14.6843 61.4737 14.7793 61.4737 14.7793C61.4737 14.7793 65.2195 14.7793 65.7477 17.2492H88.9429C88.9429 17.2492 89.4231 18.2467 87.5983 18.5317C86.9259 18.6267 86.2536 18.8642 85.7253 19.2442L76.601 25.4191C75.4964 26.1791 74.2958 26.7491 72.9992 27.1765C70.1178 28.079 65.7477 28.364 64.6432 22.5216C64.5952 22.1891 64.307 21.9516 63.9709 21.9041C63.4426 21.8091 62.2901 21.4291 61.7138 22.7116C61.5217 23.1866 61.4737 23.7091 61.6177 24.1841C61.8098 24.9441 62.29 26.2266 63.5386 27.2715C65.4596 28.9815 69.4455 32.6864 69.4455 32.6864C69.4455 32.6864 77.4654 37.6739 69.4455 45.1787L29.8264 71.9208C29.4422 72.1583 28.962 71.8258 29.1061 71.3983C32.4677 63.1809 35.7813 54.9161 39.1429 46.6987C39.2389 46.4137 39.383 46.0337 39.431 45.5587C39.4791 45.3212 39.5751 44.6562 39.431 43.8962C39.335 43.3738 39.1429 42.8988 38.9508 42.5188Z" fill="#EB5757"/>
<path d="M22.4307 44.4187C24.5437 49.7861 28.0974 54.3935 32.5636 57.8609L36.1653 48.9786C35.1088 47.9336 34.1003 46.7936 33.2839 45.5587C32.8037 44.8462 31.9392 44.4187 31.0748 44.4187H22.4307Z" fill="#EB5757"/>
<path d="M38.5185 13.6868C42.5525 10.6944 47.5949 8.88942 53.0215 8.98442C59.1685 9.07941 64.7392 11.5019 68.9172 15.3968H80.4908C80.4908 15.3968 80.5388 15.3968 80.5868 15.3968C75.3523 6.98945 66.3239 1.14705 55.9029 0.149566C43.2248 -1.03791 31.8914 4.94699 25.5043 14.4943H36.0213C36.9338 14.5418 37.8462 14.2568 38.5185 13.6868Z" fill="#EB5757"/>
<path d="M85.2931 29.4564C85.101 27.129 84.6208 24.849 83.9485 22.664C83.9004 22.7115 83.9004 22.7115 83.8524 22.759C76.8891 27.6514 76.0246 27.9839 75.9286 27.9839C76.1687 29.2189 76.3128 30.5014 76.3608 31.8314C76.6489 43.1837 68.6771 52.731 58.016 55.1535L45.1458 63.8458C47.5949 64.4158 50.1402 64.7008 52.7334 64.7008C71.7506 64.6533 86.9739 48.5986 85.2931 29.4564Z" fill="#EB5757"/>
</svg>
