<svg width="14" height="15" viewBox="0 0 14 15" fill="none" xmlns="http://www.w3.org/2000/svg">
<path fill-rule="evenodd" clip-rule="evenodd" d="M6.16634 11.9997C2.94468 11.9997 0.333008 9.388 0.333008 6.16634C0.333008 2.94468 2.94468 0.333008 6.16634 0.333008C9.388 0.333008 11.9997 2.94468 11.9997 6.16634C11.9997 7.68936 11.416 9.07606 10.4601 10.115L13.4223 13.0771C13.7477 13.4025 13.7477 13.9302 13.4223 14.2556C13.0968 14.581 12.5692 14.581 12.2438 14.2556L9.16132 11.1732C8.28585 11.698 7.26133 11.9997 6.16634 11.9997ZM6.16634 10.333C8.46753 10.333 10.333 8.46753 10.333 6.16634C10.333 3.86515 8.46753 1.99967 6.16634 1.99967C3.86515 1.99967 1.99967 3.86515 1.99967 6.16634C1.99967 8.46753 3.86515 10.333 6.16634 10.333Z" fill="#A4A8B7"/>
</svg>
