<svg width="100" height="81" viewBox="0 0 100 81" fill="none" xmlns="http://www.w3.org/2000/svg">
<path d="M25.3965 49.6943C27.7347 55.6992 31.6671 60.8538 36.6091 64.7331L40.5947 54.7958C39.4256 53.6267 38.3096 52.3514 37.4062 50.9697C36.8748 50.1726 35.9183 49.6943 34.9618 49.6943H25.3965V49.6943Z" fill="white"/>
<path d="M43.1989 15.3124C47.6627 11.9645 53.2424 9.94517 59.2473 10.0515C66.0493 10.1577 72.2136 12.8679 76.8368 17.2254H89.6437C89.6437 17.2254 89.6968 17.2254 89.7499 17.2254C83.9576 7.81955 73.9672 1.28328 62.4357 0.16733C48.4067 -1.16118 35.8655 5.53452 28.7979 16.2157H40.4356C41.4453 16.2689 42.4549 15.95 43.1989 15.3124Z" fill="white"/>
<path d="M94.9576 32.955C94.7451 30.3512 94.2137 27.8004 93.4697 25.356C93.4166 25.4091 93.4166 25.4091 93.3634 25.4622C85.6581 30.9357 84.7015 31.3077 84.5953 31.3077C84.861 32.6893 85.0204 34.1241 85.0735 35.6121C85.3924 48.3126 76.571 58.9939 64.7739 61.704L50.5322 71.4287C53.2424 72.0664 56.0588 72.3852 58.9284 72.3852C79.972 72.3321 96.8176 54.3706 94.9576 32.955Z" fill="white"/>
<path d="M43.6765 47.5688C43.3046 46.878 42.6137 46.4529 41.8698 46.4529H28.8503C27.2561 46.4529 25.7151 45.8683 24.5991 44.7524L23.5894 43.7959C23.0049 43.2113 23.43 42.2548 24.2803 42.2548H39.0533C40.0098 42.2548 40.063 40.6606 39.9567 39.704L39.7973 39.2258C39.691 38.9601 39.4253 38.8007 39.1596 38.8007H21.145C19.4976 38.8007 17.9566 38.163 16.8406 37.047L15.9372 36.1436C15.3527 35.5591 15.7778 34.6026 16.628 34.6026L38.4688 34.6557C39.0002 34.6557 39.1065 33.8586 39.1596 33.2209C39.2127 32.9021 39.2127 32.5301 39.2659 32.1581C39.319 31.7861 39.0002 31.4141 38.6282 31.4141H13.8648C12.2705 31.4141 10.7295 30.8296 9.61352 29.7136L8.60385 28.7571C8.01931 28.1726 8.44443 27.216 9.29467 27.216H40.435C40.7538 27.216 41.0195 27.0566 41.1789 26.7909C41.3915 26.4721 41.6041 26.1001 41.6041 26.1001L42.2949 24.9841C42.72 24.559 42.4012 23.9213 41.8166 23.9213H6.10625C4.51203 23.9213 2.97096 23.3368 1.85501 22.2208L0.845347 21.2643C0.260802 20.6798 0.685919 19.7232 1.53617 19.7232H52.0196C53.7732 19.7232 54.5703 21.7426 53.3481 22.8585C48.778 27.0035 42.2949 34.1774 47.1838 37.9504C47.7152 38.3755 48.406 38.535 49.0969 38.535C51.4882 38.535 57.8119 38.535 60.0969 38.535C61.0535 38.535 62.01 38.3224 62.8602 37.8973C64.1356 37.2596 65.5173 35.9842 64.667 33.5929C64.4545 32.9552 64.0825 32.3707 63.6573 31.7861C63.0196 30.9359 61.638 29.9262 59.9906 28.6508C57.3336 26.5784 57.5993 22.3803 61.0535 19.0324C61.0535 19.0324 57.4399 18.6604 58.8747 15.0469C58.8747 15.0469 60.0969 16.6411 62.01 16.5348C63.923 16.4285 68.5994 16.5348 68.5994 16.5348C68.5994 16.5348 72.7444 16.5348 73.3289 19.2981H98.9957C98.9957 19.2981 99.5271 20.4141 97.5078 20.7329C96.7638 20.8392 96.0199 21.1049 95.4353 21.53L85.3386 28.4383C84.1164 29.2885 82.7879 29.9262 81.3531 30.4045C78.1647 31.4141 73.3289 31.733 72.1067 25.1967C72.0535 24.8247 71.7347 24.559 71.3627 24.5059C70.7782 24.3996 69.5028 23.9745 68.8651 25.4093C68.6525 25.9407 68.5994 26.5252 68.7588 27.0566C68.9714 27.9069 69.5028 29.3417 70.8844 30.5107C73.0101 32.4238 77.4207 36.5688 77.4207 36.5688C77.4207 36.5688 86.2952 42.1485 77.4207 50.5447L33.5799 80.4628C33.1547 80.7285 32.6233 80.3565 32.7828 79.8782C36.5026 70.6849 40.1693 61.4385 43.8891 52.2452C43.9954 51.9263 44.1548 51.5012 44.2079 50.9698C44.2611 50.7041 44.3674 49.9601 44.2079 49.1099C44.1017 48.5254 43.8891 47.994 43.6765 47.5688Z" fill="white"/>
</svg>
