<svg width="12" height="15" viewBox="0 0 12 15" fill="none" xmlns="http://www.w3.org/2000/svg">
<path fill-rule="evenodd" clip-rule="evenodd" d="M6 0.273232C5.21994 0.265532 4.44595 0.407295 3.72225 0.690425C2.99854 0.973555 2.33928 1.39251 1.78212 1.92335C1.22496 2.4542 0.780815 3.08655 0.475036 3.7843C0.169257 4.48204 0.00783963 5.2315 0 5.9899C0 8.13073 1.32 10.1899 2.622 11.6657C3.20149 12.3222 3.83783 12.9291 4.524 13.4799C4.76578 13.672 5.01816 13.8512 5.28 14.0166C5.38286 14.0766 5.48901 14.1311 5.598 14.1799C5.72257 14.2414 5.8603 14.2734 6 14.2734C6.1397 14.2734 6.27743 14.2414 6.402 14.1799C6.51099 14.1311 6.61714 14.0766 6.72 14.0166C6.98184 13.8512 7.23422 13.672 7.476 13.4799C8.16218 12.9291 8.79851 12.3222 9.378 11.6657C10.68 10.1899 12 8.13073 12 5.9899C11.9922 5.2315 11.8307 4.48204 11.525 3.7843C11.2192 3.08655 10.775 2.4542 10.2179 1.92335C9.66072 1.39251 9.00146 0.973555 8.27775 0.690425C7.55405 0.407295 6.78006 0.265532 6 0.273232ZM1.2 5.9899C1.20783 5.38471 1.3382 4.78695 1.58367 4.23075C1.82914 3.67455 2.1849 3.17081 2.63063 2.74829C3.07636 2.32577 3.60333 1.99276 4.18146 1.76826C4.75958 1.54377 5.37752 1.43219 6 1.4399C6.62248 1.43219 7.24042 1.54377 7.81854 1.76826C8.39667 1.99276 8.92364 2.32577 9.36937 2.74829C9.8151 3.17081 10.1709 3.67455 10.4163 4.23075C10.6618 4.78695 10.7922 5.38471 10.8 5.9899C10.8 7.69907 9.72 9.4899 8.472 10.9016C7.93795 11.507 7.35183 12.067 6.72 12.5757C6.52921 12.7349 6.32885 12.883 6.12 13.0191L6.03 13.0716L5.94 13.0191C5.73115 12.883 5.53079 12.7349 5.34 12.5757C4.70817 12.067 4.12205 11.507 3.588 10.9016C2.28 9.4899 1.2 7.69907 1.2 5.9899Z" fill="#A4A8B7"/>
</svg>
