<svg width="20" height="21" viewBox="0 0 20 21" fill="none" xmlns="http://www.w3.org/2000/svg">
    <g id="explore-compass 1">
        <g id="Clip path group">
            <mask id="mask0_370_60" style="mask-type:luminance" maskUnits="userSpaceOnUse" x="0" y="0" width="20"
                height="21">
                <g id="clip0_21_3781">
                    <path id="Vector" d="M20 0.356934H0V20.3569H20V0.356934Z" fill="white" />
                </g>
            </mask>
            <g mask="url(#mask0_370_60)">
                <g id="Group">
                    <path id="Vector_2"
                        d="M9.99992 2.85695C11.4833 2.85695 12.9333 3.29682 14.1667 4.12093C15.4001 4.94504 16.3614 6.11638 16.929 7.48682C17.4967 8.85727 17.6452 10.3653 17.3558 11.8201C17.0664 13.275 16.3521 14.6114 15.3032 15.6602C14.2543 16.7091 12.918 17.4234 11.4631 17.7128C10.0082 18.0022 8.50024 17.8537 7.1298 17.286C5.75935 16.7184 4.58801 15.7571 3.7639 14.5237C2.93979 13.2904 2.49992 11.8403 2.49992 10.3569C2.51086 8.3712 3.30455 6.46989 4.70871 5.06574C6.11287 3.66158 8.01417 2.86789 9.99992 2.85695ZM9.99992 1.19028C8.18693 1.19028 6.41465 1.7279 4.9072 2.73514C3.39974 3.74239 2.22483 5.17403 1.53103 6.84902C0.837224 8.52401 0.655693 10.3671 1.00939 12.1453C1.36309 13.9234 2.23613 15.5568 3.51811 16.8388C4.80009 18.1207 6.43344 18.9938 8.21159 19.3475C9.98975 19.7012 11.8329 19.5196 13.5079 18.8258C15.1828 18.132 16.6145 16.9571 17.6217 15.4497C18.629 13.9422 19.1666 12.1699 19.1666 10.3569C19.1721 9.15162 18.9388 7.95714 18.4801 6.8425C18.0213 5.72786 17.3463 4.71514 16.494 3.86284C15.6417 3.01053 14.629 2.33553 13.5144 1.87682C12.3997 1.4181 11.2052 1.18476 9.99992 1.19028Z"
                        fill="white" />
                    <path id="Vector_3"
                        d="M13.8748 5.89866L8.33315 8.69033L5.54148 14.232C5.51324 14.3133 5.50847 14.401 5.52772 14.4849C5.54698 14.5688 5.58948 14.6456 5.65036 14.7065C5.71123 14.7673 5.78802 14.8098 5.87194 14.8291C5.95585 14.8483 6.04349 14.8436 6.12481 14.8153L11.6665 12.0237L14.4581 6.48199C14.4864 6.40066 14.4912 6.31303 14.4719 6.22911C14.4526 6.1452 14.4102 6.06841 14.3493 6.00753C14.2884 5.94666 14.2116 5.90416 14.1277 5.8849C14.0438 5.86565 13.9561 5.87041 13.8748 5.89866ZM9.99981 11.1903C9.835 11.1903 9.67388 11.1415 9.53684 11.0499C9.3998 10.9583 9.29299 10.8282 9.22991 10.6759C9.16684 10.5236 9.15034 10.3561 9.18249 10.1944C9.21465 10.0328 9.29402 9.88428 9.41056 9.76774C9.5271 9.65119 9.67559 9.57183 9.83724 9.53967C9.99889 9.50752 10.1664 9.52402 10.3187 9.58709C10.471 9.65017 10.6011 9.75698 10.6927 9.89402C10.7843 10.0311 10.8331 10.1922 10.8331 10.357C10.8331 10.578 10.7454 10.79 10.5891 10.9462C10.4328 11.1025 10.2208 11.1903 9.99981 11.1903Z"
                        fill="white" />
                </g>
            </g>
        </g>
    </g>
</svg>