<svg width="24" height="24" viewBox="0 0 24 24" fill="none" xmlns="http://www.w3.org/2000/svg">
    <g id="Icon-CameraPlus">
        <path id="Vector"
            d="M19.5 5.25H16.9012L15.6234 3.33375C15.555 3.23114 15.4623 3.147 15.3535 3.08879C15.2448 3.03057 15.1233 3.00007 15 3H9C8.87665 3.00007 8.75522 3.03057 8.64648 3.08879C8.53773 3.147 8.44502 3.23114 8.37656 3.33375L7.09781 5.25H4.5C3.90326 5.25 3.33097 5.48705 2.90901 5.90901C2.48705 6.33097 2.25 6.90326 2.25 7.5V18C2.25 18.5967 2.48705 19.169 2.90901 19.591C3.33097 20.0129 3.90326 20.25 4.5 20.25H19.5C20.0967 20.25 20.669 20.0129 21.091 19.591C21.5129 19.169 21.75 18.5967 21.75 18V7.5C21.75 6.90326 21.5129 6.33097 21.091 5.90901C20.669 5.48705 20.0967 5.25 19.5 5.25ZM20.25 18C20.25 18.1989 20.171 18.3897 20.0303 18.5303C19.8897 18.671 19.6989 18.75 19.5 18.75H4.5C4.30109 18.75 4.11032 18.671 3.96967 18.5303C3.82902 18.3897 3.75 18.1989 3.75 18V7.5C3.75 7.30109 3.82902 7.11032 3.96967 6.96967C4.11032 6.82902 4.30109 6.75 4.5 6.75H7.5C7.62351 6.75008 7.74512 6.71966 7.85405 6.66143C7.96297 6.60321 8.05583 6.51899 8.12438 6.41625L9.40125 4.5H14.5978L15.8756 6.41625C15.9442 6.51899 16.037 6.60321 16.146 6.66143C16.2549 6.71966 16.3765 6.75008 16.5 6.75H19.5C19.6989 6.75 19.8897 6.82902 20.0303 6.96967C20.171 7.11032 20.25 7.30109 20.25 7.5V18ZM15.75 12.75C15.75 12.9489 15.671 13.1397 15.5303 13.2803C15.3897 13.421 15.1989 13.5 15 13.5H12.75V15.75C12.75 15.9489 12.671 16.1397 12.5303 16.2803C12.3897 16.421 12.1989 16.5 12 16.5C11.8011 16.5 11.6103 16.421 11.4697 16.2803C11.329 16.1397 11.25 15.9489 11.25 15.75V13.5H9C8.80109 13.5 8.61032 13.421 8.46967 13.2803C8.32902 13.1397 8.25 12.9489 8.25 12.75C8.25 12.5511 8.32902 12.3603 8.46967 12.2197C8.61032 12.079 8.80109 12 9 12H11.25V9.75C11.25 9.55109 11.329 9.36032 11.4697 9.21967C11.6103 9.07902 11.8011 9 12 9C12.1989 9 12.3897 9.07902 12.5303 9.21967C12.671 9.36032 12.75 9.55109 12.75 9.75V12H15C15.1989 12 15.3897 12.079 15.5303 12.2197C15.671 12.3603 15.75 12.5511 15.75 12.75Z"
            fill="#FAFAFA" />
    </g>
</svg>