<svg width="26" height="26" viewBox="0 0 26 26" fill="none" xmlns="http://www.w3.org/2000/svg">
    <g id="Stars Icon">
        <path
            d="M24.7458 8.19513L21.6669 10.8201L22.5889 14.7281C22.6539 15.002 22.6366 15.289 22.5394 15.5532C22.4421 15.8174 22.2691 16.047 22.042 16.2134C21.8124 16.3821 21.5381 16.4793 21.2535 16.4929C20.9689 16.5065 20.6866 16.4359 20.4419 16.29L16.9419 14.2119L13.4419 16.29C13.1972 16.4359 12.9149 16.5065 12.6303 16.4929C12.3456 16.4793 12.0714 16.3821 11.8417 16.2134C11.6147 16.0469 11.4418 15.8173 11.3446 15.5531C11.2473 15.289 11.23 15.002 11.2948 14.7281L12.2169 10.8201L9.13687 8.19513C8.92134 8.01116 8.76506 7.76753 8.68769 7.49492C8.61033 7.22231 8.61535 6.93291 8.70211 6.66315C8.78888 6.39338 8.95351 6.15532 9.17528 5.97892C9.39706 5.80253 9.66607 5.69569 9.94844 5.67185L14.0205 5.32732L15.6086 1.62498C15.7207 1.36542 15.9063 1.14436 16.1425 0.989045C16.3788 0.833736 16.6553 0.750977 16.938 0.750977C17.2208 0.750977 17.4973 0.833736 17.7336 0.989045C17.9698 1.14436 18.1554 1.36542 18.2675 1.62498L19.8556 5.32951L23.9266 5.67185C24.2096 5.69406 24.4797 5.79972 24.7026 5.97547C24.9256 6.15121 25.0914 6.38914 25.1791 6.65915C25.2668 6.92917 25.2724 7.21912 25.1953 7.49234C25.1182 7.76556 24.9617 8.00976 24.7458 8.19404V8.19513ZM8.36906 11.5059C8.2878 11.4246 8.19129 11.36 8.08507 11.316C7.97885 11.272 7.86499 11.2493 7.75 11.2493C7.63501 11.2493 7.52115 11.272 7.41493 11.316C7.3087 11.36 7.2122 11.4246 7.13093 11.5059L1.00594 17.6309C0.84175 17.7951 0.749512 18.0178 0.749512 18.25C0.749512 18.4822 0.84175 18.7049 1.00594 18.869C1.17012 19.0332 1.3928 19.1255 1.625 19.1255C1.85719 19.1255 2.07988 19.0332 2.24406 18.869L8.36906 12.744C8.45041 12.6628 8.51495 12.5663 8.55899 12.46C8.60302 12.3538 8.62569 12.24 8.62569 12.125C8.62569 12.01 8.60302 11.8961 8.55899 11.7899C8.51495 11.6837 8.45041 11.5872 8.36906 11.5059ZM10.1191 17.6309C10.0378 17.5496 9.94129 17.485 9.83507 17.441C9.72885 17.3969 9.61499 17.3743 9.5 17.3743C9.38501 17.3743 9.27115 17.3969 9.16493 17.441C9.0587 17.485 8.9622 17.5496 8.88094 17.6309L2.75594 23.7559C2.67464 23.8372 2.61015 23.9337 2.56615 24.0399C2.52216 24.1462 2.49951 24.26 2.49951 24.375C2.49951 24.4899 2.52216 24.6038 2.56615 24.71C2.61015 24.8162 2.67464 24.9127 2.75594 24.994C2.92012 25.1582 3.1428 25.2505 3.375 25.2505C3.48997 25.2505 3.60381 25.2278 3.71003 25.1838C3.81625 25.1398 3.91276 25.0753 3.99406 24.994L10.1191 18.869C10.2004 18.7878 10.265 18.6913 10.309 18.585C10.353 18.4788 10.3757 18.365 10.3757 18.25C10.3757 18.135 10.353 18.0211 10.309 17.9149C10.265 17.8087 10.2004 17.7122 10.1191 17.6309ZM16.757 17.6309L10.632 23.7559C10.4678 23.9201 10.3756 24.1428 10.3756 24.375C10.3756 24.6072 10.4678 24.8299 10.632 24.994C10.7962 25.1582 11.0189 25.2505 11.2511 25.2505C11.4833 25.2505 11.706 25.1582 11.8702 24.994L17.9952 18.869C18.1593 18.705 18.2516 18.4825 18.2517 18.2504C18.2518 18.0183 18.1597 17.7956 17.9957 17.6315C17.8317 17.4673 17.6091 17.375 17.377 17.3749C17.1449 17.3748 16.9223 17.4669 16.7581 17.6309H16.757Z"
            fill="#EB5757" />
    </g>
</svg>