<svg width="24" height="24" viewBox="0 0 24 24" fill="none" xmlns="http://www.w3.org/2000/svg">
    <g id="Icon-GearSix">
        <path id="Vector"
            d="M12.0036 7.49998C11.1136 7.49998 10.2436 7.7639 9.50353 8.25837C8.76351 8.75284 8.18673 9.45564 7.84614 10.2779C7.50554 11.1002 7.41643 12.005 7.59006 12.8779C7.7637 13.7508 8.19228 14.5526 8.82162 15.182C9.45095 15.8113 10.2528 16.2399 11.1257 16.4135C11.9986 16.5871 12.9034 16.498 13.7257 16.1574C14.5479 15.8168 15.2507 15.2401 15.7452 14.5C16.2397 13.76 16.5036 12.89 16.5036 12C16.5024 10.8069 16.0279 9.66302 15.1842 8.81937C14.3406 7.97573 13.1967 7.50122 12.0036 7.49998ZM12.0036 15C11.4103 15 10.8302 14.824 10.3369 14.4944C9.84354 14.1647 9.45902 13.6962 9.23196 13.148C9.00489 12.5999 8.94548 11.9967 9.06124 11.4147C9.177 10.8328 9.46272 10.2982 9.88228 9.87866C10.3018 9.4591 10.8364 9.17338 11.4183 9.05763C12.0003 8.94187 12.6035 9.00128 13.1516 9.22834C13.6998 9.45541 14.1684 9.83992 14.498 10.3333C14.8277 10.8266 15.0036 11.4066 15.0036 12C15.0036 12.7956 14.6875 13.5587 14.1249 14.1213C13.5623 14.6839 12.7992 15 12.0036 15ZM22.3105 10.0509C22.2896 9.94531 22.2462 9.84543 22.1833 9.75807C22.1203 9.67072 22.0393 9.59793 21.9458 9.54467L19.1492 7.95092L19.138 4.79904C19.1376 4.6905 19.1137 4.58331 19.0679 4.4849C19.0221 4.38649 18.9555 4.29919 18.8727 4.22904C17.8582 3.37095 16.69 2.71336 15.4302 2.29123C15.3309 2.25765 15.2258 2.24522 15.1215 2.25475C15.0172 2.26428 14.916 2.29555 14.8245 2.34654L12.0036 3.92342L9.17985 2.34373C9.0883 2.29245 8.98702 2.26094 8.88253 2.25125C8.77805 2.24156 8.6727 2.2539 8.57328 2.28748C7.31436 2.71269 6.14749 3.37279 5.13453 4.23279C5.05182 4.30284 4.98526 4.38999 4.93946 4.48823C4.89366 4.58647 4.8697 4.69347 4.86922 4.80186L4.85516 7.95654L2.0586 9.55029C1.96504 9.60356 1.88404 9.67634 1.82111 9.7637C1.75818 9.85105 1.7148 9.95093 1.69391 10.0565C1.43797 11.3427 1.43797 12.6667 1.69391 13.9528C1.7148 14.0584 1.75818 14.1583 1.82111 14.2456C1.88404 14.333 1.96504 14.4058 2.0586 14.459L4.85516 16.0528L4.86641 19.2047C4.86675 19.3132 4.89065 19.4204 4.93645 19.5188C4.98226 19.6172 5.04888 19.7045 5.13172 19.7747C6.14616 20.6328 7.31437 21.2904 8.57422 21.7125C8.67343 21.7461 8.77858 21.7585 8.88289 21.749C8.9872 21.7394 9.08836 21.7082 9.17985 21.6572L12.0036 20.0765L14.8273 21.6562C14.9391 21.7185 15.0651 21.7508 15.193 21.75C15.2749 21.75 15.3562 21.7367 15.4339 21.7106C16.6927 21.286 17.8595 20.6265 18.8727 19.7672C18.9554 19.6971 19.0219 19.61 19.0677 19.5117C19.1135 19.4135 19.1375 19.3065 19.138 19.1981L19.152 16.0434L21.9486 14.4497C22.0422 14.3964 22.1232 14.3236 22.1861 14.2363C22.249 14.1489 22.2924 14.049 22.3133 13.9434C22.5678 12.6583 22.5668 11.3357 22.3105 10.0509ZM20.9042 13.3237L18.2258 14.8472C18.1084 14.9139 18.0113 15.0111 17.9445 15.1284C17.8902 15.2222 17.833 15.3215 17.7748 15.4153C17.7004 15.5335 17.6608 15.6703 17.6605 15.81L17.6464 18.8334C16.9265 19.3988 16.1244 19.8509 15.268 20.174L12.5661 18.6684C12.4539 18.6064 12.3277 18.5741 12.1995 18.5747H12.1817C12.0683 18.5747 11.9539 18.5747 11.8405 18.5747C11.7063 18.5713 11.5737 18.6037 11.4561 18.6684L8.75235 20.1778C7.89407 19.8571 7.08981 19.4072 6.36735 18.8437L6.35703 15.825C6.35657 15.685 6.31695 15.548 6.24266 15.4294C6.18453 15.3356 6.12735 15.2419 6.07391 15.1425C6.00765 15.0233 5.91049 14.9242 5.79266 14.8556L3.11141 13.3284C2.97266 12.4507 2.97266 11.5567 3.11141 10.679L5.78516 9.15279C5.90251 9.08607 5.99968 8.9889 6.06641 8.87154C6.12078 8.77779 6.17797 8.67842 6.2361 8.58467C6.3105 8.46644 6.35013 8.32967 6.35047 8.18998L6.36453 5.16654C7.08447 4.60118 7.88653 4.14909 8.74297 3.82592L11.4411 5.33154C11.5585 5.39663 11.6913 5.42901 11.8255 5.42529C11.9389 5.42529 12.0533 5.42529 12.1667 5.42529C12.3009 5.42865 12.4335 5.39629 12.5511 5.33154L15.2548 3.82217C16.1131 4.14286 16.9174 4.59274 17.6398 5.15623L17.6502 8.17498C17.6506 8.31495 17.6902 8.45199 17.7645 8.57061C17.8227 8.66436 17.8798 8.75811 17.9333 8.85748C17.9995 8.97665 18.0967 9.07575 18.2145 9.14436L20.8958 10.6715C21.0364 11.5499 21.038 12.4449 20.9005 13.3237H20.9042Z"
            fill="white" />
    </g>
</svg>