<svg width="22" height="21" viewBox="0 0 22 21" fill="none" xmlns="http://www.w3.org/2000/svg">
    <g id="Trophy Icon" clip-path="url(#clip0_6245_20057)">
        <path id="Vector"
            d="M5.16667 21V18.6667H9.83333V15.05C8.88056 14.8361 8.02967 14.4324 7.28067 13.839C6.53167 13.2456 5.98256 12.502 5.63333 11.6083C4.175 11.4333 2.95467 10.7967 1.97233 9.6985C0.990001 8.60028 0.499223 7.31189 0.500001 5.83333V2.33333H5.16667V0H16.8333V2.33333H21.5V5.83333C21.5 7.31111 21.0088 8.5995 20.0265 9.6985C19.0442 10.7975 17.8242 11.4341 16.3667 11.6083C16.0167 12.5028 15.4672 13.2467 14.7182 13.8402C13.9692 14.4336 13.1187 14.8369 12.1667 15.05V18.6667H16.8333V21H5.16667ZM5.16667 9.1V4.66667H2.83333V5.83333C2.83333 6.57222 3.04722 7.23839 3.475 7.83183C3.90278 8.42528 4.46667 8.848 5.16667 9.1ZM16.8333 9.1C17.5333 8.84722 18.0972 8.42411 18.525 7.83067C18.9528 7.23722 19.1667 6.57144 19.1667 5.83333V4.66667H16.8333V9.1Z"
            fill="#EB5757" />
    </g>
    <defs>
        <clipPath id="clip0_6245_20057">
            <rect width="22" height="21" fill="white" />
        </clipPath>
    </defs>
</svg>