<svg width="24" height="24" viewBox="0 0 24 24" fill="none" xmlns="http://www.w3.org/2000/svg">
    <g id="Icon-UserCirclePlus">
        <path id="Vector"
            d="M12.0001 7.12501C12.816 7.12501 13.6135 7.36694 14.2919 7.8202C14.9702 8.27346 15.4989 8.9177 15.8111 9.67144C16.1234 10.4252 16.2051 11.2546 16.0459 12.0548C15.8867 12.8549 15.4939 13.5899 14.917 14.1668C14.3401 14.7437 13.6051 15.1366 12.8049 15.2957C12.0047 15.4549 11.1753 15.3732 10.4216 15.061C9.66783 14.7488 9.0236 14.2201 8.57033 13.5417C8.11707 12.8634 7.87515 12.0659 7.87515 11.25C7.87515 10.156 8.30974 9.10678 9.08333 8.33319C9.85692 7.55961 10.9061 7.12501 12.0001 7.12501ZM16.5001 6.00001H18.0001V7.50001C18.0001 7.69892 18.0792 7.88969 18.2198 8.03034C18.3605 8.17099 18.5512 8.25001 18.7501 8.25001C18.9491 8.25001 19.1398 8.17099 19.2805 8.03034C19.4211 7.88969 19.5001 7.69892 19.5001 7.50001V6.00001H21.0001C21.1991 6.00001 21.3898 5.92099 21.5305 5.78034C21.6711 5.63969 21.7501 5.44892 21.7501 5.25001C21.7501 5.0511 21.6711 4.86033 21.5305 4.71968C21.3898 4.57903 21.1991 4.50001 21.0001 4.50001H19.5001V3.00001C19.5001 2.8011 19.4211 2.61033 19.2805 2.46968C19.1398 2.32903 18.9491 2.25001 18.7501 2.25001C18.5512 2.25001 18.3605 2.32903 18.2198 2.46968C18.0792 2.61033 18.0001 2.8011 18.0001 3.00001V4.50001H16.5001C16.3012 4.50001 16.1105 4.57903 15.9698 4.71968C15.8292 4.86033 15.7501 5.0511 15.7501 5.25001C15.7501 5.44892 15.8292 5.63969 15.9698 5.78034C16.1105 5.92099 16.3012 6.00001 16.5001 6.00001ZM20.7517 9.76032C20.5555 9.79315 20.3804 9.90256 20.2649 10.0645C20.1494 10.2264 20.103 10.4276 20.1358 10.6238C20.2119 11.0786 20.2502 11.5389 20.2501 12C20.2519 14.0196 19.5097 15.969 18.1651 17.4759C17.6196 16.6853 16.927 16.007 16.1251 15.4781C16.0567 15.4327 15.9752 15.4111 15.8932 15.4165C15.8112 15.4219 15.7333 15.4541 15.6714 15.5081C14.6524 16.3898 13.35 16.8751 12.0025 16.8751C10.655 16.8751 9.35258 16.3898 8.33358 15.5081C8.27132 15.453 8.19249 15.4201 8.1095 15.4147C8.02651 15.4093 7.94407 15.4316 7.87515 15.4781C7.07205 16.0065 6.37843 16.6848 5.83233 17.4759C4.77722 16.287 4.08807 14.8185 3.84777 13.2472C3.60747 11.6758 3.82624 10.0685 4.47779 8.61854C5.12933 7.16858 6.1859 5.93773 7.52041 5.07403C8.85491 4.21033 10.4105 3.75055 12.0001 3.75001C12.4613 3.74994 12.9216 3.78819 13.3764 3.86439C13.5717 3.8952 13.7712 3.84766 13.9317 3.73209C14.0921 3.61653 14.2004 3.4423 14.233 3.24731C14.2656 3.05231 14.2199 2.85232 14.1059 2.69083C13.9918 2.52935 13.8186 2.41944 13.6239 2.38501C11.5871 2.04237 9.49415 2.35589 7.64718 3.2803C5.8002 4.20471 4.2948 5.69218 3.34832 7.52795C2.40184 9.36371 2.06326 11.4528 2.38147 13.4935C2.69968 15.5342 3.65821 17.421 5.11866 18.8815C6.57911 20.342 8.46592 21.3005 10.5067 21.6187C12.5474 21.9369 14.6364 21.5983 16.4722 20.6518C18.308 19.7054 19.7954 18.2 20.7199 16.353C21.6443 14.506 21.9578 12.413 21.6151 10.3763C21.5823 10.1801 21.4729 10.005 21.311 9.88948C21.1491 9.77397 20.9479 9.72751 20.7517 9.76032Z"
            fill="white" />
    </g>
</svg>