<svg width="25" height="25" viewBox="0 0 25 25" fill="none" xmlns="http://www.w3.org/2000/svg">
    <g id="user-gallery-map-marker-icon 1" clip-path="url(#clip0_370_51)">
        <path id="Vector"
            d="M1.77422 4.43716C1.51319 4.58984 1.29629 4.81099 1.14568 5.07802C0.995075 5.34505 0.91616 5.64838 0.917001 5.95701V22.1229C0.916053 22.4241 0.991068 22.7204 1.13473 22.983C1.2784 23.2455 1.48581 23.4653 1.73675 23.621C1.98769 23.7766 2.2736 23.8628 2.5666 23.8711C2.8596 23.8794 3.1497 23.8096 3.40862 23.6684C3.43141 23.6559 3.45368 23.6428 3.47541 23.6281L7.93594 20.6292C7.99517 20.5896 8.04381 20.5353 8.07741 20.4713C8.11102 20.4074 8.12854 20.3358 8.12837 20.2632V0.793344C8.12859 0.713958 8.1077 0.636018 8.06796 0.56794C8.02822 0.499862 7.97113 0.444233 7.90287 0.407058C7.83461 0.369882 7.75776 0.352574 7.68062 0.357001C7.60348 0.361428 7.52899 0.387422 7.46518 0.432176L1.77422 4.43716ZM10.4784 0.404394C10.4145 0.361683 10.3405 0.33748 10.2643 0.334335C10.1881 0.331191 10.1125 0.349219 10.0454 0.386524C9.97836 0.423828 9.92232 0.479027 9.88321 0.546308C9.8441 0.613589 9.82337 0.690462 9.8232 0.768831V20.2468C9.82304 20.3195 9.84055 20.3911 9.87416 20.455C9.90777 20.5189 9.95641 20.5732 10.0156 20.6129L15.1049 24.0132C15.1689 24.0561 15.243 24.0804 15.3193 24.0836C15.3956 24.0868 15.4714 24.0688 15.5386 24.0314C15.6057 23.994 15.6618 23.9387 15.7009 23.8712C15.74 23.8038 15.7607 23.7267 15.7607 23.6482V4.18277C15.7609 4.10996 15.7433 4.03826 15.7096 3.97422C15.6759 3.91017 15.6271 3.85583 15.5677 3.81615L10.4784 0.404394ZM23.8468 0.794434C23.5968 0.637211 23.311 0.550052 23.018 0.541641C22.725 0.53323 22.435 0.603861 22.1768 0.746496C22.154 0.758554 22.1319 0.772015 22.1106 0.786807L17.6495 3.78292C17.5903 3.82261 17.5417 3.8769 17.5081 3.94083C17.4744 4.00477 17.4569 4.07632 17.4571 4.14899V23.6215C17.4568 23.701 17.4777 23.7791 17.5174 23.8472C17.5572 23.9154 17.6144 23.9711 17.6827 24.0083C17.7511 24.0455 17.828 24.0627 17.9052 24.0582C17.9825 24.0537 18.057 24.0276 18.1208 23.9827L23.7969 19.981C24.0611 19.8296 24.2811 19.6083 24.434 19.3401C24.587 19.0719 24.6674 18.7666 24.6669 18.4557V2.33117C24.6704 2.02416 24.5967 1.72142 24.4531 1.45222C24.3094 1.18302 24.1006 0.956454 23.8468 0.794434Z"
            fill="white" />
    </g>
    <defs>
        <clipPath id="clip0_370_51">
            <rect width="25" height="25" fill="white" />
        </clipPath>
    </defs>
</svg>