<svg width="22" height="18" viewBox="0 0 22 18" fill="none" xmlns="http://www.w3.org/2000/svg">
<path d="M12.0152 16.758L12.0136 16.7595C11.4446 17.2761 10.5673 17.2759 9.99841 16.7519L9.996 16.7497L9.886 16.6497L9.88512 16.6489C7.24965 14.2644 5.11371 12.3284 3.64632 10.5095C2.18621 8.69958 1.44018 7.06758 1.49937 5.29688C1.55408 3.75067 2.34727 2.27024 3.62106 1.40298L3.62133 1.40279C6.01936 -0.232228 8.99957 0.518394 10.6195 2.41446L10.9997 2.85941L11.3798 2.41446C13.0008 0.51718 15.9804 -0.240979 18.3769 1.40206L18.3783 1.40298C19.6522 2.27032 20.4454 3.75094 20.5 5.29731L20.5 5.29771C20.5639 7.06768 19.8184 8.69927 18.3567 10.5121C16.8939 12.3262 14.767 14.2586 12.1462 16.6398L12.1152 16.668L12.1134 16.6696L12.0152 16.758Z" stroke="white"/>
</svg>
