<svg width="24" height="18" viewBox="0 0 24 18" fill="none" xmlns="http://www.w3.org/2000/svg">
<path d="M15.2908 0.291C10.4811 0.291 6.5822 4.18988 6.5822 9C6.5822 13.8101 10.4811 17.709 15.2908 17.709C20.1006 17.709 23.9998 13.8101 23.9998 9C23.9998 4.18988 20.101 0.291 15.2908 0.291ZM15.2908 11.1772C15.0043 11.1795 14.7201 11.1248 14.4549 11.0162C14.1897 10.9076 13.9488 10.7473 13.7462 10.5447C13.5435 10.342 13.3832 10.1011 13.2746 9.83591C13.166 9.57071 13.1113 9.28656 13.1136 9C13.1113 8.71344 13.166 8.42929 13.2746 8.16409C13.3832 7.8989 13.5435 7.65797 13.7462 7.45533C13.9488 7.2527 14.1897 7.09241 14.4549 6.9838C14.7201 6.8752 15.0043 6.82045 15.2908 6.82275C15.5774 6.82045 15.8615 6.8752 16.1267 6.9838C16.3919 7.09241 16.6329 7.2527 16.8355 7.45533C17.0381 7.65797 17.1984 7.8989 17.307 8.16409C17.4156 8.42929 17.4704 8.71344 17.4681 9C17.4681 10.1644 16.4556 11.1772 15.2908 11.1772ZM-0.000174698 9C-0.00247249 8.71344 0.0522748 8.42929 0.160878 8.16409C0.269481 7.8989 0.42977 7.65797 0.632405 7.45533C0.835041 7.2527 1.07597 7.09241 1.34117 6.9838C1.60636 6.8752 1.89051 6.82045 2.17708 6.82275C2.46364 6.82045 2.74779 6.8752 3.01298 6.9838C3.27818 7.09241 3.51911 7.2527 3.72175 7.45533C3.92438 7.65797 4.08467 7.8989 4.19327 8.16409C4.30188 8.42929 4.35662 8.71344 4.35433 9C4.35662 9.28656 4.30188 9.57071 4.19327 9.83591C4.08467 10.1011 3.92438 10.342 3.72175 10.5447C3.51911 10.7473 3.27818 10.9076 3.01298 11.0162C2.74779 11.1248 2.46364 11.1795 2.17708 11.1772C0.9617 11.1772 -0.000174698 10.1644 -0.000174698 9Z" fill="#697086"/>
</svg>
