<?xml version="1.0" standalone="no"?>
<!DOCTYPE svg PUBLIC "-//W3C//DTD SVG 20010904//EN" "http://www.w3.org/TR/2001/REC-SVG-20010904/DTD/svg10.dtd">
<svg version="1.0" xmlns="http://www.w3.org/2000/svg" width="662.000000pt" height="662.000000pt"
    viewBox="0 0 662.000000 662.000000" preserveAspectRatio="xMidYMid meet">
    <metadata>
        Created by potrace 1.14, written by Peter Selinger 2001-2017
    </metadata>
    <g transform="translate(0.000000,662.000000) scale(0.100000,-0.100000)" fill="#000000" stroke="none">
        <path d="M3738 6004 c-3 -2 -32 -6 -64 -9 -32 -3 -70 -7 -84 -10 -13 -2 -42
-7 -65 -10 -22 -3 -47 -8 -55 -10 -8 -2 -28 -7 -45 -10 -166 -29 -404 -114
-600 -215 -91 -46 -248 -140 -290 -172 -219 -170 -333 -275 -445 -408 -30 -36
-57 -67 -60 -70 -7 -6 -103 -140 -114 -158 -6 -10 20 -13 131 -12 76 1 143 1
148 0 27 -2 458 1 515 4 64 3 146 34 181 68 50 48 293 182 405 223 27 10 55
23 62 28 6 5 12 7 12 4 0 -3 25 3 56 13 59 21 181 48 249 56 22 3 65 8 95 13
64 8 286 6 351 -3 24 -4 60 -9 79 -11 19 -3 44 -7 55 -9 11 -3 53 -12 94 -20
40 -9 77 -19 82 -22 5 -3 19 -7 31 -9 13 -3 32 -9 43 -14 11 -5 61 -26 110
-46 50 -21 115 -51 145 -67 58 -32 217 -135 236 -153 6 -5 33 -28 59 -50 27
-22 55 -47 63 -55 13 -13 78 -15 449 -15 238 0 433 1 433 3 0 3 -30 50 -42 67
-4 6 -34 47 -67 91 -65 90 -78 106 -136 172 -79 89 -260 262 -275 262 -5 0
-10 4 -12 9 -5 14 -95 82 -204 153 -132 87 -271 159 -449 233 -47 19 -178 64
-200 68 -11 2 -27 7 -35 10 -8 4 -26 9 -40 12 -14 2 -65 14 -113 24 -49 11
-116 23 -150 26 -34 4 -71 9 -82 12 -26 7 -451 13 -457 7z" />
        <path d="M3910 4965 c-38 -99 4 -184 110 -225 19 -7 37 -15 39 -16 2 -2 -8
-13 -21 -26 -71 -66 -140 -203 -155 -306 -9 -58 -9 -56 1 -117 13 -86 58 -146
186 -249 126 -101 190 -163 190 -183 0 -7 4 -13 9 -13 14 0 53 -109 54 -150 3
-122 -80 -210 -233 -248 -8 -2 -211 -4 -450 -4 -422 -1 -436 -1 -476 20 -53
27 -99 75 -126 131 -17 36 -22 62 -21 116 1 39 3 77 6 85 2 8 8 29 12 45 17
63 106 216 175 301 14 17 40 50 59 73 19 23 96 105 173 180 137 137 144 148
138 206 -3 30 -27 64 -62 85 -30 18 -87 18 -1753 19 -1702 0 -1723 0 -1744
-20 -37 -34 -26 -66 46 -132 63 -58 121 -93 190 -113 53 -16 160 -17 1293 -19
679 -1 1238 -3 1242 -3 4 -1 12 -11 18 -22 10 -18 -1 -53 -21 -70 -4 -3 -16
-23 -27 -45 -11 -22 -27 -49 -35 -60 -15 -20 -27 -20 -1087 -20 l-1072 -1 -23
-22 c-15 -15 -21 -29 -18 -47 7 -32 121 -140 176 -165 107 -48 74 -47 996 -47
616 0 873 -3 888 -11 18 -10 20 -19 17 -67 -6 -92 -18 -134 -38 -136 -6 -1
-349 -2 -763 -3 -740 -1 -752 -1 -767 -21 -27 -35 -18 -57 48 -121 66 -65 130
-104 205 -124 31 -8 229 -11 688 -12 698 0 671 2 675 -54 1 -13 3 -39 4 -56 3
-47 -14 -106 -34 -116 -9 -5 -241 -8 -514 -8 -274 1 -510 -2 -525 -6 -43 -11
-57 -42 -38 -81 20 -39 112 -119 171 -148 93 -44 116 -46 622 -47 478 0 482 0
517 -22 72 -44 109 -189 81 -310 -9 -39 -86 -240 -118 -310 -11 -25 -21 -49
-23 -55 -1 -5 -6 -19 -10 -30 -5 -11 -51 -126 -102 -255 -52 -129 -98 -244
-103 -255 -5 -11 -37 -90 -71 -175 -34 -85 -66 -166 -72 -180 -5 -14 -11 -29
-13 -35 -2 -8 -79 -200 -129 -320 -4 -11 -9 -24 -11 -30 -2 -5 -28 -71 -58
-145 -55 -136 -59 -170 -20 -170 8 0 61 32 117 70 56 39 109 75 117 80 8 6 87
60 175 119 88 60 165 113 170 118 6 4 64 44 130 88 66 44 186 126 268 183 81
56 150 102 153 102 3 0 10 5 17 11 7 5 84 59 172 119 88 60 167 114 175 120
123 84 400 272 525 356 88 59 162 110 165 113 3 3 39 28 80 56 41 27 77 52 80
55 3 3 43 30 90 60 47 30 87 57 90 61 3 3 75 52 160 110 85 57 157 106 160
109 3 3 12 10 21 15 85 53 114 79 200 175 48 55 110 161 134 233 49 146 29
282 -59 422 -20 30 -135 147 -173 175 -11 8 -72 63 -134 121 -63 59 -145 135
-184 170 -38 35 -99 93 -136 129 -183 180 -182 417 3 397 64 -7 82 -24 97 -95
37 -164 137 -286 271 -326 59 -18 185 -20 255 -4 22 5 47 11 56 13 61 12 294
126 319 154 3 3 48 35 100 70 102 69 311 212 400 274 30 21 73 50 95 64 22 14
42 29 45 32 12 15 101 52 160 66 67 16 100 42 100 76 0 15 -7 19 -37 19 -21 0
-410 1 -864 1 l-826 0 -21 44 c-26 54 -69 87 -152 116 -61 21 -84 23 -363 25
-257 3 -302 6 -335 21 -20 9 -39 19 -42 22 -3 4 -17 17 -32 30 l-27 24 -11
-28z" />
        <path d="M6210 4281 c-19 -15 -93 -68 -165 -116 -71 -49 -131 -93 -133 -97 -2
-4 -8 -8 -12 -8 -12 0 -104 -62 -108 -72 -2 -4 -8 -8 -13 -8 -5 0 -34 -16 -65
-36 -54 -34 -55 -37 -50 -72 17 -111 20 -160 20 -287 0 -178 -8 -259 -40 -395
-3 -14 -7 -29 -8 -35 -1 -5 -10 -37 -20 -70 -62 -215 -176 -429 -331 -625 -51
-65 -220 -224 -296 -279 -46 -34 -89 -65 -95 -70 -17 -14 -123 -72 -204 -112
-41 -21 -133 -56 -205 -79 -71 -23 -143 -48 -160 -55 -16 -7 -129 -80 -250
-163 -121 -83 -290 -198 -375 -256 -85 -58 -159 -109 -165 -113 -5 -5 -43 -30
-82 -57 -40 -27 -73 -53 -73 -58 0 -4 11 -9 25 -9 28 -2 32 -2 60 -11 11 -4
40 -9 65 -12 25 -4 56 -8 70 -10 144 -25 534 -26 656 -2 12 2 39 7 60 11 79
12 101 16 189 37 95 22 286 85 370 121 135 59 344 170 357 191 4 6 8 7 8 2 0
-5 10 0 23 11 12 11 45 35 72 53 138 92 373 312 486 455 58 73 181 249 193
275 3 8 16 31 28 50 43 71 159 317 173 370 0 3 15 48 32 100 32 99 72 260 79
320 2 19 6 46 9 60 12 62 26 226 26 325 1 76 -11 307 -16 314 -2 4 -6 31 -9
61 -3 30 -9 66 -12 80 -5 23 -14 70 -18 95 -1 6 -5 16 -9 23 -5 6 -6 12 -4 12
3 0 1 17 -4 38 -5 20 -12 48 -15 61 -3 13 -10 34 -17 47 l-12 22 -35 -27z" />
        <path d="M1713 2670 l-32 -5 43 -95 c143 -317 349 -595 604 -818 100 -87 112
-96 112 -78 0 9 4 24 10 34 5 9 26 57 45 105 20 48 41 100 47 115 6 15 12 33
14 40 1 6 12 32 24 57 12 25 23 51 24 57 1 7 10 31 20 53 10 22 31 74 47 114
33 86 36 77 -61 181 -33 36 -60 68 -60 71 0 3 -8 16 -19 28 -10 12 -29 37 -42
56 -13 19 -45 46 -71 60 l-48 26 -312 2 c-172 1 -328 0 -345 -3z" />
    </g>
</svg>