<svg width="24" height="24" viewBox="0 0 24 24" fill="none" xmlns="http://www.w3.org/2000/svg">
<path d="M12 0.000961304C5.37261 0.000961304 0 5.37347 0 12.0009C0 18.6282 5.37261 24.0008 12 24.0008C18.6273 24.0008 24 18.6282 24 12.0009C24 5.37347 18.6273 0.000961304 12 0.000961304ZM14.9452 14.0583C15.2838 14.3971 18.7335 17.8982 18.7335 17.8982L18.7287 17.9C18.7335 17.9031 18.7379 17.905 18.7417 17.9097C19.0624 18.2274 19.0624 18.7448 18.7417 19.0611C18.426 19.3794 17.9066 19.3794 17.5903 19.0611C17.5861 19.0592 17.5817 19.0544 17.5817 19.05H17.5767C17.5767 19.05 13.6626 15.1355 13.274 14.7453C13.211 14.6821 12.8909 14.3619 12.4114 13.8816C11.4963 14.796 7.05453 19.2367 7.05453 19.2367L7.05354 19.2357C7.05052 19.2387 7.04913 19.2439 7.04417 19.2487C6.7284 19.5645 6.2134 19.5645 5.89683 19.2477C5.58057 18.9309 5.57938 18.4175 5.89644 18.1002C5.9009 18.0953 5.90576 18.094 5.90988 18.0901L5.90908 18.0891C5.90908 18.0891 10.3453 13.6528 11.2655 12.7316C8.64294 10.104 4.39843 5.84752 4.39843 5.84752L4.58706 5.65656C4.58706 5.65656 6.96746 4.99606 13.2797 11.1712C13.6027 10.7365 13.8518 10.1649 13.8987 9.39464C13.8318 8.7878 14.0317 8.15711 14.4964 7.69293C14.539 7.64994 14.6619 7.5464 14.6619 7.5464L18.0478 4.90854L18.3563 5.21717L14.6821 8.66393L15.0805 9.06191L18.6406 5.50294L18.9681 5.82937L15.4084 9.38934L15.745 9.72593L19.304 6.16641L19.6014 6.46179L16.0632 10L16.4688 10.4068L19.9065 6.7674L20.2442 7.10587L17.4342 10.6475C17.4342 10.6475 17.367 10.7157 17.3384 10.7409C16.9298 11.0982 16.4162 11.2669 15.9075 11.253C15.9045 11.253 15.8987 11.2534 15.8969 11.2545C14.772 11.266 14.0104 11.8424 13.4868 12.4425C13.5081 13.4566 14.7355 13.9967 14.9452 14.0583Z" fill="#697086"/>
</svg>
