<svg width="15" height="14" viewBox="0 0 15 14" fill="none" xmlns="http://www.w3.org/2000/svg">
<g clip-path="url(#clip0_3032_36726)">
<path d="M14.5 2.65913C13.9794 2.8875 13.4246 3.03887 12.8462 3.11237C13.4412 2.75712 13.8954 2.19887 14.1089 1.526C13.5541 1.85675 12.9416 2.09038 12.2889 2.22075C11.7621 1.65988 11.0114 1.3125 10.1924 1.3125C8.60337 1.3125 7.32412 2.60225 7.32412 4.18338C7.32412 4.41088 7.34338 4.62962 7.39062 4.83787C5.0045 4.7215 2.89313 3.57788 1.47475 1.83575C1.22712 2.26538 1.08188 2.75713 1.08188 3.2865C1.08188 4.2805 1.59375 5.16162 2.35675 5.67175C1.89562 5.663 1.44325 5.52913 1.06 5.31825C1.06 5.327 1.06 5.33838 1.06 5.34975C1.06 6.7445 2.05487 7.903 3.3595 8.16988C3.12587 8.23375 2.87125 8.26437 2.607 8.26437C2.42325 8.26437 2.23775 8.25387 2.06362 8.21537C2.4355 9.352 3.49075 10.1876 4.7455 10.2148C3.769 10.9786 2.52912 11.4389 1.18688 11.4389C0.9515 11.4389 0.72575 11.4284 0.5 11.3995C1.77137 12.2194 3.27813 12.6875 4.903 12.6875C10.1845 12.6875 13.072 8.3125 13.072 4.52025C13.072 4.39337 13.0676 4.27087 13.0615 4.14925C13.6311 3.745 14.1097 3.24013 14.5 2.65913Z" fill="#03A9F4"/>
</g>
<defs>
<clipPath id="clip0_3032_36726">
<rect width="14" height="14" fill="white" transform="translate(0.5)"/>
</clipPath>
</defs>
</svg>
