<svg width="400" height="400" viewBox="0 0 400 400" fill="none" xmlns="http://www.w3.org/2000/svg">
    <rect width="400" height="400" fill="#EB5757" />
    <path
        d="M124 227.917C131.123 245.066 143.101 259.786 158.156 270.865L170.297 242.486C166.735 239.147 163.336 235.505 160.584 231.559C158.965 229.283 156.051 227.917 153.138 227.917H124V227.917Z"
        fill="white" />
    <path
        d="M178.228 129.729C191.826 120.168 208.823 114.401 227.115 114.705C247.835 115.008 266.613 122.748 280.696 135.192H319.708C319.708 135.192 319.87 135.192 320.032 135.192C302.387 108.331 271.954 89.6648 236.827 86.4778C194.092 82.6839 155.889 101.805 134.36 132.309H169.811C172.886 132.461 175.962 131.55 178.228 129.729Z"
        fill="white" />
    <path
        d="M335.896 180.113C335.248 172.677 333.629 165.392 331.363 158.411C331.201 158.563 331.201 158.563 331.039 158.715C307.567 174.346 304.654 175.408 304.33 175.408C305.139 179.354 305.625 183.452 305.787 187.701C306.758 223.971 279.887 254.475 243.95 262.214L200.567 289.986C208.823 291.807 217.403 292.718 226.144 292.718C290.247 292.566 341.561 241.272 335.896 180.113Z"
        fill="white" />
    <path
        d="M181.295 220.876C180.162 218.903 178.057 217.689 175.791 217.689H136.131C131.275 217.689 126.581 216.02 123.181 212.833L120.106 210.101C118.325 208.432 119.62 205.7 122.21 205.7H167.212C170.125 205.7 170.287 201.148 169.964 198.416L169.478 197.05C169.154 196.291 168.345 195.836 167.535 195.836H112.659C107.641 195.836 102.947 194.015 99.5476 190.828L96.7956 188.248C95.015 186.579 96.31 183.847 98.9 183.847L165.431 183.999C167.05 183.999 167.374 181.723 167.535 179.901C167.697 178.991 167.697 177.929 167.859 176.866C168.021 175.804 167.05 174.742 165.917 174.742H90.4825C85.6262 174.742 80.9318 173.072 77.5324 169.885L74.4568 167.154C72.6762 165.484 73.9712 162.753 76.5612 162.753H171.42C172.392 162.753 173.201 162.297 173.687 161.539C174.334 160.628 174.982 159.566 174.982 159.566L177.086 156.379C178.381 155.165 177.41 153.344 175.629 153.344H66.8486C61.9924 153.344 57.298 151.674 53.8986 148.487L50.8229 145.756C49.0423 144.086 50.3373 141.355 52.9273 141.355H206.709C212.051 141.355 214.479 147.122 210.756 150.309C196.835 162.146 177.086 182.633 191.979 193.408C193.597 194.622 195.702 195.077 197.806 195.077C205.091 195.077 224.354 195.077 231.314 195.077C234.228 195.077 237.142 194.47 239.732 193.256C243.617 191.435 247.826 187.793 245.236 180.964C244.588 179.143 243.455 177.473 242.16 175.804C240.218 173.376 236.009 170.492 230.991 166.85C222.897 160.932 223.706 148.943 234.228 139.382C234.228 139.382 223.221 138.32 227.591 128C227.591 128 231.314 132.553 237.142 132.249C242.97 131.946 257.215 132.249 257.215 132.249C257.215 132.249 269.841 132.249 271.622 140.141H349.808C349.808 140.141 351.426 143.328 345.275 144.238C343.009 144.542 340.742 145.3 338.962 146.515L308.205 166.243C304.482 168.671 300.435 170.492 296.065 171.858C286.352 174.742 271.622 175.652 267.898 156.986C267.737 155.924 266.765 155.165 265.632 155.013C263.851 154.71 259.966 153.495 258.024 157.593C257.376 159.111 257.215 160.78 257.7 162.297C258.348 164.726 259.966 168.823 264.175 172.162C270.65 177.625 284.086 189.462 284.086 189.462C284.086 189.462 311.119 205.397 284.086 229.375L150.538 314.815C149.243 315.574 147.625 314.511 148.11 313.145C159.442 286.891 170.611 260.485 181.942 234.231C182.266 233.32 182.752 232.106 182.914 230.589C183.075 229.83 183.399 227.705 182.914 225.277C182.59 223.608 181.942 222.09 181.295 220.876Z"
        fill="white" />
</svg>