<svg width="1000" height="1000" viewBox="0 0 1000 1000" fill="none" xmlns="http://www.w3.org/2000/svg">
    <rect width="1000" height="1000" fill="#1E2334" />
    <path
        d="M424 526.917C431.123 544.066 443.101 558.786 458.156 569.865L470.296 541.486C466.735 538.147 463.336 534.505 460.584 530.559C458.965 528.283 456.051 526.917 453.138 526.917H424V526.917Z"
        fill="white" />
    <path
        d="M478.228 428.729C491.826 419.168 508.823 413.401 527.115 413.705C547.835 414.008 566.612 421.748 580.696 434.192H619.708C619.708 434.192 619.87 434.192 620.031 434.192C602.387 407.331 571.954 388.665 536.827 385.478C494.092 381.684 455.889 400.805 434.36 431.309H469.811C472.886 431.461 475.962 430.55 478.228 428.729Z"
        fill="white" />
    <path
        d="M635.896 479.113C635.248 471.677 633.629 464.392 631.363 457.411C631.201 457.563 631.201 457.563 631.039 457.715C607.567 473.346 604.654 474.408 604.33 474.408C605.139 478.354 605.625 482.452 605.787 486.701C606.758 522.971 579.887 553.475 543.95 561.214L500.567 588.986C508.823 590.807 517.402 591.718 526.144 591.718C590.247 591.566 641.561 540.272 635.896 479.113Z"
        fill="white" />
    <path
        d="M481.295 519.876C480.162 517.903 478.057 516.689 475.791 516.689H436.131C431.275 516.689 426.581 515.02 423.181 511.833L420.106 509.101C418.325 507.432 419.62 504.7 422.21 504.7H467.212C470.125 504.7 470.287 500.148 469.964 497.416L469.478 496.05C469.154 495.291 468.345 494.836 467.535 494.836H412.659C407.641 494.836 402.947 493.015 399.548 489.828L396.796 487.248C395.015 485.579 396.31 482.847 398.9 482.847L465.431 482.999C467.05 482.999 467.374 480.723 467.535 478.901C467.697 477.991 467.697 476.929 467.859 475.866C468.021 474.804 467.05 473.742 465.917 473.742H390.483C385.626 473.742 380.932 472.072 377.532 468.885L374.457 466.154C372.676 464.484 373.971 461.753 376.561 461.753H471.42C472.392 461.753 473.201 461.297 473.687 460.539C474.334 459.628 474.982 458.566 474.982 458.566L477.086 455.379C478.381 454.165 477.41 452.344 475.629 452.344H366.849C361.992 452.344 357.298 450.674 353.899 447.487L350.823 444.756C349.042 443.086 350.337 440.355 352.927 440.355H506.709C512.051 440.355 514.479 446.122 510.756 449.309C496.835 461.146 477.086 481.633 491.979 492.408C493.597 493.622 495.702 494.077 497.806 494.077C505.091 494.077 524.354 494.077 531.314 494.077C534.228 494.077 537.142 493.47 539.732 492.256C543.617 490.435 547.826 486.793 545.236 479.964C544.588 478.143 543.455 476.473 542.16 474.804C540.218 472.376 536.009 469.492 530.991 465.85C522.897 459.932 523.706 447.943 534.228 438.382C534.228 438.382 523.221 437.32 527.591 427C527.591 427 531.314 431.553 537.142 431.249C542.97 430.946 557.215 431.249 557.215 431.249C557.215 431.249 569.841 431.249 571.622 439.141H649.808C649.808 439.141 651.426 442.328 645.275 443.238C643.009 443.542 640.742 444.3 638.962 445.515L608.205 465.243C604.482 467.671 600.435 469.492 596.065 470.858C586.352 473.742 571.622 474.652 567.898 455.986C567.737 454.924 566.765 454.165 565.632 454.013C563.851 453.71 559.966 452.495 558.024 456.593C557.376 458.111 557.215 459.78 557.7 461.297C558.348 463.726 559.966 467.823 564.175 471.162C570.65 476.625 584.086 488.462 584.086 488.462C584.086 488.462 611.119 504.397 584.086 528.375L450.538 613.815C449.243 614.574 447.625 613.511 448.11 612.145C459.442 585.891 470.611 559.485 481.942 533.231C482.266 532.32 482.752 531.106 482.914 529.589C483.075 528.83 483.399 526.705 482.914 524.277C482.59 522.608 481.942 521.09 481.295 519.876Z"
        fill="white" />
</svg>