<svg width="61" height="61" viewBox="0 0 61 61" fill="none" xmlns="http://www.w3.org/2000/svg">
    <path fill-rule="evenodd" clip-rule="evenodd"
        d="M28.9825 2.49304C18.0728 3.17179 12.3718 9.34991 11.874 20.5221H22.8793C23.0171 16.6521 25.1771 13.759 29.199 13.3324C33.1468 12.9134 36.8921 13.8537 38.0265 16.5527C39.2518 19.4684 36.5012 22.8565 35.1934 24.2787C32.7728 26.9159 28.8409 28.8396 26.8028 31.6849C24.805 34.473 24.4496 38.1415 24.2959 42.6312H33.9953C34.1312 39.7605 34.3225 37.0109 35.6284 35.2268C37.7528 32.328 40.9253 30.9696 43.584 28.6802C46.1237 26.4921 48.7956 23.8549 49.2493 19.773C50.6115 7.55648 40.6393 1.76554 28.9825 2.49304Z"
        fill="white" />
    <path
        d="M29.2319 58.682C32.614 58.682 35.3557 55.9819 35.3557 52.6511C35.3557 49.3203 32.614 46.6201 29.2319 46.6201C25.8499 46.6201 23.1082 49.3203 23.1082 52.6511C23.1082 55.9819 25.8499 58.682 29.2319 58.682Z"
        fill="white" />
</svg>