<svg xmlns="http://www.w3.org/2000/svg" width="153" height="153" viewBox="0 0 153 153" fill="none">
  <path
    d="M108.865 70.6154C108.865 77.0166 106.967 83.2741 103.411 88.5966C99.8545 93.9191 94.7997 98.0674 88.8857 100.517C82.9717 102.967 76.4641 103.608 70.1858 102.359C63.9076 101.11 58.1406 98.0275 53.6142 93.5011C49.0879 88.9748 46.0054 83.2078 44.7565 76.9295C43.5077 70.6513 44.1487 64.1437 46.5983 58.2297C49.048 52.3157 53.1963 47.2609 58.5188 43.7045C63.8412 40.1482 70.0987 38.25 76.5 38.25C85.0809 38.2597 93.3075 41.6728 99.375 47.7403C105.443 53.8079 108.856 62.0345 108.865 70.6154ZM153 76.5C153 91.6302 148.513 106.421 140.107 119.001C131.701 131.581 119.754 141.387 105.775 147.177C91.7967 152.967 76.4152 154.482 61.5756 151.53C46.7361 148.578 33.1051 141.292 22.4064 130.594C11.7076 119.895 4.42173 106.264 1.46996 91.4244C-1.48181 76.5848 0.0331463 61.2032 5.82325 47.2247C11.6134 33.2462 21.4185 21.2985 33.9989 12.8926C46.5793 4.48665 61.3697 0 76.5 0C96.7825 0.0214187 116.228 8.08809 130.57 22.43C144.912 36.7719 152.979 56.2175 153 76.5ZM141.231 76.5C141.221 67.7873 139.455 59.166 136.037 51.1517C132.619 43.1374 127.62 35.8946 121.339 29.8566C115.058 23.8185 107.624 19.1092 99.481 16.0103C91.3381 12.9113 82.6538 11.4864 73.9476 11.8207C39.3019 13.1595 11.6736 42.0161 11.7693 76.6839C11.8025 92.4659 17.6231 107.688 28.1285 119.465C32.4068 113.26 37.8413 107.938 44.1346 103.79C44.6712 103.436 45.3091 103.267 45.9507 103.309C46.5923 103.352 47.2024 103.603 47.6875 104.025C55.6845 110.942 65.9045 114.749 76.478 114.749C87.0514 114.749 97.2714 110.942 105.268 104.025C105.754 103.603 106.364 103.352 107.005 103.309C107.647 103.267 108.285 103.436 108.821 103.79C115.122 107.935 120.565 113.258 124.849 119.465C135.407 107.645 141.239 92.3486 141.231 76.5Z"
    fill="#A4A8B7" />
</svg>