<svg width="19" height="19" viewBox="0 0 19 19" fill="none" xmlns="http://www.w3.org/2000/svg">
<path d="M17.1574 1.23334L17.6491 1.725C18.3266 2.40334 18.2241 3.60584 17.4183 4.41084L7.27909 14.55L3.99409 15.7517C3.58159 15.9033 3.17992 15.7067 3.09826 15.3142C3.07066 15.1718 3.08365 15.0245 3.13575 14.8892L4.36076 11.5758L14.4716 1.46417C15.2774 0.65917 16.4799 0.555837 17.1574 1.23417V1.23334ZM6.83659 2.24167C6.94602 2.24167 7.05439 2.26322 7.15549 2.3051C7.25659 2.34698 7.34846 2.40837 7.42584 2.48575C7.50323 2.56313 7.56461 2.655 7.60649 2.7561C7.64837 2.8572 7.66992 2.96557 7.66992 3.075C7.66992 3.18444 7.64837 3.2928 7.60649 3.39391C7.56461 3.49501 7.50323 3.58688 7.42584 3.66426C7.34846 3.74164 7.25659 3.80302 7.15549 3.8449C7.05439 3.88678 6.94602 3.90834 6.83659 3.90834H3.50325C3.06123 3.90834 2.6373 4.08393 2.32474 4.39649C2.01218 4.70905 1.83659 5.13298 1.83659 5.575V15.575C1.83659 16.017 2.01218 16.441 2.32474 16.7535C2.6373 17.0661 3.06123 17.2417 3.50325 17.2417H13.5033C13.9453 17.2417 14.3692 17.0661 14.6818 16.7535C14.9943 16.441 15.1699 16.017 15.1699 15.575V12.2417C15.1699 12.0207 15.2577 11.8087 15.414 11.6524C15.5703 11.4961 15.7822 11.4083 16.0033 11.4083C16.2243 11.4083 16.4362 11.4961 16.5925 11.6524C16.7488 11.8087 16.8366 12.0207 16.8366 12.2417V15.575C16.8366 16.4591 16.4854 17.3069 15.8603 17.932C15.2352 18.5571 14.3873 18.9083 13.5033 18.9083H3.50325C2.6192 18.9083 1.77135 18.5571 1.14623 17.932C0.521111 17.3069 0.169922 16.4591 0.169922 15.575V5.575C0.169922 4.69095 0.521111 3.8431 1.14623 3.21798C1.77135 2.59286 2.6192 2.24167 3.50325 2.24167H6.83659V2.24167Z" fill="white"/>
</svg>
