<svg width="151" height="47" viewBox="0 0 151 47" fill="none" xmlns="http://www.w3.org/2000/svg">
<path d="M19.662 12.9168H12.6474C12.6474 11.6946 12.6474 10.6849 12.6474 10.0472C12.6474 9.35637 12.86 8.77183 13.3383 8.24042C13.7634 7.70902 14.6136 7.44332 15.7827 7.44332H17.0049C18.3866 7.49646 18.2803 6.38051 18.2803 5.052V0.375644C17.4832 0.322504 16.8455 0.269354 16.4204 0.216213C15.9421 0.163073 15.4639 0.163086 14.8793 0.163086C9.93726 0.163086 8.02421 1.17275 6.74884 3.24523C5.52661 4.62688 4.88893 7.12448 4.88893 10.7912V12.9699H2.55075C1.1691 12.9699 0 14.0859 0 15.5207V19.2405H4.9952V46.661H7.75851C10.4687 46.661 12.6474 44.4822 12.6474 41.772V19.1874H16.1547C18.1209 19.1874 19.662 17.5931 19.662 15.6801V12.9168Z" fill="white"/>
<path d="M35.3912 14.5112C26.5167 14.5112 19.3428 21.6852 19.3428 30.5596C19.3428 39.4341 26.5167 46.6081 35.3912 46.6081C44.2656 46.6081 51.4396 39.4341 51.4396 30.5596C51.4928 21.6852 44.2656 14.5112 35.3912 14.5112ZM35.3912 39.6998C30.3429 39.6998 26.251 35.608 26.251 30.5596C26.251 25.5113 30.3429 21.4195 35.3912 21.4195C40.4395 21.4195 44.5314 25.5113 44.5314 30.5596C44.5314 35.608 40.4395 39.6998 35.3912 39.6998Z" fill="white"/>
<path d="M129.291 18.4434V46.661H133.011C134.924 46.661 136.518 45.0667 136.518 43.1537V14.6704H133.064C130.991 14.6704 129.291 16.3709 129.291 18.4434Z" fill="white"/>
<path d="M142.842 18.4434V46.661H146.562C148.475 46.661 150.069 45.0667 150.069 43.1537V14.6704H146.615C144.542 14.6704 142.842 16.3709 142.842 18.4434Z" fill="white"/>
<path d="M146.455 8.61218C148.741 8.61218 150.6 6.75225 150.6 4.46721C150.6 2.18217 148.741 0.322266 146.455 0.322266C144.17 0.322266 142.311 2.18217 142.311 4.46721C142.311 6.75225 144.117 8.61218 146.455 8.61218Z" fill="white"/>
<path d="M71.7398 14.5112C62.8654 14.5112 55.6914 21.6852 55.6914 30.5596H55.7445C55.7445 30.6128 55.6914 30.7191 55.6914 30.7722V46.6081H59.2518C61.1117 46.6081 62.5997 45.7047 62.5997 44.6419V30.5596C62.5997 25.5113 66.6915 21.4195 71.7398 21.4195C76.7882 21.4195 80.88 25.5113 80.88 30.5596V46.6081H84.4404C86.3003 46.6081 87.7882 45.7047 87.7882 44.5887V30.2939C87.7882 30.1877 87.7882 30.0814 87.7351 29.9751C87.4694 21.3663 80.4017 14.5112 71.7398 14.5112Z" fill="white"/>
<path d="M108.035 21.4192C110.904 21.4192 113.508 22.7477 115.156 24.8202C115.793 25.6173 116.697 26.0955 117.653 26.0955H123.445C121.32 18.8153 114.252 13.6607 106.069 14.6172C98.7352 15.4675 92.8366 21.4192 92.0395 28.6994C90.9767 38.4241 98.5226 46.6078 107.982 46.6078C115.315 46.6078 121.479 41.7188 123.392 35.0231H117.919C116.856 35.0231 115.74 35.4483 115.049 36.2985C113.083 38.6898 109.948 40.1246 106.494 39.5932C102.508 39.0087 99.2666 35.6077 98.8415 31.6221C98.3632 26.0955 102.668 21.4192 108.035 21.4192Z" fill="white"/>
<path d="M132.905 0.322266C130.62 0.322266 128.76 2.18217 128.76 4.46721C128.76 6.75225 130.62 8.61218 132.905 8.61218C135.19 8.61218 137.05 6.75225 137.05 4.46721C137.05 2.18217 135.19 0.322266 132.905 0.322266Z" fill="white"/>
</svg>
