<svg width="71" height="73" viewBox="0 0 71 73" fill="none" xmlns="http://www.w3.org/2000/svg">
<path d="M0.396484 49.6942C2.73466 55.6991 6.66706 60.8537 11.6091 64.733L15.5947 54.7957C14.4256 53.6266 13.3096 52.3513 12.4062 50.9696C11.8748 50.1725 10.9183 49.6942 9.96176 49.6942H0.396484Z" fill="white"/>
<path d="M18.1989 15.3124C22.6627 11.9645 28.2424 9.94517 34.2473 10.0515C41.0493 10.1577 47.2136 12.8679 51.8368 17.2254H64.6437C64.6437 17.2254 64.6968 17.2254 64.7499 17.2254C58.9576 7.81955 48.9672 1.28328 37.4357 0.16733C23.4067 -1.16118 10.8655 5.53452 3.79785 16.2157H15.4356C16.4453 16.2689 17.4549 15.95 18.1989 15.3124Z" fill="white"/>
<path d="M69.9576 32.955C69.7451 30.3511 69.2137 27.8004 68.4697 25.3559C68.4166 25.409 68.4166 25.409 68.3634 25.4622C60.6581 30.9356 59.7015 31.3076 59.5953 31.3076C59.861 32.6893 60.0204 34.1241 60.0735 35.612C60.3924 48.3126 51.571 58.9938 39.7739 61.704L25.5322 71.4287C28.2424 72.0663 31.0588 72.3852 33.9284 72.3852C54.972 72.332 71.8176 54.3706 69.9576 32.955Z" fill="white"/>
</svg>
