<svg width="21" height="21" viewBox="0 0 21 21" fill="none" xmlns="http://www.w3.org/2000/svg">
    <g id="Google svg">
        <path id="Vector"
            d="M19.74 10.7188C19.74 10.0362 19.6788 9.38 19.565 8.75H10.5V12.4731H15.68C15.4569 13.6762 14.7788 14.6956 13.7594 15.3781V17.7931H16.87C18.69 16.1175 19.74 13.65 19.74 10.7188Z"
            fill="#4285F4" />
        <path id="Vector_2"
            d="M10.5001 20.1254C13.0988 20.1254 15.2776 19.2635 16.8701 17.7935L13.7594 15.3785C12.8976 15.956 11.7951 16.2972 10.5001 16.2972C7.99318 16.2972 5.8713 14.6041 5.11443 12.3291H1.8988V14.8229C3.48255 17.9685 6.73755 20.1254 10.5001 20.1254Z"
            fill="#34A853" />
        <path id="Vector_3"
            d="M5.11438 12.329C4.92188 11.7515 4.8125 11.1346 4.8125 10.5002C4.8125 9.86586 4.92188 9.24898 5.11438 8.67148V6.17773H1.89875C1.225 7.51899 0.874406 8.99927 0.875001 10.5002C0.875001 12.0534 1.24688 13.5234 1.89875 14.8227L5.11438 12.329Z"
            fill="#FFD700" />
        <path id="Vector_4"
            d="M10.5001 4.70313C11.9132 4.70313 13.1819 5.18875 14.1794 6.1425L16.9401 3.38188C15.2732 1.82875 13.0944 0.875 10.5001 0.875C6.73755 0.875 3.48255 3.03188 1.8988 6.1775L5.11443 8.67125C5.8713 6.39625 7.99318 4.70313 10.5001 4.70313Z"
            fill="#F43939" />
    </g>
</svg>