<svg xmlns="http://www.w3.org/2000/svg" width="16" height="16" viewBox="0 0 16 16" fill="none">
  <path
    d="M13.8773 5.34871C14.6779 4.54814 14.6779 3.25016 13.8773 2.44958C13.0767 1.64901 11.7787 1.649 10.9782 2.44957L2.54945 10.8783C1.74888 11.6789 1.74889 12.9769 2.54946 13.7774C3.35004 14.578 4.64802 14.578 5.44859 13.7774L13.8773 5.34871Z"
    stroke="white" stroke-linecap="round" stroke-linejoin="round" />
  <path
    d="M10.8996 2.55098L2.52039 10.9302C2.11719 10.527 1.89066 9.98013 1.89066 9.40991C1.89066 8.8397 2.11717 8.29283 2.52037 7.88963L7.82367 2.58633C8.02156 2.37901 8.25892 2.21337 8.52176 2.09911C8.7846 1.98485 9.06763 1.92428 9.35421 1.92099C9.64079 1.91769 9.92512 1.97173 10.1905 2.07992C10.4559 2.18811 10.697 2.34827 10.8996 2.55098Z"
    stroke="white" stroke-linecap="round" stroke-linejoin="round" />
  <path
    d="M5.47777 13.8403L13.857 5.46111C14.2602 5.86431 14.4867 6.41118 14.4867 6.9814C14.4867 7.55161 14.2602 8.09846 13.857 8.50166L8.55368 13.805C8.15048 14.2082 7.60363 14.4347 7.03342 14.4347C6.4632 14.4347 5.91633 14.2082 5.51313 13.805L5.47777 13.8403Z"
    stroke="white" stroke-linecap="round" stroke-linejoin="round" />
  <path
    d="M3.91406 11.807C4.91406 10.807 5.61407 11.507 6.61407 10.557C7.61407 9.60698 6.86407 8.85698 7.86407 7.85698C8.86407 6.85698 9.56409 7.55698 10.5641 6.60698C11.5641 5.65698 10.8141 4.90698 11.8141 3.90698"
    stroke="white" stroke-linecap="round" stroke-linejoin="round" />
</svg>