<svg xmlns="http://www.w3.org/2000/svg" width="16" height="16" viewBox="0 0 16 16" fill="none">
  <path d="M6.5 9.85005L11.5 4.05005H1.5L6.5 9.85005ZM6.5 9.85005L11.5 4.05005H1.5L6.5 9.85005Z" stroke="white"
    stroke-linecap="round" stroke-linejoin="round" />
  <path d="M6.5 9.8501V14.3501" stroke="white" stroke-linecap="round" stroke-linejoin="round" />
  <path d="M3.2002 14.3501H9.8002" stroke="white" stroke-linecap="round" stroke-linejoin="round" />
  <path d="M4.5498 7.3999H8.4498" stroke="white" stroke-linecap="round" stroke-linejoin="round" />
  <path
    d="M8.9502 4.05001C8.9502 3.54566 9.09975 3.05265 9.37994 2.6333C9.66014 2.21396 10.0584 1.88711 10.5244 1.69411C10.9903 1.50111 11.503 1.45061 11.9977 1.549C12.4923 1.64739 12.9467 1.89027 13.3033 2.24689C13.6599 2.60351 13.9028 3.05787 14.0012 3.55252C14.0996 4.04717 14.0491 4.5599 13.8561 5.02585C13.6631 5.4918 13.3362 5.89006 12.9169 6.17026C12.4976 6.45046 12.0045 6.60001 11.5002 6.60001C10.8883 6.59698 10.2997 6.3651 9.85019 5.95"
    stroke="white" stroke-linecap="round" stroke-linejoin="round" />
</svg>