<svg xmlns="http://www.w3.org/2000/svg" width="16" height="16" viewBox="0 0 16 16" fill="none">
  <path
    d="M15.8737 7.23778L13.713 6.14574C13.713 6.14574 13.7111 6.14429 13.7091 6.14429C13.7033 6.14139 13.6974 6.13995 13.6915 6.13705C13.6837 6.13415 13.6759 6.13126 13.6681 6.12836C13.6642 6.12691 13.6623 6.12546 13.6584 6.12401C13.6525 6.12257 13.6467 6.12112 13.6427 6.11967C13.6408 6.11967 13.6408 6.11967 13.6388 6.11822C13.6369 6.11822 13.6349 6.11677 13.633 6.11677L13.6252 6.11532L8.4254 4.93204C8.41955 4.9306 8.41174 4.9306 8.40588 4.92915C8.39612 4.9277 8.38441 4.9248 8.37465 4.9248C8.36489 4.92335 8.35513 4.92335 8.34538 4.92335C8.33757 4.92335 8.32781 4.92335 8.32 4.92335C8.30829 4.92335 8.29658 4.92625 8.28487 4.9277C8.27901 4.92915 8.27316 4.92915 8.2673 4.9306L7.78128 5.02763L6.72727 1.17219C6.69604 1.05633 6.5438 0.981016 6.3857 1.00419C6.22955 1.02736 6.12805 1.14178 6.15928 1.25765L7.21915 5.14205L6.33885 5.31875L4.74027 1.87753C4.68757 1.76456 4.52361 1.70518 4.37137 1.74428C4.21912 1.78339 4.1391 1.90505 4.1918 2.01802L5.77867 5.43172L2.37656 6.11532H2.37461C2.37265 6.11532 2.3707 6.11677 2.36875 6.11677C2.36485 6.11822 2.36094 6.11967 2.35704 6.11967C2.34923 6.12112 2.34142 6.12401 2.33362 6.12691C2.32776 6.12836 2.3219 6.13126 2.31605 6.1327C2.31019 6.13415 2.30629 6.13705 2.30043 6.13995C2.29653 6.14139 2.29263 6.14284 2.28872 6.14429L0.126051 7.23778C0.0206503 7.29136 -0.0242427 7.3884 0.0128428 7.47965C0.0499283 7.56944 0.163137 7.63172 0.290008 7.63172H1.56263L0.850195 9.23357C0.805302 9.3364 0.867762 9.44792 1.00049 9.49426L3.29784 10.3169L4.03174 12.5922C4.05321 12.6574 4.11372 12.711 4.1957 12.7385L7.91987 13.9797C7.92182 13.9797 7.92182 13.9797 7.92377 13.9812C7.93743 13.9855 7.95305 13.9899 7.96866 13.9928C7.97257 13.9928 7.97647 13.9942 7.98038 13.9957C7.99989 13.9986 8.01941 14 8.03893 14C8.04088 14 8.04284 14 8.04479 14C8.06626 14 8.08578 13.9971 8.10725 13.9942C8.11115 13.9942 8.11505 13.9928 8.11896 13.9913C8.13653 13.987 8.15409 13.9826 8.16971 13.9768C8.17166 13.9754 8.17556 13.9754 8.17751 13.9739L12.0168 12.4228C12.091 12.3938 12.1418 12.3417 12.1613 12.2808L12.8308 10.0823L14.5504 9.49716C14.6753 9.45516 14.7417 9.35378 14.7124 9.25529L14.2127 7.56075L15.6922 7.63317C15.6981 7.63317 15.7039 7.63317 15.7117 7.63317C15.8347 7.63317 15.946 7.57524 15.985 7.48834C16.026 7.39419 15.9811 7.29281 15.8737 7.23778ZM6.25883 6.46003C6.29982 6.54982 6.41302 6.60486 6.53209 6.60486C6.56332 6.60486 6.59455 6.60051 6.62578 6.59327C6.77802 6.55417 6.85805 6.43251 6.80535 6.31954L6.53014 5.72573L7.33626 5.56351L7.71687 6.95825C7.7442 7.05963 7.86521 7.1306 7.99989 7.1306C8.01941 7.1306 8.03893 7.12915 8.05845 7.12625C8.2146 7.10308 8.3161 6.98866 8.28487 6.8728L7.89644 5.45054L8.26925 5.37523C8.31415 5.36654 8.36099 5.36654 8.40393 5.37668L12.5985 6.33112L7.85155 7.50572L3.42666 6.34995L5.96995 5.83869L6.25883 6.46003ZM1.23081 7.20157L1.90616 6.85976L1.75391 7.20157H1.23081ZM2.63225 6.59906L7.40848 7.84752L5.15602 10.5023L1.48065 9.18867L2.63225 6.59906ZM3.97123 10.5573L5.1365 10.9745C5.17749 10.9889 5.22043 10.9962 5.26142 10.9962C5.35901 10.9962 5.4527 10.96 5.50736 10.8962L7.57829 8.45437L7.73444 13.4482L4.55875 12.3895L3.97123 10.5573ZM11.6226 12.0882L8.3161 13.4236L8.1619 8.50361L10.1157 10.7963C10.1938 10.8876 10.3499 10.9223 10.4807 10.8774L12.1652 10.3053L11.6226 12.0882ZM10.471 10.4082L8.29072 7.85186L13.3344 6.60486L14.0936 9.17853L10.471 10.4082ZM14.0819 7.12191L13.9882 6.80618L14.6675 7.14943L14.0819 7.12191Z"
    fill="white" />
</svg>