<svg xmlns="http://www.w3.org/2000/svg" width="16" height="16" viewBox="0 0 16 16" fill="none">
  <path
    d="M8.35039 14.5992C8.32442 14.6642 8.27958 14.7199 8.22165 14.7591C8.16372 14.7983 8.09536 14.8193 8.02539 14.8193C7.95542 14.8193 7.88706 14.7983 7.82913 14.7591C7.7712 14.7199 7.72636 14.6642 7.70039 14.5992L6.45039 11.5492L4.90039 7.69922H11.1504L9.60039 11.5492L8.35039 14.5992Z"
    stroke="white" stroke-linecap="round" stroke-linejoin="round" />
  <path
    d="M13.0503 6.09921C13.0301 6.49163 12.8705 6.86396 12.6003 7.14922C12.3204 7.42743 11.9448 7.58836 11.5503 7.59921H4.4503C4.0612 7.58624 3.6924 7.42249 3.42182 7.14258C3.15123 6.86267 3.00008 6.48852 3.0003 6.09921C2.99256 5.71061 3.13596 5.33417 3.4003 5.04921C3.53572 4.90701 3.69862 4.7938 3.87911 4.71645C4.05961 4.63909 4.25393 4.59921 4.4503 4.59921H4.8503C4.79367 4.14882 4.83351 3.69155 4.96717 3.25774C5.10084 2.82393 5.32527 2.42351 5.62556 2.0831C5.92585 1.74268 6.29513 1.47005 6.70888 1.28331C7.12262 1.09657 7.57136 1 8.0253 1C8.47923 1 8.92797 1.09657 9.34172 1.28331C9.75546 1.47005 10.1247 1.74268 10.425 2.0831C10.7253 2.42351 10.9498 2.82393 11.0834 3.25774C11.2171 3.69155 11.2569 4.14882 11.2003 4.59921H11.5503C11.9481 4.59921 12.3297 4.75725 12.611 5.03856C12.8923 5.31986 13.0503 5.70139 13.0503 6.09921Z"
    stroke="white" stroke-linecap="round" stroke-linejoin="round" />
</svg>