<svg xmlns="http://www.w3.org/2000/svg" width="16" height="16" viewBox="0 0 16 16" fill="none">
  <path
    d="M7.95497 8.5625L12.555 4.3125C12.6228 4.24444 12.6748 4.16216 12.707 4.07161C12.7393 3.98106 12.751 3.88449 12.7415 3.78885C12.7319 3.6932 12.7013 3.60086 12.6517 3.51849C12.6022 3.43612 12.535 3.36578 12.455 3.3125C9.45497 1.5625 6.45497 1.5625 3.40497 3.3125C3.32496 3.36578 3.25777 3.43612 3.20823 3.51849C3.15868 3.60086 3.12802 3.6932 3.11846 3.78885C3.1089 3.88449 3.12066 3.98106 3.15291 4.07161C3.18517 4.16216 3.2371 4.24444 3.30497 4.3125L7.95497 8.5625Z"
    stroke="white" stroke-linecap="round" stroke-linejoin="round" />
  <path
    d="M7.95471 8.56261H1.85471C1.71683 8.56337 1.58083 8.53057 1.45844 8.46706C1.33606 8.40354 1.23097 8.3112 1.15223 8.19801C1.07349 8.08482 1.02347 7.95418 1.00648 7.81735C0.989488 7.68052 1.00604 7.54161 1.0547 7.4126C1.44326 6.15805 2.2797 5.09026 3.4047 4.4126"
    stroke="white" stroke-linecap="round" stroke-linejoin="round" />
  <path
    d="M7.95508 8.56261H14.0051C14.143 8.56337 14.279 8.53057 14.4013 8.46706C14.5237 8.40354 14.6288 8.3112 14.7076 8.19801C14.7863 8.08482 14.8363 7.95418 14.8533 7.81735C14.8703 7.68052 14.8537 7.54161 14.8051 7.4126C14.4165 6.15805 13.5801 5.09026 12.4551 4.4126"
    stroke="white" stroke-linecap="round" stroke-linejoin="round" />
  <path d="M1.55436 8.5625C1.35436 10.0125 1.85436 11.4625 2.80436 12.9125L7.45436 8.5625" stroke="white"
    stroke-linecap="round" stroke-linejoin="round" />
  <path d="M14.3041 8.5625C14.5041 10.0125 14.0041 11.4625 13.0541 12.9125L8.4541 8.5625" stroke="white"
    stroke-linecap="round" stroke-linejoin="round" />
</svg>