<svg xmlns="http://www.w3.org/2000/svg" width="16" height="16" viewBox="0 0 16 16" fill="none">
  <path
    d="M2.45117 11.5H13.7512V12.25C13.7512 12.7804 13.5404 13.2891 13.1654 13.6642C12.7903 14.0393 12.2816 14.25 11.7512 14.25H4.45117C3.92074 14.25 3.41203 14.0393 3.03696 13.6642C2.66188 13.2891 2.45117 12.7804 2.45117 12.25V11.5Z"
    stroke="white" stroke-linecap="round" stroke-linejoin="round" />
  <path
    d="M12.4009 8.45011H13.7009C13.9021 8.4434 14.1025 8.47725 14.2903 8.54962C14.4781 8.62199 14.6494 8.73142 14.794 8.87138C14.9387 9.01134 15.0536 9.17898 15.1321 9.3643C15.2106 9.54963 15.251 9.74885 15.2509 9.95011C15.2509 10.3612 15.0876 10.7554 14.7969 11.0461C14.5062 11.3368 14.112 11.5001 13.7009 11.5001H2.50089C2.29963 11.5002 2.10042 11.4598 1.91509 11.3813C1.72977 11.3029 1.56212 11.1879 1.42216 11.0432C1.2822 10.8986 1.17277 10.7273 1.1004 10.5395C1.02802 10.3517 0.994184 10.1513 1.00089 9.95011C0.993909 9.75125 1.02794 9.55308 1.10085 9.36793C1.17376 9.18278 1.284 9.01462 1.42471 8.87392C1.56541 8.73321 1.73356 8.62298 1.91871 8.55006C2.10386 8.47715 2.30203 8.44313 2.50089 8.45011H6.9009"
    stroke="white" stroke-linecap="round" stroke-linejoin="round" />
  <path
    d="M15.2513 7.44995C15.2476 7.71372 15.1397 7.96533 14.9513 8.14996C14.8637 8.24809 14.7556 8.32582 14.6346 8.37765C14.5137 8.42948 14.3828 8.45416 14.2513 8.44995H11.6513L9.95133 10.4L8.25132 8.44995H1.95133C1.82225 8.45013 1.69448 8.42401 1.57584 8.37317C1.4572 8.32233 1.35015 8.24785 1.26125 8.15427C1.17235 8.06069 1.10346 7.94997 1.05877 7.82888C1.01408 7.70779 0.994523 7.57885 1.00132 7.44995C0.994523 7.32105 1.01408 7.19212 1.05877 7.07103C1.10346 6.94994 1.17235 6.83923 1.26125 6.74564C1.35015 6.65206 1.4572 6.57758 1.57584 6.52674C1.69448 6.4759 1.82225 6.44977 1.95133 6.44995H14.2513C14.5165 6.44995 14.7709 6.55531 14.9584 6.74284C15.146 6.93038 15.2513 7.18474 15.2513 7.44995Z"
    stroke="white" stroke-linecap="round" stroke-linejoin="round" />
  <path
    d="M6.75116 2H9.50116C10.6416 2 11.7353 2.45303 12.5417 3.25944C13.3481 4.06584 13.8012 5.15957 13.8012 6.3H2.45117C2.45117 5.15957 2.9042 4.06584 3.7106 3.25944C4.51701 2.45303 5.61073 2 6.75116 2Z"
    stroke="white" stroke-linecap="round" stroke-linejoin="round" />
  <path d="M5.30176 4.25L5.90176 4.9" stroke="white" stroke-linecap="round" stroke-linejoin="round" />
  <path d="M10.7012 4L11.3512 4.7" stroke="white" stroke-linecap="round" stroke-linejoin="round" />
  <path d="M7.70117 4.2999L8.40117 3.6499" stroke="white" stroke-linecap="round" stroke-linejoin="round" />
</svg>