<svg xmlns="http://www.w3.org/2000/svg" width="16" height="13" viewBox="0 0 16 13" fill="none">
  <path
    d="M14.4272 8.29323H13.6104C13.9708 8.0691 14.2072 7.72306 14.2072 7.33049C14.2072 6.65549 13.5205 6.10652 12.6764 6.10652C12.5479 6.10652 12.425 6.12306 12.3056 6.14704C12.5171 5.93712 12.649 5.67402 12.649 5.38408C12.649 4.70908 11.9623 4.16011 11.1182 4.16011C10.8922 4.16011 10.6793 4.20191 10.486 4.27255C10.8511 4.04865 11.0908 3.70007 11.0908 3.30453C11.0908 2.62952 10.4041 2.08056 9.56003 2.08056C9.33407 2.08056 9.12121 2.1223 8.92797 2.19286C9.29299 1.96896 9.5326 1.62044 9.5326 1.22494C9.5326 0.54994 8.84591 0.000976562 8.00183 0.000976562C7.15774 0.000976562 6.47105 0.549966 6.47105 1.22494C6.47105 1.62049 6.71076 1.96909 7.07585 2.19296C6.88258 2.12233 6.66961 2.08053 6.44362 2.08053C5.59954 2.08053 4.91285 2.62952 4.91285 3.3045C4.91285 3.70005 5.15255 4.04865 5.51765 4.27252C5.32437 4.20188 5.11141 4.16009 4.88542 4.16009C4.04134 4.16009 3.35464 4.70908 3.35464 5.38406C3.35464 5.67399 3.48663 5.93709 3.69806 6.14701C3.57868 6.12303 3.45577 6.1065 3.32721 6.1065C2.48313 6.1065 1.79644 6.65549 1.79644 7.33046C1.79644 7.72306 2.03281 8.0691 2.39327 8.29321H1.57645C1.07001 8.29323 0.65332 8.62475 0.65332 9.03151C0.65332 9.42786 1.0495 9.7499 1.54256 9.7645L2.88676 11.4356C3.03487 11.6201 3.28695 11.73 3.56101 11.73H12.4395C12.7136 11.73 12.9656 11.6201 13.1138 11.4356L14.4577 9.76479C14.9605 9.75095 15.3472 9.43092 15.3472 9.03151C15.3472 8.62436 14.9346 8.29323 14.4272 8.29323ZM13.8807 7.33049C13.8807 7.86135 13.3405 8.29323 12.6764 8.29323C12.0125 8.29323 11.4724 7.86135 11.4724 7.33049C11.4724 6.79963 12.0125 6.36775 12.6764 6.36775C13.3405 6.36775 13.8807 6.79963 13.8807 7.33049ZM5.23941 7.33049C5.23941 6.79963 5.77959 6.36775 6.44366 6.36775C7.10756 6.36775 7.64774 6.79963 7.64774 7.33049C7.64774 7.86135 7.10756 8.29323 6.44366 8.29323C5.77959 8.29323 5.23941 7.86135 5.23941 7.33049ZM5.50971 8.29323H4.26109C4.62148 8.0691 4.85786 7.72306 4.85786 7.33049C4.85786 7.04053 4.72591 6.77743 4.51445 6.56751C4.63389 6.59151 4.75683 6.60805 4.88545 6.60805C5.01401 6.60805 5.13691 6.59149 5.25629 6.56751C5.04483 6.77743 4.91288 7.04056 4.91288 7.33049C4.91288 7.72309 5.14929 8.06913 5.50971 8.29323ZM8.00186 6.34682C7.33779 6.34682 6.79761 5.91494 6.79761 5.38408C6.79761 4.85322 7.33779 4.42134 8.00186 4.42134C8.66592 4.42134 9.2061 4.85322 9.2061 5.38408C9.2061 5.91494 8.66592 6.34682 8.00186 6.34682ZM7.97427 7.33049C7.97427 7.04053 7.84232 6.77743 7.63086 6.56751C7.7503 6.59151 7.87324 6.60805 8.00186 6.60805C8.13041 6.60805 8.25329 6.59151 8.37267 6.56756C8.16124 6.77748 8.02929 7.04058 8.02929 7.33052C8.02929 7.72311 8.26566 8.06916 8.62612 8.29326H7.3775C7.73789 8.06913 7.97427 7.72309 7.97427 7.33049ZM8.35582 7.33049C8.35582 6.79963 8.896 6.36775 9.56006 6.36775C10.2241 6.36775 10.7643 6.79963 10.7643 7.33049C10.7643 7.86135 10.2241 8.29323 9.56006 8.29323C8.896 8.29323 8.35582 7.86135 8.35582 7.33049ZM11.0908 7.33049C11.0908 7.04056 10.9589 6.77745 10.7474 6.56753C10.8668 6.59151 10.9897 6.60805 11.1182 6.60805C11.2469 6.60805 11.3698 6.59149 11.4892 6.56751C11.2778 6.77743 11.1458 7.04056 11.1458 7.33049C11.1458 7.72309 11.3822 8.06913 11.7426 8.29323H10.494C10.8544 8.06913 11.0908 7.72309 11.0908 7.33049ZM12.3225 5.38406C12.3225 5.91492 11.7823 6.3468 11.1182 6.3468C10.4543 6.3468 9.91415 5.91492 9.91415 5.38406C9.91415 4.8532 10.4543 4.42131 11.1182 4.42131C11.7823 4.42131 12.3225 4.8532 12.3225 5.38406ZM9.58762 5.38406C9.58762 5.67399 9.71961 5.93712 9.93103 6.14704C9.81159 6.12303 9.68865 6.1065 9.56003 6.1065C9.43148 6.1065 9.3086 6.12303 9.18922 6.14699C9.40065 5.93707 9.5326 5.67396 9.5326 5.38403C9.5326 4.98851 9.29296 4.63996 8.9279 4.41609C9.12117 4.48667 9.33404 4.52844 9.56003 4.52844C9.78612 4.52844 9.99915 4.48659 10.1925 4.41596C9.82736 4.63985 9.58762 4.98846 9.58762 5.38406ZM10.7643 3.30447C10.7643 3.83533 10.2241 4.26722 9.56003 4.26722C8.89596 4.26722 8.35579 3.83533 8.35579 3.30447C8.35579 2.77361 8.89596 2.34173 9.56003 2.34173C10.2241 2.34173 10.7643 2.77361 10.7643 3.30447ZM6.79761 1.22489C6.79761 0.694031 7.33779 0.262149 8.00186 0.262149C8.66592 0.262149 9.2061 0.694031 9.2061 1.22489C9.2061 1.75575 8.66592 2.18763 8.00186 2.18763C7.33779 2.18763 6.79761 1.75575 6.79761 1.22489ZM8.00186 2.44886C8.22782 2.44886 8.44072 2.40709 8.63396 2.33653C8.26893 2.56043 8.02929 2.90895 8.02929 3.30447C8.02929 3.69997 8.2689 4.04847 8.63389 4.27236C8.44068 4.20181 8.22779 4.16009 8.00186 4.16009C7.77577 4.16009 7.56277 4.20191 7.36943 4.27255C7.73456 4.04865 7.9743 3.70005 7.9743 3.30447C7.9743 2.90887 7.73456 2.56025 7.3694 2.33635C7.56271 2.40701 7.77574 2.44886 8.00186 2.44886ZM5.23941 3.30447C5.23941 2.77361 5.77959 2.34173 6.44366 2.34173C7.10756 2.34173 7.64774 2.77361 7.64774 3.30447C7.64774 3.83533 7.10756 4.26722 6.44366 4.26722C5.77959 4.26722 5.23941 3.83533 5.23941 3.30447ZM6.44366 4.52844C6.66968 4.52844 6.88264 4.48662 7.07595 4.41598C6.71082 4.63988 6.47108 4.98846 6.47108 5.38406C6.47108 5.67399 6.60307 5.93709 6.8145 6.14701C6.69512 6.12303 6.57221 6.1065 6.44366 6.1065C6.31503 6.1065 6.1921 6.12306 6.07265 6.14704C6.28408 5.93712 6.41606 5.67399 6.41606 5.38406C6.41606 4.98846 6.17632 4.63983 5.81117 4.41593C6.00454 4.48662 6.21753 4.52844 6.44366 4.52844ZM4.88545 4.42131C5.54935 4.42131 6.08953 4.8532 6.08953 5.38406C6.08953 5.91492 5.54935 6.3468 4.88545 6.3468C4.22139 6.3468 3.68121 5.91492 3.68121 5.38406C3.68121 4.8532 4.22139 4.42131 4.88545 4.42131ZM2.12303 7.33049C2.12303 6.79963 2.66321 6.36775 3.32728 6.36775C3.99118 6.36775 4.53136 6.79963 4.53136 7.33049C4.53136 7.86135 3.99118 8.29323 3.32728 8.29323C2.66321 8.29323 2.12303 7.86135 2.12303 7.33049ZM12.8392 11.2943C12.7514 11.4035 12.602 11.4688 12.4395 11.4688H3.56101C3.39853 11.4688 3.24914 11.4035 3.1613 11.2943L1.9341 9.7685H14.0664L12.8392 11.2943ZM14.4272 9.506H1.57645C1.24754 9.506 0.979851 9.29325 0.979851 9.03151C0.979851 8.76903 1.25048 8.55446 1.57645 8.55446H14.4272C14.7544 8.55446 15.0207 8.76848 15.0207 9.03151C15.0207 9.29921 14.7544 9.506 14.4272 9.506Z"
    fill="white" />
  <path
    d="M3.56107 11.9912C3.17537 11.9912 2.82063 11.8364 2.61207 11.577C2.56378 11.5165 2.46285 11.4989 2.38647 11.5377C2.31058 11.5767 2.28874 11.6576 2.33752 11.7183C2.60632 12.0527 3.06376 12.2525 3.56107 12.2525C3.65132 12.2525 3.72433 12.194 3.72433 12.1218C3.72433 12.0496 3.65129 11.9912 3.56107 11.9912Z"
    fill="white" />
  <path
    d="M4.48735 11.9912H4.19256C4.10231 11.9912 4.0293 12.0496 4.0293 12.1218C4.0293 12.194 4.10231 12.2524 4.19256 12.2524H4.48735C4.57761 12.2524 4.65062 12.194 4.65062 12.1218C4.65062 12.0496 4.57761 11.9912 4.48735 11.9912Z"
    fill="white" />
  <path
    d="M5.49321 11.9912H5.19842C5.10817 11.9912 5.03516 12.0496 5.03516 12.1218C5.03516 12.194 5.10817 12.2524 5.19842 12.2524H5.49321C5.58347 12.2524 5.65648 12.194 5.65648 12.1218C5.65648 12.0496 5.58343 11.9912 5.49321 11.9912Z"
    fill="white" />
  <path
    d="M6.49907 11.9912H6.20428C6.11403 11.9912 6.04102 12.0496 6.04102 12.1218C6.04102 12.194 6.11403 12.2524 6.20428 12.2524H6.49907C6.58933 12.2524 6.66234 12.194 6.66234 12.1218C6.66234 12.0496 6.58933 11.9912 6.49907 11.9912Z"
    fill="white" />
</svg>