<svg xmlns="http://www.w3.org/2000/svg" width="16" height="16" viewBox="0 0 16 16" fill="none">
  <path fill-rule="evenodd" clip-rule="evenodd"
    d="M11.75 13.8488C9.23758 13.8488 6.74408 13.8488 4.25057 13.8488C2.72046 13.8488 0.0947266 11.9144 0.0947266 11.9144C5.36509 11.8993 10.6355 11.8993 15.8869 11.9144C15.8869 11.9144 13.2801 13.8488 11.75 13.8488Z"
    fill="white" />
  <path fill-rule="evenodd" clip-rule="evenodd"
    d="M13.8281 11.5971H13.2992C13.2236 11.4158 13.0347 11.0833 12.5625 11.0833C12.0336 11.0833 11.5991 11.4007 11.3724 11.5971H10.8435L10.749 11.5518C10.7868 11.5215 11.5046 10.6602 12.5625 10.6602C13.3937 10.6602 13.7526 11.2495 13.8281 11.5971Z"
    fill="white" />
  <path fill-rule="evenodd" clip-rule="evenodd"
    d="M13.5255 10.4486C13.1099 10.237 12.5999 10.2068 11.9765 10.3428C11.032 10.5544 10.2197 11.2798 9.89857 11.5971H9.48298L9.33186 11.5216C9.35075 11.5065 9.46409 11.3856 9.6341 11.2193C9.55854 11.1589 9.40742 11.0833 9.12407 11.0229C8.6707 10.9171 8.06622 11.1589 7.83953 11.2798C7.83953 11.4611 7.87732 11.5971 7.87732 11.5971H7.80175H7.34839C7.17838 10.6904 7.46173 9.64766 8.57625 9.20941C10.0308 8.63514 11.1453 9.43609 11.5987 10.0104C11.8065 9.9499 11.9009 9.91968 12.1276 9.88945C11.9387 9.49654 11.1831 8.37824 9.02962 8.66537C6.61167 8.99784 6.80057 11.2798 6.83835 11.5971H6.32832V11.582C6.19609 11.5971 6.04497 11.5669 5.93162 11.5367C5.79939 11.5065 5.66716 11.446 5.55382 11.3856C5.55382 11.4762 5.57271 11.5518 5.57271 11.5971H5.04379C5.02489 11.3402 4.96822 10.9473 4.79821 10.7811C4.6282 10.5997 4.21262 10.4184 3.96704 10.3277C3.83481 10.4033 3.72147 10.4788 3.60813 10.5393C3.81592 10.6299 4.06149 10.766 4.23151 10.902C4.49597 11.1438 4.53375 11.4611 4.53375 11.5971H4.02371C4.02371 11.5216 4.00482 11.3251 3.8537 11.1891C3.70258 11.0682 3.41923 10.9322 3.21144 10.8415C2.79585 11.2042 2.68251 11.5065 2.66362 11.5971H2.13469C2.15358 11.4913 2.30471 10.6299 3.96704 9.829C5.34603 9.14896 6.30943 9.48142 6.68723 9.66277C6.7439 9.55699 6.81946 9.46631 6.89502 9.36053C6.61167 9.17918 5.64827 8.66537 4.02371 9.37564C2.17247 10.1766 1.68133 11.2798 1.56799 11.5971H1.03906C1.09573 11.3704 1.53021 9.98013 3.77814 9.01295C5.61049 8.212 6.78168 8.77115 7.19727 9.02806C7.55618 8.68048 8.08511 8.39335 8.82183 8.27245C8.85961 8.09111 8.93517 7.9551 9.02962 7.84931C9.10518 7.72841 9.18074 7.63774 9.18074 7.42617C9.18074 7.2146 9.10518 7.12393 9.02962 7.00303C8.91628 6.86702 8.78404 6.68567 8.78404 6.36832V5.17446H8.50069C7.99066 5.17446 7.65063 4.978 7.36728 4.78154C7.15949 4.64553 6.97059 4.52464 6.70612 4.49441C5.85606 4.41885 1.85134 3.57257 1.68133 3.52723C1.51132 3.49701 1.39798 3.34589 1.45465 3.20988C1.49243 3.05876 1.68133 2.96808 1.85134 3.01342C1.90801 3.01342 5.9883 3.87481 6.78168 3.96549C7.23505 4.01082 7.53729 4.19217 7.80175 4.37351C8.06622 4.53975 8.23623 4.64553 8.50069 4.64553H8.78404V4.50952C8.78404 4.38863 8.89739 4.29795 9.02962 4.29795C9.18074 4.29795 9.29408 4.38863 9.29408 4.50952V4.64553H9.57743V4.50952C9.57743 4.38863 9.69077 4.29795 9.8419 4.29795C9.97413 4.29795 10.0875 4.38863 10.0875 4.50952V4.64553H10.3897V4.50952C10.3897 4.38863 10.5031 4.29795 10.6353 4.29795C10.7675 4.29795 10.8809 4.38863 10.8809 4.50952V4.64553H11.1831V4.50952C11.1831 4.38863 11.2964 4.29795 11.4287 4.29795C11.5798 4.29795 11.6931 4.38863 11.6931 4.50952V4.64553H11.9387C12.1276 4.64553 12.2787 4.76643 12.2787 4.90244C12.2787 5.05356 12.1276 5.17446 11.9387 5.17446H11.6931V6.36832C11.6931 6.57989 11.7687 6.67056 11.8443 6.79146C11.9576 6.92747 12.0898 7.10882 12.0898 7.42617C12.0898 7.74353 11.9576 7.92487 11.8443 8.06088C11.7687 8.18178 11.6931 8.28756 11.6931 8.49913C11.6931 8.62003 11.712 8.69559 11.7498 8.77115C12.3354 9.17918 12.5999 9.67788 12.6754 9.84412C13.091 9.84412 13.4688 9.93479 13.8088 10.101C14.6211 10.5242 14.8856 11.3251 14.9611 11.5971H14.4133C14.3378 11.3251 14.0922 10.7508 13.5255 10.4486ZM9.35075 8.212C9.4452 8.212 9.53965 8.19689 9.6341 8.19689C9.67188 8.04577 9.74745 7.93998 9.82301 7.84931C9.91746 7.72841 9.97413 7.63774 9.97413 7.42617C9.97413 7.2146 9.91746 7.12393 9.82301 7.00303C9.70966 6.86702 9.57743 6.68567 9.57743 6.36832V5.17446H9.29408V6.36832C9.29408 6.57989 9.36964 6.67056 9.46409 6.79146C9.55854 6.92747 9.69077 7.10882 9.69077 7.42617C9.69077 7.74353 9.55854 7.92487 9.46409 8.06088C9.42631 8.12133 9.38853 8.16667 9.35075 8.212ZM10.1441 8.22712C10.2386 8.22712 10.333 8.24223 10.4086 8.25734C10.4464 8.07599 10.5408 7.9551 10.6164 7.84931C10.7108 7.72841 10.7864 7.63774 10.7864 7.42617C10.7864 7.2146 10.7108 7.12393 10.6164 7.00303C10.5219 6.86702 10.3897 6.68567 10.3897 6.36832V5.17446H10.0875V6.36832C10.0875 6.57989 10.163 6.67056 10.2575 6.79146C10.3519 6.92747 10.4842 7.10882 10.4842 7.42617C10.4842 7.74353 10.3519 7.92487 10.2575 8.06088C10.2197 8.12133 10.1819 8.16667 10.1441 8.22712ZM10.8997 8.36312C10.9942 8.39335 11.0886 8.42357 11.1831 8.46891C11.1831 8.16667 11.3153 7.98532 11.4098 7.84931C11.5042 7.72841 11.5798 7.63774 11.5798 7.42617C11.5798 7.2146 11.5042 7.12393 11.4098 7.00303C11.3153 6.86702 11.1831 6.68567 11.1831 6.36832V5.17446H10.8809V6.36832C10.8809 6.57989 10.9564 6.67056 11.0509 6.79146C11.1642 6.92747 11.2964 7.10882 11.2964 7.42617C11.2964 7.74353 11.1642 7.92487 11.0509 8.06088C10.9753 8.15155 10.9186 8.24223 10.8997 8.36312ZM4.98711 9.91968C4.83599 9.96501 4.66598 10.0104 4.49597 10.0859C4.76043 10.1917 5.04379 10.3428 5.2138 10.5242C5.47826 10.7962 5.47826 10.9775 6.08275 11.1438C6.1772 11.1589 6.25276 11.1589 6.30943 11.1589C6.30943 11.0229 6.32832 10.8717 6.34721 10.7206C6.00718 10.6904 5.45937 10.5242 4.98711 9.91968ZM8.80293 9.58721C8.63292 9.64766 8.50069 9.72322 8.38735 9.829C8.78404 9.75344 9.21852 9.72322 9.53965 9.79878C10.0686 9.91968 10.5219 10.2068 10.7486 10.373C10.862 10.3126 10.9942 10.2521 11.1264 10.1917C10.8431 9.87434 10.0308 9.10362 8.80293 9.58721ZM7.99066 10.3579C7.9151 10.5091 7.87732 10.6451 7.85842 10.7962C8.21734 10.6602 8.76515 10.5091 9.27519 10.6148C9.61521 10.7055 9.8419 10.8113 9.97413 10.902C10.0875 10.8264 10.2008 10.7357 10.333 10.6451C10.1252 10.4939 9.78522 10.2824 9.38853 10.1917C9.01073 10.101 8.25512 10.2673 7.99066 10.3579ZM6.44166 10.3126C6.46055 10.237 6.47944 10.1615 6.51722 10.0859C6.47944 10.0557 6.13942 9.829 5.53493 9.84412C5.89384 10.2068 6.25276 10.2975 6.44166 10.3126Z"
    fill="white" />
</svg>