<svg xmlns="http://www.w3.org/2000/svg" width="16" height="16" viewBox="0 0 16 16" fill="none">
  <path
    d="M15.4 12.9999V14.1499H1V12.9999C1.01022 11.4012 1.55594 9.85202 2.55 8.59989C3.21498 7.73582 4.07131 7.03775 5.05167 6.56058C6.03204 6.08341 7.10972 5.84015 8.2 5.84989C9.30159 5.84597 10.3892 6.09662 11.3779 6.58231C12.3667 7.06801 13.2298 7.77561 13.9 8.64988C14.8591 9.89853 15.3856 11.4255 15.4 12.9999Z"
    stroke="white" stroke-linecap="round" stroke-linejoin="round" />
  <path
    d="M14.7003 6.75C14.7006 7.10409 14.63 7.45464 14.4926 7.78098C14.3552 8.10732 14.1538 8.40281 13.9003 8.65C13.2301 7.77573 12.3669 7.06813 11.3782 6.58243C10.3895 6.09673 9.30187 5.84609 8.20029 5.85001C7.11 5.84027 6.03232 6.08353 5.05196 6.5607C4.07159 7.03787 3.21526 7.73594 2.55029 8.60001C2.08149 8.09643 1.8145 7.43787 1.80029 6.75C1.79364 6.40438 1.85598 6.0609 1.98366 5.73966C2.11134 5.41842 2.3018 5.12588 2.5439 4.87912C2.786 4.63237 3.07487 4.43636 3.39362 4.30259C3.71237 4.16881 4.0546 4.09995 4.40029 4.10001C4.83984 4.10911 5.26991 4.22954 5.65029 4.45002C5.68861 3.78678 5.97937 3.16335 6.46287 2.70774C6.94637 2.25213 7.58594 1.9989 8.25029 2C8.91113 2.0106 9.54417 2.26774 10.0252 2.72101C10.5062 3.17428 10.8005 3.79096 10.8503 4.45002C11.2307 4.22954 11.6607 4.10911 12.1003 4.10001C12.446 4.09995 12.7882 4.16881 13.1069 4.30259C13.4257 4.43636 13.7146 4.63237 13.9567 4.87912C14.1988 5.12588 14.3892 5.41842 14.5169 5.73966C14.6446 6.0609 14.7069 6.40438 14.7003 6.75Z"
    stroke="white" stroke-linecap="round" stroke-linejoin="round" />
  <path d="M4.9502 9.84995L5.6002 9.19995" stroke="white" stroke-linecap="round" stroke-linejoin="round" />
  <path d="M8.15039 10.95L8.80039 11.6499" stroke="white" stroke-linecap="round" stroke-linejoin="round" />
  <path d="M10.5 9.54993L10.85 9.19995" stroke="white" stroke-linecap="round" stroke-linejoin="round" />
</svg>