<svg xmlns="http://www.w3.org/2000/svg" width="16" height="16" viewBox="0 0 16 16" fill="none">
  <path d="M6.5 4.55L8 2L13.95 12.35C9.95 14.6 6 14.6 2 12.35L4.9 7.34999" stroke="white" stroke-linejoin="round" />
  <path
    d="M2.84961 10.6001C4.38768 11.5572 6.16304 12.0645 7.97461 12.0645C9.78618 12.0645 11.5615 11.5572 13.0996 10.6001"
    stroke="white" stroke-linejoin="round" />
  <path
    d="M8.95 10.2501C9.47467 10.2501 9.9 9.82478 9.9 9.30011C9.9 8.77544 9.47467 8.3501 8.95 8.3501C8.42533 8.3501 8 8.77544 8 9.30011C8 9.82478 8.42533 10.2501 8.95 10.2501Z"
    stroke="white" stroke-linejoin="round" />
  <path
    d="M7.55039 6.05005C7.55039 6.48766 7.37655 6.90733 7.06712 7.21677C6.75768 7.5262 6.338 7.70004 5.90039 7.70004C5.54006 7.68336 5.19247 7.5617 4.90039 7.35004L6.50039 4.55005C6.8003 4.67381 7.05853 4.88081 7.24459 5.14661C7.43064 5.4124 7.53676 5.72589 7.55039 6.05005Z"
    stroke="white" stroke-linejoin="round" />
</svg>