<svg xmlns="http://www.w3.org/2000/svg" width="16" height="16" viewBox="0 0 16 16" fill="none">
  <path
    d="M6.3 1H12.1C12.7763 1 13.4249 1.26867 13.9031 1.74689C14.3813 2.2251 14.65 2.87372 14.65 3.55002M14.65 3.55002H6.49999C5.0413 3.55002 3.64236 4.12947 2.61091 5.16092C1.57946 6.19237 1 7.59133 1 9.05002C1 10.5087 1.57946 11.9076 2.61091 12.9391C3.64236 13.9705 5.0413 14.55 6.49999 14.55H13.9V11.4L9.55 12.8C9.01906 12.9801 8.46045 13.0647 7.9 13.05C7.25879 13.0502 6.64308 12.7989 6.18503 12.3502C5.72697 11.9015 5.46308 11.2911 5.45 10.65C5.45 10.0002 5.70812 9.37707 6.16759 8.9176C6.62705 8.45814 7.25022 8.20001 7.9 8.20001H9.99999C11.2332 8.20001 12.416 7.71009 13.288 6.83804C14.1601 5.966 14.65 4.78328 14.65 3.55002Z"
    stroke="white" stroke-linecap="round" stroke-linejoin="round" />
  <path d="M7.34961 3.55005V8.25003" stroke="white" stroke-linecap="round" stroke-linejoin="round" />
  <path d="M2.25 5.55005L5.9 9.20004" stroke="white" stroke-linecap="round" stroke-linejoin="round" />
  <path d="M1.5 11.3501H5.55" stroke="white" stroke-linecap="round" stroke-linejoin="round" />
  <path d="M8.2002 13.1499V14.5499" stroke="white" stroke-linecap="round" stroke-linejoin="round" />
  <path
    d="M10.1 5.84991C10.4314 5.84991 10.7 5.58128 10.7 5.24991C10.7 4.91854 10.4314 4.6499 10.1 4.6499C9.76864 4.6499 9.5 4.91854 9.5 5.24991C9.5 5.58128 9.76864 5.84991 10.1 5.84991Z"
    fill="white" />
</svg>