<svg xmlns="http://www.w3.org/2000/svg" width="16" height="16" viewBox="0 0 16 16" fill="none">
  <path
    d="M0.0612932 7.56348C0.057207 7.67463 0.0551639 7.76289 0.0551639 7.8299C0.0551639 9.58207 0.692613 10.6657 1.54254 11.3195C2.40678 11.9848 3.47941 12.1972 4.33751 12.2185C4.41311 12.2201 4.4601 12.2218 4.47644 12.2218C5.85758 12.2218 6.91795 11.6791 7.97424 11.1381C9.23279 10.4925 10.4893 9.85012 12.2423 10.3176C12.5896 10.4108 12.9267 10.4418 13.2434 10.4189C13.7664 10.3813 14.2302 10.1983 14.6164 9.89916C14.9821 9.61476 15.2743 9.22412 15.4684 8.75502C15.7054 8.18622 15.8014 7.49647 15.7156 6.74133C15.7156 6.73316 15.7053 6.72989 15.7033 6.72336C15.7013 6.6972 15.7115 6.67105 15.7074 6.6449C15.6298 5.98457 15.1108 5.27847 13.9381 4.68515C12.3301 3.87445 8.98149 3 6.0006 3C4.90958 3 3.86351 3.11605 2.95637 3.39228C2.02472 3.67668 1.24221 4.13106 0.713044 4.8012C0.259474 5.37654 0 6.10225 0 7.00939C0 7.19245 0.0347328 7.36898 0.0674225 7.54387C0.0694656 7.5504 0.0612932 7.55531 0.0612932 7.56348ZM14.7839 8.57196C14.6266 8.95116 14.3978 9.26171 14.1117 9.48237C13.8461 9.68831 13.5294 9.8158 13.1801 9.84032C12.9594 9.85666 12.7224 9.83378 12.4711 9.76677C10.3871 9.21104 8.98762 9.92858 7.58401 10.6494C6.61762 11.1446 5.64919 11.6399 4.47849 11.6399C4.41106 11.6399 4.3702 11.6399 4.35999 11.6399C3.6449 11.6235 2.75411 11.447 2.04719 10.9027C1.56706 10.5333 1.16866 9.99232 0.95413 9.20941C1.00316 9.26008 1.0665 9.2993 1.11962 9.3467C1.18704 9.40881 1.24425 9.4791 1.31576 9.53794C1.36479 9.57717 1.42404 9.60659 1.47512 9.64418C1.51803 9.67523 1.55072 9.71283 1.59362 9.74225C1.66104 9.78801 1.73868 9.82234 1.81019 9.86483C1.90417 9.92041 1.99816 9.97598 2.09623 10.0266C2.23311 10.0953 2.37613 10.1541 2.52119 10.2113C2.6213 10.2506 2.71937 10.2931 2.82561 10.3274C2.99315 10.3813 3.16886 10.4189 3.34661 10.4565C3.44059 10.4761 3.52844 10.5023 3.62447 10.517C3.90233 10.5595 4.18632 10.5856 4.48053 10.5856C4.98518 10.5856 5.47348 10.5186 5.92909 10.3928C6.40309 10.2636 6.83827 10.0724 7.22442 9.83378C8.01306 9.37776 8.84256 8.96914 9.69658 8.73541C10.1113 8.62263 10.5322 8.55071 10.9572 8.536C11.3821 8.52129 11.8132 8.56542 12.2484 8.67983C12.4527 8.73377 12.653 8.76156 12.8532 8.7779C12.9104 8.78281 12.9635 8.78444 13.0207 8.78607C13.082 8.78771 13.1453 8.79588 13.2046 8.79425C13.3129 8.79098 13.4191 8.77954 13.5233 8.76646C13.5458 8.76319 13.5683 8.76319 13.5887 8.75992C13.7726 8.73377 13.9462 8.68964 14.1138 8.63407C14.1546 8.62099 14.1955 8.60628 14.2364 8.59157C14.3978 8.53273 14.553 8.46572 14.694 8.38236C14.6981 8.38072 14.7001 8.37909 14.7022 8.37582C14.7042 8.37418 14.7083 8.37418 14.7104 8.37255C14.7165 8.36928 14.7185 8.36438 14.7247 8.36111C14.7839 8.32515 14.8411 8.28919 14.8963 8.24996C14.8636 8.36274 14.8268 8.47062 14.7839 8.57196ZM1.33006 5.10848C1.76729 4.55439 2.42517 4.17519 3.21789 3.93329C4.03513 3.68321 4.99539 3.57861 6.00469 3.57861C8.85073 3.57861 12.0359 4.40566 13.556 5.17386C14.5122 5.65604 14.9331 6.20196 14.9903 6.69393C14.9964 6.75114 14.9841 6.80508 14.98 6.86065C14.976 6.96036 14.9596 7.05842 14.9269 7.15159C14.9106 7.19572 14.8942 7.23985 14.8718 7.28398C14.8289 7.36898 14.7757 7.44907 14.7124 7.52589C14.6838 7.56185 14.6593 7.59944 14.6266 7.63376C14.5244 7.73674 14.408 7.83317 14.2711 7.91326C14.2527 7.92307 14.2323 7.92961 14.2139 7.93941C14.0893 8.00643 13.9565 8.06363 13.8134 8.10776C13.7603 8.12411 13.7031 8.13392 13.6459 8.14699C13.5294 8.17314 13.4089 8.19276 13.2843 8.20093C13.2025 8.20747 13.1208 8.21237 13.0371 8.21074C12.9962 8.2091 12.9574 8.2091 12.9165 8.20583C12.7694 8.19439 12.6203 8.17314 12.4711 8.13392C11.9522 7.99498 11.4393 7.94268 10.9388 7.95739C10.4362 7.9721 9.94379 8.05546 9.45958 8.18785C9.44528 8.19112 9.43097 8.19766 9.41667 8.20093C9.19806 8.26141 8.98149 8.33169 8.76901 8.41014C8.68115 8.44283 8.59534 8.48206 8.50749 8.51802C8.36856 8.57359 8.23167 8.62753 8.09478 8.68964C7.98446 8.74031 7.87821 8.79588 7.76993 8.84982C7.6596 8.90376 7.54927 8.95443 7.44099 9.01163C7.31023 9.08028 7.18152 9.15383 7.0528 9.22412C6.97312 9.26825 6.89344 9.31074 6.81376 9.35488C6.79945 9.36141 6.7872 9.36959 6.77494 9.37612C6.67074 9.4415 6.55428 9.49544 6.43987 9.55101C6.37857 9.58207 6.32137 9.61803 6.25599 9.64581C6.07619 9.72427 5.88823 9.78965 5.69209 9.84359C5.31207 9.94819 4.90345 10.0038 4.47644 10.0038C4.23127 10.0038 3.99018 9.98252 3.75727 9.94656C3.68372 9.93512 3.61425 9.91387 3.5407 9.89916C3.38543 9.86647 3.23015 9.83214 3.08305 9.78474C3.00337 9.75859 2.92981 9.72754 2.85217 9.69812C2.72142 9.64745 2.59066 9.59351 2.46807 9.5314C2.39452 9.49381 2.32301 9.45131 2.2515 9.40881C2.13913 9.3418 2.03085 9.27152 1.92869 9.19633C1.86127 9.14566 1.79589 9.09336 1.73255 9.03942C1.63857 8.95933 1.55072 8.8727 1.46899 8.78444C1.41383 8.7256 1.36071 8.66512 1.31167 8.60301C1.23608 8.50658 1.1707 8.40687 1.10941 8.3039C1.07059 8.24016 1.02973 8.17641 0.997035 8.1094C0.941872 7.99662 0.90101 7.88057 0.86219 7.76125C0.841759 7.69587 0.813156 7.63376 0.798854 7.56675C0.755949 7.38532 0.727346 7.19899 0.727346 7.00612C0.729389 6.21503 0.950044 5.59066 1.33006 5.10848Z"
    fill="white" />
  <path
    d="M6.2583 8.68111L7.99494 7.26074L10.4283 6.86029C10.559 6.83904 10.6714 6.75895 10.7061 6.64781C10.7552 6.49253 10.6387 6.33562 10.4446 6.29639L8.03784 5.80278L6.40336 4.33011C6.3155 4.24021 6.16431 4.19608 6.01925 4.22877C5.8272 4.27127 5.71483 4.43145 5.76795 4.58672L6.43809 6.50234L5.66171 8.37219C5.60859 8.47843 5.63719 8.60265 5.74548 8.68764C5.88849 8.79879 6.11937 8.79552 6.2583 8.68111ZM6.88962 5.63933L7.56997 6.25226C7.62309 6.29966 7.69051 6.33072 7.76406 6.34379L8.7468 6.54484L7.74159 6.70992C7.66804 6.72136 7.60266 6.75078 7.55362 6.79164L6.83649 7.37842L7.16135 6.59877C7.18587 6.54157 7.18587 6.48272 7.16543 6.43042L6.88962 5.63933Z"
    fill="white" />
</svg>