<svg xmlns="http://www.w3.org/2000/svg" width="16" height="16" viewBox="0 0 16 16" fill="none">
  <path
    d="M14.7491 7.38798C15.0503 6.8286 15.2078 6.23697 15.2078 5.63656V3.73117L14.4124 4.24058L14.2629 3.85786C14.6474 3.51503 15.1585 3.23559 15.7489 3.04654L15.9997 2.96622L15.7102 2.59552L15.4594 2.67584C14.7433 2.90516 14.128 3.24944 13.6762 3.67247L13.2703 3.87244C13.6148 3.30988 14.1776 2.80606 14.9076 2.41647L15.0914 2.3184L14.6771 2L14.4933 2.09807C13.4285 2.66636 12.6825 3.4525 12.3836 4.31832C11.7744 4.64195 11.2043 4.99343 10.6777 5.36921V3.73119L9.88228 4.24061L9.73287 3.85789C10.1173 3.51506 10.6284 3.23561 11.2188 3.04657L11.4696 2.96624L11.1801 2.59554L10.9293 2.67587C10.2132 2.90519 9.59793 3.24947 9.1461 3.6725L8.74021 3.87244C9.08474 3.30988 9.64768 2.80598 10.3776 2.41647L10.5613 2.3184L10.147 2L9.96325 2.09807C8.90309 2.66385 8.15858 3.446 7.85725 4.30741L7.8471 4.31241C6.57661 4.93829 5.58076 5.74699 4.92847 6.665C3.64957 6.79617 2.55572 7.0041 1.75734 7.26896C0.572033 7.66215 0.323242 8.088 0.323242 8.37599V8.99767C0.323242 10.4736 1.33268 11.8012 2.93224 12.7128C1.8447 12.9304 1.29397 13.2135 1.29397 13.5566C1.29397 13.9488 2.01418 14.2629 3.43456 14.4904C4.68179 14.69 6.33478 14.8 8.08909 14.8C9.84341 14.8 11.4964 14.69 12.7436 14.4904C14.164 14.2629 14.8842 13.9488 14.8842 13.5566C14.8842 13.2135 14.3335 12.9304 13.2459 12.7128C14.8455 11.8012 15.8549 10.4736 15.8549 8.99767V8.37599C15.8549 8.11877 15.6552 7.74706 14.7491 7.38798ZM12.9428 5.06037C12.9428 5.17463 12.7976 5.26759 12.6192 5.26759C12.4408 5.26759 12.2956 5.17463 12.2956 5.06037C12.2956 4.94611 12.4408 4.85314 12.6192 4.85314C12.7976 4.85314 12.9428 4.94611 12.9428 5.06037ZM8.08909 4.85314C8.26751 4.85314 8.41267 4.94611 8.41267 5.06037C8.41267 5.17463 8.26751 5.26759 8.08909 5.26759C7.91068 5.26759 7.76552 5.17463 7.76552 5.06037C7.76552 4.94611 7.91068 4.85314 8.08909 4.85314ZM7.17062 5.26114C7.30135 5.50567 7.66355 5.68205 8.08909 5.68205C8.62433 5.68205 9.05982 5.40317 9.05982 5.06037C9.05982 4.81675 8.83975 4.60551 8.52034 4.50363L9.18926 4.17409L9.53168 5.05125L10.0306 4.73176V5.63656C10.0306 5.71352 10.0269 5.79113 10.0213 5.86834C9.11144 6.60625 8.35847 7.42314 7.79043 8.29628L8.38784 8.45569C9.1622 7.26546 10.2941 6.18403 11.7077 5.27423C11.8441 5.51199 12.2012 5.68205 12.6192 5.68205C13.1545 5.68205 13.5899 5.40317 13.5899 5.06037C13.5899 4.81724 13.3708 4.60639 13.0524 4.50425C13.114 4.47288 13.176 4.44177 13.2385 4.411L13.7194 4.17409L14.0618 5.05125L14.5606 4.73176V5.63656C14.5606 6.81915 13.8988 7.96493 12.6971 8.86281L13.1884 9.13252C13.487 8.90941 13.7545 8.67204 13.99 8.42344C14.3627 8.53869 14.6597 8.66341 14.8674 8.79186C13.9825 9.33824 11.442 9.82657 8.08909 9.82657C4.73586 9.82657 2.19534 9.33814 1.31056 8.79174C1.82913 8.47041 2.88581 8.18438 4.25244 7.99601C4.23804 8.04111 4.22429 8.08631 4.21139 8.13172L4.8481 8.20585C5.1642 7.09238 5.97423 6.07334 7.17062 5.26114ZM15.1373 9.63789C14.07 10.2394 11.206 10.6555 8.08909 10.6555C4.97216 10.6555 2.10821 10.2394 1.04094 9.63792C1.00567 9.47794 0.98338 9.31534 0.974846 9.15055C1.38009 9.375 1.96762 9.57629 2.72034 9.74394C4.15929 10.0645 6.06597 10.241 8.08909 10.241C10.1122 10.241 12.0189 10.0645 13.4578 9.74394C14.2106 9.57627 14.7981 9.37497 15.2033 9.15055C15.1948 9.31534 15.1725 9.47794 15.1373 9.63789ZM4.64025 7.11704C4.55939 7.25958 4.48626 7.40423 4.42163 7.55092C2.85273 7.74444 1.65945 8.04911 0.97614 8.4265C0.972661 8.40964 0.970396 8.39277 0.970396 8.37599C0.970396 7.96521 2.12367 7.41487 4.64025 7.11704ZM14.2371 13.5566C14.2371 13.631 13.9406 13.8715 12.5867 14.0883C11.3893 14.2799 9.792 14.3855 8.08909 14.3855C6.38619 14.3855 4.78889 14.28 3.59153 14.0883C2.23761 13.8715 1.94113 13.631 1.94113 13.5566C1.94113 13.4815 2.23522 13.2457 3.55189 13.0314C4.82913 13.6223 6.39662 13.9711 8.08909 13.9711C9.78156 13.9711 11.3491 13.6223 12.6263 13.0315C13.943 13.2457 14.2371 13.4815 14.2371 13.5566ZM8.08909 13.5566C4.82756 13.5566 2.07161 12.1446 1.23274 10.225C1.79879 10.4304 2.54767 10.6077 3.44795 10.7476C4.80531 10.9585 6.41017 11.0699 8.08909 11.0699C9.76797 11.0699 11.3728 10.9585 12.7302 10.7476C13.6305 10.6077 14.3794 10.4304 14.9455 10.225C14.1066 12.1446 11.3506 13.5566 8.08909 13.5566ZM15.202 8.42642C14.965 8.29579 14.6648 8.17355 14.3046 8.06059C14.377 7.96887 14.445 7.87585 14.509 7.78174C14.962 7.97498 15.2078 8.18184 15.2078 8.37599C15.2078 8.39275 15.2055 8.40958 15.202 8.42642Z"
    fill="white" />
  <path
    d="M10.3545 9.41206C11.2896 9.41206 12.296 9.2175 12.296 8.79038C12.296 8.36323 11.2896 8.1687 10.3545 8.1687C9.41949 8.1687 8.41309 8.36323 8.41309 8.79038C8.41309 9.2175 9.41949 9.41206 10.3545 9.41206ZM10.3545 8.58315C11.1141 8.58315 11.5574 8.72256 11.6408 8.79038C11.5574 8.85819 11.1141 8.99761 10.3545 8.99761C9.59499 8.99761 9.15169 8.85819 9.06829 8.79038C9.15169 8.72256 9.59503 8.58315 10.3545 8.58315Z"
    fill="white" />
  <path
    d="M3.84837 8.2832L3.26953 8.46857C3.52431 8.79487 4.03645 8.99756 4.60607 8.99756H4.85328V8.58311H4.60611C4.28314 8.58311 3.99285 8.46818 3.84837 8.2832Z"
    fill="white" />
  <path
    d="M8.05542 8.88312L7.47658 8.69775C7.33214 8.88276 7.04181 8.99766 6.71888 8.99766H5.50098V9.41211H6.71888C7.2885 9.41211 7.80064 9.20942 8.05542 8.88312Z"
    fill="white" />
  <path
    d="M13.9013 6.36454L13.9075 6.34442L13.273 6.26318L13.2667 6.28328C13.0686 6.91781 12.6434 7.52682 12.0371 8.0445L12.5549 8.2932C13.2187 7.7263 13.6843 7.0594 13.9013 6.36454Z"
    fill="white" />
  <path
    d="M6.47167 8.58318C6.76677 8.58318 7.0442 8.50959 7.25286 8.37595L7.34763 8.31526L6.89001 8.02222L6.79524 8.08291C6.70881 8.13826 6.5939 8.16873 6.47167 8.16873C6.34944 8.16873 6.23453 8.13824 6.14809 8.08291L6.05332 8.02222L5.5957 8.31526L5.69047 8.37598C5.89914 8.50959 6.17656 8.58318 6.47167 8.58318Z"
    fill="white" />
  <path
    d="M0.370172 4.94471C0.131494 5.09762 0 5.30088 0 5.5171C0 5.81698 0.252795 6.08741 0.662565 6.22907C0.728251 6.50917 1.00022 6.75211 1.40485 6.88168L1.47317 6.90357L1.76261 6.53287L1.69429 6.51098C1.44756 6.43197 1.29431 6.27316 1.29431 6.09653V5.96846L0.988164 5.87042C0.777839 5.80307 0.647154 5.66767 0.647154 5.51707C0.647154 5.41154 0.711303 5.31236 0.827832 5.23773L0.970731 5.14624C1.1794 5.0126 1.29431 4.83493 1.29431 4.64597C1.29431 4.45701 1.1794 4.27933 0.970731 4.1457L0.781196 4.02429C0.69472 3.96894 0.647154 3.89532 0.647154 3.81706C0.647154 3.73881 0.694761 3.66519 0.781196 3.60984L0.875964 3.54915L0.418345 3.2561L0.323577 3.31679C0.11491 3.45043 0 3.6281 0 3.81706C0 4.00603 0.11491 4.1837 0.323577 4.31733L0.513112 4.43874C0.599588 4.4941 0.647154 4.56772 0.647154 4.64597C0.647154 4.72422 0.599548 4.79784 0.513112 4.8532L0.370172 4.94471Z"
    fill="white" />
  <path
    d="M4.6643 5.26765L4.34081 5.06042C4.25433 5.00507 4.20677 4.93145 4.20677 4.8532C4.20677 4.77494 4.25437 4.70133 4.34081 4.64597L4.43557 4.58528L3.97792 4.29224L3.88315 4.35293C3.67448 4.48656 3.55957 4.66423 3.55957 4.8532C3.55957 5.00414 3.63286 5.14782 3.76868 5.26765C3.6329 5.38748 3.55957 5.53119 3.55957 5.6821C3.55957 5.87107 3.67448 6.04874 3.88315 6.18237L3.97792 6.24306L4.43553 5.95002L4.34077 5.8893C4.25429 5.83395 4.20672 5.76033 4.20672 5.68208C4.20672 5.60382 4.25433 5.53021 4.34077 5.47485L4.6643 5.26765Z"
    fill="white" />
  <path
    d="M3.6044 3.4594C3.66167 3.42269 3.73788 3.40249 3.81889 3.40249C3.93453 3.40249 4.03852 3.44365 4.09025 3.50988L4.28877 3.76418L4.45355 3.81694C4.70028 3.89595 4.85353 4.05476 4.85353 4.23139V4.35946L5.1007 4.43862C5.34743 4.51763 5.50069 4.67644 5.50069 4.85307H6.14784C6.14784 4.54192 5.89687 4.25999 5.48596 4.10164C5.42295 3.82699 5.1617 3.58775 4.77142 3.45559L4.66909 3.32452C4.50702 3.11696 4.18126 2.98804 3.81889 2.98804C3.56505 2.98804 3.32633 3.05134 3.14678 3.16633L3.00684 3.25595L3.46445 3.549L3.6044 3.4594Z"
    fill="white" />
  <path
    d="M1.94174 4.11011L2.13128 4.23152C2.21775 4.28687 2.26532 4.36049 2.26532 4.43874C2.26532 4.517 2.21771 4.59061 2.13128 4.64597L2.03651 4.70666L2.49413 4.9997L2.5889 4.93901C2.79756 4.80538 2.91247 4.62771 2.91247 4.43874C2.91247 4.24978 2.79756 4.07211 2.5889 3.93847L2.39936 3.81706C2.31288 3.76171 2.26532 3.68809 2.26532 3.60984C2.26532 3.53158 2.31292 3.45797 2.39936 3.40261L2.72286 3.19538L2.39936 2.98816C2.31288 2.9328 2.26532 2.85919 2.26532 2.78093C2.26532 2.70268 2.31292 2.62906 2.39936 2.57371L2.49413 2.51301L2.03651 2.21997L1.94174 2.28066C1.73307 2.4143 1.61816 2.59197 1.61816 2.78093C1.61816 2.93187 1.69145 3.07556 1.82728 3.19538C1.69149 3.31521 1.61816 3.45892 1.61816 3.60984C1.61816 3.7988 1.73307 3.97647 1.94174 4.11011Z"
    fill="white" />
  <path
    d="M5.82474 3.19523V3.32329L6.3042 3.47682C6.40767 3.50995 6.4719 3.57652 6.4719 3.65058C6.4719 3.70246 6.44035 3.75127 6.38303 3.78797L6.24309 3.8776L6.70071 4.17064L6.84065 4.08101C7.02016 3.96606 7.11905 3.81317 7.11905 3.65058C7.11905 3.41854 6.9177 3.20989 6.59364 3.10612L6.45636 3.06216C6.39048 2.7823 6.11863 2.53956 5.7142 2.41007L5.64589 2.38818L5.35645 2.75889L5.42476 2.78077C5.67149 2.85978 5.82474 3.01859 5.82474 3.19523Z"
    fill="white" />
</svg>