<svg width="31" height="31" viewBox="0 0 31 31" fill="none" xmlns="http://www.w3.org/2000/svg">
<rect x="0.11438" y="0.38562" width="30" height="30" rx="15" fill="black"/>
<path d="M23.0186 20.082C22.7223 20.7633 22.3717 21.3904 21.9654 21.967C21.4116 22.753 20.9582 23.297 20.6087 23.5992C20.067 24.0951 19.4867 24.349 18.8651 24.3635C18.419 24.3635 17.8809 24.2371 17.2546 23.9807C16.6262 23.7255 16.0487 23.5992 15.5207 23.5992C14.9669 23.5992 14.3729 23.7255 13.7376 23.9807C13.1014 24.2371 12.5888 24.3707 12.197 24.3839C11.601 24.4092 11.0069 24.148 10.4139 23.5992C10.0355 23.2706 9.5621 22.7072 8.99502 21.9092C8.38657 21.057 7.88635 20.0688 7.49447 18.9422C7.07477 17.7253 6.86438 16.5469 6.86438 15.406C6.86438 14.0992 7.14805 12.9721 7.71622 12.0276C8.16276 11.2689 8.75681 10.6704 9.50032 10.2311C10.2438 9.79177 11.0472 9.56789 11.9123 9.55356C12.3857 9.55356 13.0065 9.69933 13.7779 9.9858C14.5472 10.2732 15.0411 10.419 15.2577 10.419C15.4196 10.419 15.9683 10.2486 16.8985 9.90877C17.7781 9.59365 18.5205 9.46317 19.1287 9.51457C20.7768 9.64697 22.015 10.2937 22.8384 11.4588C21.3645 12.3479 20.6353 13.5931 20.6498 15.1905C20.6631 16.4347 21.1166 17.4701 22.0077 18.2922C22.4116 18.6737 22.8626 18.9686 23.3644 19.1781C23.2556 19.4922 23.1407 19.7932 23.0186 20.082ZM19.2388 5.27573C19.2388 6.25095 18.8809 7.16152 18.1675 8.00432C17.3066 9.00626 16.2652 9.58522 15.136 9.49386C15.1216 9.37687 15.1133 9.25373 15.1133 9.12434C15.1133 8.18812 15.5227 7.18619 16.2498 6.36698C16.6128 5.95219 17.0744 5.60731 17.6342 5.33218C18.1929 5.06116 18.7213 4.91129 19.2182 4.88562C19.2327 5.01599 19.2388 5.14637 19.2388 5.27572V5.27573Z" fill="white"/>
</svg>
