<svg width="12" height="15" viewBox="0 0 12 15" fill="none" xmlns="http://www.w3.org/2000/svg">
<g clip-path="url(#clip0_2793_21813)">
<path fill-rule="evenodd" clip-rule="evenodd" d="M5.99998 3.77344C5.5253 3.77344 5.06129 3.91029 4.66661 4.16667C4.27193 4.42306 3.96432 4.78748 3.78267 5.21384C3.60102 5.6402 3.55349 6.10936 3.64609 6.56198C3.7387 7.0146 3.96727 7.43036 4.30292 7.75669C4.63857 8.08301 5.06621 8.30524 5.53176 8.39527C5.99732 8.4853 6.47988 8.43909 6.91842 8.26249C7.35696 8.08589 7.73179 7.78682 7.9955 7.4031C8.25922 7.01939 8.39998 6.56826 8.39998 6.10677C8.39998 5.48793 8.14712 4.89444 7.69703 4.45685C7.24695 4.01927 6.6365 3.77344 5.99998 3.77344ZM4.79998 6.10677C4.79998 5.87603 4.87036 5.65046 5.00221 5.45861C5.13407 5.26675 5.32149 5.11721 5.54076 5.02891C5.76003 4.94061 6.00131 4.91751 6.23409 4.96252C6.46686 5.00754 6.68068 5.11865 6.84851 5.28181C7.01633 5.44497 7.13062 5.65285 7.17692 5.87917C7.22322 6.10548 7.19946 6.34005 7.10863 6.55323C7.01781 6.76642 6.864 6.94862 6.66666 7.07682C6.46932 7.20501 6.23732 7.27344 5.99998 7.27344C5.68172 7.27344 5.37649 7.15052 5.15145 6.93173C4.92641 6.71294 4.79998 6.41619 4.79998 6.10677Z" fill="#A4A8B7"/>
<path fill-rule="evenodd" clip-rule="evenodd" d="M6 0.273247C5.21994 0.265548 4.44595 0.40731 3.72225 0.69044C2.99854 0.97357 2.33928 1.39252 1.78212 1.92337C1.22496 2.45422 0.780815 3.08657 0.475036 3.78431C0.169257 4.48205 0.00783963 5.23152 0 5.98991C0 8.13075 1.32 10.1899 2.622 11.6657C3.20149 12.3222 3.83783 12.9292 4.524 13.4799C4.76578 13.672 5.01816 13.8512 5.28 14.0166C5.38286 14.0766 5.48901 14.1312 5.598 14.1799C5.72257 14.2414 5.8603 14.2734 6 14.2734C6.1397 14.2734 6.27743 14.2414 6.402 14.1799C6.51099 14.1312 6.61714 14.0766 6.72 14.0166C6.98184 13.8512 7.23422 13.672 7.476 13.4799C8.16217 12.9292 8.79851 12.3222 9.378 11.6657C10.68 10.1899 12 8.13075 12 5.98991C11.9922 5.23152 11.8307 4.48205 11.525 3.78431C11.2192 3.08657 10.775 2.45422 10.2179 1.92337C9.66072 1.39252 9.00146 0.97357 8.27775 0.69044C7.55405 0.40731 6.78006 0.265548 6 0.273247V0.273247ZM1.2 5.98991C1.20783 5.38472 1.3382 4.78696 1.58367 4.23076C1.82914 3.67456 2.1849 3.17082 2.63063 2.74831C3.07636 2.32579 3.60333 1.99278 4.18146 1.76828C4.75958 1.54378 5.37752 1.4322 6 1.43991C6.62248 1.4322 7.24042 1.54378 7.81854 1.76828C8.39667 1.99278 8.92364 2.32579 9.36937 2.74831C9.8151 3.17082 10.1709 3.67456 10.4163 4.23076C10.6618 4.78696 10.7922 5.38472 10.8 5.98991C10.8 7.69908 9.72 9.48991 8.472 10.9016C7.93795 11.507 7.35183 12.0671 6.72 12.5757C6.52921 12.7349 6.32885 12.883 6.12 13.0191L6.03 13.0716L5.94 13.0191C5.73115 12.883 5.53079 12.7349 5.34 12.5757C4.70817 12.0671 4.12205 11.507 3.588 10.9016C2.28 9.48991 1.2 7.69908 1.2 5.98991Z" fill="#A4A8B7"/>
</g>
<defs>
<clipPath id="clip0_2793_21813">
<rect width="12" height="14" fill="white" transform="translate(0 0.273438)"/>
</clipPath>
</defs>
</svg>
