<svg width="32" height="33" viewBox="0 0 32 33" fill="none" xmlns="http://www.w3.org/2000/svg">
    <g id="Cozy Icon">
        <path id="Vector"
            d="M10.8267 14.0757H4.36365V5.28247C4.36365 4.42526 3.49577 3.73096 2.42426 3.73096C1.35274 3.73096 0.484863 4.42526 0.484863 5.28247V15.6272C0.484863 16.4844 1.35274 17.1787 2.42426 17.1787H3.51517L1.80365 22.2134C1.71153 22.4888 1.91517 22.7719 2.25941 22.8495C2.31759 22.8611 2.37092 22.8689 2.42911 22.8689C2.71517 22.8689 2.97214 22.7176 3.05456 22.4888L4.8582 17.1787H7.74789L9.55638 22.4849C9.63395 22.7137 9.89577 22.865 10.1818 22.865C10.24 22.865 10.2933 22.8573 10.3515 22.8456C10.6958 22.7719 10.8994 22.4849 10.8073 22.2095L9.09092 17.1787H10.8315C11.903 17.1787 12.7709 16.4844 12.7709 15.6272C12.7661 14.77 11.8982 14.0757 10.8267 14.0757Z"
            fill="white" />
        <path id="Vector_2"
            d="M29.5757 3.73486C28.5042 3.73486 27.6363 4.42917 27.6363 5.28638V14.0757H21.1733C20.1018 14.0757 19.2339 14.77 19.2339 15.6272C19.2339 16.4844 20.1018 17.1787 21.1733 17.1787H22.9139L21.1975 22.2134C21.1054 22.4888 21.309 22.772 21.6533 22.8495C21.7115 22.8612 21.7648 22.8689 21.823 22.8689C22.109 22.8689 22.366 22.7176 22.4484 22.4888L24.2521 17.1787H27.1418L28.9503 22.4849C29.0278 22.7138 29.2896 22.865 29.5757 22.865C29.6339 22.865 29.6872 22.8573 29.7454 22.8457C30.0896 22.772 30.2933 22.4849 30.2012 22.2095L28.4799 17.1787H29.5757C30.6472 17.1787 31.5151 16.4844 31.5151 15.6272V5.2825C31.5151 4.42917 30.6424 3.73486 29.5757 3.73486Z"
            fill="white" />
        <path id="Vector_3"
            d="M17.9395 21.8333H16.645V15.1113H17.2898C17.6486 15.1113 17.9347 14.8786 17.9347 14.5955V13.0439H23.108C24.1795 13.0439 25.0474 12.3496 25.0474 11.4924C25.0474 10.6352 24.1795 9.94092 23.108 9.94092H8.88739C7.81588 9.94092 6.948 10.6352 6.948 11.4924C6.948 12.3496 7.81588 13.0439 8.88739 13.0439H14.0607V14.5955C14.0607 14.8825 14.3516 15.1113 14.7056 15.1113H15.3504V21.8333H14.0607C13.7019 21.8333 13.4159 22.066 13.4159 22.3492C13.4159 22.6323 13.7068 22.865 14.0607 22.865H17.9395C18.2983 22.865 18.5844 22.6323 18.5844 22.3492C18.5844 22.066 18.2983 21.8333 17.9395 21.8333ZM8.24254 11.4886C8.24254 11.2054 8.53345 10.9727 8.88739 10.9727H23.108C23.4668 10.9727 23.7577 11.2054 23.7577 11.4886C23.7577 11.7756 23.4668 12.0044 23.1128 12.0044H8.88739C8.53345 12.0083 8.24254 11.7756 8.24254 11.4886Z"
            fill="white" />
    </g>
</svg>