<svg width="32" height="33" viewBox="0 0 32 33" fill="none" xmlns="http://www.w3.org/2000/svg">
    <g id="Icon-Basket">
        <path id="Vector"
            d="M16.9999 15.5002V22.5002C16.9999 22.7655 16.8946 23.0198 16.707 23.2073C16.5195 23.3949 16.2651 23.5002 15.9999 23.5002C15.7347 23.5002 15.4803 23.3949 15.2928 23.2073C15.1053 23.0198 14.9999 22.7655 14.9999 22.5002V15.5002C14.9999 15.235 15.1053 14.9807 15.2928 14.7931C15.4803 14.6056 15.7347 14.5002 15.9999 14.5002C16.2651 14.5002 16.5195 14.6056 16.707 14.7931C16.8946 14.9807 16.9999 15.235 16.9999 15.5002ZM29.9824 12.764L28.2499 25.7652C28.1857 26.2457 27.9491 26.6865 27.5842 27.0057C27.2193 27.3248 26.7509 27.5006 26.2662 27.5002H5.73367C5.2489 27.5006 4.78051 27.3248 4.41561 27.0057C4.05071 26.6865 3.81415 26.2457 3.74992 25.7652L2.01617 12.7652C1.97839 12.4826 2.00148 12.1952 2.08389 11.9222C2.1663 11.6492 2.30613 11.397 2.494 11.1825C2.68187 10.968 2.91343 10.7962 3.17316 10.6785C3.43289 10.5608 3.71478 10.5 3.99992 10.5002H8.54617L15.2499 2.84149C15.3438 2.73509 15.4592 2.64986 15.5885 2.59149C15.7178 2.53312 15.858 2.50293 15.9999 2.50293C16.1418 2.50293 16.282 2.53312 16.4114 2.59149C16.5407 2.64986 16.6561 2.73509 16.7499 2.84149L23.4537 10.5002H27.9999C28.2847 10.5004 28.5662 10.5614 28.8255 10.6792C29.0849 10.7969 29.3161 10.9687 29.5036 11.1831C29.6912 11.3974 29.8308 11.6493 29.9132 11.9219C29.9956 12.1946 30.0187 12.4817 29.9812 12.764H29.9824ZM11.2037 10.5002H20.7962L15.9999 5.01899L11.2037 10.5002ZM27.9999 12.5002H3.99992L5.73367 25.5002H26.2662L27.9999 12.5002ZM21.6049 15.4002L20.9049 22.4002C20.8911 22.5313 20.9033 22.6638 20.9408 22.7901C20.9784 22.9164 21.0405 23.0341 21.1237 23.1363C21.2069 23.2386 21.3094 23.3233 21.4255 23.3858C21.5415 23.4482 21.6688 23.4871 21.7999 23.5002C21.8336 23.5021 21.8674 23.5021 21.9012 23.5002C22.1489 23.4999 22.3876 23.4077 22.5712 23.2414C22.7548 23.0752 22.8702 22.8467 22.8949 22.6002L23.5949 15.6002C23.6214 15.3364 23.542 15.0727 23.3742 14.8674C23.2064 14.662 22.9638 14.5318 22.6999 14.5052C22.436 14.4787 22.1724 14.5581 21.9671 14.726C21.7617 14.8938 21.6314 15.1364 21.6049 15.4002ZM10.3949 15.4002C10.3684 15.1364 10.2381 14.8938 10.0328 14.726C9.82743 14.5581 9.56381 14.4787 9.29992 14.5052C9.03603 14.5318 8.79348 14.662 8.62564 14.8674C8.45779 15.0727 8.3784 15.3364 8.40492 15.6002L9.10492 22.6002C9.12979 22.8478 9.24603 23.0771 9.43094 23.2435C9.61585 23.41 9.85615 23.5015 10.1049 23.5002C10.1386 23.5021 10.1724 23.5021 10.2062 23.5002C10.3368 23.4871 10.4636 23.4484 10.5793 23.3862C10.695 23.3241 10.7973 23.2398 10.8805 23.1381C10.9636 23.0364 11.0258 22.9194 11.0637 22.7936C11.1016 22.6679 11.1143 22.5359 11.1012 22.4052L10.3949 15.4002Z"
            fill="white" />
    </g>
</svg>