<svg width="33" height="33" viewBox="0 0 33 33" fill="none" xmlns="http://www.w3.org/2000/svg">
    <g id="Icon-TrendUp">
        <path id="Vector"
            d="M30.5001 7.5V15.5C30.5002 15.6979 30.4417 15.8914 30.3318 16.056C30.2219 16.2206 30.0657 16.3489 29.8829 16.4246C29.7 16.5004 29.4988 16.5202 29.3048 16.4815C29.1107 16.4429 28.9324 16.3475 28.7926 16.2075L25.5001 12.9138L18.2076 20.2075C18.1147 20.3005 18.0044 20.3742 17.883 20.4246C17.7616 20.4749 17.6315 20.5008 17.5001 20.5008C17.3687 20.5008 17.2385 20.4749 17.1171 20.4246C16.9957 20.3742 16.8854 20.3005 16.7926 20.2075L12.5001 15.9137L4.20757 24.2075C4.01993 24.3951 3.76543 24.5006 3.50007 24.5006C3.2347 24.5006 2.98021 24.3951 2.79257 24.2075C2.60493 24.0199 2.49951 23.7654 2.49951 23.5C2.49951 23.2346 2.60493 22.9801 2.79257 22.7925L11.7926 13.7925C11.8854 13.6995 11.9957 13.6258 12.1171 13.5754C12.2385 13.5251 12.3687 13.4992 12.5001 13.4992C12.6315 13.4992 12.7616 13.5251 12.883 13.5754C13.0044 13.6258 13.1147 13.6995 13.2076 13.7925L17.5001 18.0863L24.0863 11.5L20.7926 8.2075C20.6526 8.06764 20.5572 7.88939 20.5185 7.69531C20.4799 7.50122 20.4997 7.30003 20.5754 7.11721C20.6512 6.93439 20.7795 6.77815 20.9441 6.66828C21.1087 6.55841 21.3022 6.49984 21.5001 6.5H29.5001C29.7653 6.5 30.0196 6.60536 30.2072 6.79289C30.3947 6.98043 30.5001 7.23478 30.5001 7.5Z"
            fill="white" />
    </g>
</svg>