<svg width="33" height="33" viewBox="0 0 33 33" fill="none" xmlns="http://www.w3.org/2000/svg">
    <g id="Icon-CallBell">
        <path id="Vector"
            d="M2.5 22.5C2.5 22.2348 2.60536 21.9804 2.79289 21.7929C2.98043 21.6054 3.23478 21.5 3.5 21.5H4.5V19.5C4.50364 16.4916 5.63571 13.5941 7.67245 11.3801C9.70919 9.16605 12.5024 7.79664 15.5 7.5425V5.5H13.5C13.2348 5.5 12.9804 5.39464 12.7929 5.20711C12.6054 5.01957 12.5 4.76522 12.5 4.5C12.5 4.23478 12.6054 3.98043 12.7929 3.79289C12.9804 3.60536 13.2348 3.5 13.5 3.5H19.5C19.7652 3.5 20.0196 3.60536 20.2071 3.79289C20.3946 3.98043 20.5 4.23478 20.5 4.5C20.5 4.76522 20.3946 5.01957 20.2071 5.20711C20.0196 5.39464 19.7652 5.5 19.5 5.5H17.5V7.5425C20.4976 7.79664 23.2908 9.16605 25.3276 11.3801C27.3643 13.5941 28.4964 16.4916 28.5 19.5V21.5H29.5C29.7652 21.5 30.0196 21.6054 30.2071 21.7929C30.3946 21.9804 30.5 22.2348 30.5 22.5C30.5 22.7652 30.3946 23.0196 30.2071 23.2071C30.0196 23.3946 29.7652 23.5 29.5 23.5H3.5C3.23478 23.5 2.98043 23.3946 2.79289 23.2071C2.60536 23.0196 2.5 22.7652 2.5 22.5ZM29.5 25.5H3.5C3.23478 25.5 2.98043 25.6054 2.79289 25.7929C2.60536 25.9804 2.5 26.2348 2.5 26.5C2.5 26.7652 2.60536 27.0196 2.79289 27.2071C2.98043 27.3946 3.23478 27.5 3.5 27.5H29.5C29.7652 27.5 30.0196 27.3946 30.2071 27.2071C30.3946 27.0196 30.5 26.7652 30.5 26.5C30.5 26.2348 30.3946 25.9804 30.2071 25.7929C30.0196 25.6054 29.7652 25.5 29.5 25.5Z"
            fill="white" />
    </g>
</svg>