<svg width="33" height="33" viewBox="0 0 33 33" fill="none" xmlns="http://www.w3.org/2000/svg">
    <g id="Icon-Cake">
        <path id="Vector"
            d="M26.5 11.5002H17.5V10.3752C18.3583 10.1522 19.1185 9.65087 19.6613 8.94966C20.2042 8.24844 20.4992 7.38696 20.5 6.50016C20.5 3.00016 17.195 0.761411 17.055 0.667661C16.8907 0.558022 16.6975 0.499512 16.5 0.499512C16.3025 0.499512 16.1093 0.558022 15.945 0.667661C15.805 0.761411 12.5 3.00016 12.5 6.50016C12.5008 7.38696 12.7958 8.24844 13.3387 8.94966C13.8815 9.65087 14.6417 10.1522 15.5 10.3752V11.5002H6.5C5.70435 11.5002 4.94129 11.8162 4.37868 12.3788C3.81607 12.9414 3.5 13.7045 3.5 14.5002V17.4164C3.50103 18.5073 3.85148 19.5692 4.5 20.4464V25.5002C4.5 26.2958 4.81607 27.0589 5.37868 27.6215C5.94129 28.1841 6.70435 28.5002 7.5 28.5002H25.5C26.2956 28.5002 27.0587 28.1841 27.6213 27.6215C28.1839 27.0589 28.5 26.2958 28.5 25.5002V20.4464C29.1485 19.5692 29.499 18.5073 29.5 17.4164V14.5002C29.5 13.7045 29.1839 12.9414 28.6213 12.3788C28.0587 11.8162 27.2956 11.5002 26.5 11.5002ZM14.5 6.50016C14.5 4.80391 15.75 3.44266 16.5 2.77641C17.25 3.44266 18.5 4.80391 18.5 6.50016C18.5 7.03059 18.2893 7.5393 17.9142 7.91437C17.5391 8.28945 17.0304 8.50016 16.5 8.50016C15.9696 8.50016 15.4609 8.28945 15.0858 7.91437C14.7107 7.5393 14.5 7.03059 14.5 6.50016ZM27.5 17.4164C27.5 19.0727 26.1925 20.4552 24.585 20.4989C24.184 20.5103 23.7849 20.4411 23.4111 20.2955C23.0374 20.1499 22.6966 19.9309 22.409 19.6513C22.1213 19.3717 21.8927 19.0373 21.7366 18.6678C21.5805 18.2983 21.5 17.9013 21.5 17.5002C21.5 17.2349 21.3946 16.9806 21.2071 16.7931C21.0196 16.6055 20.7652 16.5002 20.5 16.5002C20.2348 16.5002 19.9804 16.6055 19.7929 16.7931C19.6054 16.9806 19.5 17.2349 19.5 17.5002C19.5 18.2958 19.1839 19.0589 18.6213 19.6215C18.0587 20.1841 17.2956 20.5002 16.5 20.5002C15.7044 20.5002 14.9413 20.1841 14.3787 19.6215C13.8161 19.0589 13.5 18.2958 13.5 17.5002C13.5 17.2349 13.3946 16.9806 13.2071 16.7931C13.0196 16.6055 12.7652 16.5002 12.5 16.5002C12.2348 16.5002 11.9804 16.6055 11.7929 16.7931C11.6054 16.9806 11.5 17.2349 11.5 17.5002C11.5002 17.9014 11.4198 18.2986 11.2638 18.6682C11.1077 19.0378 10.8791 19.3724 10.5915 19.6521C10.3038 19.9318 9.96302 20.151 9.58917 20.2967C9.21533 20.4423 8.81606 20.5115 8.415 20.5002C6.8075 20.4552 5.5 19.0727 5.5 17.4164V14.5002C5.5 14.2349 5.60536 13.9806 5.79289 13.7931C5.98043 13.6055 6.23478 13.5002 6.5 13.5002H26.5C26.7652 13.5002 27.0196 13.6055 27.2071 13.7931C27.3946 13.9806 27.5 14.2349 27.5 14.5002V17.4164Z"
            fill="white" />
    </g>
</svg>