<svg width="32" height="33" viewBox="0 0 32 33" fill="none" xmlns="http://www.w3.org/2000/svg">
    <g id="Icon-Martini">
        <path id="Vector"
            d="M29.7073 6.2075C29.8473 6.06764 29.9427 5.88939 29.9813 5.69531C30.02 5.50122 30.0002 5.30003 29.9244 5.11721C29.8487 4.93439 29.7204 4.77815 29.5558 4.66828C29.3912 4.55841 29.1977 4.49984 28.9998 4.5H2.99981C2.80192 4.49984 2.60842 4.55841 2.44383 4.66828C2.27923 4.77815 2.15094 4.93439 2.07519 5.11721C1.99944 5.30003 1.97963 5.50122 2.01828 5.69531C2.05693 5.88939 2.1523 6.06764 2.29231 6.2075L14.9998 18.9137V26.5H10.9998C10.7346 26.5 10.4802 26.6054 10.2927 26.7929C10.1052 26.9804 9.99981 27.2348 9.99981 27.5C9.99981 27.7652 10.1052 28.0196 10.2927 28.2071C10.4802 28.3946 10.7346 28.5 10.9998 28.5H20.9998C21.265 28.5 21.5194 28.3946 21.7069 28.2071C21.8945 28.0196 21.9998 27.7652 21.9998 27.5C21.9998 27.2348 21.8945 26.9804 21.7069 26.7929C21.5194 26.6054 21.265 26.5 20.9998 26.5H16.9998V18.9137L29.7073 6.2075ZM26.5823 6.5L24.5823 8.5H7.41356L5.41356 6.5H26.5823Z"
            fill="white" />
    </g>
</svg>