<svg width="32" height="33" viewBox="0 0 32 33" fill="none" xmlns="http://www.w3.org/2000/svg">
    <g id="Icon-Users">
        <path id="Vector"
            d="M14.6563 20.2401C15.9966 19.3479 17.0141 18.048 17.5584 16.5327C18.1028 15.0174 18.145 13.3671 17.6789 11.826C17.2129 10.2848 16.2632 8.93458 14.9703 7.9749C13.6775 7.01522 12.1102 6.49707 10.5001 6.49707C8.88997 6.49707 7.32261 7.01522 6.02978 7.9749C4.73694 8.93458 3.78726 10.2848 3.32118 11.826C2.85509 13.3671 2.89734 15.0174 3.44168 16.5327C3.98603 18.048 5.00356 19.3479 6.34381 20.2401C3.91943 21.1337 1.84894 22.7872 0.441312 24.9539C0.367332 25.0638 0.315945 25.1874 0.290139 25.3174C0.264332 25.4474 0.264621 25.5812 0.290989 25.7111C0.317356 25.8409 0.369276 25.9643 0.44373 26.0739C0.518185 26.1835 0.613688 26.2773 0.72469 26.3497C0.835692 26.4221 0.959977 26.4717 1.09032 26.4956C1.22067 26.5196 1.35447 26.5174 1.48396 26.4892C1.61344 26.4609 1.73603 26.4073 1.84458 26.3312C1.95314 26.2552 2.04551 26.1584 2.11631 26.0464C3.0243 24.6498 4.26676 23.5023 5.73086 22.7078C7.19496 21.9134 8.83432 21.4973 10.5001 21.4973C12.1658 21.4973 13.8052 21.9134 15.2693 22.7078C16.7334 23.5023 17.9758 24.6498 18.8838 26.0464C19.0305 26.2644 19.257 26.4159 19.5145 26.4681C19.772 26.5204 20.0397 26.4692 20.2598 26.3257C20.4799 26.1822 20.6346 25.9578 20.6906 25.7011C20.7465 25.4444 20.6992 25.176 20.5588 24.9539C19.1512 22.7872 17.0807 21.1337 14.6563 20.2401ZM5.00006 14.0001C5.00006 12.9123 5.32263 11.8489 5.92698 10.9445C6.53133 10.04 7.39031 9.33506 8.3953 8.91878C9.4003 8.50249 10.5062 8.39358 11.5731 8.60579C12.64 8.81801 13.62 9.34184 14.3891 10.111C15.1583 10.8802 15.6822 11.8602 15.8944 12.9271C16.1066 13.994 15.9977 15.0999 15.5814 16.1049C15.1651 17.1099 14.4602 17.9688 13.5557 18.5732C12.6512 19.1775 11.5879 19.5001 10.5001 19.5001C9.04188 19.4985 7.64389 18.9185 6.6128 17.8874C5.58171 16.8563 5.00172 15.4583 5.00006 14.0001ZM31.2676 26.3376C31.0454 26.4825 30.7749 26.5331 30.5154 26.4785C30.2559 26.4239 30.0287 26.2685 29.8838 26.0464C28.9769 24.649 27.7346 23.5009 26.2702 22.7068C24.8058 21.9127 23.1659 21.4979 21.5001 21.5001C21.2348 21.5001 20.9805 21.3948 20.793 21.2072C20.6054 21.0197 20.5001 20.7653 20.5001 20.5001C20.5001 20.2349 20.6054 19.9805 20.793 19.793C20.9805 19.6055 21.2348 19.5001 21.5001 19.5001C22.31 19.4993 23.1098 19.3197 23.8423 18.974C24.5748 18.6283 25.2219 18.1251 25.7373 17.5003C26.2528 16.8756 26.6239 16.1447 26.8242 15.3598C27.0244 14.575 27.0488 13.7557 26.8957 12.9603C26.7426 12.1649 26.4157 11.4132 25.9383 10.7589C25.461 10.1045 24.845 9.56362 24.1344 9.1749C23.4239 8.78619 22.6362 8.55921 21.8277 8.5102C21.0192 8.46118 20.2099 8.59134 19.4576 8.89136C19.3349 8.94439 19.2028 8.97229 19.0692 8.97342C18.9356 8.97455 18.8031 8.94889 18.6795 8.89794C18.556 8.84699 18.4439 8.7718 18.3499 8.6768C18.2559 8.5818 18.1819 8.46893 18.1323 8.34485C18.0827 8.22077 18.0584 8.088 18.0609 7.95439C18.0635 7.82077 18.0928 7.68903 18.1471 7.56693C18.2015 7.44483 18.2797 7.33486 18.3772 7.24352C18.4748 7.15218 18.5897 7.08131 18.7151 7.03511C20.4369 6.34843 22.352 6.32372 24.091 6.96575C25.83 7.60778 27.2696 8.87106 28.1321 10.5119C28.9946 12.1527 29.2189 14.0548 28.7617 15.8513C28.3045 17.6477 27.1982 19.2112 25.6563 20.2401C28.0807 21.1337 30.1512 22.7872 31.5588 24.9539C31.7037 25.176 31.7543 25.4466 31.6997 25.7061C31.6451 25.9655 31.4897 26.1927 31.2676 26.3376Z"
            fill="white" />
    </g>
</svg>