<svg width="32" height="33" viewBox="0 0 32 33" fill="none" xmlns="http://www.w3.org/2000/svg">
    <g id="Icon-PersonSimpleWalk">
        <path id="Vector"
            d="M15 6.5C15 5.70888 15.2346 4.93552 15.6741 4.27772C16.1136 3.61992 16.7383 3.10723 17.4692 2.80448C18.2001 2.50173 19.0044 2.42252 19.7803 2.57686C20.5563 2.7312 21.269 3.11216 21.8284 3.67157C22.3878 4.23098 22.7688 4.94372 22.9231 5.71964C23.0775 6.49556 22.9982 7.29983 22.6955 8.03074C22.3927 8.76164 21.8801 9.38635 21.2223 9.82588C20.5645 10.2654 19.7911 10.5 19 10.5C17.9391 10.5 16.9217 10.0786 16.1715 9.32843C15.4214 8.57828 15 7.56087 15 6.5ZM26 17.5C22.42 17.5 20.7737 15.8375 19.0312 14.0788C18.59 13.6325 18.1337 13.1713 17.6562 12.7563C13.0312 8.73875 5.62872 15.5975 5.31622 15.8913C5.13013 16.0745 5.02308 16.3232 5.01795 16.5843C5.01283 16.8454 5.11004 17.0981 5.28881 17.2885C5.46758 17.4788 5.71371 17.5917 5.97461 17.603C6.23551 17.6142 6.49046 17.523 6.68497 17.3488C7.84823 16.2978 9.12828 15.384 10.5 14.625C12.2225 13.7025 13.6737 13.3463 14.8375 13.5525L8.08247 29.1013C7.977 29.3444 7.97239 29.6195 8.06966 29.8661C8.16694 30.1127 8.35813 30.3106 8.60122 30.4163C8.72681 30.4718 8.86266 30.5003 8.99997 30.5C9.19486 30.5001 9.38552 30.4432 9.54852 30.3364C9.71153 30.2296 9.83976 30.0775 9.91747 29.8988L14.1162 20.24L18 23.015V29.5C18 29.7652 18.1053 30.0196 18.2929 30.2071C18.4804 30.3946 18.7348 30.5 19 30.5C19.2652 30.5 19.5195 30.3946 19.7071 30.2071C19.8946 30.0196 20 29.7652 20 29.5V22.5C20 22.3408 19.962 22.1839 19.8892 22.0424C19.8163 21.9009 19.7107 21.7788 19.5812 21.6863L14.9312 18.365L16.61 14.5C16.94 14.805 17.2675 15.1338 17.61 15.48C19.3812 17.2738 21.5862 19.5 26 19.5C26.2652 19.5 26.5195 19.3946 26.7071 19.2071C26.8946 19.0196 27 18.7652 27 18.5C27 18.2348 26.8946 17.9804 26.7071 17.7929C26.5195 17.6054 26.2652 17.5 26 17.5Z"
            fill="white" />
    </g>
</svg>