<svg width="33" height="33" viewBox="0 0 33 33" fill="none" xmlns="http://www.w3.org/2000/svg">
    <g id="Icon-Briefcase">
        <path id="Vector"
            d="M19.5 14.5C19.5 14.7652 19.3946 15.0196 19.2071 15.2071C19.0196 15.3946 18.7652 15.5 18.5 15.5H14.5C14.2348 15.5 13.9804 15.3946 13.7929 15.2071C13.6054 15.0196 13.5 14.7652 13.5 14.5C13.5 14.2348 13.6054 13.9804 13.7929 13.7929C13.9804 13.6054 14.2348 13.5 14.5 13.5H18.5C18.7652 13.5 19.0196 13.6054 19.2071 13.7929C19.3946 13.9804 19.5 14.2348 19.5 14.5ZM29.5 9.5V25.5C29.5 26.0304 29.2893 26.5391 28.9142 26.9142C28.5391 27.2893 28.0304 27.5 27.5 27.5H5.5C4.96957 27.5 4.46086 27.2893 4.08579 26.9142C3.71071 26.5391 3.5 26.0304 3.5 25.5V9.5C3.5 8.96957 3.71071 8.46086 4.08579 8.08579C4.46086 7.71071 4.96957 7.5 5.5 7.5H10.5V6.5C10.5 5.70435 10.8161 4.94129 11.3787 4.37868C11.9413 3.81607 12.7044 3.5 13.5 3.5H19.5C20.2956 3.5 21.0587 3.81607 21.6213 4.37868C22.1839 4.94129 22.5 5.70435 22.5 6.5V7.5H27.5C28.0304 7.5 28.5391 7.71071 28.9142 8.08579C29.2893 8.46086 29.5 8.96957 29.5 9.5ZM12.5 7.5H20.5V6.5C20.5 6.23478 20.3946 5.98043 20.2071 5.79289C20.0196 5.60536 19.7652 5.5 19.5 5.5H13.5C13.2348 5.5 12.9804 5.60536 12.7929 5.79289C12.6054 5.98043 12.5 6.23478 12.5 6.5V7.5ZM27.5 14.7013V9.5H5.5V14.7013C8.87528 16.5385 12.6571 17.5007 16.5 17.5C20.3429 17.5007 24.1247 16.5385 27.5 14.7013Z"
            fill="white" />
    </g>
</svg>