<svg width="32" height="33" viewBox="0 0 32 33" fill="none" xmlns="http://www.w3.org/2000/svg">
    <g id="Icon-Handshake">
        <path id="Vector"
            d="M14.97 27.7426C14.9159 27.959 14.7911 28.151 14.6154 28.2883C14.4396 28.4255 14.223 28.5001 14 28.5001C13.9158 28.5005 13.8318 28.4905 13.75 28.4701L9.75002 27.4701C9.63866 27.4422 9.53295 27.3952 9.43752 27.3314L6.43752 25.3314C6.21689 25.1842 6.06377 24.9554 6.01185 24.6953C5.95992 24.4352 6.01345 24.1651 6.16064 23.9445C6.30784 23.7239 6.53665 23.5708 6.79674 23.5188C7.05683 23.4669 7.32689 23.5204 7.54752 23.6676L10.4025 25.5714L14.235 26.5301C14.3631 26.5612 14.4837 26.6172 14.59 26.695C14.6964 26.7729 14.7863 26.8709 14.8546 26.9836C14.9229 27.0963 14.9682 27.2213 14.988 27.3516C15.0078 27.4819 15.0017 27.6148 14.97 27.7426ZM31.5563 15.6851C31.4742 15.9344 31.3436 16.1649 31.172 16.3633C31.0003 16.5618 30.7911 16.7243 30.5563 16.8414L27.5963 18.3214L25.7113 20.2076L20.7113 25.2076C20.5891 25.3297 20.4373 25.4181 20.2709 25.4641C20.1044 25.5101 19.9288 25.5122 19.7613 25.4701L11.7613 23.4701C11.6396 23.4396 11.5247 23.3866 11.4225 23.3139L4.48252 18.3589L1.44752 16.8414C0.973187 16.6043 0.612444 16.1885 0.444609 15.6854C0.276774 15.1824 0.315588 14.6333 0.552517 14.1589L3.65877 7.94764C3.89588 7.47331 4.31167 7.11256 4.81471 6.94473C5.31774 6.77689 5.86684 6.81571 6.34127 7.05264L9.09877 8.42764L15.7238 6.53514C15.9035 6.48373 16.094 6.48373 16.2738 6.53514L22.8988 8.42764L25.6563 7.05264C26.1307 6.81571 26.6798 6.77689 27.1828 6.94473C27.6859 7.11256 28.1017 7.47331 28.3388 7.94764L31.445 14.1589C31.5635 14.3933 31.6343 14.6489 31.6534 14.9109C31.6725 15.1728 31.6395 15.436 31.5563 15.6851ZM23.5 19.5826L20.0363 16.8089C17.5938 18.8089 14.4925 19.0726 11.9225 17.4339C11.6697 17.2731 11.4563 17.0575 11.298 16.8031C11.1396 16.5488 11.0405 16.2621 11.0079 15.9642C10.9752 15.6664 11.0099 15.3651 11.1094 15.0824C11.2088 14.7998 11.3705 14.5431 11.5825 14.3314C11.5855 14.3277 11.5889 14.3244 11.5925 14.3214L17.2 8.88264L16 8.54014L9.69752 10.3414L6.27627 17.1826L12.4263 21.5764L19.6938 23.3926L23.5 19.5826ZM25.78 17.3026L22.3825 10.5001H18.405L13 15.7501C14.5825 16.7614 17.0638 17.0401 19.29 14.7964C19.4639 14.6211 19.6964 14.5164 19.9429 14.5023C20.1894 14.4882 20.4323 14.5658 20.625 14.7201L24.9263 18.1664L25.78 17.3026Z"
            fill="white" />
    </g>
</svg>