<svg width="32" height="33" viewBox="0 0 32 33" fill="none" xmlns="http://www.w3.org/2000/svg">
    <g id="Icon-PoliceCar">
        <path id="Vector"
            d="M12 4.5C12 4.23478 12.1054 3.98043 12.2929 3.79289C12.4804 3.60536 12.7348 3.5 13 3.5H19C19.2652 3.5 19.5196 3.60536 19.7071 3.79289C19.8946 3.98043 20 4.23478 20 4.5C20 4.76522 19.8946 5.01957 19.7071 5.20711C19.5196 5.39464 19.2652 5.5 19 5.5H13C12.7348 5.5 12.4804 5.39464 12.2929 5.20711C12.1054 5.01957 12 4.76522 12 4.5ZM31 15.5C31 15.7652 30.8946 16.0196 30.7071 16.2071C30.5196 16.3946 30.2652 16.5 30 16.5H29V26.5C29 27.0304 28.7893 27.5391 28.4142 27.9142C28.0391 28.2893 27.5304 28.5 27 28.5H24C23.4696 28.5 22.9609 28.2893 22.5858 27.9142C22.2107 27.5391 22 27.0304 22 26.5V24.5H10V26.5C10 27.0304 9.78929 27.5391 9.41421 27.9142C9.03914 28.2893 8.53043 28.5 8 28.5H5C4.46957 28.5 3.96086 28.2893 3.58579 27.9142C3.21071 27.5391 3 27.0304 3 26.5V16.5H2C1.73478 16.5 1.48043 16.3946 1.29289 16.2071C1.10536 16.0196 1 15.7652 1 15.5C1 15.2348 1.10536 14.9804 1.29289 14.7929C1.48043 14.6054 1.73478 14.5 2 14.5H3.42L6.84375 8.5075C7.01869 8.20145 7.27141 7.94707 7.57632 7.77014C7.88123 7.59321 8.22748 7.50002 8.58 7.5H23.42C23.7725 7.50002 24.1188 7.59321 24.4237 7.77014C24.7286 7.94707 24.9813 8.20145 25.1562 8.5075L28.58 14.5H30C30.2652 14.5 30.5196 14.6054 30.7071 14.7929C30.8946 14.9804 31 15.2348 31 15.5ZM11 19.5C11 19.2348 10.8946 18.9804 10.7071 18.7929C10.5196 18.6054 10.2652 18.5 10 18.5H8C7.73478 18.5 7.48043 18.6054 7.29289 18.7929C7.10536 18.9804 7 19.2348 7 19.5C7 19.7652 7.10536 20.0196 7.29289 20.2071C7.48043 20.3946 7.73478 20.5 8 20.5H10C10.2652 20.5 10.5196 20.3946 10.7071 20.2071C10.8946 20.0196 11 19.7652 11 19.5ZM25 19.5C25 19.2348 24.8946 18.9804 24.7071 18.7929C24.5196 18.6054 24.2652 18.5 24 18.5H22C21.7348 18.5 21.4804 18.6054 21.2929 18.7929C21.1054 18.9804 21 19.2348 21 19.5C21 19.7652 21.1054 20.0196 21.2929 20.2071C21.4804 20.3946 21.7348 20.5 22 20.5H24C24.2652 20.5 24.5196 20.3946 24.7071 20.2071C24.8946 20.0196 25 19.7652 25 19.5Z"
            fill="white" />
    </g>
</svg>