<svg width="33" height="33" viewBox="0 0 33 33" fill="none" xmlns="http://www.w3.org/2000/svg">
    <g id="Icon-RoadHorizon">
        <path id="Vector"
            d="M30.375 24.0101L22.21 9.50013H29.46C29.7195 9.50585 29.9715 9.41249 30.1647 9.23903C30.3579 9.06558 30.4778 8.82506 30.5 8.56638C30.5091 8.42959 30.4899 8.2924 30.4437 8.16332C30.3976 8.03424 30.3254 7.91604 30.2316 7.81604C30.1378 7.71605 30.0245 7.63641 29.8986 7.58206C29.7727 7.52772 29.6371 7.49983 29.5 7.50013H3.53373C3.27523 7.49602 3.02479 7.5901 2.83294 7.76339C2.64108 7.93669 2.52209 8.1763 2.49998 8.43388C2.49089 8.57067 2.51003 8.70786 2.5562 8.83694C2.60238 8.96602 2.6746 9.08422 2.76837 9.18422C2.86215 9.28421 2.97549 9.36385 3.10135 9.4182C3.2272 9.47254 3.36289 9.50043 3.49998 9.50013H10.79L2.62498 24.0101C2.52016 24.1964 2.47781 24.4114 2.50413 24.6236C2.53045 24.8357 2.62406 25.0338 2.77123 25.1889C2.86862 25.2889 2.98533 25.368 3.11426 25.4215C3.24319 25.475 3.38165 25.5018 3.52123 25.5001H15C15.1326 25.5001 15.2598 25.4475 15.3535 25.3537C15.4473 25.2599 15.5 25.1327 15.5 25.0001V22.5339C15.4965 22.2758 15.5909 22.026 15.7641 21.8347C15.9373 21.6434 16.1766 21.5247 16.4337 21.5026C16.5705 21.4935 16.7077 21.5127 16.8368 21.5589C16.9659 21.605 17.0841 21.6772 17.1841 21.771C17.2841 21.8648 17.3637 21.9781 17.418 22.104C17.4724 22.2299 17.5003 22.3655 17.5 22.5026V25.0026C17.5 25.1352 17.5527 25.2624 17.6464 25.3562C17.7402 25.45 17.8674 25.5026 18 25.5026H29.4712C29.6108 25.5043 29.7493 25.4775 29.8782 25.424C30.0071 25.3705 30.1238 25.2914 30.2212 25.1914C30.3702 25.037 30.4655 24.8388 30.4932 24.6261C30.5209 24.4134 30.4794 24.1975 30.375 24.0101ZM17.5 18.0001C17.5 18.2653 17.3946 18.5197 17.2071 18.7072C17.0195 18.8948 16.7652 19.0001 16.5 19.0001C16.2348 19.0001 15.9804 18.8948 15.7929 18.7072C15.6053 18.5197 15.5 18.2653 15.5 18.0001V16.0001C15.5 15.7349 15.6053 15.4806 15.7929 15.293C15.9804 15.1055 16.2348 15.0001 16.5 15.0001C16.7652 15.0001 17.0195 15.1055 17.2071 15.293C17.3946 15.4806 17.5 15.7349 17.5 16.0001V18.0001ZM17.5 11.5001C17.5 11.7653 17.3946 12.0197 17.2071 12.2072C17.0195 12.3948 16.7652 12.5001 16.5 12.5001C16.2348 12.5001 15.9804 12.3948 15.7929 12.2072C15.6053 12.0197 15.5 11.7653 15.5 11.5001V10.5001C15.5 10.2349 15.6053 9.98056 15.7929 9.79302C15.9804 9.60549 16.2348 9.50013 16.5 9.50013C16.7652 9.50013 17.0195 9.60549 17.2071 9.79302C17.3946 9.98056 17.5 10.2349 17.5 10.5001V11.5001Z"
            fill="white" />
    </g>
</svg>