<svg width="32" height="33" viewBox="0 0 32 33" fill="none" xmlns="http://www.w3.org/2000/svg">
    <g id="Icon-BeerStein">
        <path id="Vector"
            d="M27 11.5H25V9.5C25 8.17392 24.4732 6.90215 23.5355 5.96447C22.5979 5.02678 21.3261 4.5 20 4.5H18.6025C17.1138 3.225 15.1025 2.5 13 2.5C8.58875 2.5 5 5.64 5 9.5V26.5C5 27.0304 5.21071 27.5391 5.58579 27.9142C5.96086 28.2893 6.46957 28.5 7 28.5H23C23.5304 28.5 24.0391 28.2893 24.4142 27.9142C24.7893 27.5391 25 27.0304 25 26.5V25.5H27C27.7956 25.5 28.5587 25.1839 29.1213 24.6213C29.6839 24.0587 30 23.2956 30 22.5V14.5C30 13.7044 29.6839 12.9413 29.1213 12.3787C28.5587 11.8161 27.7956 11.5 27 11.5ZM13 23.5C13 23.7652 12.8946 24.0196 12.7071 24.2071C12.5196 24.3946 12.2652 24.5 12 24.5C11.7348 24.5 11.4804 24.3946 11.2929 24.2071C11.1054 24.0196 11 23.7652 11 23.5V13.5C11 13.2348 11.1054 12.9804 11.2929 12.7929C11.4804 12.6054 11.7348 12.5 12 12.5C12.2652 12.5 12.5196 12.6054 12.7071 12.7929C12.8946 12.9804 13 13.2348 13 13.5V23.5ZM19 23.5C19 23.7652 18.8946 24.0196 18.7071 24.2071C18.5196 24.3946 18.2652 24.5 18 24.5C17.7348 24.5 17.4804 24.3946 17.2929 24.2071C17.1054 24.0196 17 23.7652 17 23.5V13.5C17 13.2348 17.1054 12.9804 17.2929 12.7929C17.4804 12.6054 17.7348 12.5 18 12.5C18.2652 12.5 18.5196 12.6054 18.7071 12.7929C18.8946 12.9804 19 13.2348 19 13.5V23.5ZM7.125 8.5C7.6825 6.22 10.1062 4.5 13 4.5C14.7338 4.5 16.3825 5.125 17.5263 6.2225C17.7123 6.40057 17.9599 6.49997 18.2175 6.5H20C20.6202 6.50019 21.2251 6.69261 21.7315 7.05078C22.2379 7.40894 22.6208 7.91525 22.8275 8.5H7.125ZM28 22.5C28 22.7652 27.8946 23.0196 27.7071 23.2071C27.5196 23.3946 27.2652 23.5 27 23.5H25V13.5H27C27.2652 13.5 27.5196 13.6054 27.7071 13.7929C27.8946 13.9804 28 14.2348 28 14.5V22.5Z"
            fill="white" />
    </g>
</svg>