<svg width="32" height="33" viewBox="0 0 32 33" fill="none" xmlns="http://www.w3.org/2000/svg">
    <g id="Icon-Brandy">
        <path id="Vector"
            d="M28 11.5C28.0032 9.17559 27.3285 6.90068 26.0588 4.95375C25.9679 4.81444 25.8437 4.69998 25.6975 4.62075C25.5513 4.54152 25.3876 4.50002 25.2213 4.5H6.77876C6.61244 4.50002 6.44875 4.54152 6.30252 4.62075C6.15628 4.69998 6.03211 4.81444 5.94126 4.95375C4.67148 6.90068 3.99687 9.17559 4.00001 11.5C4.00365 14.5084 5.13572 17.4059 7.17246 19.6199C9.2092 21.834 12.0024 23.2034 15 23.4575V27.5H11C10.7348 27.5 10.4804 27.6054 10.2929 27.7929C10.1054 27.9804 10 28.2348 10 28.5C10 28.7652 10.1054 29.0196 10.2929 29.2071C10.4804 29.3946 10.7348 29.5 11 29.5H21C21.2652 29.5 21.5196 29.3946 21.7071 29.2071C21.8947 29.0196 22 28.7652 22 28.5C22 28.2348 21.8947 27.9804 21.7071 27.7929C21.5196 27.6054 21.2652 27.5 21 27.5H17V23.4575C19.9976 23.2034 22.7908 21.834 24.8276 19.6199C26.8643 17.4059 27.9964 14.5084 28 11.5ZM7.33751 6.5H24.6625C25.3718 7.72635 25.8108 9.09015 25.95 10.5H6.05001C6.18922 9.09015 6.6282 7.72635 7.33751 6.5Z"
            fill="white" />
    </g>
</svg>