<svg width="32" height="33" viewBox="0 0 32 33" fill="none" xmlns="http://www.w3.org/2000/svg">
    <g id="Icon-Coffee">
        <path id="Vector"
            d="M26 10.5H4C3.73478 10.5 3.48043 10.6054 3.29289 10.7929C3.10536 10.9804 3 11.2348 3 11.5V17.5C3.00299 19.2025 3.36708 20.885 4.06822 22.4364C4.76937 23.9878 5.79163 25.3728 7.0675 26.5H4C3.73478 26.5 3.48043 26.6054 3.29289 26.7929C3.10536 26.9804 3 27.2348 3 27.5C3 27.7652 3.10536 28.0196 3.29289 28.2071C3.48043 28.3946 3.73478 28.5 4 28.5H26C26.2652 28.5 26.5196 28.3946 26.7071 28.2071C26.8946 28.0196 27 27.7652 27 27.5C27 27.2348 26.8946 26.9804 26.7071 26.7929C26.5196 26.6054 26.2652 26.5 26 26.5H22.9325C24.464 25.1426 25.6254 23.4182 26.3075 21.4888C27.5776 21.4105 28.7701 20.8509 29.642 19.924C30.5139 18.997 30.9995 17.7725 31 16.5V15.5C31 14.1739 30.4732 12.9021 29.5355 11.9645C28.5979 11.0268 27.3261 10.5 26 10.5ZM29 16.5C28.9996 17.147 28.79 17.7765 28.4025 18.2946C28.015 18.8127 27.4705 19.1917 26.85 19.375C26.9491 18.7549 26.9993 18.128 27 17.5V12.6725C27.5848 12.8792 28.0911 13.2621 28.4492 13.7685C28.8074 14.2749 28.9998 14.8798 29 15.5V16.5ZM14 7.5V3.5C14 3.23478 14.1054 2.98043 14.2929 2.79289C14.4804 2.60536 14.7348 2.5 15 2.5C15.2652 2.5 15.5196 2.60536 15.7071 2.79289C15.8946 2.98043 16 3.23478 16 3.5V7.5C16 7.76522 15.8946 8.01957 15.7071 8.20711C15.5196 8.39464 15.2652 8.5 15 8.5C14.7348 8.5 14.4804 8.39464 14.2929 8.20711C14.1054 8.01957 14 7.76522 14 7.5ZM18 7.5V3.5C18 3.23478 18.1054 2.98043 18.2929 2.79289C18.4804 2.60536 18.7348 2.5 19 2.5C19.2652 2.5 19.5196 2.60536 19.7071 2.79289C19.8946 2.98043 20 3.23478 20 3.5V7.5C20 7.76522 19.8946 8.01957 19.7071 8.20711C19.5196 8.39464 19.2652 8.5 19 8.5C18.7348 8.5 18.4804 8.39464 18.2929 8.20711C18.1054 8.01957 18 7.76522 18 7.5ZM10 7.5V3.5C10 3.23478 10.1054 2.98043 10.2929 2.79289C10.4804 2.60536 10.7348 2.5 11 2.5C11.2652 2.5 11.5196 2.60536 11.7071 2.79289C11.8946 2.98043 12 3.23478 12 3.5V7.5C12 7.76522 11.8946 8.01957 11.7071 8.20711C11.5196 8.39464 11.2652 8.5 11 8.5C10.7348 8.5 10.4804 8.39464 10.2929 8.20711C10.1054 8.01957 10 7.76522 10 7.5Z"
            fill="white" />
    </g>
</svg>