<svg width="32" height="32" viewBox="0 0 32 32" fill="none" xmlns="http://www.w3.org/2000/svg">
    <path
        d="M20.909 5.0525C20.6875 3.91264 20.0768 2.88517 19.1814 2.14592C18.2859 1.40667 17.1614 1.00159 16.0002 1C15.735 1 15.4806 1.10536 15.2931 1.29289C15.1056 1.48043 15.0002 1.73478 15.0002 2C15.0002 2.26522 15.1056 2.51957 15.2931 2.70711C15.4806 2.89464 15.735 3 16.0002 3C16.6355 3 17.2543 3.20165 17.7676 3.5759C18.2809 3.95016 18.6622 4.47769 18.8565 5.0825C16.9536 5.35948 15.2138 6.31177 13.955 7.76542C12.6962 9.21907 12.0024 11.0771 12.0002 13C12.0002 18.8438 8.78147 22.75 2.43397 24.625C1.99979 24.7516 1.62132 25.0215 1.36032 25.3909C1.09932 25.7602 0.971206 26.2071 0.996879 26.6586C1.02255 27.1101 1.2005 27.5396 1.50168 27.877C1.80286 28.2144 2.20949 28.4397 2.65522 28.5163C4.534 28.841 6.43733 29.0029 8.34397 29C13.4415 29 19.114 27.8562 23.0352 24.5675C26.3302 21.805 28.0002 17.9125 28.0002 13C27.9981 11.0363 27.2746 9.14179 25.9673 7.67655C24.6599 6.21131 22.8598 5.27747 20.909 5.0525ZM20.0002 7C21.2487 7.00166 22.4657 7.39219 23.4821 8.11733C24.4985 8.84247 25.2637 9.8662 25.6715 11.0463L24.0002 11.875L20.4477 10.1038C20.3088 10.0342 20.1556 9.99803 20.0002 9.99803C19.8449 9.99803 19.6917 10.0342 19.5527 10.1038L16.0002 11.875L14.329 11.04C14.738 9.86121 15.5037 8.83894 16.5199 8.11502C17.5361 7.39109 18.7525 7.00139 20.0002 7ZM21.7502 23.0375C19.5002 24.9212 16.3002 26.195 12.4852 26.7213C9.33262 27.1381 6.1353 27.0791 3.00022 26.5462C10.154 24.4375 13.954 19.7962 14.0002 13.1187L15.5552 13.8962C15.6942 13.9658 15.8474 14.002 16.0027 14.002C16.1581 14.002 16.3113 13.9658 16.4502 13.8962L20.0002 12.1163L23.5527 13.8925C23.6917 13.962 23.8449 13.9982 24.0002 13.9982C24.1556 13.9982 24.3088 13.962 24.4477 13.8925L25.999 13.1175C25.9727 17.355 24.544 20.6925 21.7502 23.0362V23.0375Z"
        fill="white" />
    <path d="M6.56445 2.55273L29.9359 30.9478" stroke="white" stroke-linecap="round" />
</svg>