<svg width="32" height="33" viewBox="0 0 32 33" fill="none" xmlns="http://www.w3.org/2000/svg">
    <path
        d="M20.909 5.5525C20.6875 4.41264 20.0768 3.38517 19.1814 2.64592C18.2859 1.90667 17.1614 1.50159 16.0002 1.5C15.735 1.5 15.4806 1.60536 15.2931 1.79289C15.1056 1.98043 15.0002 2.23478 15.0002 2.5C15.0002 2.76522 15.1056 3.01957 15.2931 3.20711C15.4806 3.39464 15.735 3.5 16.0002 3.5C16.6355 3.5 17.2543 3.70165 17.7676 4.0759C18.2809 4.45016 18.6622 4.97769 18.8565 5.5825C16.9536 5.85948 15.2138 6.81177 13.955 8.26542C12.6962 9.71907 12.0024 11.5771 12.0002 13.5C12.0002 19.3438 8.78147 23.25 2.43397 25.125C1.99979 25.2516 1.62132 25.5215 1.36032 25.8909C1.09932 26.2602 0.971206 26.7071 0.996879 27.1586C1.02255 27.6101 1.2005 28.0396 1.50168 28.377C1.80286 28.7144 2.20949 28.9397 2.65522 29.0163C4.534 29.341 6.43733 29.5029 8.34397 29.5C13.4415 29.5 19.114 28.3562 23.0352 25.0675C26.3302 22.305 28.0002 18.4125 28.0002 13.5C27.9981 11.5363 27.2746 9.64179 25.9673 8.17655C24.6599 6.71131 22.8598 5.77747 20.909 5.5525ZM20.0002 7.5C21.2487 7.50166 22.4657 7.89219 23.4821 8.61733C24.4985 9.34247 25.2637 10.3662 25.6715 11.5463L24.0002 12.375L20.4477 10.6038C20.3088 10.5342 20.1556 10.498 20.0002 10.498C19.8449 10.498 19.6917 10.5342 19.5527 10.6038L16.0002 12.375L14.329 11.54C14.738 10.3612 15.5037 9.33894 16.5199 8.61502C17.5361 7.89109 18.7525 7.50139 20.0002 7.5ZM21.7502 23.5375C19.5002 25.4212 16.3002 26.695 12.4852 27.2213C9.33262 27.6381 6.1353 27.5791 3.00022 27.0462C10.154 24.9375 13.954 20.2962 14.0002 13.6187L15.5552 14.3962C15.6942 14.4658 15.8474 14.502 16.0027 14.502C16.1581 14.502 16.3113 14.4658 16.4502 14.3962L20.0002 12.6163L23.5527 14.3925C23.6917 14.462 23.8449 14.4982 24.0002 14.4982C24.1556 14.4982 24.3088 14.462 24.4477 14.3925L25.999 13.6175C25.9727 17.855 24.544 21.1925 21.7502 23.5362V23.5375Z"
        fill="white" />
</svg>