<svg width="16" height="16" viewBox="0 0 16 16" fill="none" xmlns="http://www.w3.org/2000/svg">
<path d="M15.3189 0.681251C15.2345 0.597297 15.128 0.53917 15.0117 0.513705C14.8955 0.48824 14.7743 0.496496 14.6626 0.537501L0.912623 5.5375C0.79404 5.58248 0.691948 5.66247 0.619904 5.76685C0.547861 5.87123 0.509277 5.99505 0.509277 6.12188C0.509277 6.2487 0.547861 6.37253 0.619904 6.47691C0.691948 6.58128 0.79404 6.66127 0.912623 6.70625L6.28137 8.85L10.2439 4.875L11.1251 5.75625L7.14387 9.7375L9.29387 15.1063C9.34019 15.2225 9.42035 15.3222 9.52399 15.3925C9.62762 15.4627 9.74995 15.5001 9.87512 15.5C10.0014 15.4974 10.124 15.4566 10.2266 15.383C10.3293 15.3093 10.4072 15.2063 10.4501 15.0875L15.4501 1.3375C15.4927 1.22692 15.503 1.10652 15.4797 0.990328C15.4565 0.874137 15.4007 0.766945 15.3189 0.681251Z" fill="white"/>
</svg>
