<svg width="30" height="30" viewBox="0 0 30 30" fill="none" xmlns="http://www.w3.org/2000/svg">
    <path
        d="M25.3125 0H4.6875C2.09867 0 0 2.09867 0 4.6875V25.3125C0 27.9013 2.09867 30 4.6875 30H25.3125C27.9013 30 30 27.9013 30 25.3125V4.6875C30 2.09867 27.9013 0 25.3125 0Z"
        fill="#FF4500" />
    <path
        d="M23 14.7571C23 13.8491 22.2609 13.1279 21.3602 13.1279C20.9168 13.1279 20.5134 13.3014 20.2178 13.582C19.0888 12.7807 17.543 12.26 15.8226 12.1933L16.5752 8.69448L19.0214 9.21521C19.0485 9.82954 19.5591 10.3236 20.191 10.3236C20.8361 10.3236 21.3602 9.80291 21.3602 9.1617C21.3602 8.52073 20.8361 8 20.191 8C19.734 8 19.3306 8.26709 19.1425 8.6544L16.4141 8.08015C16.3334 8.06671 16.2527 8.08015 16.1989 8.12023C16.1317 8.1603 16.0914 8.22701 16.0781 8.30716L15.2446 12.2064C13.4973 12.26 11.9247 12.7807 10.7822 13.5954C10.4745 13.3034 10.0653 13.1408 9.63978 13.1414C8.72581 13.1414 8 13.8757 8 14.7705C8 15.4381 8.40312 15.9989 8.96783 16.2528C8.94077 16.4129 8.92749 16.5732 8.92749 16.7469C8.92749 19.2573 11.8711 21.3006 15.5001 21.3006C19.1292 21.3006 22.0728 19.2707 22.0728 16.7469C22.0728 16.5866 22.0592 16.4129 22.0324 16.2528C22.5969 15.9989 23 15.4247 23 14.7571ZM11.7365 15.9188C11.7365 15.2778 12.2607 14.7571 12.906 14.7571C13.5512 14.7571 14.0753 15.2778 14.0753 15.9188C14.0753 16.5598 13.5512 17.0807 12.906 17.0807C12.2607 17.0939 11.7365 16.5598 11.7365 15.9188ZM18.2824 19.0036C17.4759 19.8049 15.9436 19.8584 15.5001 19.8584C15.0431 19.8584 13.5108 19.7914 12.7176 19.0036C12.5969 18.8834 12.5969 18.6965 12.7176 18.5762C12.8387 18.4563 13.0268 18.4563 13.1478 18.5762C13.6587 19.0838 14.734 19.2573 15.5001 19.2573C16.2663 19.2573 17.3549 19.0838 17.8522 18.5762C17.9732 18.4563 18.1613 18.4563 18.2824 18.5762C18.3898 18.6965 18.3898 18.8834 18.2824 19.0036ZM18.0671 17.0939C17.422 17.0939 16.8979 16.5732 16.8979 15.9322C16.8979 15.2913 17.422 14.7705 18.0671 14.7705C18.7125 14.7705 19.2367 15.2913 19.2367 15.9322C19.2367 16.5598 18.7125 17.0939 18.0671 17.0939Z"
        fill="white" />
</svg>