<svg width="10" height="10" viewBox="0 0 10 10" fill="none" xmlns="http://www.w3.org/2000/svg">
<path fill-rule="evenodd" clip-rule="evenodd" d="M1.81795 0.757359C1.52506 0.464466 1.05018 0.464466 0.757289 0.757359C0.464396 1.05025 0.464396 1.52513 0.757289 1.81802L3.93927 5L0.757289 8.18198C0.464396 8.47487 0.464396 8.94975 0.757289 9.24264C1.05018 9.53553 1.52506 9.53553 1.81795 9.24264L4.99993 6.06066L8.18191 9.24264C8.4748 9.53553 8.94968 9.53553 9.24257 9.24264C9.53546 8.94975 9.53546 8.47487 9.24257 8.18198L6.06059 5L9.24257 1.81802C9.53546 1.52513 9.53546 1.05025 9.24257 0.757359C8.94968 0.464466 8.4748 0.464466 8.18191 0.757359L4.99993 3.93934L1.81795 0.757359Z" fill="#697086"/>
</svg>
