<svg width="16" height="16" viewBox="0 0 16 16" fill="none" xmlns="http://www.w3.org/2000/svg">
<g clip-path="url(#clip0_2636_13717)">
<path d="M8 16C12.4183 16 16 12.4183 16 8C16 3.58172 12.4183 0 8 0C3.58172 0 0 3.58172 0 8C0 12.4183 3.58172 16 8 16Z" fill="#F43939"/>
<path d="M7.31668 9.72224L6.15247 11.1401C6.11423 11.1865 6.08753 11.2412 6.07454 11.2998C6.06155 11.3585 6.06265 11.4194 6.07775 11.4775C6.09285 11.5357 6.12152 11.5894 6.16141 11.6343C6.20129 11.6792 6.25126 11.7141 6.3072 11.7359L7.4451 12.1843C7.50204 12.2067 7.56351 12.215 7.62433 12.2085C7.68515 12.2021 7.74352 12.1811 7.79452 12.1473C7.84552 12.1136 7.88764 12.068 7.91733 12.0146C7.94702 11.9611 7.9634 11.9013 7.9651 11.8401L8.01352 9.98224C8.01538 9.90048 7.99173 9.82017 7.94586 9.75246C7.89999 9.68476 7.83418 9.63302 7.75756 9.60443C7.68094 9.57584 7.59731 9.57182 7.51831 9.59293C7.4393 9.61405 7.36882 9.65924 7.31668 9.72224Z" fill="white"/>
<path d="M7.12311 8.31577L5.3968 7.69577C5.34026 7.67574 5.2798 7.66929 5.22031 7.67697C5.16082 7.68464 5.10398 7.7062 5.05437 7.73992C5.00476 7.77364 4.96379 7.81857 4.93477 7.87106C4.90575 7.92355 4.8895 7.98214 4.88732 8.04209L4.84838 9.26313C4.84655 9.32423 4.85945 9.38487 4.88598 9.43994C4.91252 9.495 4.95191 9.54287 5.00083 9.57951C5.04976 9.61616 5.10678 9.64049 5.16708 9.65046C5.22739 9.66044 5.28921 9.65576 5.34732 9.63682L7.11259 9.05261C7.19039 9.02698 7.25826 8.97772 7.30675 8.9117C7.35523 8.84567 7.38191 8.76616 7.38307 8.68426C7.38423 8.60235 7.35981 8.52212 7.31321 8.45475C7.26661 8.38738 7.20016 8.33622 7.12311 8.3084V8.31577Z" fill="white"/>
<path d="M9.1021 8.5118L10.8705 8.02443C10.9284 8.00858 10.9817 7.97924 11.0261 7.93881C11.0705 7.89838 11.1046 7.84801 11.1258 7.79184C11.147 7.73566 11.1545 7.67527 11.1478 7.61562C11.1411 7.55596 11.1204 7.49874 11.0874 7.44864L10.421 6.42653C10.3876 6.37384 10.3418 6.33016 10.2876 6.29932C10.2334 6.26848 10.1724 6.25143 10.11 6.24966C10.0477 6.2479 9.98582 6.26147 9.92993 6.28919C9.87404 6.3169 9.82581 6.35792 9.78947 6.40863L8.6821 7.89495C8.63269 7.96066 8.60515 8.04022 8.60336 8.12241C8.60158 8.2046 8.62564 8.28528 8.67215 8.35307C8.71866 8.42086 8.78528 8.47234 8.8626 8.50025C8.93993 8.52816 9.02407 8.5311 9.10316 8.50864L9.1021 8.5118Z" fill="white"/>
<path d="M7.82106 4.26219C7.82438 4.19109 7.81085 4.12021 7.78156 4.05533C7.75228 3.99046 7.70807 3.93343 7.65255 3.88889C7.59703 3.84435 7.53177 3.81356 7.46209 3.79904C7.3924 3.78453 7.32028 3.78669 7.25159 3.80535L5.85159 4.1885C5.78153 4.20748 5.71709 4.2431 5.66377 4.29234C5.61044 4.34158 5.56979 4.40298 5.5453 4.4713C5.5208 4.53963 5.51317 4.61286 5.52306 4.68476C5.53296 4.75667 5.56008 4.82512 5.60212 4.88429L7.20843 7.66745C7.22122 7.69013 7.23602 7.71162 7.25264 7.73166C7.31553 7.80731 7.40092 7.86092 7.49639 7.88468C7.59185 7.90845 7.69241 7.90112 7.78342 7.86378C7.87444 7.82643 7.95116 7.76102 8.00242 7.67705C8.05368 7.59308 8.07681 7.49494 8.06843 7.39692L7.82106 4.26219Z" fill="white"/>
<path d="M10.8831 9.78956L9.10631 9.23903C9.028 9.21534 8.94426 9.21664 8.86672 9.24274C8.78919 9.26884 8.72171 9.31844 8.67367 9.38466C8.62562 9.45088 8.5994 9.53042 8.59865 9.61223C8.5979 9.69404 8.62265 9.77405 8.66946 9.84114L9.7221 11.3432C9.75651 11.3923 9.80206 11.4326 9.85501 11.4607C9.90797 11.4889 9.96683 11.5041 10.0268 11.5051C10.0867 11.5061 10.1461 11.493 10.2 11.4667C10.2539 11.4403 10.3008 11.4017 10.3368 11.3538L11.0737 10.3769C11.1092 10.3283 11.1327 10.2719 11.1422 10.2123C11.1518 10.1528 11.147 10.0919 11.1284 10.0346C11.1098 9.97725 11.0779 9.92515 11.0353 9.88255C10.9926 9.83996 10.9405 9.80809 10.8831 9.78956Z" fill="white"/>
</g>
<defs>
<clipPath id="clip0_2636_13717">
<rect width="16" height="16" fill="white"/>
</clipPath>
</defs>
</svg>
