<svg width="18" height="18" viewBox="0 0 18 18" fill="none" xmlns="http://www.w3.org/2000/svg">
<path d="M16.23 12.26L13.69 11.97C13.08 11.9 12.48 12.11 12.05 12.54L10.21 14.38C7.38004 12.94 5.06004 10.63 3.62004 7.78999L5.47004 5.93999C5.90004 5.50999 6.11004 4.90999 6.04004 4.29999L5.75004 1.77999C5.63004 0.769995 4.78004 0.00999451 3.76004 0.00999451H2.03004C0.900041 0.00999451 -0.0399593 0.949994 0.0300407 2.07999C0.560041 10.62 7.39004 17.44 15.92 17.97C17.05 18.04 17.99 17.1 17.99 15.97V14.24C18 13.23 17.24 12.38 16.23 12.26Z" fill="#697086"/>
</svg>
