<svg width="16" height="15" viewBox="0 0 16 15" fill="none" xmlns="http://www.w3.org/2000/svg">
<g clip-path="url(#clip0_3032_34347)">
<path d="M11.5297 4.94122H10.3533C10.0297 4.94122 9.76502 5.20593 9.76502 5.52946C9.76502 5.85299 10.0297 6.11769 10.3533 6.11769H11.5297V12.5883H4.4709V6.11769H5.64737C5.9709 6.11769 6.23561 5.85299 6.23561 5.52946C6.23561 5.20593 5.9709 4.94122 5.64737 4.94122H4.4709C3.82385 4.94122 3.29443 5.47063 3.29443 6.11769V12.5883C3.29443 13.2353 3.82385 13.7648 4.4709 13.7648H11.5297C12.1768 13.7648 12.7062 13.2353 12.7062 12.5883V6.11769C12.7062 5.47063 12.1768 4.94122 11.5297 4.94122Z" fill="white"/>
<path d="M8.00051 9.64708C8.32404 9.64708 8.58875 9.38238 8.58875 9.05885V3.17649H9.64169C9.90639 3.17649 10.0358 2.85885 9.84757 2.67649L8.20639 1.03532C8.08875 0.917671 7.90639 0.917671 7.78875 1.03532L6.14757 2.67649C5.96522 2.85885 6.09463 3.17649 6.35933 3.17649H7.41228V9.05885C7.41228 9.38238 7.67698 9.64708 8.00051 9.64708Z" fill="white"/>
</g>
<defs>
<clipPath id="clip0_3032_34347">
<rect width="14.1176" height="14.1176" fill="white" transform="translate(0.941406 0.235291)"/>
</clipPath>
</defs>
</svg>
