<svg width="110" height="34" viewBox="0 0 110 34" fill="none" xmlns="http://www.w3.org/2000/svg">
<path d="M14.3613 9.32571H9.23784C9.23784 8.432 9.23784 7.69371 9.23784 7.22742C9.23784 6.72228 9.39309 6.29485 9.74242 5.90628C10.0529 5.51771 10.674 5.32342 11.5279 5.32342H12.4206C13.4298 5.36228 13.3522 4.54628 13.3522 3.57485V0.155426C12.7699 0.116569 12.3042 0.0777048 11.9937 0.0388477C11.6443 -9.48719e-06 11.295 0 10.868 0C7.2583 0 5.86098 0.738281 4.92944 2.25371C4.0367 3.264 3.57093 5.09029 3.57093 7.77143V9.36456H1.8631C0.853924 9.36456 0 10.1806 0 11.2297V13.9497H3.64855V34H5.66691C7.64644 34 9.23784 32.4069 9.23784 30.4251V13.9109H11.7996C13.2357 13.9109 14.3613 12.7451 14.3613 11.3463V9.32571Z" fill="#EB5757"/>
<path d="M25.8509 10.4912C19.3689 10.4912 14.1289 15.7369 14.1289 22.2261C14.1289 28.7152 19.3689 33.9609 25.8509 33.9609C32.3329 33.9609 37.5728 28.7152 37.5728 22.2261C37.6116 15.7369 32.3329 10.4912 25.8509 10.4912ZM25.8509 28.9095C22.1635 28.9095 19.1748 25.9175 19.1748 22.2261C19.1748 18.5346 22.1635 15.5426 25.8509 15.5426C29.5382 15.5426 32.5269 18.5346 32.5269 22.2261C32.5269 25.9175 29.5382 28.9095 25.8509 28.9095Z" fill="#EB5757"/>
<path d="M94.4355 13.3673V34.0004H97.1526C98.5499 34.0004 99.7143 32.8347 99.7143 31.4358V10.6084H97.1914C95.6776 10.6084 94.4355 11.8518 94.4355 13.3673Z" fill="#EB5757"/>
<path d="M97.0744 0.116211C95.4054 0.116211 94.0469 1.47621 94.0469 3.14706C94.0469 4.81792 95.4054 6.17793 97.0744 6.17793C98.7434 6.17793 100.102 4.81792 100.102 3.14706C100.102 1.47621 98.7434 0.116211 97.0744 0.116211Z" fill="#EB5757"/>
<path d="M104.333 13.3673V34.0004H107.05C108.447 34.0004 109.612 32.8347 109.612 31.4358V10.6084H107.089C105.575 10.6084 104.333 11.8518 104.333 13.3673Z" fill="#EB5757"/>
<path d="M106.973 6.17793C108.642 6.17793 110 4.81792 110 3.14706C110 1.47621 108.642 0.116211 106.973 0.116211C105.304 0.116211 103.945 1.47621 103.945 3.14706C103.945 4.81792 105.265 6.17793 106.973 6.17793Z" fill="#EB5757"/>
<path d="M52.3997 10.4912C45.9177 10.4912 40.6777 15.7369 40.6777 22.2261H40.7165C40.7165 22.2649 40.6777 22.3426 40.6777 22.3815V33.9609H43.2783C44.6368 33.9609 45.7236 33.3003 45.7236 32.5232V22.2261C45.7236 18.5346 48.7123 15.5426 52.3997 15.5426C56.087 15.5426 59.0758 18.5346 59.0758 22.2261V33.9609H61.6763C63.0348 33.9609 64.1216 33.3003 64.1216 32.4843V22.0318C64.1216 21.9541 64.1216 21.8763 64.0828 21.7986C63.8887 15.5038 58.7264 10.4912 52.3997 10.4912Z" fill="#EB5757"/>
<path d="M78.9095 15.5426C81.0055 15.5426 82.9074 16.5141 84.1107 18.0295C84.5764 18.6123 85.2363 18.9621 85.9349 18.9621H90.1657C88.6131 13.6386 83.4508 9.86948 77.4734 10.5689C72.117 11.1906 67.8086 15.5426 67.2264 20.8661C66.4501 27.9769 71.9618 33.9609 78.8707 33.9609C84.2271 33.9609 88.7296 30.3861 90.1269 25.4901H86.129C85.3527 25.4901 84.5376 25.8009 84.033 26.4226C82.5969 28.1712 80.3068 29.2203 77.7839 28.8318C74.8728 28.4043 72.5051 25.9175 72.1946 23.0032C71.8453 18.9621 74.9893 15.5426 78.9095 15.5426Z" fill="#EB5757"/>
</svg>
